%TF.GenerationSoftware,KiCad,Pcbnew,(6.0.9)*%
%TF.CreationDate,2023-05-26T18:19:01-07:00*%
%TF.ProjectId,DC31_Cnet_Badge_SAO,44433331-5f43-46e6-9574-5f4261646765,rev?*%
%TF.SameCoordinates,Original*%
%TF.FileFunction,Drillmap*%
%TF.FilePolarity,Positive*%
%FSLAX45Y45*%
G04 Gerber Fmt 4.5, Leading zero omitted, Abs format (unit mm)*
G04 Created by KiCad (PCBNEW (6.0.9)) date 2023-05-26 18:19:01*
%MOMM*%
%LPD*%
G01*
G04 APERTURE LIST*
%ADD10C,0.049645*%
%ADD11C,0.200000*%
%ADD12C,0.090000*%
%ADD13C,0.100000*%
G04 APERTURE END LIST*
D10*
X15458622Y-7952541D02*
X15455494Y-7952482D01*
X15146201Y-8162864D02*
X15145768Y-8163113D01*
X10365294Y-13809899D02*
X10367006Y-13813839D01*
X15489758Y-11010597D02*
X15493673Y-11007127D01*
X15795892Y-10594355D02*
X15807936Y-10563221D01*
X15471588Y-9214260D02*
X15470312Y-9214208D01*
X10419441Y-13952588D02*
X10426384Y-13958835D01*
X15449332Y-7952476D02*
X15449332Y-7952476D01*
X10014230Y-12784944D02*
X10016596Y-12809110D01*
X15594561Y-9481897D02*
X15574543Y-9461222D01*
X15636498Y-9526000D02*
X15625181Y-9513902D01*
X14977642Y-14296818D02*
X14974671Y-14293031D01*
X15537296Y-7967573D02*
X15528116Y-7964391D01*
X12270002Y-10004132D02*
X12238577Y-10005405D01*
X15207739Y-8152481D02*
X15207535Y-8152877D01*
X13457979Y-10174903D02*
X13457515Y-10175773D01*
X13457071Y-10176656D02*
X13456647Y-10177549D01*
X15056096Y-11450864D02*
X15056235Y-11448869D01*
X15485608Y-8862550D02*
X15486271Y-8856471D01*
X14966778Y-12923572D02*
X14980368Y-12833729D01*
X14864228Y-11646790D02*
X14866616Y-11646593D01*
X15477635Y-8664465D02*
X15474252Y-8648890D01*
X15684915Y-8111891D02*
X15681620Y-8104109D01*
X15477701Y-9215435D02*
X15476520Y-9215083D01*
X14989660Y-14317775D02*
X14987655Y-14313335D01*
X15873440Y-10296829D02*
X15873440Y-10296829D01*
X14985445Y-14309012D02*
X14983035Y-14304815D01*
X14959420Y-12029201D02*
X14946258Y-11964395D01*
X10035417Y-14282460D02*
X10031818Y-14285888D01*
X14341252Y-14196553D02*
X14354253Y-14182714D01*
X15408573Y-9093479D02*
X15419415Y-9073965D01*
X14983411Y-12184230D02*
X14980368Y-12159610D01*
X14786415Y-8153340D02*
X14783460Y-8153609D01*
X15203086Y-8176851D02*
X15203089Y-8178405D01*
X10055475Y-14268336D02*
X10051215Y-14270747D01*
X13666304Y-9999936D02*
X13664541Y-9999022D01*
X15208933Y-8148847D02*
X15208933Y-8148847D01*
X15713398Y-8223313D02*
X15713398Y-8223313D01*
X15706211Y-8233430D02*
X15707183Y-8231842D01*
X14890141Y-11635300D02*
X15044447Y-11476344D01*
X14283046Y-14256536D02*
X14283046Y-14256536D01*
X15717945Y-8199748D02*
X15717004Y-8198746D01*
X15480597Y-8680101D02*
X15477635Y-8664465D01*
X15472849Y-9214375D02*
X15471588Y-9214260D01*
X10538464Y-14058643D02*
X10552269Y-14074678D01*
X14398813Y-8352369D02*
X14389439Y-8363249D01*
X12982867Y-10036559D02*
X12901456Y-10021946D01*
X15484644Y-8707878D02*
X15483971Y-8701891D01*
X14227163Y-9386101D02*
X14222702Y-9390288D01*
X15768894Y-9731081D02*
X15753704Y-9700746D01*
X15154198Y-8162260D02*
X15153735Y-8162106D01*
X15721873Y-8210187D02*
X15721873Y-8210187D01*
X13460590Y-10170735D02*
X13460030Y-10171543D01*
X15933440Y-10211654D02*
X15935405Y-10208703D01*
X15481097Y-9216816D02*
X15479992Y-9216303D01*
X15447456Y-9013370D02*
X15455280Y-8992552D01*
X10455983Y-13983538D02*
X10463355Y-13989201D01*
X15463106Y-8470347D02*
X15466807Y-8470207D01*
X15946558Y-10183038D02*
X15947100Y-10180501D01*
X15202989Y-8174873D02*
X15203034Y-8175487D01*
X15564050Y-7979246D02*
X15555279Y-7975006D01*
X15710446Y-8227127D02*
X15711812Y-8225334D01*
X15702384Y-9612952D02*
X15683394Y-9584838D01*
X14255749Y-9362322D02*
X14253202Y-9364176D01*
X14260706Y-9358100D02*
X14260825Y-9358592D01*
X10010107Y-14318415D02*
X10008348Y-14322979D01*
X15201983Y-8197038D02*
X15201823Y-8203243D01*
X13455862Y-10179369D02*
X13455862Y-10179369D01*
X13223032Y-10096298D02*
X13143714Y-10073760D01*
X15709638Y-8191465D02*
X15708489Y-8190395D01*
X15454706Y-8470481D02*
X15459016Y-8470438D01*
X15864603Y-10336155D02*
X15865634Y-10328990D01*
X15947538Y-10175873D02*
X15947501Y-10174778D01*
X15252909Y-8054692D02*
X15252909Y-8054692D01*
X15947401Y-10173696D02*
X15947236Y-10172623D01*
X14256782Y-8658645D02*
X14254262Y-8677445D01*
X15318125Y-9211934D02*
X15318125Y-9211934D01*
X13853588Y-9991244D02*
X13853282Y-9992896D01*
X14879755Y-13275510D02*
X14906337Y-13188803D01*
X15293764Y-8011451D02*
X15292553Y-8012615D01*
X15703218Y-8185485D02*
X15702184Y-8177631D01*
X15459120Y-8570334D02*
X15459584Y-8569955D01*
X13875384Y-9959566D02*
X13874476Y-9961174D01*
X15202273Y-8169595D02*
X15202503Y-8171527D01*
X15398551Y-7958629D02*
X15390932Y-7960512D01*
X15207535Y-8152877D02*
X15207310Y-8153277D01*
X14222702Y-9390288D02*
X14217820Y-9394979D01*
X15705216Y-8235145D02*
X15706211Y-8233430D01*
X10059834Y-14987866D02*
X10064300Y-14989847D01*
X15807936Y-10563221D02*
X15819020Y-10531693D01*
X14260498Y-9357111D02*
X14260597Y-9357606D01*
X15024414Y-8174242D02*
X15003535Y-8168592D01*
X13857057Y-10048161D02*
X13857223Y-10050620D01*
X15207062Y-8153687D02*
X15206787Y-8154113D01*
X15708489Y-8190395D02*
X15708489Y-8190395D01*
X14258138Y-9220926D02*
X14260154Y-9354613D01*
X15422676Y-7954308D02*
X15418328Y-7954901D01*
X10567304Y-14092670D02*
X10581269Y-14109213D01*
X15719945Y-8214462D02*
X15720322Y-8213817D01*
X10055467Y-14985668D02*
X10059834Y-14987866D01*
X15351800Y-11106009D02*
X15383487Y-11087119D01*
X13929116Y-9794943D02*
X13919347Y-9819640D01*
X14997524Y-14356788D02*
X14997394Y-14351631D01*
X15870044Y-10306418D02*
X15871180Y-10302466D01*
X14352348Y-8412729D02*
X14341966Y-8428771D01*
X14868983Y-11646250D02*
X14871323Y-11645766D01*
X14400616Y-9161818D02*
X14404619Y-9166367D01*
X14995491Y-14336589D02*
X14994373Y-14331740D01*
X14989687Y-12687882D02*
X14990192Y-12638248D01*
X15501267Y-8523241D02*
X15501279Y-8522726D01*
X15938275Y-10156982D02*
X15935610Y-10153867D01*
X13639332Y-9995833D02*
X13637400Y-9996282D01*
X15300710Y-8005445D02*
X15300710Y-8005445D01*
X15155980Y-8163113D02*
X15155547Y-8162864D01*
X15483222Y-9217992D02*
X15482175Y-9217379D01*
X14363248Y-8396997D02*
X14352348Y-8412729D01*
X14871323Y-11645766D02*
X14873629Y-11645141D01*
X14987651Y-14940679D02*
X14989656Y-14936238D01*
X10010104Y-14935586D02*
X10012083Y-14940058D01*
X14252745Y-8741322D02*
X14253022Y-8760799D01*
X10097664Y-14256658D02*
X10092732Y-14257024D01*
X14351535Y-9113424D02*
X14351725Y-9113771D01*
X15202234Y-8191438D02*
X15202097Y-8194145D01*
X15151356Y-8161692D02*
X15150874Y-8161680D01*
X15208397Y-8150841D02*
X15208250Y-8151271D01*
X12500312Y-10002481D02*
X12358781Y-10002783D01*
X15148482Y-8161976D02*
X15148013Y-8162106D01*
X10102621Y-14997473D02*
X14897427Y-14997473D01*
X14266019Y-9202650D02*
X14265140Y-9203485D01*
X14259463Y-9212580D02*
X14259100Y-9213724D01*
X15045880Y-11418985D02*
X15044447Y-11417433D01*
X15004593Y-11226445D02*
X15041287Y-11220199D01*
X15501279Y-8522726D02*
X15501267Y-8522211D01*
X14949338Y-14271061D02*
X14945146Y-14268647D01*
X15501083Y-8520691D02*
X15500974Y-8520195D01*
X14253202Y-9364176D02*
X14251942Y-9365121D01*
X14342991Y-9081607D02*
X14342991Y-9081607D01*
X10016687Y-14948694D02*
X10019306Y-14952843D01*
X15847416Y-9955931D02*
X15839246Y-9922638D01*
X14355367Y-9118054D02*
X14356755Y-9119443D01*
X14256743Y-8844205D02*
X14259225Y-8859587D01*
X14192077Y-9420709D02*
X14174074Y-9439116D01*
X15501230Y-8521700D02*
X15501168Y-8521193D01*
X14269286Y-8906093D02*
X14273471Y-8921604D01*
X15487363Y-8826494D02*
X15487301Y-8814214D01*
X15491695Y-9226465D02*
X15491034Y-9225449D01*
X15453704Y-8572374D02*
X15454287Y-8572320D01*
X15656806Y-8060083D02*
X15651851Y-8053245D01*
X15208801Y-8149397D02*
X15208669Y-8149910D01*
X10019637Y-12833729D02*
X10019637Y-12833729D01*
X15055541Y-11438917D02*
X15055125Y-11436956D01*
X14997524Y-14897221D02*
X14997524Y-14356788D01*
X10704588Y-10748747D02*
X10662957Y-10792474D01*
X14206392Y-9406255D02*
X14192077Y-9420709D01*
X15911055Y-10128138D02*
X15905858Y-10123023D01*
X13974406Y-9698076D02*
X13962201Y-9721899D01*
X15605084Y-8005445D02*
X15605084Y-8005445D01*
X15498321Y-8515388D02*
X15454706Y-8470481D01*
X14977636Y-14957196D02*
X14980427Y-14953266D01*
X14272798Y-8584592D02*
X14267916Y-8602903D01*
X14957316Y-14977549D02*
X14961097Y-14974572D01*
X15796344Y-9793211D02*
X15783111Y-9761910D01*
X15920937Y-10138096D02*
X15916133Y-10133214D01*
X10014230Y-12208403D02*
X10012456Y-12234853D01*
X14595799Y-8205678D02*
X14574554Y-8215985D01*
X10597165Y-14127371D02*
X10614747Y-14146900D01*
X14409044Y-9171260D02*
X14413830Y-9176437D01*
X13647262Y-9995025D02*
X13647262Y-9995025D01*
X13873471Y-9962824D02*
X13872361Y-9964536D01*
X15471374Y-7953144D02*
X15461785Y-7952631D01*
X13853056Y-9995029D02*
X13852906Y-9997590D01*
X15944908Y-10188774D02*
X15944908Y-10188774D01*
X14803738Y-8152567D02*
X14799651Y-8152650D01*
X15052537Y-11429337D02*
X15051658Y-11427507D01*
X15485608Y-8862550D02*
X15485608Y-8862550D01*
X14882397Y-11641271D02*
X14884444Y-11639971D01*
X15341161Y-9187747D02*
X15343550Y-9185011D01*
X14252508Y-8713502D02*
X14252570Y-8725781D01*
X14990496Y-12496695D02*
X14990496Y-12496695D01*
X10361291Y-13801837D02*
X10363395Y-13805917D01*
X15916133Y-10133214D02*
X15911055Y-10128138D01*
X15496709Y-9379546D02*
X15496851Y-9378970D01*
X10006812Y-14327625D02*
X10005503Y-14332346D01*
X14418913Y-9181837D02*
X14424234Y-9187397D01*
X15722526Y-8206989D02*
X15722517Y-8206718D01*
X15488413Y-8467924D02*
X15497530Y-8466377D01*
X15055541Y-11454828D02*
X15055865Y-11452851D01*
X14982472Y-8163666D02*
X14961240Y-8159474D01*
X14349295Y-9100210D02*
X14349295Y-9100210D01*
X15500974Y-8525257D02*
X15501083Y-8524761D01*
X13631777Y-9998198D02*
X13629972Y-9999022D01*
X15885686Y-10275845D02*
X15889713Y-10269684D01*
X15208933Y-8148847D02*
X15208801Y-8149397D01*
X14371687Y-8385528D02*
X14363248Y-8396997D01*
X14996370Y-14912486D02*
X14997007Y-14907469D01*
X15202354Y-8160240D02*
X15202215Y-8160474D01*
X15868914Y-10311080D02*
X15870044Y-10306418D01*
X10008345Y-14931023D02*
X10010104Y-14935586D01*
X10003578Y-14912024D02*
X10004423Y-14916869D01*
X10005501Y-14921656D02*
X10006809Y-14926377D01*
X15499846Y-8528056D02*
X15500089Y-8527614D01*
X14553754Y-8227098D02*
X14533436Y-8239000D01*
X15925309Y-10142628D02*
X15920937Y-10138096D01*
X14250697Y-9366085D02*
X14242800Y-9372432D01*
X15218429Y-8118106D02*
X15216171Y-8124264D01*
X14370948Y-9131665D02*
X14372743Y-9132998D01*
X13887224Y-9918763D02*
X13881055Y-9943363D01*
X15346960Y-7976661D02*
X15339978Y-7980136D01*
X14897436Y-14256536D02*
X14283046Y-14256536D01*
X15699415Y-8160699D02*
X15697638Y-8152342D01*
X14374462Y-9134213D02*
X14374462Y-9134213D01*
X14700244Y-13692605D02*
X14742237Y-13611649D01*
X10019311Y-14301158D02*
X10016692Y-14305307D01*
X10476663Y-11019163D02*
X10476663Y-11019163D01*
X14875896Y-11644377D02*
X14878117Y-11643476D01*
X15003535Y-8168592D02*
X14982472Y-8163666D01*
X10078213Y-14994453D02*
X10082994Y-14995532D01*
X14884444Y-11639971D02*
X14886422Y-11638541D01*
X13633619Y-9997466D02*
X13631777Y-9998198D01*
X10719284Y-14256536D02*
X10102629Y-14256536D01*
X14260154Y-9354613D02*
X14260154Y-9354613D01*
X15413985Y-7955577D02*
X15413985Y-7955577D01*
X15678276Y-8326129D02*
X15681729Y-8318615D01*
X15753704Y-9700746D02*
X15737549Y-9670930D01*
X15721673Y-8204273D02*
X15721485Y-8203976D01*
X15144933Y-8163681D02*
X15144532Y-8164001D01*
X15608930Y-8008608D02*
X15607046Y-8007019D01*
X15105786Y-8203830D02*
X15105786Y-8203830D01*
X15045094Y-8180603D02*
X15024414Y-8174242D01*
X15452528Y-8572375D02*
X15453117Y-8572392D01*
X14742237Y-13611649D02*
X14781221Y-13529380D01*
X15869771Y-10089400D02*
X15869771Y-10089400D01*
X14777383Y-8154273D02*
X14753896Y-8157523D01*
X14457711Y-8294169D02*
X14440349Y-8309767D01*
X15054617Y-11435014D02*
X15054016Y-11433095D01*
X15605084Y-8417513D02*
X15607045Y-8415937D01*
X10348020Y-11215558D02*
X10309349Y-11283296D01*
X15455436Y-8572110D02*
X15455998Y-8571954D01*
X14372743Y-9132998D02*
X14374462Y-9134213D01*
X14351414Y-9113129D02*
X14351414Y-9113129D01*
X15722451Y-8206185D02*
X15722394Y-8205920D01*
X15495789Y-9382363D02*
X15495789Y-9382363D01*
X10019306Y-14952843D02*
X10022131Y-14956868D01*
X15515494Y-8462299D02*
X15524325Y-8459775D01*
X14961240Y-8159474D02*
X14939854Y-8156030D01*
X14997394Y-14351631D02*
X14997008Y-14346541D01*
X10380064Y-13880891D02*
X10382281Y-13896621D01*
X15051658Y-11427507D02*
X15050687Y-11425714D01*
X10079275Y-11857397D02*
X10060793Y-11932275D01*
X15722117Y-8205117D02*
X15721988Y-8204842D01*
X15647259Y-10849361D02*
X15654300Y-10841059D01*
X14556583Y-13926779D02*
X14607380Y-13850251D01*
X14348092Y-9093174D02*
X14348351Y-9094382D01*
X15573355Y-10927230D02*
X15613675Y-10885507D01*
X10028729Y-12895774D02*
X10039608Y-12958125D01*
X15838255Y-10467591D02*
X15846378Y-10435084D01*
X10272823Y-11352070D02*
X10238468Y-11421819D01*
X14086290Y-9530498D02*
X14077676Y-9540122D01*
X15703591Y-8238458D02*
X15703870Y-8237662D01*
X15149146Y-11193575D02*
X15184244Y-11182115D01*
X14380407Y-8374291D02*
X14371687Y-8385528D01*
X14424234Y-9187397D02*
X14429729Y-9193057D01*
X15695454Y-8279487D02*
X15697466Y-8271409D01*
X15616076Y-8407543D02*
X15619628Y-8403955D01*
X13919347Y-9819640D02*
X13910248Y-9844423D01*
X15202637Y-8172437D02*
X15202783Y-8173290D01*
X15865637Y-10057671D02*
X15865637Y-10057671D01*
X10477387Y-13999291D02*
X10481270Y-14002050D01*
X14983035Y-14304815D02*
X14980432Y-14300748D01*
X10028394Y-14289490D02*
X10025165Y-14293242D01*
X14869109Y-11236720D02*
X14886427Y-11236550D01*
X15146643Y-8162639D02*
X15146201Y-8162864D01*
X14922443Y-14994312D02*
X14927193Y-14992960D01*
X14513636Y-8251675D02*
X14494391Y-8265106D01*
X10384212Y-13908702D02*
X10384993Y-13912838D01*
X15155105Y-8162639D02*
X15154655Y-8162438D01*
X14313180Y-9026915D02*
X14320196Y-9041095D01*
X13866637Y-9972457D02*
X13866637Y-9972457D01*
X15573355Y-10927230D02*
X15573355Y-10927230D01*
X14256743Y-8844205D02*
X14256743Y-8844205D01*
X13623185Y-10003205D02*
X13621613Y-10004465D01*
X15500687Y-8526227D02*
X15500842Y-8525746D01*
X14413830Y-9176437D02*
X14418913Y-9181837D01*
X10002604Y-14902191D02*
X10002971Y-14907129D01*
X15438865Y-9033891D02*
X15447456Y-9013370D01*
X13879439Y-9949568D02*
X13878875Y-9951385D01*
X15674595Y-8333519D02*
X15678276Y-8326129D01*
X15709252Y-8228762D02*
X15710446Y-8227127D01*
X15266095Y-8039684D02*
X15262607Y-8043348D01*
X13675848Y-10007235D02*
X13675848Y-10007235D01*
X14946258Y-11964395D02*
X14931337Y-11899914D01*
X14854588Y-11646101D02*
X14856999Y-11646499D01*
X15507892Y-9393685D02*
X15501516Y-9387627D01*
X13635494Y-9996827D02*
X13633619Y-9997466D01*
X15722394Y-8205920D02*
X15722319Y-8205655D01*
X15460028Y-8569545D02*
X15498321Y-8530064D01*
X14922451Y-14259699D02*
X14917609Y-14258578D01*
X15056281Y-11446871D02*
X15056235Y-11444873D01*
X15700932Y-8169130D02*
X15699415Y-8160699D01*
X13855494Y-9987739D02*
X13854537Y-9989188D01*
X14254262Y-8677445D02*
X14253600Y-8683525D01*
X13950568Y-9746019D02*
X13939532Y-9770385D01*
X15449332Y-7952476D02*
X15444781Y-7952575D01*
X15494252Y-9231985D02*
X15493845Y-9230827D01*
X14936397Y-14264424D02*
X14931852Y-14262628D01*
X14971525Y-14289393D02*
X14968211Y-14285912D01*
X15700732Y-8255070D02*
X15701977Y-8246825D01*
X15440285Y-7952757D02*
X15435834Y-7953021D01*
X15712159Y-8193881D02*
X15710874Y-8192640D01*
X15697466Y-8271409D02*
X15699227Y-8263267D01*
X15056096Y-11442879D02*
X15055865Y-11440892D01*
X10030950Y-12083442D02*
X10019637Y-12159610D01*
X14231303Y-9382318D02*
X14227163Y-9386101D01*
X10386823Y-13917995D02*
X10389092Y-13921338D01*
X14854588Y-11646101D02*
X14854588Y-11646101D01*
X15929095Y-10146658D02*
X15929095Y-10146658D01*
X14574554Y-8215985D02*
X14553754Y-8227098D01*
X14387174Y-14146207D02*
X14446443Y-14074839D01*
X15486848Y-8779196D02*
X15486848Y-8779196D01*
X15206146Y-8155034D02*
X15205367Y-8156082D01*
X15202864Y-8173776D02*
X15202932Y-8174303D01*
X15396999Y-9112617D02*
X15408573Y-9093479D01*
X10002481Y-14356788D02*
X10002481Y-14356788D01*
X15319460Y-11123694D02*
X15351800Y-11106009D01*
X14902830Y-11236206D02*
X14917668Y-11235667D01*
X15932556Y-10150439D02*
X15929095Y-10146658D01*
X15721485Y-8203976D02*
X15721277Y-8203669D01*
X10514254Y-14032142D02*
X10519905Y-14038095D01*
X15684951Y-8310985D02*
X15687938Y-8303250D01*
X13894162Y-9894038D02*
X13887224Y-9918763D01*
X15497480Y-9374259D02*
X15497494Y-9373661D01*
X15496383Y-9380686D02*
X15496553Y-9380118D01*
X15497530Y-8466377D02*
X15506560Y-8464501D01*
X14997524Y-14356788D02*
X14997524Y-14356788D01*
X14259100Y-9213724D02*
X14258794Y-9214888D01*
X10019637Y-12159610D02*
X10019637Y-12159610D01*
X15582531Y-8433347D02*
X15590230Y-8428361D01*
X14058253Y-9564368D02*
X14058253Y-9564368D01*
X15049624Y-11469801D02*
X15050687Y-11468045D01*
X10010353Y-12305492D02*
X10009857Y-12355134D01*
X15202576Y-8186726D02*
X15202393Y-8188954D01*
X14869109Y-11236720D02*
X14869109Y-11236720D01*
X14878117Y-11643476D02*
X14880286Y-11642440D01*
X14730561Y-8161714D02*
X14707415Y-8166830D01*
X15202503Y-8171527D02*
X15202637Y-8172437D01*
X15049624Y-11423961D02*
X15048468Y-11422253D01*
X15501516Y-9387627D02*
X15495789Y-9382363D01*
X15497494Y-9373062D02*
X15497494Y-9373062D01*
X14359935Y-9122447D02*
X14361678Y-9124018D01*
X15720322Y-8213817D02*
X15720654Y-8213200D01*
X15506560Y-8464501D02*
X15515494Y-8462299D01*
X13672885Y-10004465D02*
X13671317Y-10003205D01*
X14259902Y-8639944D02*
X14256782Y-8658645D01*
X15693308Y-8135877D02*
X15690761Y-8127781D01*
X15157605Y-8164344D02*
X15157216Y-8164001D01*
X10263975Y-13626021D02*
X10292674Y-13681637D01*
X15454287Y-8572320D02*
X15454865Y-8572232D01*
X14387174Y-14146207D02*
X14387174Y-14146207D01*
X15643187Y-8379625D02*
X15645909Y-8376709D01*
X15597306Y-7999557D02*
X15589298Y-7993988D01*
X15150392Y-8161692D02*
X15149911Y-8161727D01*
X14912680Y-14257695D02*
X14907670Y-14257056D01*
X14985783Y-12208403D02*
X14983411Y-12184230D01*
X15904361Y-10249674D02*
X15910750Y-10241536D01*
X10009857Y-12638248D02*
X10011192Y-12727058D01*
X13671317Y-10003205D02*
X13669695Y-10002029D01*
X15499297Y-8516551D02*
X15498992Y-8516148D01*
X15319746Y-7991850D02*
X15313259Y-7996176D01*
X15232093Y-8087906D02*
X15229064Y-8093824D01*
X13653235Y-9995481D02*
X13651260Y-9995229D01*
X15722517Y-8206718D02*
X15722492Y-8206450D01*
X15717004Y-8198746D02*
X15715915Y-8197621D01*
X15721277Y-8203669D02*
X15720796Y-8203019D01*
X13856571Y-10043760D02*
X13856840Y-10045876D01*
X10044677Y-12007644D02*
X10030950Y-12083442D01*
X15148955Y-8161869D02*
X15148482Y-8161976D01*
X13910248Y-9844423D02*
X13901845Y-9869240D01*
X14783460Y-8153609D02*
X14777383Y-8154273D01*
X15498321Y-8530064D02*
X15498666Y-8529692D01*
X14000431Y-9651538D02*
X13987157Y-9674605D01*
X15148013Y-8162106D02*
X15147550Y-8162260D01*
X14280130Y-9196567D02*
X14278920Y-9196699D01*
X15685899Y-10798371D02*
X15704268Y-10770956D01*
X15435834Y-7953021D02*
X15431421Y-7953367D01*
X14980368Y-12833729D02*
X14983412Y-12809110D01*
X14353115Y-9115613D02*
X14354145Y-9116770D01*
X15384701Y-9131359D02*
X15396999Y-9112617D01*
X15298749Y-8007020D02*
X15297812Y-8007802D01*
X11973934Y-10045529D02*
X11880170Y-10067613D01*
X10793233Y-10661768D02*
X10747971Y-10705225D01*
X14265140Y-9203485D02*
X14265140Y-9203485D01*
X10097655Y-14997350D02*
X10102621Y-14997473D01*
X15454865Y-8572232D02*
X15455436Y-8572110D01*
X14260202Y-9355115D02*
X14260261Y-9355616D01*
X15207924Y-8152085D02*
X15207739Y-8152481D01*
X15737549Y-9670930D02*
X15720439Y-9641658D01*
X14267916Y-8602903D02*
X14263615Y-8621359D01*
X14352300Y-9114606D02*
X14353115Y-9115613D01*
X14970799Y-12094287D02*
X14959420Y-12029201D01*
X13621613Y-10004465D02*
X13620098Y-10005809D01*
X15497809Y-11003349D02*
X15502265Y-10999166D01*
X10082513Y-13145679D02*
X10100080Y-13207920D01*
X15201823Y-8203243D02*
X15201750Y-8209773D01*
X15499582Y-8528485D02*
X15499846Y-8528056D01*
X15719517Y-8215147D02*
X15719945Y-8214462D01*
X14251942Y-9365121D02*
X14250697Y-9366085D01*
X15491034Y-9225449D02*
X15490329Y-9224467D01*
X15455998Y-8571954D02*
X15456551Y-8571765D01*
X15931210Y-10214851D02*
X15933440Y-10211654D01*
X10363395Y-13805917D02*
X10365294Y-13809899D01*
X15670689Y-8340777D02*
X15674595Y-8333519D01*
X13866637Y-9972457D02*
X13862241Y-9978320D01*
X10477387Y-13999291D02*
X10477387Y-13999291D01*
X14914683Y-11835800D02*
X14896323Y-11772098D01*
X15474092Y-9214551D02*
X15472849Y-9214375D01*
X10002971Y-14346877D02*
X10002604Y-14351815D01*
X14980427Y-14953266D02*
X14983031Y-14949199D01*
X14277724Y-9196890D02*
X14276543Y-9197139D01*
X14283018Y-8952443D02*
X14288355Y-8967703D01*
X15205367Y-8156082D02*
X15205367Y-8156082D01*
X15201750Y-8209773D02*
X15157980Y-8164712D01*
X15482175Y-9217379D02*
X15481097Y-9216816D01*
X14258222Y-9218475D02*
X14258149Y-9219696D01*
X15144532Y-8164001D02*
X15144144Y-8164344D01*
X15782904Y-10625059D02*
X15795892Y-10594355D01*
X15210462Y-8142734D02*
X15208933Y-8148847D01*
X15720654Y-8213200D02*
X15720947Y-8212603D01*
X13852830Y-10003777D02*
X13853033Y-10011020D01*
X10662957Y-10792474D02*
X10622952Y-10836549D01*
X15938654Y-10203361D02*
X15939992Y-10200886D01*
X14803738Y-8152567D02*
X14803738Y-8152567D01*
X10292674Y-13681637D02*
X10322555Y-13735825D01*
X13853290Y-10125598D02*
X13852829Y-10137261D01*
X15545162Y-9431042D02*
X15523648Y-9409220D01*
X15444767Y-11045776D02*
X15474291Y-11023348D01*
X14935255Y-8155463D02*
X14929782Y-8154973D01*
X15500510Y-8526699D02*
X15500687Y-8526227D01*
X15708489Y-8190395D02*
X15703218Y-8185485D01*
X15853486Y-10402320D02*
X15859566Y-10369332D01*
X10016692Y-14305307D02*
X10014282Y-14309571D01*
X15945822Y-10185782D02*
X15946558Y-10183038D01*
X15721873Y-8210187D02*
X15722100Y-8209444D01*
X10031812Y-14968114D02*
X10031812Y-14968114D01*
X13857223Y-10050620D02*
X13857338Y-10053258D01*
X15406237Y-7956983D02*
X15398551Y-7958629D01*
X13301535Y-10121429D02*
X13223032Y-10096298D01*
X15605084Y-8417513D02*
X15605084Y-8417513D01*
X15486271Y-8856471D02*
X15486767Y-8850499D01*
X15493384Y-9229695D02*
X15492871Y-9228589D01*
X15550864Y-10950367D02*
X15573355Y-10927230D01*
X14377361Y-14157402D02*
X14387174Y-14146207D01*
X10633766Y-14167555D02*
X10653977Y-14189092D01*
X13456244Y-10178454D02*
X13455862Y-10179369D01*
X14235222Y-9378844D02*
X14231303Y-9382318D01*
X14991448Y-14931686D02*
X14993022Y-14927029D01*
X10937960Y-10536344D02*
X10864277Y-10597651D01*
X15449332Y-7952476D02*
X15449332Y-7952476D01*
X13618642Y-10007235D02*
X13618642Y-10007235D01*
X10008348Y-14322979D02*
X10006812Y-14327625D01*
X15245509Y-8065239D02*
X15241972Y-8070729D01*
X15707183Y-8231842D02*
X15708181Y-8230310D01*
X15335521Y-9193929D02*
X15338472Y-9190731D01*
X13458462Y-10174044D02*
X13457979Y-10174903D01*
X15613675Y-10885507D02*
X15627701Y-10870759D01*
X15466260Y-8617959D02*
X15461669Y-8602619D01*
X15113598Y-11203752D02*
X15149146Y-11193575D01*
X14906337Y-13188803D02*
X14929726Y-13101190D01*
X10176365Y-11564000D02*
X10148667Y-11636311D01*
X14989656Y-14936238D02*
X14991448Y-14931686D01*
X10481270Y-14002050D02*
X10485342Y-14005174D01*
X14980368Y-12159610D02*
X14980368Y-12159610D01*
X14348833Y-9097068D02*
X14349295Y-9100210D01*
X14931337Y-11899914D02*
X14914683Y-11835800D01*
X15461785Y-7952631D02*
X15461785Y-7952631D01*
X15202576Y-8186726D02*
X15202576Y-8186726D01*
X13858388Y-9983608D02*
X13855494Y-9987739D01*
X15451937Y-8572322D02*
X15452528Y-8572375D01*
X13855124Y-10034711D02*
X13855663Y-10038372D01*
X11173360Y-10369990D02*
X11092650Y-10422443D01*
X14259225Y-8859587D02*
X14262150Y-8875051D01*
X15496553Y-9380118D02*
X15496709Y-9379546D01*
X14990192Y-12638248D02*
X14990434Y-12575428D01*
X15693193Y-8287492D02*
X15695454Y-8279487D01*
X15487302Y-8836185D02*
X15487363Y-8826494D01*
X15558442Y-8446516D02*
X15566628Y-8442428D01*
X14914942Y-8154177D02*
X14904940Y-8153847D01*
X15871180Y-10302466D02*
X15872315Y-10299259D01*
X10238468Y-11421819D02*
X10206307Y-11492483D01*
X15202118Y-8160751D02*
X15202042Y-8161160D01*
X15208250Y-8151271D02*
X15208094Y-8151684D01*
X14917668Y-11235667D02*
X14924298Y-11235318D01*
X15498666Y-8515760D02*
X15498321Y-8515388D01*
X14305735Y-8495730D02*
X14298030Y-8513093D01*
X10372346Y-13830298D02*
X10373394Y-13834866D01*
X14253022Y-8760799D02*
X14253618Y-8795816D01*
X14381067Y-9139820D02*
X14382364Y-9141102D01*
X15674300Y-8088902D02*
X15670280Y-8081489D01*
X15202097Y-8194145D02*
X15201983Y-8197038D01*
X15056235Y-11444873D02*
X15056096Y-11442879D01*
X15649806Y-8372270D02*
X15651355Y-8370336D01*
X10014278Y-14944430D02*
X10016687Y-14948694D01*
X15413985Y-7955577D02*
X15406237Y-7956983D01*
X15546356Y-7971114D02*
X15537296Y-7967573D01*
X10622952Y-10836549D02*
X10584446Y-10881113D01*
X14949886Y-13012753D02*
X14966778Y-12923572D01*
X13856063Y-10085992D02*
X13855217Y-10095705D01*
X13657120Y-9996282D02*
X13655189Y-9995833D01*
X13857401Y-10056082D02*
X13857374Y-10062306D01*
X14259569Y-9359543D02*
X14258301Y-9360477D01*
X15065559Y-8187662D02*
X15045094Y-8180603D01*
X10206307Y-11492483D02*
X10176365Y-11564000D01*
X15147550Y-8162260D02*
X15147093Y-8162438D01*
X15704148Y-8237058D02*
X15704148Y-8237058D01*
X15687963Y-8119784D02*
X15684915Y-8111891D01*
X15507142Y-10994481D02*
X15518561Y-10983214D01*
X15458137Y-8571002D02*
X15458637Y-8570684D01*
X15201750Y-8209773D02*
X15201750Y-8209773D01*
X10004424Y-14337134D02*
X10003579Y-14341980D01*
X15638881Y-8038800D02*
X15634712Y-8034462D01*
X15459584Y-8569955D02*
X15460028Y-8569545D01*
X13462382Y-10168397D02*
X13461767Y-10169162D01*
X14070634Y-9548424D02*
X14064412Y-9556231D01*
X13637400Y-9996282D02*
X13635494Y-9996827D01*
X14260883Y-9209283D02*
X14260355Y-9210357D01*
X14929782Y-8154973D02*
X14923117Y-8154548D01*
X10494090Y-14012560D02*
X10498784Y-14016840D01*
X14389439Y-8363249D02*
X14380407Y-8374291D01*
X14346421Y-9087942D02*
X14346820Y-9088927D01*
X12500312Y-10002481D02*
X12500312Y-10002481D01*
X14255899Y-8838104D02*
X14256743Y-8844205D01*
X15457622Y-8571288D02*
X15458137Y-8571002D01*
X10031818Y-14285888D02*
X10028394Y-14289490D01*
X15703037Y-8240596D02*
X15703313Y-8239439D01*
X15326365Y-7987733D02*
X15319746Y-7991850D01*
X14254268Y-8817788D02*
X14254693Y-8825571D01*
X14278920Y-9196699D02*
X14277724Y-9196890D01*
X10051215Y-14270747D02*
X10047072Y-14273369D01*
X15704148Y-8237058D02*
X15705216Y-8235145D01*
X15361245Y-7970373D02*
X15354051Y-7973406D01*
X14408560Y-8341616D02*
X14398813Y-8352369D01*
X15865634Y-10328990D02*
X15866701Y-10322399D01*
X10431702Y-11083431D02*
X10388812Y-11148916D01*
X13655189Y-9995833D02*
X13653235Y-9995481D01*
X15223437Y-8105870D02*
X15220853Y-8111971D01*
X15202215Y-8160474D02*
X15202215Y-8160474D01*
X10073506Y-14260862D02*
X10068866Y-14262398D01*
X15212182Y-8136591D02*
X15210462Y-8142734D01*
X14988839Y-12266307D02*
X14987565Y-12234853D01*
X15286166Y-8019002D02*
X15281697Y-8023573D01*
X13869777Y-9968239D02*
X13866637Y-9972457D01*
X13662738Y-9998198D02*
X13660898Y-9997466D01*
X12163434Y-10012609D02*
X12068404Y-10027170D01*
X10009621Y-12417960D02*
X10009560Y-12496695D01*
X14242800Y-9372432D02*
X14239021Y-9375581D01*
X12901456Y-10021946D02*
X12819466Y-10010025D01*
X14346820Y-9088927D02*
X14347182Y-9089929D01*
X15541641Y-8453771D02*
X15550110Y-8450298D01*
X14924298Y-11235318D02*
X14930293Y-11234912D01*
X15461669Y-8602619D02*
X15456695Y-8587374D01*
X10322555Y-13735825D02*
X10353570Y-13788451D01*
X15619628Y-8403955D02*
X15624097Y-8399385D01*
X14792580Y-8152920D02*
X14789427Y-8153110D01*
X14907670Y-14257056D02*
X14902587Y-14256668D01*
X15208535Y-8150389D02*
X15208397Y-8150841D01*
X10087843Y-14257631D02*
X10083003Y-14258475D01*
X13854199Y-10026924D02*
X13855124Y-10034711D01*
X13852829Y-10137261D02*
X13852172Y-10162271D01*
X10006809Y-14926377D02*
X10008345Y-14931023D01*
X15151837Y-8161727D02*
X15151356Y-8161692D01*
X15152317Y-8161787D02*
X15151837Y-8161727D01*
X15498992Y-8529304D02*
X15499297Y-8528901D01*
X13854537Y-9989188D02*
X13853976Y-9990130D01*
X15294870Y-8010412D02*
X15293764Y-8011451D01*
X15864603Y-10336155D02*
X15864603Y-10336155D01*
X14273111Y-9198227D02*
X14272012Y-9198700D01*
X14262150Y-8875051D02*
X14265508Y-8890564D01*
X10185432Y-13451936D02*
X10210307Y-13511037D01*
X14363248Y-8396997D02*
X14363248Y-8396997D01*
X14258544Y-9216069D02*
X14258354Y-9217265D01*
X10547314Y-10926309D02*
X10511428Y-10972278D01*
X12068404Y-10027170D02*
X11973934Y-10045529D01*
X15704009Y-8237335D02*
X15704148Y-8237058D01*
X15710874Y-8192640D02*
X15709638Y-8191465D01*
X13852832Y-10000525D02*
X13852830Y-10003777D01*
X14260825Y-9358592D02*
X14260825Y-9358592D01*
X15629682Y-8393638D02*
X15639699Y-8383282D01*
X14284285Y-8548463D02*
X14278257Y-8566440D01*
X14258138Y-9220926D02*
X14258138Y-9220926D01*
X15500687Y-8519225D02*
X15500510Y-8518753D01*
X14260330Y-9356115D02*
X14260409Y-9356614D01*
X15157980Y-8164712D02*
X15157980Y-8164712D01*
X15455280Y-8992552D02*
X15462327Y-8971459D01*
X15427038Y-7953796D02*
X15422676Y-7954308D01*
X15703313Y-8239439D02*
X15703591Y-8238458D01*
X15056235Y-11448869D02*
X15056281Y-11446871D01*
X15654300Y-10841059D02*
X15660523Y-10833253D01*
X15572654Y-7983827D02*
X15564050Y-7979246D01*
X15497408Y-9375451D02*
X15497451Y-9374856D01*
X15891113Y-10108986D02*
X15869771Y-10089400D01*
X15478859Y-9215842D02*
X15477701Y-9215435D01*
X15469950Y-8470016D02*
X15469950Y-8470016D01*
X15418328Y-7954901D02*
X15413985Y-7955577D01*
X15532867Y-10968769D02*
X15550864Y-10950367D01*
X15873440Y-10296829D02*
X15877744Y-10289130D01*
X15947432Y-10178127D02*
X15947514Y-10176988D01*
X14639476Y-8187552D02*
X14617452Y-8196195D01*
X14886422Y-11638541D02*
X14888322Y-11636983D01*
X15354051Y-7973406D02*
X15346960Y-7976661D01*
X15660523Y-10833253D02*
X15666682Y-10825118D01*
X15819820Y-9857127D02*
X15808584Y-9824958D01*
X14298030Y-8513093D02*
X14290879Y-8530676D01*
X15944099Y-10164892D02*
X15943342Y-10163692D01*
X15494899Y-9234370D02*
X15494604Y-9233167D01*
X15500310Y-8518290D02*
X15500089Y-8517838D01*
X13853840Y-10114688D02*
X13853290Y-10125598D01*
X15877744Y-10289130D02*
X15881761Y-10282231D01*
X13659024Y-9996827D02*
X13657120Y-9996282D01*
X15044447Y-11417433D02*
X15044447Y-11417433D01*
X10068866Y-14262398D02*
X10064308Y-14264158D01*
X10068858Y-14991607D02*
X10073498Y-14993144D01*
X15629734Y-8029319D02*
X15619663Y-8018993D01*
X14817160Y-13445880D02*
X14850017Y-13361230D01*
X15645142Y-8045441D02*
X15642328Y-8042428D01*
X14707415Y-8166830D02*
X14684495Y-8172852D01*
X14418712Y-8330954D02*
X14408560Y-8341616D01*
X15645909Y-8376709D02*
X15648053Y-8374326D01*
X14880286Y-11642440D02*
X14882397Y-11641271D01*
X10066547Y-13083211D02*
X10082513Y-13145679D01*
X14300096Y-8997742D02*
X14306476Y-9012453D01*
X10377806Y-13863227D02*
X10377806Y-13863227D01*
X10353570Y-13788451D02*
X10353570Y-13788451D01*
X15703870Y-8237662D02*
X15704009Y-8237335D01*
X15501230Y-8523752D02*
X15501267Y-8523241D01*
X15715915Y-8197621D02*
X15714719Y-8196409D01*
X15738405Y-10714259D02*
X15754146Y-10685046D01*
X15475316Y-9214788D02*
X15474092Y-9214551D01*
X10025160Y-14960760D02*
X10028388Y-14964511D01*
X14902578Y-14997341D02*
X14907662Y-14996953D01*
X10064300Y-14989847D02*
X10068858Y-14991607D01*
X15047220Y-11473176D02*
X15048468Y-11471512D01*
X15501279Y-8522726D02*
X15501279Y-8522726D01*
X15497194Y-9377223D02*
X15497280Y-9376635D01*
X14985783Y-12784944D02*
X14987565Y-12758502D01*
X15715471Y-8220677D02*
X15717146Y-8218493D01*
X15501168Y-8521193D02*
X15501083Y-8520691D01*
X13647262Y-9995025D02*
X13645256Y-9995076D01*
X15703218Y-8185485D02*
X15703218Y-8185485D01*
X15155547Y-8162864D02*
X15155105Y-8162639D01*
X10385610Y-13915420D02*
X10385610Y-13915420D01*
X15055865Y-11452851D02*
X15056096Y-11450864D01*
X14377525Y-9136583D02*
X14378649Y-9137563D01*
X15216171Y-8124264D02*
X15214087Y-8130430D01*
X15495789Y-9382363D02*
X15496000Y-9381809D01*
X13460030Y-10171543D02*
X13459488Y-10172364D01*
X14354253Y-14182714D02*
X14366338Y-14169617D01*
X15943186Y-10193737D02*
X15944908Y-10188774D01*
X15313259Y-7996176D02*
X15306912Y-8000709D01*
X15214087Y-8130430D02*
X15212182Y-8136591D01*
X10503703Y-14021524D02*
X10508857Y-14026622D01*
X15157980Y-8164712D02*
X15157605Y-8164344D01*
X13675848Y-10007235D02*
X13674397Y-10005809D01*
X14949330Y-14982952D02*
X14953391Y-14980344D01*
X14253618Y-8795816D02*
X14254268Y-8817788D01*
X15218859Y-11169383D02*
X15252955Y-11155394D01*
X14990434Y-12575428D02*
X14990496Y-12496695D01*
X15338472Y-9190731D02*
X15341161Y-9187747D01*
X15390932Y-7960512D02*
X15383385Y-7962631D01*
X15357967Y-9167576D02*
X15371687Y-9149685D01*
X15722282Y-8208763D02*
X15722417Y-8208134D01*
X15495427Y-9238098D02*
X15495312Y-9236838D01*
X14335113Y-9068474D02*
X14342991Y-9081607D01*
X14929726Y-13101190D02*
X14949886Y-13012753D01*
X14267888Y-9201128D02*
X14266936Y-9201864D01*
X14923117Y-8154548D02*
X14914942Y-8154177D01*
X14281351Y-9196495D02*
X14280130Y-9196567D01*
X14753896Y-8157523D02*
X14730561Y-8161714D01*
X15499582Y-8516967D02*
X15499297Y-8516551D01*
X10016596Y-12809110D02*
X10019637Y-12833729D01*
X15206482Y-8154560D02*
X15206146Y-8155034D01*
X12212159Y-10007187D02*
X12188020Y-10009561D01*
X14904940Y-8153847D02*
X14892792Y-8153546D01*
X15910750Y-10241536D02*
X15919101Y-10230927D01*
X15486252Y-8744179D02*
X15485601Y-8722207D01*
X13878281Y-9953113D02*
X13877646Y-9954773D01*
X15648053Y-8374326D02*
X15649806Y-8372270D01*
X15702184Y-8177631D02*
X15700932Y-8169130D01*
X14349917Y-9104584D02*
X14350522Y-9108477D01*
X14273471Y-8921604D02*
X14278053Y-8937065D01*
X14974665Y-14960983D02*
X14977636Y-14957196D01*
X15613241Y-8410342D02*
X15616076Y-8407543D01*
X10082994Y-14995532D02*
X10087834Y-14996377D01*
X15055125Y-11436956D02*
X15054617Y-11435014D01*
X10525817Y-14044490D02*
X10532001Y-14051336D01*
X14927201Y-14261051D02*
X14922451Y-14259699D01*
X15663478Y-9557340D02*
X15658762Y-9551293D01*
X15722492Y-8206450D02*
X15722451Y-8206185D01*
X15486848Y-8779196D02*
X15486252Y-8744179D01*
X15721774Y-10742908D02*
X15738405Y-10714259D01*
X15905858Y-10123023D02*
X15900698Y-10118023D01*
X15608925Y-8414346D02*
X15609897Y-8413484D01*
X14795960Y-8152767D02*
X14792580Y-8152920D01*
X10078221Y-14259553D02*
X10073506Y-14260862D01*
X15105786Y-8203830D02*
X15085795Y-8195409D01*
X10614747Y-14146900D02*
X10633766Y-14167555D01*
X10389092Y-13921338D02*
X10392319Y-13925362D01*
X14361678Y-9124018D02*
X14363490Y-9125604D01*
X15157216Y-8164001D02*
X15156815Y-8163681D01*
X14356755Y-9119443D02*
X14358286Y-9120915D01*
X15829131Y-10499805D02*
X15838255Y-10467591D01*
X14890141Y-11635300D02*
X14890141Y-11635300D01*
X13856704Y-10077217D02*
X13856063Y-10085992D01*
X15153735Y-8162106D02*
X15153266Y-8161976D01*
X15495312Y-9236838D02*
X15495135Y-9235595D01*
X13620098Y-10005809D02*
X13618642Y-10007235D01*
X13877646Y-9954773D02*
X13876959Y-9956387D01*
X15722227Y-8205388D02*
X15722117Y-8205117D01*
X10035411Y-14971542D02*
X10039158Y-14974774D01*
X15722319Y-8205655D02*
X15722227Y-8205388D01*
X10087834Y-14996377D02*
X10092724Y-14996984D01*
X14265508Y-8890564D02*
X14269286Y-8906093D01*
X14260597Y-9357606D02*
X14260706Y-9358100D01*
X15255988Y-8050730D02*
X15254440Y-8052671D01*
X13852906Y-9997590D02*
X13852832Y-10000525D01*
X14263615Y-8621359D02*
X14259902Y-8639944D01*
X15201949Y-8162324D02*
X15201931Y-8163051D01*
X13879983Y-9947640D02*
X13879439Y-9949568D01*
X14252569Y-8703811D02*
X14252508Y-8713502D01*
X15925848Y-10222145D02*
X15931210Y-10214851D01*
X14386636Y-9145592D02*
X14389824Y-9149145D01*
X14268874Y-9200443D02*
X14267888Y-9201128D01*
X10367006Y-13813839D02*
X10368550Y-13817793D01*
X15300710Y-8005445D02*
X15298749Y-8007020D01*
X15276112Y-8029319D02*
X15276112Y-8029319D01*
X15865637Y-10057671D02*
X15860621Y-10023472D01*
X15306912Y-8000709D02*
X15300710Y-8005445D01*
X15941175Y-10198486D02*
X15942231Y-10196117D01*
X15891113Y-10108986D02*
X15891113Y-10108986D01*
X14980368Y-12159610D02*
X14970799Y-12094287D01*
X14320196Y-9041095D02*
X14327510Y-9054959D01*
X15202932Y-8174303D02*
X15202989Y-8174873D01*
X12358781Y-10002783D02*
X12270002Y-10004132D01*
X14985441Y-14945001D02*
X14987651Y-14940679D01*
X11014134Y-10477918D02*
X10937960Y-10536344D01*
X15690686Y-8295415D02*
X15693193Y-8287492D01*
X15509456Y-7959125D02*
X15500008Y-7957052D01*
X15486767Y-8850499D02*
X15487107Y-8843962D01*
X14945139Y-14985366D02*
X14949330Y-14982952D01*
X15325462Y-9204465D02*
X15332344Y-9197306D01*
X10396408Y-13929978D02*
X10401262Y-13935097D01*
X10374362Y-13839728D02*
X10375270Y-13844939D01*
X15286500Y-11140159D02*
X15319460Y-11123694D01*
X14264305Y-9204364D02*
X14263519Y-9205281D01*
X15202042Y-8161160D02*
X15201986Y-8161689D01*
X15651355Y-8370336D02*
X15652885Y-8368317D01*
X14980368Y-12833729D02*
X14980368Y-12833729D01*
X15484237Y-9218652D02*
X15483222Y-9217992D01*
X15208094Y-8151684D02*
X15207924Y-8152085D01*
X10014282Y-14309571D02*
X10012086Y-14313944D01*
X15485962Y-11013857D02*
X15489758Y-11010597D01*
X15613259Y-8012607D02*
X15610935Y-8010406D01*
X15497280Y-9376635D02*
X15497351Y-9376044D01*
X10028388Y-14964511D02*
X10031812Y-14968114D01*
X15452398Y-7952459D02*
X15449332Y-7952476D01*
X10102621Y-14997473D02*
X10102621Y-14997473D01*
X10019637Y-12833729D02*
X10028729Y-12895774D01*
X14856999Y-11646499D02*
X14859414Y-11646746D01*
X14350522Y-9108477D02*
X14351044Y-9111465D01*
X10371202Y-13825967D02*
X10372346Y-13830298D01*
X10358964Y-13797603D02*
X10361291Y-13801837D01*
X14446443Y-14074839D02*
X14502925Y-14001669D01*
X14777383Y-8154273D02*
X14777383Y-8154273D01*
X14825727Y-8152546D02*
X14813435Y-8152498D01*
X15662216Y-8354862D02*
X15666561Y-8347894D01*
X10002481Y-14897221D02*
X10002604Y-14902191D01*
X10009857Y-12355134D02*
X10009621Y-12417960D01*
X11256115Y-10320630D02*
X11173360Y-10369990D01*
X15470312Y-9214208D02*
X15318125Y-9211934D01*
X11787263Y-10093354D02*
X11695360Y-10122680D01*
X15605084Y-8005445D02*
X15597306Y-7999557D01*
X15627701Y-10870759D02*
X15638644Y-10858986D01*
X14258301Y-9360477D02*
X14255749Y-9362322D01*
X15077634Y-11212631D02*
X15113598Y-11203752D01*
X15292553Y-8012615D02*
X15289718Y-8015414D01*
X15201982Y-8165652D02*
X15202097Y-8167600D01*
X14397096Y-9157674D02*
X14400616Y-9161818D01*
X15647413Y-8047934D02*
X15645142Y-8045441D01*
X14964735Y-14282592D02*
X14961104Y-14279441D01*
X10696983Y-14233827D02*
X10719284Y-14256536D01*
X15205367Y-8156082D02*
X15204273Y-8157537D01*
X15485220Y-9219358D02*
X15484237Y-9218652D01*
X10470522Y-13994481D02*
X10477387Y-13999291D01*
X15721988Y-8204842D02*
X15721840Y-8204561D01*
X15153266Y-8161976D02*
X15152793Y-8161869D01*
X14354145Y-9116770D02*
X14355367Y-9118054D01*
X12678560Y-10003315D02*
X12629513Y-10002831D01*
X15895731Y-10113292D02*
X15891113Y-10108986D01*
X10368550Y-13817793D02*
X10369942Y-13821817D01*
X15431421Y-7953367D02*
X15427038Y-7953796D01*
X14262783Y-9206233D02*
X14262098Y-9207219D01*
X15663478Y-9557340D02*
X15663478Y-9557340D01*
X15459016Y-8470438D02*
X15463106Y-8470347D01*
X13852172Y-10162271D02*
X13851858Y-10188567D01*
X14382364Y-9141102D02*
X14383723Y-9142490D01*
X14258354Y-9217265D02*
X14258222Y-9218475D01*
X15910750Y-10241536D02*
X15910750Y-10241536D01*
X15501267Y-8522211D02*
X15501230Y-8521700D01*
X13463667Y-10166911D02*
X13463016Y-10167646D01*
X11880170Y-10067613D02*
X11787263Y-10093354D01*
X14983412Y-12809110D02*
X14985783Y-12784944D01*
X14385146Y-9143986D02*
X14386636Y-9145592D01*
X13857374Y-10062306D02*
X13857142Y-10069336D01*
X15830044Y-9889696D02*
X15819820Y-9857127D01*
X14376454Y-9135700D02*
X14377525Y-9136583D01*
X14151581Y-9462255D02*
X14151581Y-9462255D01*
X15343550Y-9185011D02*
X15343550Y-9185011D01*
X15203066Y-8176145D02*
X15203086Y-8176851D01*
X10309349Y-11283296D02*
X10272823Y-11352070D01*
X13674397Y-10005809D02*
X13672885Y-10004465D01*
X15202393Y-8188954D02*
X15202234Y-8191438D01*
X10161925Y-13391941D02*
X10185432Y-13451936D01*
X15493673Y-11007127D02*
X15497809Y-11003349D01*
X14886427Y-11236550D02*
X14902830Y-11236206D01*
X12819466Y-10010025D02*
X12819466Y-10010025D01*
X15652932Y-9544311D02*
X15645629Y-9536008D01*
X14897436Y-14256536D02*
X14897436Y-14256536D01*
X14533436Y-8239000D02*
X14513636Y-8251675D01*
X14250697Y-9366085D02*
X14250697Y-9366085D01*
X14217820Y-9394979D02*
X14206392Y-9406255D01*
X13628207Y-9999936D02*
X13626485Y-10000939D01*
X14111260Y-9503978D02*
X14097234Y-9518725D01*
X10002481Y-14897221D02*
X10002481Y-14897221D01*
X15624097Y-8399385D02*
X15629682Y-8393638D01*
X15699227Y-8263267D02*
X15700732Y-8255070D01*
X15496851Y-9378970D02*
X15496980Y-9378391D01*
X15681620Y-8104109D02*
X15678081Y-8096444D01*
X14378649Y-9137563D02*
X14379829Y-9138641D01*
X14266936Y-9201864D02*
X14266019Y-9202650D01*
X15590230Y-8428361D02*
X15597751Y-8423081D01*
X10463355Y-13989201D02*
X10470522Y-13994481D01*
X10508857Y-14026622D02*
X10514254Y-14032142D01*
X13881055Y-9943363D02*
X13881055Y-9943363D01*
X15371687Y-9149685D02*
X15384701Y-9131359D01*
X15470457Y-8633385D02*
X15466260Y-8617959D01*
X15206787Y-8154113D02*
X15206482Y-8154560D01*
X15252955Y-11155394D02*
X15286500Y-11140159D01*
X15500008Y-7957052D02*
X15490501Y-7955360D01*
X15054016Y-11433095D02*
X15053322Y-11431201D01*
X15719564Y-8201539D02*
X15718805Y-8200688D01*
X13854482Y-10104676D02*
X13853840Y-10114688D01*
X13853976Y-9990130D02*
X13853976Y-9990130D01*
X10369942Y-13821817D02*
X10371202Y-13825967D01*
X14379829Y-9138641D02*
X14381067Y-9139820D01*
X15610924Y-8412546D02*
X15612030Y-8411506D01*
X15383487Y-11087119D02*
X15414487Y-11067037D01*
X10793233Y-10661768D02*
X10793233Y-10661768D01*
X15947294Y-10179297D02*
X15947432Y-10178127D01*
X14475737Y-8279277D02*
X14457711Y-8294169D01*
X15460028Y-8569545D02*
X15460028Y-8569545D01*
X15156815Y-8163681D02*
X15156403Y-8163385D01*
X10119202Y-13269799D02*
X10139833Y-13331184D01*
X15495478Y-9239375D02*
X15495427Y-9238098D01*
X15666561Y-8347894D02*
X15670689Y-8340777D01*
X10002604Y-14351815D02*
X10002481Y-14356788D01*
X13939532Y-9770385D02*
X13929116Y-9794943D01*
X15940568Y-10159830D02*
X15938275Y-10156982D01*
X14278257Y-8566440D02*
X14272798Y-8584592D01*
X14860789Y-8152981D02*
X14825727Y-8152546D01*
X10123236Y-11709354D02*
X10100097Y-11783070D01*
X15474291Y-11023348D02*
X15474291Y-11023348D01*
X14987565Y-12234853D02*
X14985783Y-12208403D01*
X13143714Y-10073760D02*
X13063639Y-10053838D01*
X15480951Y-7954056D02*
X15471374Y-7953144D01*
X15625181Y-9513902D02*
X15611321Y-9499329D01*
X15528116Y-7964391D02*
X15518831Y-7961573D01*
X15332344Y-9197306D02*
X15335521Y-9193929D01*
X14897427Y-14997473D02*
X14902578Y-14997341D01*
X14347182Y-9089929D02*
X14347512Y-9090961D01*
X14254262Y-8677445D02*
X14254262Y-8677445D01*
X14876283Y-11708850D02*
X14854588Y-11646101D01*
X15202939Y-8182125D02*
X15202785Y-8184310D01*
X15456695Y-8587374D02*
X15451347Y-8572232D01*
X14383723Y-9142490D02*
X14385146Y-9143986D01*
X10406783Y-13940631D02*
X10412875Y-13946491D01*
X15145345Y-8163385D02*
X15144933Y-8163681D01*
X13872361Y-9964536D02*
X13871133Y-9966334D01*
X14968205Y-14968102D02*
X14971519Y-14964621D01*
X10532001Y-14051336D02*
X10538464Y-14058643D01*
X14980432Y-14300748D02*
X14977642Y-14296818D01*
X14014202Y-9628928D02*
X14000431Y-9651538D01*
X10476663Y-11019163D02*
X10431702Y-11083431D01*
X14974671Y-14293031D02*
X14971525Y-14289393D01*
X14274235Y-9197808D02*
X14273111Y-9198227D01*
X15482186Y-11017004D02*
X15485962Y-11013857D01*
X15055865Y-11440892D02*
X15055541Y-11438917D01*
X14322780Y-8461721D02*
X14313987Y-8478601D01*
X15476520Y-9215083D02*
X15475316Y-9214788D01*
X14278053Y-8937065D02*
X14283018Y-8952443D01*
X15493845Y-9230827D02*
X15493384Y-9229695D01*
X15235258Y-8082076D02*
X15232093Y-8087906D01*
X15500089Y-8527614D02*
X15500310Y-8527162D01*
X10092732Y-14257024D02*
X10087843Y-14257631D01*
X12718944Y-10004044D02*
X12678560Y-10003315D01*
X15496980Y-9378391D02*
X15497094Y-9377808D01*
X15666682Y-10825118D02*
X15685899Y-10798371D01*
X15479992Y-9216303D02*
X15478859Y-9215842D01*
X15683394Y-9584838D02*
X15663478Y-9557340D01*
X10002971Y-14907129D02*
X10003578Y-14912024D01*
X14347512Y-9090961D02*
X14347813Y-9092039D01*
X15711812Y-8225334D02*
X15713398Y-8223313D01*
X15479217Y-8469138D02*
X15488413Y-8467924D01*
X15485601Y-8722207D02*
X15485176Y-8714424D01*
X14174074Y-9439116D02*
X14151581Y-9462255D01*
X10388812Y-11148916D02*
X10348020Y-11215558D01*
X14043138Y-9585290D02*
X14028446Y-9606827D01*
X11695360Y-10122680D02*
X11604610Y-10155522D01*
X15492307Y-9227512D02*
X15491695Y-9226465D01*
X15720796Y-8203019D02*
X15720226Y-8202313D01*
X15254440Y-8052671D02*
X15252909Y-8054692D01*
X14393305Y-9153166D02*
X14397096Y-9157674D01*
X15634712Y-8034462D02*
X15629734Y-8029319D01*
X15500974Y-8520195D02*
X15500842Y-8519706D01*
X15533043Y-8456931D02*
X15541641Y-8453771D01*
X15044447Y-11476344D02*
X15045880Y-11474787D01*
X15658762Y-9551293D02*
X15652932Y-9544311D01*
X10011192Y-12266307D02*
X10010353Y-12305492D01*
X15721840Y-8204561D02*
X15721673Y-8204273D01*
X14389824Y-9149145D02*
X14393305Y-9153166D01*
X13464336Y-10166191D02*
X13463667Y-10166911D01*
X15333111Y-7983827D02*
X15326365Y-7987733D01*
X15939992Y-10200886D02*
X15941175Y-10198486D01*
X15704268Y-10770956D02*
X15721774Y-10742908D01*
X14902587Y-14256668D02*
X14897436Y-14256536D01*
X15149432Y-8161787D02*
X15148955Y-8161869D01*
X10382281Y-13896621D02*
X10384212Y-13908702D01*
X15429515Y-9054096D02*
X15438865Y-9033891D01*
X10552269Y-14074678D02*
X10567304Y-14092670D01*
X10009560Y-12496695D02*
X10009857Y-12638248D01*
X15657656Y-8361673D02*
X15662216Y-8354862D01*
X11092650Y-10422443D02*
X11014134Y-10477918D01*
X10092724Y-14996984D02*
X10097655Y-14997350D01*
X15518831Y-7961573D02*
X15509456Y-7959125D01*
X15714719Y-8196409D02*
X15713454Y-8195150D01*
X14276543Y-9197139D02*
X14275379Y-9197445D01*
X10401262Y-13935097D02*
X10406783Y-13940631D01*
X10052230Y-13020648D02*
X10066547Y-13083211D01*
X10004423Y-14916869D02*
X10005501Y-14921656D01*
X13464336Y-10166191D02*
X13464336Y-10166191D01*
X10009560Y-12496695D02*
X10009560Y-12496695D01*
X15500510Y-8518753D02*
X15500310Y-8518290D01*
X15496198Y-9381250D02*
X15496383Y-9380686D01*
X15651851Y-8053245D02*
X15651851Y-8053245D01*
X10047072Y-14273369D02*
X10043052Y-14276197D01*
X10012456Y-12234853D02*
X10011192Y-12266307D01*
X13880518Y-9945579D02*
X13879983Y-9947640D01*
X14861825Y-11646842D02*
X14864228Y-11646790D01*
X10100097Y-11783070D02*
X10079275Y-11857397D01*
X15453117Y-8572392D02*
X15453704Y-8572374D01*
X10373394Y-13834866D02*
X10374362Y-13839728D01*
X14265140Y-9203485D02*
X14264305Y-9204364D01*
X15041287Y-11220199D02*
X15077634Y-11212631D01*
X13626485Y-10000939D02*
X13624810Y-10002029D01*
X15499297Y-8528901D02*
X15499582Y-8528485D01*
X10210307Y-13511037D02*
X10236503Y-13569110D01*
X14351044Y-9111465D02*
X14351252Y-9112489D01*
X15929095Y-10146658D02*
X15925309Y-10142628D01*
X15456551Y-8571765D02*
X15457093Y-8571543D01*
X15846378Y-10435084D02*
X15853486Y-10402320D01*
X14260409Y-9356614D02*
X14260498Y-9357111D01*
X15486167Y-9220108D02*
X15485220Y-9219358D01*
X15044447Y-11417433D02*
X14869109Y-11236720D01*
X10043045Y-14977806D02*
X10047064Y-14980635D01*
X15455494Y-7952482D02*
X15452398Y-7952459D01*
X13457515Y-10175773D02*
X13457071Y-10176656D01*
X14269891Y-9199809D02*
X14268874Y-9200443D01*
X10047064Y-14980635D02*
X10051208Y-14983256D01*
X15720226Y-8202313D02*
X15719564Y-8201539D01*
X15695601Y-8144066D02*
X15693308Y-8135877D01*
X15942503Y-10162452D02*
X15940568Y-10159830D01*
X14988839Y-12727058D02*
X14989687Y-12687882D01*
X14239021Y-9375581D02*
X14235222Y-9378844D01*
X14369101Y-9130237D02*
X14370948Y-9131665D01*
X15629734Y-8029319D02*
X15629734Y-8029319D01*
X14953399Y-14273669D02*
X14949338Y-14271061D01*
X15661530Y-8067073D02*
X15656806Y-8060083D01*
X10051208Y-14983256D02*
X10055467Y-14985668D01*
X15462327Y-8971459D02*
X15468588Y-8950110D01*
X15478721Y-8906722D02*
X15482575Y-8884724D01*
X15085795Y-8195409D02*
X15065559Y-8187662D01*
X14859414Y-11646746D02*
X14861825Y-11646842D01*
X15935405Y-10208703D02*
X15937134Y-10205952D01*
X13669695Y-10002029D02*
X13668023Y-10000939D01*
X15202592Y-8159879D02*
X15202354Y-8160240D01*
X15487107Y-8843962D02*
X15487302Y-8836185D01*
X14028446Y-9606827D02*
X14014202Y-9628928D01*
X15053322Y-11431201D02*
X15052537Y-11429337D01*
X14253600Y-8683525D02*
X14253105Y-8689496D01*
X15499846Y-8517396D02*
X15499582Y-8516967D01*
X14917600Y-14995432D02*
X14922443Y-14994312D01*
X10083003Y-14258475D02*
X10078221Y-14259553D01*
X13463016Y-10167646D02*
X13462382Y-10168397D01*
X14655279Y-13772166D02*
X14700244Y-13692605D01*
X13855663Y-10038372D02*
X13856250Y-10041806D01*
X15652885Y-8368317D02*
X15652885Y-8368317D01*
X15474291Y-11023348D02*
X15482186Y-11017004D01*
X14260261Y-9355616D02*
X14260330Y-9356115D01*
X13641288Y-9995481D02*
X13639332Y-9995833D01*
X14261464Y-9208236D02*
X14260883Y-9209283D01*
X14873629Y-11645141D02*
X14875896Y-11644377D01*
X15651851Y-8053245D02*
X15650678Y-8051741D01*
X15721209Y-8212013D02*
X15721446Y-8211421D01*
X15495478Y-9239375D02*
X15495478Y-9239375D01*
X15666022Y-8074211D02*
X15661530Y-8067073D01*
X15474056Y-8928524D02*
X15478721Y-8906722D01*
X15687938Y-8303250D02*
X15690686Y-8295415D01*
X14494391Y-8265106D02*
X14475737Y-8279277D01*
X15650678Y-8051741D02*
X15649228Y-8050002D01*
X14344362Y-9083891D02*
X14344955Y-9084948D01*
X15722465Y-8207836D02*
X15722499Y-8207546D01*
X15498321Y-8530064D02*
X15498321Y-8530064D01*
X15872315Y-10299259D02*
X15872879Y-10297945D01*
X14347813Y-9092039D02*
X14348092Y-9093174D01*
X15494604Y-9233167D02*
X15494252Y-9231985D01*
X15501083Y-8524761D02*
X15501168Y-8524259D01*
X13878875Y-9951385D02*
X13878281Y-9953113D01*
X15945370Y-10167194D02*
X15944774Y-10166058D01*
X15202215Y-8160474D02*
X15202118Y-8160751D01*
X13618642Y-10007235D02*
X13464336Y-10166191D01*
X15497494Y-9373661D02*
X15497494Y-9373062D01*
X14306476Y-9012453D02*
X14313180Y-9026915D01*
X10511428Y-10972278D02*
X10476663Y-11019163D01*
X15607982Y-8415156D02*
X15608925Y-8414346D01*
X15488786Y-9222608D02*
X15487952Y-9221735D01*
X14341966Y-8428771D02*
X14332108Y-8445106D01*
X15500310Y-8527162D02*
X15500510Y-8526699D01*
X15894037Y-10263460D02*
X15898855Y-10256886D01*
X15498992Y-8516148D02*
X15498666Y-8515760D01*
X10519905Y-14038095D02*
X10525817Y-14044490D01*
X14997524Y-14897221D02*
X14997524Y-14897221D01*
X15946333Y-10169399D02*
X15945889Y-10168306D01*
X15156403Y-8163385D02*
X15155980Y-8163113D01*
X15483128Y-8695790D02*
X15480597Y-8680101D01*
X15935610Y-10153867D02*
X15932556Y-10150439D01*
X15202783Y-8173290D02*
X15202864Y-8173776D01*
X14077676Y-9540122D02*
X14070634Y-9548424D01*
X14912671Y-14996315D02*
X14917600Y-14995432D01*
X10375270Y-13844939D02*
X10376135Y-13850556D01*
X15497494Y-9373062D02*
X15495478Y-9239375D01*
X15808584Y-9824958D02*
X15796344Y-9793211D01*
X10567304Y-14092670D02*
X10567304Y-14092670D01*
X14940823Y-14987580D02*
X14945139Y-14985366D01*
X15458637Y-8570684D02*
X15459120Y-8570334D01*
X15860621Y-10023472D02*
X15854544Y-9989550D01*
X15419415Y-9073965D02*
X15429515Y-9054096D01*
X12778848Y-10006362D02*
X12751947Y-10005050D01*
X14997008Y-14346541D02*
X14996371Y-14341525D01*
X15375918Y-7964983D02*
X15368536Y-7967564D01*
X14936389Y-14989588D02*
X14940823Y-14987580D01*
X14789427Y-8153110D02*
X14786415Y-8153340D01*
X14961104Y-14279441D02*
X14957323Y-14276465D01*
X15919101Y-10230927D02*
X15925848Y-10222145D01*
X15483971Y-8701891D02*
X15483128Y-8695790D01*
X14435337Y-9198757D02*
X14435337Y-9198757D01*
X15469950Y-8470016D02*
X15479217Y-8469138D01*
X15702764Y-8241922D02*
X15703037Y-8240596D01*
X15050687Y-11425714D02*
X15049624Y-11423961D01*
X10102629Y-14256536D02*
X10102629Y-14256536D01*
X14907662Y-14996953D02*
X14912671Y-14996315D01*
X15202785Y-8184310D02*
X15202576Y-8186726D01*
X14997394Y-14902379D02*
X14997524Y-14897221D01*
X15048468Y-11422253D02*
X15047220Y-11420593D01*
X14272012Y-9198700D02*
X14270938Y-9199228D01*
X15881761Y-10282231D02*
X15885686Y-10275845D01*
X14968211Y-14285912D02*
X14964735Y-14282592D01*
X15498321Y-8515388D02*
X15498321Y-8515388D01*
X13664541Y-9999022D02*
X13662738Y-9998198D01*
X15238554Y-8076346D02*
X15235258Y-8082076D01*
X14440349Y-8309767D02*
X14429298Y-8320350D01*
X14365348Y-9127185D02*
X14367226Y-9128737D01*
X15229064Y-8093824D02*
X15226176Y-8099816D01*
X14290879Y-8530676D02*
X14284285Y-8548463D01*
X13855217Y-10095705D02*
X13854482Y-10104676D01*
X14940831Y-14266432D02*
X14936397Y-14264424D01*
X12629513Y-10002831D02*
X12500312Y-10002481D01*
X13853496Y-10018881D02*
X13854199Y-10026924D01*
X14294052Y-8982814D02*
X14300096Y-8997742D01*
X15201931Y-8163051D02*
X15201931Y-8163857D01*
X15497094Y-9377808D02*
X15497194Y-9377223D01*
X15607045Y-8415937D02*
X15607982Y-8415156D01*
X15702495Y-8243408D02*
X15702764Y-8241922D01*
X14983031Y-14949199D02*
X14985441Y-14945001D01*
X15717945Y-8199748D02*
X15717945Y-8199748D01*
X14282581Y-9196483D02*
X14282581Y-9196483D01*
X14799651Y-8152650D02*
X14795960Y-8152767D01*
X13853033Y-10011020D02*
X13853496Y-10018881D01*
X15947004Y-10171552D02*
X15946704Y-10170480D01*
X15497451Y-9374856D02*
X15497480Y-9374259D01*
X14892792Y-8153546D02*
X14860789Y-8152981D01*
X13379165Y-10149128D02*
X13301535Y-10121429D01*
X15492871Y-9228589D02*
X15492307Y-9227512D01*
X14366338Y-14169617D02*
X14377361Y-14157402D01*
X14993025Y-14326984D02*
X14991451Y-14322326D01*
X15719029Y-8215882D02*
X15719517Y-8215147D01*
X14253022Y-8760799D02*
X14253022Y-8760799D01*
X15581075Y-7988743D02*
X15572654Y-7983827D01*
X15612030Y-8411506D02*
X15613241Y-8410342D01*
X14927193Y-14992960D02*
X14931844Y-14991384D01*
X15295897Y-8009474D02*
X15294870Y-8010412D01*
X14917609Y-14258578D02*
X14912680Y-14257695D01*
X15414487Y-11067037D02*
X15444767Y-11045776D01*
X13857142Y-10069336D02*
X13856704Y-10077217D01*
X14270938Y-9199228D02*
X14269891Y-9199809D01*
X15500842Y-8519706D02*
X15500687Y-8519225D01*
X15898855Y-10256886D02*
X15904361Y-10249674D01*
X10039164Y-14279228D02*
X10035417Y-14282460D01*
X15241972Y-8070729D02*
X15238554Y-8076346D01*
X10392319Y-13925362D02*
X10396408Y-13929978D01*
X15053322Y-11462550D02*
X15054016Y-11460654D01*
X10386078Y-13916606D02*
X10386823Y-13917995D01*
X15147093Y-8162438D02*
X15146643Y-8162639D01*
X13645256Y-9995076D02*
X13643263Y-9995229D01*
X15318125Y-9211934D02*
X15325462Y-9204465D01*
X15937134Y-10205952D02*
X15938654Y-10203361D01*
X14684495Y-8172852D02*
X14661836Y-8179765D01*
X10031812Y-14968114D02*
X10035411Y-14971542D01*
X15854544Y-9989550D02*
X15847416Y-9955931D01*
X14343709Y-9082782D02*
X14344362Y-9083891D01*
X15649228Y-8050002D02*
X15647413Y-8047934D01*
X15942231Y-10196117D02*
X15943186Y-10193737D01*
X15867797Y-10316418D02*
X15868914Y-10311080D01*
X15720439Y-9641658D02*
X15702384Y-9612952D01*
X15054016Y-11460654D02*
X15054617Y-11458733D01*
X15639699Y-8383282D02*
X15643187Y-8379625D01*
X13660898Y-9997466D02*
X13659024Y-9996827D01*
X15296869Y-8008612D02*
X15295897Y-8009474D01*
X15143769Y-8164712D02*
X15143769Y-8164712D01*
X14288355Y-8967703D02*
X14294052Y-8982814D01*
X14252764Y-8696034D02*
X14252569Y-8703811D01*
X15044447Y-11476344D02*
X15044447Y-11476344D01*
X15944774Y-10166058D02*
X15944099Y-10164892D01*
X10011192Y-12727058D02*
X10012456Y-12758502D01*
X10498784Y-14016840D02*
X10503703Y-14021524D01*
X14945146Y-14268647D02*
X14940831Y-14266432D01*
X15701977Y-8246825D02*
X15701977Y-8246825D01*
X10448502Y-13977582D02*
X10455983Y-13983538D01*
X10073498Y-14993144D02*
X10078213Y-14994453D01*
X13853282Y-9992896D02*
X13853056Y-9995029D01*
X15500842Y-8525746D02*
X15500974Y-8525257D01*
X14957323Y-14276465D02*
X14953399Y-14273669D01*
X14254693Y-8825571D02*
X14255226Y-8832118D01*
X15281697Y-8023573D02*
X15276112Y-8029319D01*
X15495135Y-9235595D02*
X15494899Y-9234370D01*
X14151581Y-9462255D02*
X14111260Y-9503978D01*
X14404619Y-9166367D02*
X14409044Y-9171260D01*
X11515162Y-10191808D02*
X11427164Y-10231469D01*
X15947236Y-10172623D02*
X15947004Y-10171552D01*
X10005503Y-14332346D02*
X10004424Y-14337134D01*
X14349295Y-9100210D02*
X14349917Y-9104584D01*
X14363490Y-9125604D02*
X14365348Y-9127185D01*
X15889713Y-10269684D02*
X15894037Y-10263460D01*
X10584446Y-10881113D02*
X10547314Y-10926309D01*
X10022131Y-14956868D02*
X10025160Y-14960760D01*
X15383385Y-7962631D02*
X15375918Y-7964983D01*
X15607046Y-8007019D02*
X15605084Y-8005445D01*
X15754146Y-10685046D02*
X15768984Y-10655301D01*
X13629972Y-9999022D02*
X13628207Y-9999936D01*
X15203040Y-8180160D02*
X15202939Y-8182125D01*
X14260355Y-9210357D02*
X14259882Y-9211457D01*
X14896323Y-11772098D02*
X14876283Y-11708850D01*
X14263519Y-9205281D02*
X14262783Y-9206233D01*
X10139833Y-13331184D02*
X10161925Y-13391941D01*
X15466807Y-8470207D02*
X15469950Y-8470016D01*
X15047220Y-11420593D02*
X15045880Y-11418985D01*
X15819020Y-10531693D02*
X15829131Y-10499805D01*
X15713454Y-8195150D02*
X15712159Y-8193881D01*
X15666682Y-10825118D02*
X15666682Y-10825118D01*
X14344955Y-9084948D02*
X14345493Y-9085966D01*
X14607380Y-13850251D02*
X14655279Y-13772166D01*
X15718805Y-8200688D02*
X15717945Y-8199748D01*
X15947514Y-10176988D02*
X15947538Y-10175873D01*
X15670280Y-8081489D02*
X15666022Y-8074211D01*
X13851858Y-10188567D02*
X13675848Y-10007235D01*
X15468588Y-8950110D02*
X15474056Y-8928524D01*
X15502265Y-10999166D02*
X15507142Y-10994481D01*
X15708181Y-8230310D02*
X15709252Y-8228762D01*
X15638644Y-10858986D02*
X15647259Y-10849361D01*
X15518561Y-10983214D02*
X15532867Y-10968769D01*
X15226176Y-8099816D02*
X15223437Y-8105870D01*
X13881055Y-9943363D02*
X13880518Y-9945579D01*
X14961097Y-14974572D02*
X14964729Y-14971421D01*
X12188020Y-10009561D02*
X12163434Y-10012609D01*
X14348597Y-9095675D02*
X14348833Y-9097068D01*
X15050687Y-11468045D02*
X15051658Y-11466249D01*
X15718476Y-8216678D02*
X15719029Y-8215882D01*
X15642328Y-8042428D02*
X15638881Y-8038800D01*
X13668023Y-10000939D02*
X13666304Y-9999936D01*
X14351252Y-9112489D02*
X14351414Y-9113129D01*
X15609897Y-8413484D02*
X15610924Y-8412546D01*
X14375433Y-9134911D02*
X14376454Y-9135700D01*
X13643263Y-9995229D02*
X13641288Y-9995481D01*
X14097234Y-9518725D02*
X14086290Y-9530498D01*
X15487079Y-9220901D02*
X15486167Y-9220108D01*
X15252909Y-8054692D02*
X15249157Y-8059889D01*
X14995489Y-14917422D02*
X14996370Y-14912486D01*
X15690761Y-8127781D02*
X15687963Y-8119784D01*
X14064412Y-9556231D02*
X14058253Y-9564368D01*
X15681729Y-8318615D02*
X15684951Y-8310985D01*
X10385610Y-13915420D02*
X10386078Y-13916606D01*
X14282581Y-9196483D02*
X14281351Y-9196495D01*
X14435337Y-9198757D02*
X14282581Y-9196483D01*
X15524325Y-8459775D02*
X15533043Y-8456931D01*
X13901845Y-9869240D02*
X13894162Y-9894038D01*
X14332108Y-8445106D02*
X14322780Y-8461721D01*
X15869771Y-10089400D02*
X15865637Y-10057671D01*
X10747971Y-10705225D02*
X10704588Y-10748747D01*
X13649268Y-9995076D02*
X13647262Y-9995025D01*
X15702184Y-8177631D02*
X15702184Y-8177631D01*
X15550110Y-8450298D02*
X15558442Y-8446516D01*
X10719284Y-14256536D02*
X10719284Y-14256536D01*
X10412875Y-13946491D02*
X10419441Y-13952588D01*
X10019637Y-12159610D02*
X10016596Y-12184230D01*
X10581269Y-14109213D02*
X10597165Y-14127371D01*
X13876959Y-9956387D02*
X13876209Y-9957978D01*
X15652885Y-8368317D02*
X15657656Y-8361673D01*
X11427164Y-10231469D02*
X11340766Y-10274433D01*
X15629682Y-8393638D02*
X15629682Y-8393638D01*
X14058253Y-9564368D02*
X14043138Y-9585290D01*
X14313987Y-8478601D02*
X14305735Y-8495730D01*
X15203089Y-8178405D02*
X15203040Y-8180160D01*
X10002481Y-14356788D02*
X10002481Y-14897221D01*
X14994371Y-14922272D02*
X14995489Y-14917422D01*
X13871133Y-9966334D02*
X13869777Y-9968239D01*
X15257740Y-8048667D02*
X15255988Y-8050730D01*
X15947501Y-10174778D02*
X15947401Y-10173696D01*
X15859566Y-10369332D02*
X15864603Y-10336155D01*
X14987565Y-12758502D02*
X14988839Y-12727058D01*
X15490501Y-7955360D02*
X15480951Y-7954056D01*
X14967583Y-11231353D02*
X15004593Y-11226445D01*
X15610935Y-8010406D02*
X15608930Y-8008608D01*
X10426384Y-13958835D02*
X10433606Y-13965141D01*
X14888322Y-11636983D02*
X14890141Y-11635300D01*
X14348351Y-9094382D02*
X14348597Y-9095675D01*
X15482575Y-8884724D02*
X15485608Y-8862550D01*
X15184244Y-11182115D02*
X15218859Y-11169383D01*
X15208669Y-8149910D02*
X15208535Y-8150389D01*
X14358286Y-9120915D02*
X14359935Y-9122447D01*
X14996371Y-14341525D02*
X14995491Y-14336589D01*
X14931852Y-14262628D02*
X14927201Y-14261051D01*
X14930293Y-11234912D02*
X14967583Y-11231353D01*
X14429729Y-9193057D02*
X14435337Y-9198757D01*
X14397096Y-9157674D02*
X14397096Y-9157674D01*
X15721446Y-8211421D02*
X15721873Y-8210187D01*
X14953391Y-14980344D02*
X14957316Y-14977549D01*
X13853976Y-9990130D02*
X13853588Y-9991244D01*
X13862241Y-9978320D02*
X13858388Y-9983608D01*
X10012086Y-14313944D02*
X10010107Y-14318415D01*
X15249157Y-8059889D02*
X15245509Y-8065239D01*
X10012083Y-14940058D02*
X10014278Y-14944430D01*
X13651260Y-9995229D02*
X13649268Y-9995076D01*
X14939854Y-8156030D02*
X14935255Y-8155463D01*
X15523648Y-9409220D02*
X15507892Y-9393685D01*
X14258149Y-9219696D02*
X14258138Y-9220926D01*
X10485342Y-14005174D02*
X10489613Y-14008675D01*
X13856250Y-10041806D02*
X13856571Y-10043760D01*
X13063639Y-10053838D02*
X12982867Y-10036559D01*
X13461169Y-10169942D02*
X13460590Y-10170735D01*
X15678081Y-8096444D02*
X15674300Y-8088902D01*
X15444781Y-7952575D02*
X15440285Y-7952757D01*
X15368536Y-7967564D02*
X15361245Y-7970373D01*
X13987157Y-9674605D02*
X13974406Y-9698076D01*
X13455862Y-10179369D02*
X13379165Y-10149128D01*
X15943342Y-10163692D02*
X15942503Y-10162452D01*
X13461767Y-10169162D02*
X13461169Y-10169942D01*
X15768984Y-10655301D02*
X15782904Y-10625059D01*
X15497351Y-9376044D02*
X15497408Y-9375451D01*
X10016596Y-12184230D02*
X10014230Y-12208403D01*
X15500089Y-8517838D02*
X15499846Y-8517396D01*
X10031818Y-14285888D02*
X10031818Y-14285888D01*
X15498666Y-8529692D02*
X15498992Y-8529304D01*
X10064308Y-14264158D02*
X10059842Y-14266139D01*
X15722100Y-8209444D02*
X15722282Y-8208763D01*
X14345980Y-9086959D02*
X14346421Y-9087942D01*
X10441011Y-13971420D02*
X10448502Y-13977582D01*
X15720947Y-8212603D02*
X15721209Y-8212013D01*
X15154655Y-8162438D02*
X15154198Y-8162260D01*
X14259882Y-9211457D02*
X14259463Y-9212580D01*
X15202097Y-8167600D02*
X15202273Y-8169595D01*
X14275379Y-9197445D02*
X14274235Y-9197808D01*
X10102629Y-14256536D02*
X10097664Y-14256658D01*
X15144144Y-8164344D02*
X15143769Y-8164712D01*
X15470312Y-9214208D02*
X15470312Y-9214208D01*
X14860789Y-8152981D02*
X14860789Y-8152981D01*
X15722417Y-8208134D02*
X15722465Y-8207836D01*
X15619663Y-8018993D02*
X15616102Y-8015404D01*
X15149911Y-8161727D02*
X15149432Y-8161787D01*
X14990496Y-12496695D02*
X14990191Y-12355134D01*
X15339978Y-7980136D02*
X15333111Y-7983827D01*
X13459488Y-10172364D02*
X13458965Y-10173197D01*
X10039608Y-12958125D02*
X10052230Y-13020648D01*
X15697638Y-8152342D02*
X15695601Y-8144066D01*
X10022137Y-14297134D02*
X10019311Y-14301158D01*
X15143769Y-8164712D02*
X15105786Y-8203830D01*
X13856840Y-10045876D02*
X13857057Y-10048161D01*
X14897427Y-14997473D02*
X14897427Y-14997473D01*
X15451347Y-8572232D02*
X15451347Y-8572232D01*
X10433606Y-13965141D02*
X10441011Y-13971420D01*
X15483128Y-8695790D02*
X15483128Y-8695790D01*
X12163434Y-10012609D02*
X12163434Y-10012609D01*
X11604610Y-10155522D02*
X11515162Y-10191808D01*
X15944908Y-10188774D02*
X15945822Y-10185782D01*
X14313095Y-14225898D02*
X14341252Y-14196553D01*
X15945889Y-10168306D02*
X15945370Y-10167194D01*
X15574661Y-8438037D02*
X15582531Y-8433347D01*
X10864277Y-10597651D02*
X10793233Y-10661768D01*
X15203034Y-8175487D02*
X15203066Y-8176145D01*
X15872879Y-10297945D02*
X15873440Y-10296829D01*
X15866701Y-10322399D02*
X15867797Y-10316418D01*
X10384993Y-13912838D02*
X10385610Y-13915420D01*
X15461785Y-7952631D02*
X15458622Y-7952541D01*
X13856250Y-10041806D02*
X13856250Y-10041806D01*
X15597751Y-8423081D02*
X15605084Y-8417513D01*
X14253105Y-8689496D02*
X14252764Y-8696034D01*
X13624810Y-10002029D02*
X13623185Y-10003205D01*
X13874476Y-9961174D02*
X13873471Y-9962824D01*
X10043052Y-14276197D02*
X10039164Y-14279228D01*
X15783111Y-9761910D02*
X15768894Y-9731081D01*
X14440349Y-8309767D02*
X14440349Y-8309767D01*
X15616102Y-8015404D02*
X15613259Y-8012607D01*
X14262098Y-9207219D02*
X14261464Y-9208236D01*
X15474252Y-8648890D02*
X15470457Y-8633385D01*
X14997007Y-14907469D02*
X14997394Y-14902379D01*
X14939854Y-8156030D02*
X14939854Y-8156030D01*
X10653977Y-14189092D02*
X10675131Y-14211264D01*
X15713398Y-8223313D02*
X15715471Y-8220677D01*
X12238577Y-10005405D02*
X12212159Y-10007187D01*
X10675131Y-14211264D02*
X10696983Y-14233827D01*
X14781221Y-13529380D02*
X14817160Y-13445880D01*
X15145768Y-8163113D02*
X15145345Y-8163385D01*
X15645629Y-9536008D02*
X15636498Y-9526000D01*
X14367226Y-9128737D02*
X14369101Y-9130237D01*
X14283046Y-14256536D02*
X14313095Y-14225898D01*
X15496000Y-9381809D02*
X15496198Y-9381250D01*
X14990191Y-12355134D02*
X14988839Y-12266307D01*
X15207310Y-8153277D02*
X15207062Y-8153687D01*
X15054617Y-11458733D02*
X15055125Y-11456790D01*
X14987655Y-14313335D02*
X14985445Y-14309012D01*
X15702233Y-8245045D02*
X15702495Y-8243408D01*
X15487301Y-8814214D02*
X15486848Y-8779196D01*
X15202783Y-8173290D02*
X15202783Y-8173290D01*
X15489579Y-9223519D02*
X15488786Y-9222608D01*
X12819466Y-10010025D02*
X12800928Y-10008010D01*
X12751947Y-10005050D02*
X12718944Y-10004044D01*
X10059842Y-14266139D02*
X10055475Y-14268336D01*
X15201986Y-8161689D02*
X15201949Y-8162324D01*
X14345493Y-9085966D02*
X14345980Y-9086959D01*
X10012456Y-12758502D02*
X10014230Y-12784944D01*
X15555279Y-7975006D02*
X15546356Y-7971114D01*
X14258794Y-9214888D02*
X14258544Y-9216069D01*
X15574543Y-9461222D02*
X15545162Y-9431042D01*
X14813435Y-8152498D02*
X14803738Y-8152567D01*
X14342991Y-9081607D02*
X14343709Y-9082782D01*
X15201931Y-8163857D02*
X15201982Y-8165652D01*
X15055125Y-11456790D02*
X15055541Y-11454828D01*
X12800928Y-10008010D02*
X12778848Y-10006362D01*
X15457093Y-8571543D02*
X15457622Y-8571288D01*
X15490329Y-9224467D02*
X15489579Y-9223519D01*
X15259885Y-8046274D02*
X15257740Y-8048667D01*
X10003579Y-14341980D02*
X10002971Y-14346877D01*
X10148667Y-11636311D02*
X10123236Y-11709354D01*
X10025165Y-14293242D02*
X10022137Y-14297134D01*
X10236503Y-13569110D02*
X10263975Y-13626021D01*
X15152793Y-8161869D02*
X15152317Y-8161787D01*
X15611321Y-9499329D02*
X15594561Y-9481897D01*
X10356397Y-13793160D02*
X10358964Y-13797603D01*
X15900698Y-10118023D02*
X15895731Y-10113292D01*
X14993022Y-14927029D02*
X14994371Y-14922272D01*
X13962201Y-9721899D02*
X13950568Y-9746019D01*
X13456647Y-10177549D02*
X13456244Y-10178454D01*
X15947100Y-10180501D02*
X15947294Y-10179297D01*
X14964729Y-14971421D02*
X14968205Y-14968102D01*
X14994373Y-14331740D02*
X14993025Y-14326984D01*
X11340766Y-10274433D02*
X11256115Y-10320630D01*
X14260154Y-9354613D02*
X14260202Y-9355115D01*
X15566628Y-8442428D02*
X15574661Y-8438037D01*
X10376135Y-13850556D02*
X10377806Y-13863227D01*
X15574543Y-9461222D02*
X15574543Y-9461222D01*
X15289718Y-8015414D02*
X15286166Y-8019002D01*
X14502925Y-14001669D02*
X14556583Y-13926779D01*
X15052537Y-11464416D02*
X15053322Y-11462550D01*
X15262607Y-8043348D02*
X15259885Y-8046274D01*
X14930293Y-11234912D02*
X14930293Y-11234912D01*
X13876209Y-9957978D02*
X13875384Y-9959566D01*
X15343550Y-9185011D02*
X15357967Y-9167576D01*
X15451347Y-8572232D02*
X15451937Y-8572322D01*
X10039158Y-14974774D02*
X10043045Y-14977806D01*
X15722499Y-8207546D02*
X15722520Y-8207264D01*
X15487952Y-9221735D02*
X15487079Y-9220901D01*
X14374462Y-9134213D02*
X14375433Y-9134911D01*
X14866616Y-11646593D02*
X14868983Y-11646250D01*
X14971519Y-14964621D02*
X14974665Y-14960983D01*
X14661836Y-8179765D02*
X14639476Y-8187552D01*
X10377806Y-13863227D02*
X10380064Y-13880891D01*
X14351725Y-9113771D02*
X14352300Y-9114606D01*
X15204273Y-8157537D02*
X15203313Y-8158852D01*
X15276112Y-8029319D02*
X15266095Y-8039684D01*
X15946704Y-10170480D02*
X15946333Y-10169399D01*
X15589298Y-7993988D02*
X15581075Y-7988743D01*
X15045880Y-11474787D02*
X15047220Y-11473176D01*
X14931844Y-14991384D02*
X14936389Y-14989588D01*
X15454706Y-8470481D02*
X15454706Y-8470481D01*
X14429298Y-8320350D02*
X14418712Y-8330954D01*
X14850017Y-13361230D02*
X14879755Y-13275510D01*
X15048468Y-11471512D02*
X15049624Y-11469801D01*
X15839246Y-9922638D02*
X15830044Y-9889696D01*
X10489613Y-14008675D02*
X10494090Y-14012560D01*
X14327510Y-9054959D02*
X14335113Y-9068474D01*
X13857338Y-10053258D02*
X13857401Y-10056082D01*
X15722520Y-8207264D02*
X15722526Y-8206989D01*
X13851858Y-10188567D02*
X13851858Y-10188567D01*
X10100080Y-13207920D02*
X10119202Y-13269799D01*
X14260825Y-9358592D02*
X14259569Y-9359543D01*
X10353570Y-13788451D02*
X10356397Y-13793160D01*
X14351414Y-9113129D02*
X14351535Y-9113424D01*
X15297812Y-8007802D02*
X15296869Y-8008612D01*
X10060793Y-11932275D02*
X10044677Y-12007644D01*
X14991451Y-14322326D02*
X14989660Y-14317775D01*
X14252570Y-8725781D02*
X14252745Y-8741322D01*
X13458965Y-10173197D02*
X13458462Y-10174044D01*
X15501168Y-8524259D02*
X15501230Y-8523752D01*
X15220853Y-8111971D02*
X15218429Y-8118106D01*
X15203313Y-8158852D02*
X15202592Y-8159879D01*
X14255226Y-8832118D02*
X14255899Y-8838104D01*
X14617452Y-8196195D02*
X14595799Y-8205678D01*
X13855217Y-10095705D02*
X13855217Y-10095705D01*
X15701977Y-8246825D02*
X15702233Y-8245045D01*
X15150874Y-8161680D02*
X15150392Y-8161692D01*
X15717146Y-8218493D02*
X15718476Y-8216678D01*
X15051658Y-11466249D02*
X15052537Y-11464416D01*
X15485176Y-8714424D02*
X15484644Y-8707878D01*
D11*
D12*
X11639000Y-13163000D02*
X11729000Y-13253000D01*
X11729000Y-13163000D02*
X11639000Y-13253000D01*
X11639000Y-13417000D02*
X11729000Y-13507000D01*
X11729000Y-13417000D02*
X11639000Y-13507000D01*
X12655000Y-12147000D02*
X12745000Y-12237000D01*
X12745000Y-12147000D02*
X12655000Y-12237000D01*
X12909000Y-12147000D02*
X12999000Y-12237000D01*
X12999000Y-12147000D02*
X12909000Y-12237000D01*
X14687000Y-10369000D02*
X14777000Y-10459000D01*
X14777000Y-10369000D02*
X14687000Y-10459000D01*
X14941000Y-10369000D02*
X15031000Y-10459000D01*
X15031000Y-10369000D02*
X14941000Y-10459000D01*
D13*
X12284500Y-14454750D02*
G75*
G03*
X12284500Y-14454750I-50000J0D01*
G01*
X12284500Y-14708750D02*
G75*
G03*
X12284500Y-14708750I-50000J0D01*
G01*
X12538500Y-14454750D02*
G75*
G03*
X12538500Y-14454750I-50000J0D01*
G01*
X12538500Y-14708750D02*
G75*
G03*
X12538500Y-14708750I-50000J0D01*
G01*
X12792500Y-14454750D02*
G75*
G03*
X12792500Y-14454750I-50000J0D01*
G01*
X12792500Y-14708750D02*
G75*
G03*
X12792500Y-14708750I-50000J0D01*
G01*
D11*
X10257617Y-15310431D02*
X10257617Y-15110431D01*
X10305236Y-15110431D01*
X10333808Y-15119955D01*
X10352855Y-15139003D01*
X10362379Y-15158050D01*
X10371903Y-15196145D01*
X10371903Y-15224717D01*
X10362379Y-15262812D01*
X10352855Y-15281860D01*
X10333808Y-15300907D01*
X10305236Y-15310431D01*
X10257617Y-15310431D01*
X10457617Y-15310431D02*
X10457617Y-15177098D01*
X10457617Y-15215193D02*
X10467141Y-15196145D01*
X10476665Y-15186622D01*
X10495713Y-15177098D01*
X10514760Y-15177098D01*
X10581427Y-15310431D02*
X10581427Y-15177098D01*
X10581427Y-15110431D02*
X10571903Y-15119955D01*
X10581427Y-15129479D01*
X10590951Y-15119955D01*
X10581427Y-15110431D01*
X10581427Y-15129479D01*
X10705236Y-15310431D02*
X10686189Y-15300907D01*
X10676665Y-15281860D01*
X10676665Y-15110431D01*
X10809998Y-15310431D02*
X10790951Y-15300907D01*
X10781427Y-15281860D01*
X10781427Y-15110431D01*
X11038570Y-15310431D02*
X11038570Y-15110431D01*
X11105236Y-15253288D01*
X11171903Y-15110431D01*
X11171903Y-15310431D01*
X11352855Y-15310431D02*
X11352855Y-15205669D01*
X11343332Y-15186622D01*
X11324284Y-15177098D01*
X11286189Y-15177098D01*
X11267141Y-15186622D01*
X11352855Y-15300907D02*
X11333808Y-15310431D01*
X11286189Y-15310431D01*
X11267141Y-15300907D01*
X11257617Y-15281860D01*
X11257617Y-15262812D01*
X11267141Y-15243764D01*
X11286189Y-15234241D01*
X11333808Y-15234241D01*
X11352855Y-15224717D01*
X11448093Y-15177098D02*
X11448093Y-15377098D01*
X11448093Y-15186622D02*
X11467141Y-15177098D01*
X11505236Y-15177098D01*
X11524284Y-15186622D01*
X11533808Y-15196145D01*
X11543332Y-15215193D01*
X11543332Y-15272336D01*
X11533808Y-15291383D01*
X11524284Y-15300907D01*
X11505236Y-15310431D01*
X11467141Y-15310431D01*
X11448093Y-15300907D01*
X11629046Y-15291383D02*
X11638570Y-15300907D01*
X11629046Y-15310431D01*
X11619522Y-15300907D01*
X11629046Y-15291383D01*
X11629046Y-15310431D01*
X11629046Y-15186622D02*
X11638570Y-15196145D01*
X11629046Y-15205669D01*
X11619522Y-15196145D01*
X11629046Y-15186622D01*
X11629046Y-15205669D01*
D12*
X9909998Y-15594955D02*
X9999998Y-15684955D01*
X9999998Y-15594955D02*
X9909998Y-15684955D01*
D11*
X10295713Y-15530431D02*
X10314760Y-15530431D01*
X10333808Y-15539955D01*
X10343332Y-15549479D01*
X10352855Y-15568526D01*
X10362379Y-15606622D01*
X10362379Y-15654241D01*
X10352855Y-15692336D01*
X10343332Y-15711383D01*
X10333808Y-15720907D01*
X10314760Y-15730431D01*
X10295713Y-15730431D01*
X10276665Y-15720907D01*
X10267141Y-15711383D01*
X10257617Y-15692336D01*
X10248094Y-15654241D01*
X10248094Y-15606622D01*
X10257617Y-15568526D01*
X10267141Y-15549479D01*
X10276665Y-15539955D01*
X10295713Y-15530431D01*
X10448094Y-15711383D02*
X10457617Y-15720907D01*
X10448094Y-15730431D01*
X10438570Y-15720907D01*
X10448094Y-15711383D01*
X10448094Y-15730431D01*
X10552855Y-15730431D02*
X10590951Y-15730431D01*
X10609998Y-15720907D01*
X10619522Y-15711383D01*
X10638570Y-15682812D01*
X10648094Y-15644717D01*
X10648094Y-15568526D01*
X10638570Y-15549479D01*
X10629046Y-15539955D01*
X10609998Y-15530431D01*
X10571903Y-15530431D01*
X10552855Y-15539955D01*
X10543332Y-15549479D01*
X10533808Y-15568526D01*
X10533808Y-15616145D01*
X10543332Y-15635193D01*
X10552855Y-15644717D01*
X10571903Y-15654241D01*
X10609998Y-15654241D01*
X10629046Y-15644717D01*
X10638570Y-15635193D01*
X10648094Y-15616145D01*
X10771903Y-15530431D02*
X10790951Y-15530431D01*
X10809998Y-15539955D01*
X10819522Y-15549479D01*
X10829046Y-15568526D01*
X10838570Y-15606622D01*
X10838570Y-15654241D01*
X10829046Y-15692336D01*
X10819522Y-15711383D01*
X10809998Y-15720907D01*
X10790951Y-15730431D01*
X10771903Y-15730431D01*
X10752855Y-15720907D01*
X10743332Y-15711383D01*
X10733808Y-15692336D01*
X10724284Y-15654241D01*
X10724284Y-15606622D01*
X10733808Y-15568526D01*
X10743332Y-15549479D01*
X10752855Y-15539955D01*
X10771903Y-15530431D01*
X10962379Y-15530431D02*
X10981427Y-15530431D01*
X11000474Y-15539955D01*
X11009998Y-15549479D01*
X11019522Y-15568526D01*
X11029046Y-15606622D01*
X11029046Y-15654241D01*
X11019522Y-15692336D01*
X11009998Y-15711383D01*
X11000474Y-15720907D01*
X10981427Y-15730431D01*
X10962379Y-15730431D01*
X10943332Y-15720907D01*
X10933808Y-15711383D01*
X10924284Y-15692336D01*
X10914760Y-15654241D01*
X10914760Y-15606622D01*
X10924284Y-15568526D01*
X10933808Y-15549479D01*
X10943332Y-15539955D01*
X10962379Y-15530431D01*
X11114760Y-15730431D02*
X11114760Y-15597098D01*
X11114760Y-15616145D02*
X11124284Y-15606622D01*
X11143332Y-15597098D01*
X11171903Y-15597098D01*
X11190951Y-15606622D01*
X11200474Y-15625669D01*
X11200474Y-15730431D01*
X11200474Y-15625669D02*
X11209998Y-15606622D01*
X11229046Y-15597098D01*
X11257617Y-15597098D01*
X11276665Y-15606622D01*
X11286189Y-15625669D01*
X11286189Y-15730431D01*
X11381427Y-15730431D02*
X11381427Y-15597098D01*
X11381427Y-15616145D02*
X11390951Y-15606622D01*
X11409998Y-15597098D01*
X11438570Y-15597098D01*
X11457617Y-15606622D01*
X11467141Y-15625669D01*
X11467141Y-15730431D01*
X11467141Y-15625669D02*
X11476665Y-15606622D01*
X11495712Y-15597098D01*
X11524284Y-15597098D01*
X11543332Y-15606622D01*
X11552855Y-15625669D01*
X11552855Y-15730431D01*
X11943332Y-15520907D02*
X11771903Y-15778050D01*
X12200474Y-15530431D02*
X12219522Y-15530431D01*
X12238570Y-15539955D01*
X12248093Y-15549479D01*
X12257617Y-15568526D01*
X12267141Y-15606622D01*
X12267141Y-15654241D01*
X12257617Y-15692336D01*
X12248093Y-15711383D01*
X12238570Y-15720907D01*
X12219522Y-15730431D01*
X12200474Y-15730431D01*
X12181427Y-15720907D01*
X12171903Y-15711383D01*
X12162379Y-15692336D01*
X12152855Y-15654241D01*
X12152855Y-15606622D01*
X12162379Y-15568526D01*
X12171903Y-15549479D01*
X12181427Y-15539955D01*
X12200474Y-15530431D01*
X12352855Y-15711383D02*
X12362379Y-15720907D01*
X12352855Y-15730431D01*
X12343332Y-15720907D01*
X12352855Y-15711383D01*
X12352855Y-15730431D01*
X12486189Y-15530431D02*
X12505236Y-15530431D01*
X12524284Y-15539955D01*
X12533808Y-15549479D01*
X12543332Y-15568526D01*
X12552855Y-15606622D01*
X12552855Y-15654241D01*
X12543332Y-15692336D01*
X12533808Y-15711383D01*
X12524284Y-15720907D01*
X12505236Y-15730431D01*
X12486189Y-15730431D01*
X12467141Y-15720907D01*
X12457617Y-15711383D01*
X12448093Y-15692336D01*
X12438570Y-15654241D01*
X12438570Y-15606622D01*
X12448093Y-15568526D01*
X12457617Y-15549479D01*
X12467141Y-15539955D01*
X12486189Y-15530431D01*
X12619522Y-15530431D02*
X12743332Y-15530431D01*
X12676665Y-15606622D01*
X12705236Y-15606622D01*
X12724284Y-15616145D01*
X12733808Y-15625669D01*
X12743332Y-15644717D01*
X12743332Y-15692336D01*
X12733808Y-15711383D01*
X12724284Y-15720907D01*
X12705236Y-15730431D01*
X12648093Y-15730431D01*
X12629046Y-15720907D01*
X12619522Y-15711383D01*
X12924284Y-15530431D02*
X12829046Y-15530431D01*
X12819522Y-15625669D01*
X12829046Y-15616145D01*
X12848093Y-15606622D01*
X12895712Y-15606622D01*
X12914760Y-15616145D01*
X12924284Y-15625669D01*
X12933808Y-15644717D01*
X12933808Y-15692336D01*
X12924284Y-15711383D01*
X12914760Y-15720907D01*
X12895712Y-15730431D01*
X12848093Y-15730431D01*
X12829046Y-15720907D01*
X12819522Y-15711383D01*
X13105236Y-15597098D02*
X13105236Y-15730431D01*
X13057617Y-15520907D02*
X13009998Y-15663764D01*
X13133808Y-15663764D01*
X13200474Y-15530431D02*
X13200474Y-15568526D01*
X13276665Y-15530431D02*
X13276665Y-15568526D01*
X13571903Y-15806622D02*
X13562379Y-15797098D01*
X13543332Y-15768526D01*
X13533808Y-15749479D01*
X13524284Y-15720907D01*
X13514760Y-15673288D01*
X13514760Y-15635193D01*
X13524284Y-15587574D01*
X13533808Y-15559003D01*
X13543332Y-15539955D01*
X13562379Y-15511383D01*
X13571903Y-15501860D01*
X13733808Y-15530431D02*
X13695712Y-15530431D01*
X13676665Y-15539955D01*
X13667141Y-15549479D01*
X13648093Y-15578050D01*
X13638570Y-15616145D01*
X13638570Y-15692336D01*
X13648093Y-15711383D01*
X13657617Y-15720907D01*
X13676665Y-15730431D01*
X13714760Y-15730431D01*
X13733808Y-15720907D01*
X13743332Y-15711383D01*
X13752855Y-15692336D01*
X13752855Y-15644717D01*
X13743332Y-15625669D01*
X13733808Y-15616145D01*
X13714760Y-15606622D01*
X13676665Y-15606622D01*
X13657617Y-15616145D01*
X13648093Y-15625669D01*
X13638570Y-15644717D01*
X13990951Y-15730431D02*
X13990951Y-15530431D01*
X14076665Y-15730431D02*
X14076665Y-15625669D01*
X14067141Y-15606622D01*
X14048093Y-15597098D01*
X14019522Y-15597098D01*
X14000474Y-15606622D01*
X13990951Y-15616145D01*
X14200474Y-15730431D02*
X14181427Y-15720907D01*
X14171903Y-15711383D01*
X14162379Y-15692336D01*
X14162379Y-15635193D01*
X14171903Y-15616145D01*
X14181427Y-15606622D01*
X14200474Y-15597098D01*
X14229046Y-15597098D01*
X14248093Y-15606622D01*
X14257617Y-15616145D01*
X14267141Y-15635193D01*
X14267141Y-15692336D01*
X14257617Y-15711383D01*
X14248093Y-15720907D01*
X14229046Y-15730431D01*
X14200474Y-15730431D01*
X14381427Y-15730431D02*
X14362379Y-15720907D01*
X14352855Y-15701860D01*
X14352855Y-15530431D01*
X14533808Y-15720907D02*
X14514760Y-15730431D01*
X14476665Y-15730431D01*
X14457617Y-15720907D01*
X14448093Y-15701860D01*
X14448093Y-15625669D01*
X14457617Y-15606622D01*
X14476665Y-15597098D01*
X14514760Y-15597098D01*
X14533808Y-15606622D01*
X14543332Y-15625669D01*
X14543332Y-15644717D01*
X14448093Y-15663764D01*
X14619522Y-15720907D02*
X14638570Y-15730431D01*
X14676665Y-15730431D01*
X14695712Y-15720907D01*
X14705236Y-15701860D01*
X14705236Y-15692336D01*
X14695712Y-15673288D01*
X14676665Y-15663764D01*
X14648093Y-15663764D01*
X14629046Y-15654241D01*
X14619522Y-15635193D01*
X14619522Y-15625669D01*
X14629046Y-15606622D01*
X14648093Y-15597098D01*
X14676665Y-15597098D01*
X14695712Y-15606622D01*
X14771903Y-15806622D02*
X14781427Y-15797098D01*
X14800474Y-15768526D01*
X14809998Y-15749479D01*
X14819522Y-15720907D01*
X14829046Y-15673288D01*
X14829046Y-15635193D01*
X14819522Y-15587574D01*
X14809998Y-15559003D01*
X14800474Y-15539955D01*
X14781427Y-15511383D01*
X14771903Y-15501860D01*
D13*
X9999998Y-15903955D02*
G75*
G03*
X9999998Y-15903955I-50000J0D01*
G01*
D11*
X10362379Y-15994431D02*
X10248094Y-15994431D01*
X10305236Y-15994431D02*
X10305236Y-15794431D01*
X10286189Y-15823003D01*
X10267141Y-15842050D01*
X10248094Y-15851574D01*
X10448094Y-15975383D02*
X10457617Y-15984907D01*
X10448094Y-15994431D01*
X10438570Y-15984907D01*
X10448094Y-15975383D01*
X10448094Y-15994431D01*
X10581427Y-15794431D02*
X10600474Y-15794431D01*
X10619522Y-15803955D01*
X10629046Y-15813479D01*
X10638570Y-15832526D01*
X10648094Y-15870622D01*
X10648094Y-15918241D01*
X10638570Y-15956336D01*
X10629046Y-15975383D01*
X10619522Y-15984907D01*
X10600474Y-15994431D01*
X10581427Y-15994431D01*
X10562379Y-15984907D01*
X10552855Y-15975383D01*
X10543332Y-15956336D01*
X10533808Y-15918241D01*
X10533808Y-15870622D01*
X10543332Y-15832526D01*
X10552855Y-15813479D01*
X10562379Y-15803955D01*
X10581427Y-15794431D01*
X10771903Y-15794431D02*
X10790951Y-15794431D01*
X10809998Y-15803955D01*
X10819522Y-15813479D01*
X10829046Y-15832526D01*
X10838570Y-15870622D01*
X10838570Y-15918241D01*
X10829046Y-15956336D01*
X10819522Y-15975383D01*
X10809998Y-15984907D01*
X10790951Y-15994431D01*
X10771903Y-15994431D01*
X10752855Y-15984907D01*
X10743332Y-15975383D01*
X10733808Y-15956336D01*
X10724284Y-15918241D01*
X10724284Y-15870622D01*
X10733808Y-15832526D01*
X10743332Y-15813479D01*
X10752855Y-15803955D01*
X10771903Y-15794431D01*
X10962379Y-15794431D02*
X10981427Y-15794431D01*
X11000474Y-15803955D01*
X11009998Y-15813479D01*
X11019522Y-15832526D01*
X11029046Y-15870622D01*
X11029046Y-15918241D01*
X11019522Y-15956336D01*
X11009998Y-15975383D01*
X11000474Y-15984907D01*
X10981427Y-15994431D01*
X10962379Y-15994431D01*
X10943332Y-15984907D01*
X10933808Y-15975383D01*
X10924284Y-15956336D01*
X10914760Y-15918241D01*
X10914760Y-15870622D01*
X10924284Y-15832526D01*
X10933808Y-15813479D01*
X10943332Y-15803955D01*
X10962379Y-15794431D01*
X11114760Y-15994431D02*
X11114760Y-15861098D01*
X11114760Y-15880145D02*
X11124284Y-15870622D01*
X11143332Y-15861098D01*
X11171903Y-15861098D01*
X11190951Y-15870622D01*
X11200474Y-15889669D01*
X11200474Y-15994431D01*
X11200474Y-15889669D02*
X11209998Y-15870622D01*
X11229046Y-15861098D01*
X11257617Y-15861098D01*
X11276665Y-15870622D01*
X11286189Y-15889669D01*
X11286189Y-15994431D01*
X11381427Y-15994431D02*
X11381427Y-15861098D01*
X11381427Y-15880145D02*
X11390951Y-15870622D01*
X11409998Y-15861098D01*
X11438570Y-15861098D01*
X11457617Y-15870622D01*
X11467141Y-15889669D01*
X11467141Y-15994431D01*
X11467141Y-15889669D02*
X11476665Y-15870622D01*
X11495712Y-15861098D01*
X11524284Y-15861098D01*
X11543332Y-15870622D01*
X11552855Y-15889669D01*
X11552855Y-15994431D01*
X11943332Y-15784907D02*
X11771903Y-16042050D01*
X12200474Y-15794431D02*
X12219522Y-15794431D01*
X12238570Y-15803955D01*
X12248093Y-15813479D01*
X12257617Y-15832526D01*
X12267141Y-15870622D01*
X12267141Y-15918241D01*
X12257617Y-15956336D01*
X12248093Y-15975383D01*
X12238570Y-15984907D01*
X12219522Y-15994431D01*
X12200474Y-15994431D01*
X12181427Y-15984907D01*
X12171903Y-15975383D01*
X12162379Y-15956336D01*
X12152855Y-15918241D01*
X12152855Y-15870622D01*
X12162379Y-15832526D01*
X12171903Y-15813479D01*
X12181427Y-15803955D01*
X12200474Y-15794431D01*
X12352855Y-15975383D02*
X12362379Y-15984907D01*
X12352855Y-15994431D01*
X12343332Y-15984907D01*
X12352855Y-15975383D01*
X12352855Y-15994431D01*
X12486189Y-15794431D02*
X12505236Y-15794431D01*
X12524284Y-15803955D01*
X12533808Y-15813479D01*
X12543332Y-15832526D01*
X12552855Y-15870622D01*
X12552855Y-15918241D01*
X12543332Y-15956336D01*
X12533808Y-15975383D01*
X12524284Y-15984907D01*
X12505236Y-15994431D01*
X12486189Y-15994431D01*
X12467141Y-15984907D01*
X12457617Y-15975383D01*
X12448093Y-15956336D01*
X12438570Y-15918241D01*
X12438570Y-15870622D01*
X12448093Y-15832526D01*
X12457617Y-15813479D01*
X12467141Y-15803955D01*
X12486189Y-15794431D01*
X12619522Y-15794431D02*
X12743332Y-15794431D01*
X12676665Y-15870622D01*
X12705236Y-15870622D01*
X12724284Y-15880145D01*
X12733808Y-15889669D01*
X12743332Y-15908717D01*
X12743332Y-15956336D01*
X12733808Y-15975383D01*
X12724284Y-15984907D01*
X12705236Y-15994431D01*
X12648093Y-15994431D01*
X12629046Y-15984907D01*
X12619522Y-15975383D01*
X12838570Y-15994431D02*
X12876665Y-15994431D01*
X12895712Y-15984907D01*
X12905236Y-15975383D01*
X12924284Y-15946812D01*
X12933808Y-15908717D01*
X12933808Y-15832526D01*
X12924284Y-15813479D01*
X12914760Y-15803955D01*
X12895712Y-15794431D01*
X12857617Y-15794431D01*
X12838570Y-15803955D01*
X12829046Y-15813479D01*
X12819522Y-15832526D01*
X12819522Y-15880145D01*
X12829046Y-15899193D01*
X12838570Y-15908717D01*
X12857617Y-15918241D01*
X12895712Y-15918241D01*
X12914760Y-15908717D01*
X12924284Y-15899193D01*
X12933808Y-15880145D01*
X13105236Y-15861098D02*
X13105236Y-15994431D01*
X13057617Y-15784907D02*
X13009998Y-15927764D01*
X13133808Y-15927764D01*
X13200474Y-15794431D02*
X13200474Y-15832526D01*
X13276665Y-15794431D02*
X13276665Y-15832526D01*
X13571903Y-16070622D02*
X13562379Y-16061098D01*
X13543332Y-16032526D01*
X13533808Y-16013479D01*
X13524284Y-15984907D01*
X13514760Y-15937288D01*
X13514760Y-15899193D01*
X13524284Y-15851574D01*
X13533808Y-15823003D01*
X13543332Y-15803955D01*
X13562379Y-15775383D01*
X13571903Y-15765860D01*
X13733808Y-15794431D02*
X13695712Y-15794431D01*
X13676665Y-15803955D01*
X13667141Y-15813479D01*
X13648093Y-15842050D01*
X13638570Y-15880145D01*
X13638570Y-15956336D01*
X13648093Y-15975383D01*
X13657617Y-15984907D01*
X13676665Y-15994431D01*
X13714760Y-15994431D01*
X13733808Y-15984907D01*
X13743332Y-15975383D01*
X13752855Y-15956336D01*
X13752855Y-15908717D01*
X13743332Y-15889669D01*
X13733808Y-15880145D01*
X13714760Y-15870622D01*
X13676665Y-15870622D01*
X13657617Y-15880145D01*
X13648093Y-15889669D01*
X13638570Y-15908717D01*
X13990951Y-15994431D02*
X13990951Y-15794431D01*
X14076665Y-15994431D02*
X14076665Y-15889669D01*
X14067141Y-15870622D01*
X14048093Y-15861098D01*
X14019522Y-15861098D01*
X14000474Y-15870622D01*
X13990951Y-15880145D01*
X14200474Y-15994431D02*
X14181427Y-15984907D01*
X14171903Y-15975383D01*
X14162379Y-15956336D01*
X14162379Y-15899193D01*
X14171903Y-15880145D01*
X14181427Y-15870622D01*
X14200474Y-15861098D01*
X14229046Y-15861098D01*
X14248093Y-15870622D01*
X14257617Y-15880145D01*
X14267141Y-15899193D01*
X14267141Y-15956336D01*
X14257617Y-15975383D01*
X14248093Y-15984907D01*
X14229046Y-15994431D01*
X14200474Y-15994431D01*
X14381427Y-15994431D02*
X14362379Y-15984907D01*
X14352855Y-15965860D01*
X14352855Y-15794431D01*
X14533808Y-15984907D02*
X14514760Y-15994431D01*
X14476665Y-15994431D01*
X14457617Y-15984907D01*
X14448093Y-15965860D01*
X14448093Y-15889669D01*
X14457617Y-15870622D01*
X14476665Y-15861098D01*
X14514760Y-15861098D01*
X14533808Y-15870622D01*
X14543332Y-15889669D01*
X14543332Y-15908717D01*
X14448093Y-15927764D01*
X14619522Y-15984907D02*
X14638570Y-15994431D01*
X14676665Y-15994431D01*
X14695712Y-15984907D01*
X14705236Y-15965860D01*
X14705236Y-15956336D01*
X14695712Y-15937288D01*
X14676665Y-15927764D01*
X14648093Y-15927764D01*
X14629046Y-15918241D01*
X14619522Y-15899193D01*
X14619522Y-15889669D01*
X14629046Y-15870622D01*
X14648093Y-15861098D01*
X14676665Y-15861098D01*
X14695712Y-15870622D01*
X14771903Y-16070622D02*
X14781427Y-16061098D01*
X14800474Y-16032526D01*
X14809998Y-16013479D01*
X14819522Y-15984907D01*
X14829046Y-15937288D01*
X14829046Y-15899193D01*
X14819522Y-15851574D01*
X14809998Y-15823003D01*
X14800474Y-15803955D01*
X14781427Y-15775383D01*
X14771903Y-15765860D01*
M02*
