%TF.GenerationSoftware,KiCad,Pcbnew,(6.0.9)*%
%TF.CreationDate,2023-05-26T18:18:51-07:00*%
%TF.ProjectId,DC31_Cnet_Badge_SAO,44433331-5f43-46e6-9574-5f4261646765,rev?*%
%TF.SameCoordinates,Original*%
%TF.FileFunction,Legend,Bot*%
%TF.FilePolarity,Positive*%
%FSLAX46Y46*%
G04 Gerber Fmt 4.6, Leading zero omitted, Abs format (unit mm)*
G04 Created by KiCad (PCBNEW (6.0.9)) date 2023-05-26 18:18:51*
%MOMM*%
%LPD*%
G01*
G04 APERTURE LIST*
%ADD10C,0.150000*%
%ADD11C,0.120000*%
G04 APERTURE END LIST*
D10*
%TO.C,D2*%
X129008095Y-125332380D02*
X129008095Y-124332380D01*
X128770000Y-124332380D01*
X128627142Y-124380000D01*
X128531904Y-124475238D01*
X128484285Y-124570476D01*
X128436666Y-124760952D01*
X128436666Y-124903809D01*
X128484285Y-125094285D01*
X128531904Y-125189523D01*
X128627142Y-125284761D01*
X128770000Y-125332380D01*
X129008095Y-125332380D01*
X128055714Y-124427619D02*
X128008095Y-124380000D01*
X127912857Y-124332380D01*
X127674761Y-124332380D01*
X127579523Y-124380000D01*
X127531904Y-124427619D01*
X127484285Y-124522857D01*
X127484285Y-124618095D01*
X127531904Y-124760952D01*
X128103333Y-125332380D01*
X127484285Y-125332380D01*
%TO.C,D1*%
X120252380Y-132611904D02*
X119252380Y-132611904D01*
X119252380Y-132850000D01*
X119300000Y-132992857D01*
X119395238Y-133088095D01*
X119490476Y-133135714D01*
X119680952Y-133183333D01*
X119823809Y-133183333D01*
X120014285Y-133135714D01*
X120109523Y-133088095D01*
X120204761Y-132992857D01*
X120252380Y-132850000D01*
X120252380Y-132611904D01*
X120252380Y-134135714D02*
X120252380Y-133564285D01*
X120252380Y-133850000D02*
X119252380Y-133850000D01*
X119395238Y-133754761D01*
X119490476Y-133659523D01*
X119538095Y-133564285D01*
%TO.C,J1*%
X129647380Y-145484166D02*
X130361666Y-145484166D01*
X130504523Y-145436547D01*
X130599761Y-145341309D01*
X130647380Y-145198452D01*
X130647380Y-145103214D01*
X130647380Y-146484166D02*
X130647380Y-145912738D01*
X130647380Y-146198452D02*
X129647380Y-146198452D01*
X129790238Y-146103214D01*
X129885476Y-146007976D01*
X129933095Y-145912738D01*
%TO.C,D3*%
X149328095Y-107552380D02*
X149328095Y-106552380D01*
X149090000Y-106552380D01*
X148947142Y-106600000D01*
X148851904Y-106695238D01*
X148804285Y-106790476D01*
X148756666Y-106980952D01*
X148756666Y-107123809D01*
X148804285Y-107314285D01*
X148851904Y-107409523D01*
X148947142Y-107504761D01*
X149090000Y-107552380D01*
X149328095Y-107552380D01*
X148423333Y-106552380D02*
X147804285Y-106552380D01*
X148137619Y-106933333D01*
X147994761Y-106933333D01*
X147899523Y-106980952D01*
X147851904Y-107028571D01*
X147804285Y-107123809D01*
X147804285Y-107361904D01*
X147851904Y-107457142D01*
X147899523Y-107504761D01*
X147994761Y-107552380D01*
X148280476Y-107552380D01*
X148375714Y-107504761D01*
X148423333Y-107457142D01*
D11*
%TO.C,D2*%
X126710000Y-120840000D02*
X126710000Y-120684000D01*
X126710000Y-123156000D02*
X126710000Y-123000000D01*
X129311130Y-120840163D02*
G75*
G03*
X127229039Y-120840000I-1041130J-1079837D01*
G01*
X126710000Y-123155516D02*
G75*
G03*
X129942335Y-122998608I1560000J1235516D01*
G01*
X129942335Y-120841392D02*
G75*
G03*
X126710000Y-120684484I-1672335J-1078608D01*
G01*
X127229039Y-123000000D02*
G75*
G03*
X129311130Y-122999837I1040961J1080000D01*
G01*
%TO.C,D1*%
X115760000Y-134910000D02*
X115604000Y-134910000D01*
X118076000Y-134910000D02*
X117920000Y-134910000D01*
X115761392Y-131677665D02*
G75*
G03*
X115604484Y-134910000I1078608J-1672335D01*
G01*
X117920000Y-134390961D02*
G75*
G03*
X117919837Y-132308870I-1080000J1040961D01*
G01*
X118075516Y-134910000D02*
G75*
G03*
X117918608Y-131677665I-1235516J1560000D01*
G01*
X115760163Y-132308870D02*
G75*
G03*
X115760000Y-134390961I1079837J-1041130D01*
G01*
%TO.C,J1*%
X128755000Y-145817500D02*
X126155000Y-145817500D01*
X121015000Y-148417500D02*
X121015000Y-143217500D01*
X128755000Y-148417500D02*
X128755000Y-145817500D01*
X128755000Y-148417500D02*
X121015000Y-148417500D01*
X128755000Y-143217500D02*
X127425000Y-143217500D01*
X128755000Y-144547500D02*
X128755000Y-143217500D01*
X126155000Y-145817500D02*
X126155000Y-143217500D01*
X126155000Y-143217500D02*
X121015000Y-143217500D01*
X126125000Y-141147500D02*
X123625000Y-141147500D01*
X123625000Y-141147500D02*
X123625000Y-141147500D01*
X123625000Y-141147500D02*
X126125000Y-141147500D01*
X126125000Y-141147500D02*
X126125000Y-141147500D01*
X126125000Y-142647500D02*
X126125000Y-142647500D01*
X126125000Y-142647500D02*
X126125000Y-141147500D01*
X126125000Y-141147500D02*
X126125000Y-141147500D01*
X126125000Y-141147500D02*
X126125000Y-142647500D01*
X123625000Y-141147500D02*
X123625000Y-141147500D01*
X123625000Y-141147500D02*
X123625000Y-142647500D01*
X123625000Y-142647500D02*
X123625000Y-142647500D01*
X123625000Y-142647500D02*
X123625000Y-141147500D01*
%TO.C,D3*%
X147030000Y-103060000D02*
X147030000Y-102904000D01*
X147030000Y-105376000D02*
X147030000Y-105220000D01*
X147030000Y-105375516D02*
G75*
G03*
X150262335Y-105218608I1560000J1235516D01*
G01*
X150262335Y-103061392D02*
G75*
G03*
X147030000Y-102904484I-1672335J-1078608D01*
G01*
X149631130Y-103060163D02*
G75*
G03*
X147549039Y-103060000I-1041130J-1079837D01*
G01*
X147549039Y-105220000D02*
G75*
G03*
X149631130Y-105219837I1040961J1080000D01*
G01*
%TD*%
M02*
