%TF.GenerationSoftware,KiCad,Pcbnew,(6.0.9)*%
%TF.CreationDate,2023-05-26T18:18:51-07:00*%
%TF.ProjectId,DC31_Cnet_Badge_SAO,44433331-5f43-46e6-9574-5f4261646765,rev?*%
%TF.SameCoordinates,Original*%
%TF.FileFunction,Profile,NP*%
%FSLAX46Y46*%
G04 Gerber Fmt 4.6, Leading zero omitted, Abs format (unit mm)*
G04 Created by KiCad (PCBNEW (6.0.9)) date 2023-05-26 18:18:51*
%MOMM*%
%LPD*%
G01*
G04 APERTURE LIST*
%TA.AperFunction,Profile*%
%ADD10C,0.049645*%
%TD*%
G04 APERTURE END LIST*
D10*
X154586220Y-79525409D02*
X154554939Y-79524822D01*
X151462013Y-81628642D02*
X151457683Y-81631129D01*
X103652941Y-138098991D02*
X103670063Y-138138393D01*
X154897576Y-110105974D02*
X154936731Y-110071272D01*
X157958924Y-105943545D02*
X158079357Y-105632211D01*
X154715884Y-92142598D02*
X154703121Y-92142082D01*
X104194411Y-139525883D02*
X104263836Y-139588346D01*
X154493317Y-79524763D02*
X154493317Y-79524763D01*
X100142298Y-127849440D02*
X100165957Y-128091103D01*
X155945608Y-94818973D02*
X155745434Y-94612215D01*
X156364984Y-95259998D02*
X156251812Y-95139018D01*
X149776418Y-142968176D02*
X149746706Y-142930306D01*
X155372965Y-79675732D02*
X155281164Y-79643911D01*
X122700020Y-100041323D02*
X122385771Y-100054053D01*
X152077390Y-81524814D02*
X152075352Y-81528767D01*
X134579787Y-101749025D02*
X134575148Y-101757733D01*
X134570710Y-101766557D02*
X134566473Y-101775493D01*
X150560963Y-114508641D02*
X150562350Y-114488695D01*
X154856083Y-88625500D02*
X154862707Y-88564706D01*
X149667785Y-129235718D02*
X149803677Y-128337288D01*
X148642285Y-116467904D02*
X148666165Y-116465926D01*
X154776355Y-86644650D02*
X154742524Y-86488903D01*
X156849149Y-81118910D02*
X156816203Y-81041092D01*
X154777014Y-92154345D02*
X154765199Y-92150826D01*
X149896596Y-143177746D02*
X149876554Y-143133346D01*
X158734398Y-102968294D02*
X158734398Y-102968294D01*
X149854452Y-143090125D02*
X149830353Y-143048148D01*
X149594205Y-120292009D02*
X149462577Y-119643953D01*
X100354170Y-142824598D02*
X100318183Y-142858879D01*
X143412521Y-141965528D02*
X143542526Y-141827140D01*
X154085734Y-90934788D02*
X154194151Y-90739653D01*
X149834115Y-121842305D02*
X149803677Y-121596098D01*
X147864149Y-81533396D02*
X147834601Y-81536089D01*
X152030861Y-81768507D02*
X152030887Y-81784052D01*
X100554749Y-142683363D02*
X100512154Y-142707474D01*
X136663036Y-99999357D02*
X136645409Y-99990217D01*
X152089329Y-81488468D02*
X152089329Y-81488468D01*
X157133980Y-82233126D02*
X157133980Y-82233126D01*
X157062113Y-82334304D02*
X157071835Y-82318422D01*
X148901409Y-116353004D02*
X150444466Y-114763440D01*
X142830460Y-142565361D02*
X142830460Y-142565361D01*
X157179455Y-81997480D02*
X157170037Y-81987464D01*
X154805972Y-86801011D02*
X154776355Y-86644650D01*
X154728490Y-92143746D02*
X154715884Y-92142598D01*
X105384642Y-140586430D02*
X105522688Y-140746778D01*
X143988129Y-83523693D02*
X143894387Y-83632494D01*
X129828671Y-100365588D02*
X129014565Y-100219461D01*
X154846437Y-87078776D02*
X154839713Y-87018912D01*
X142271628Y-93861007D02*
X142227018Y-93902883D01*
X157688945Y-97310806D02*
X157537038Y-97007459D01*
X151541982Y-81622603D02*
X151537349Y-81621063D01*
X157218731Y-82101868D02*
X157218731Y-82101868D01*
X134605901Y-101707352D02*
X134600297Y-101715427D01*
X159334397Y-102116544D02*
X159354055Y-102087025D01*
X154810974Y-92168157D02*
X154799917Y-92163026D01*
X154474565Y-90133695D02*
X154552799Y-89925523D01*
X104559825Y-139835383D02*
X104633546Y-139892010D01*
X154631056Y-84703472D02*
X154668068Y-84702072D01*
X159465583Y-101830383D02*
X159471004Y-101805013D01*
X152029890Y-81748728D02*
X152030336Y-81754866D01*
X155640505Y-79792462D02*
X155552792Y-79750065D01*
X157104465Y-82271270D02*
X157118121Y-82253343D01*
X157023844Y-96129523D02*
X156833943Y-95848383D01*
X142557488Y-93623224D02*
X142532023Y-93641757D01*
X142607063Y-93581002D02*
X142608253Y-93585921D01*
X100101069Y-143184155D02*
X100083476Y-143229787D01*
X152019832Y-81970378D02*
X152018227Y-82032430D01*
X134558617Y-101793689D02*
X134558617Y-101793689D01*
X132230320Y-100962984D02*
X131437137Y-100737598D01*
X157096377Y-81914650D02*
X157084888Y-81903948D01*
X154547058Y-84704810D02*
X154590157Y-84704379D01*
X158646034Y-103361552D02*
X158656338Y-103289897D01*
X159475379Y-101758733D02*
X159475006Y-101747778D01*
X152529095Y-80546925D02*
X152529095Y-80546925D01*
X159474006Y-101736960D02*
X159472359Y-101726227D01*
X142567824Y-86586448D02*
X142542622Y-86774451D01*
X153181252Y-92119344D02*
X153181252Y-92119344D01*
X138535882Y-99912442D02*
X138532821Y-99928955D01*
X148797554Y-132755104D02*
X149063374Y-131888035D01*
X152937640Y-80114513D02*
X152925531Y-80126153D01*
X157032177Y-81854855D02*
X157021843Y-81776306D01*
X154591197Y-85703344D02*
X154595840Y-85699547D01*
X138753844Y-99595661D02*
X138744756Y-99611741D01*
X152022726Y-81695948D02*
X152025029Y-81715273D01*
X153985509Y-79586287D02*
X153909316Y-79605125D01*
X152075352Y-81528767D02*
X152073104Y-81532768D01*
X142227018Y-93902883D02*
X142178198Y-93949785D01*
X157052156Y-82351454D02*
X157062113Y-82334304D01*
X100598340Y-149878657D02*
X100643002Y-149898466D01*
X158079357Y-105632211D02*
X158190198Y-105316932D01*
X142604981Y-93571109D02*
X142605972Y-93576064D01*
X150244144Y-81742421D02*
X150035355Y-81685925D01*
X138570571Y-100481608D02*
X138572232Y-100506197D01*
X152070617Y-81536872D02*
X152067866Y-81541132D01*
X157084888Y-81903948D02*
X157084888Y-81903948D01*
X142581379Y-92209261D02*
X142601536Y-93546130D01*
X154226759Y-79543076D02*
X154183276Y-79549012D01*
X105673038Y-140926701D02*
X105812685Y-141092128D01*
X157199455Y-82144623D02*
X157203223Y-82138169D01*
X100554672Y-149856678D02*
X100598340Y-149878657D01*
X153518003Y-111060090D02*
X153834874Y-110871191D01*
X139291165Y-97949425D02*
X139193471Y-98196397D01*
X149975243Y-143567883D02*
X149973940Y-143516307D01*
X158700441Y-103064177D02*
X158711805Y-103024662D01*
X143523482Y-84127292D02*
X143419663Y-84287707D01*
X148689834Y-116462505D02*
X148713229Y-116457659D01*
X144006156Y-91618177D02*
X144046190Y-91663669D01*
X149954910Y-143365892D02*
X149943735Y-143317400D01*
X149896874Y-126878821D02*
X149901916Y-126382483D01*
X155012666Y-85232408D02*
X155012791Y-85227259D01*
X159382755Y-101569822D02*
X159356102Y-101538665D01*
X136393320Y-99958330D02*
X136373998Y-99962818D01*
X153007099Y-80054447D02*
X153007099Y-80054447D01*
X151559799Y-81631129D02*
X151555470Y-81628642D01*
X154832218Y-92179919D02*
X154821746Y-92173793D01*
X143632481Y-83969971D02*
X143523482Y-84127292D01*
X148713229Y-116457659D02*
X148736291Y-116451407D01*
X149876515Y-149406787D02*
X149896561Y-149362384D01*
X100101036Y-149355859D02*
X100120826Y-149400576D01*
X142527448Y-87413221D02*
X142530220Y-87607992D01*
X100976640Y-142566579D02*
X100927323Y-142570239D01*
X143515350Y-91134241D02*
X143517249Y-91137705D01*
X152022336Y-81914385D02*
X152020970Y-81941449D01*
X151513561Y-81616919D02*
X151508741Y-81616800D01*
X152083968Y-81508409D02*
X152082505Y-81512707D01*
X125003124Y-100024805D02*
X123587808Y-100027834D01*
X151484820Y-81619761D02*
X151480133Y-81621063D01*
X101026206Y-149974728D02*
X148974274Y-149974728D01*
X142660192Y-92026497D02*
X142651402Y-92034850D01*
X142594631Y-92125795D02*
X142591001Y-92137239D01*
X150458797Y-114189852D02*
X150444466Y-114174329D01*
X150045926Y-112264446D02*
X150412875Y-112201995D01*
X155012791Y-85227259D02*
X155012666Y-85222110D01*
X149493377Y-142710611D02*
X149451463Y-142686466D01*
X155010831Y-85206907D02*
X155009743Y-85201950D01*
X142532023Y-93641757D02*
X142519422Y-93651205D01*
X143429909Y-90816065D02*
X143429909Y-90816065D01*
X100166872Y-149486944D02*
X100193060Y-149528431D01*
X158474158Y-99559311D02*
X158392460Y-99226382D01*
X143553666Y-91180541D02*
X143567549Y-91194431D01*
X142567429Y-88442049D02*
X142592246Y-88595868D01*
X141920769Y-94207086D02*
X141740739Y-94391160D01*
X155012296Y-85216996D02*
X155011683Y-85211925D01*
X142692857Y-89060926D02*
X142734713Y-89216042D01*
X154873631Y-88264935D02*
X154873007Y-88142143D01*
X154916946Y-92264648D02*
X154910345Y-92254492D01*
X154537041Y-85723737D02*
X154542872Y-85723203D01*
X156568057Y-80600829D02*
X156518513Y-80532454D01*
X152088008Y-81493974D02*
X152086693Y-81499096D01*
X100196370Y-128337288D02*
X100196370Y-128337288D01*
X150555415Y-114389169D02*
X150551255Y-114369563D01*
X149975243Y-148972206D02*
X149975243Y-143567883D01*
X107045881Y-107487466D02*
X106629570Y-107924737D01*
X142063917Y-94062553D02*
X141920769Y-94207086D01*
X159110554Y-101281383D02*
X159058583Y-101230230D01*
X139744058Y-96980764D02*
X139622012Y-97218987D01*
X156050842Y-80054447D02*
X156050842Y-80054447D01*
X154983208Y-85153878D02*
X154547058Y-84704810D01*
X149776365Y-149571962D02*
X149804272Y-149532660D01*
X142727981Y-85845915D02*
X142679156Y-86029027D01*
X149573156Y-149775487D02*
X149610968Y-149745725D01*
X157963440Y-97932105D02*
X157831111Y-97619101D01*
X159209369Y-101380955D02*
X159161335Y-101332140D01*
X100142298Y-122084027D02*
X100124562Y-122348527D01*
X145957986Y-82056783D02*
X145745540Y-82159848D01*
X105971651Y-141273712D02*
X106147467Y-141469004D01*
X144090442Y-91712604D02*
X144138296Y-91764373D01*
X136472618Y-99950245D02*
X136472618Y-99950245D01*
X138734713Y-99628236D02*
X138723606Y-99645364D01*
X154713741Y-79531444D02*
X154617855Y-79526314D01*
X138530556Y-99950291D02*
X138529063Y-99975903D01*
X159449085Y-101887740D02*
X159449085Y-101887740D01*
X148037376Y-81525675D02*
X147996510Y-81526496D01*
X150525366Y-114293374D02*
X150516583Y-114275069D01*
X154856083Y-88625500D02*
X154856083Y-88625500D01*
X148823972Y-116412710D02*
X148844445Y-116399707D01*
X153411609Y-91877469D02*
X153435497Y-91850110D01*
X142525076Y-87135019D02*
X142525698Y-87257810D01*
X149904964Y-124966951D02*
X149904964Y-124966951D01*
X103612910Y-138018370D02*
X103633949Y-138059170D01*
X159161335Y-101332140D02*
X159110554Y-101281383D01*
X154967091Y-93795460D02*
X154968514Y-93789702D01*
X100068118Y-143276251D02*
X100055029Y-143323463D01*
X144189133Y-91818365D02*
X144242336Y-91873969D01*
X157225258Y-82069886D02*
X157225167Y-82067176D01*
X154884128Y-84679237D02*
X154975299Y-84663770D01*
X150555415Y-114548278D02*
X150558651Y-114528514D01*
X149824724Y-81636660D02*
X149612401Y-81594745D01*
X143492950Y-91002100D02*
X143492950Y-91002100D01*
X155009743Y-85252567D02*
X155010831Y-85247610D01*
X136317772Y-99981979D02*
X136299721Y-99990217D01*
X158856858Y-102758450D02*
X158897128Y-102696838D01*
X152089329Y-81488468D02*
X152088008Y-81493974D01*
X143716870Y-83855285D02*
X143632481Y-83969971D01*
X149963698Y-149124860D02*
X149970067Y-149074695D01*
X152023542Y-81602400D02*
X152022148Y-81604740D01*
X158689136Y-103110796D02*
X158700441Y-103064177D01*
X100083447Y-149310230D02*
X100101036Y-149355859D01*
X100035780Y-149120240D02*
X100044225Y-149168694D01*
X100055008Y-149216565D02*
X100068093Y-149263771D01*
X154998460Y-85280555D02*
X155000889Y-85276142D01*
X145537543Y-82270976D02*
X145334362Y-82390000D01*
X159253095Y-101426283D02*
X159209369Y-101380955D01*
X142506966Y-93660852D02*
X142427996Y-93724316D01*
X152184287Y-81181065D02*
X152161714Y-81242639D01*
X143709483Y-91316654D02*
X143727433Y-91329980D01*
X138872237Y-99187629D02*
X138810551Y-99433626D01*
X153469599Y-79766613D02*
X153399779Y-79801360D01*
X148974361Y-142565357D02*
X142830460Y-142565361D01*
X156994154Y-81606989D02*
X156976378Y-81523423D01*
X143744617Y-91342131D02*
X143744617Y-91342131D01*
X147002437Y-136926047D02*
X147422367Y-136116491D01*
X100193108Y-143011581D02*
X100166917Y-143053067D01*
X104766634Y-110191626D02*
X104766634Y-110191626D01*
X148758957Y-116443767D02*
X148781167Y-116434759D01*
X150035355Y-81685925D02*
X149824724Y-81636660D01*
X100782127Y-149944531D02*
X100829941Y-149955319D01*
X148844445Y-116399707D02*
X148864216Y-116385409D01*
X136336191Y-99974657D02*
X136317772Y-99981979D01*
X107192842Y-142565361D02*
X101026294Y-142565361D01*
X142601536Y-93546130D02*
X142601536Y-93546130D01*
X154139847Y-79555771D02*
X154139847Y-79555771D01*
X156782763Y-83261288D02*
X156817295Y-83186148D01*
X157537038Y-97007459D02*
X157375488Y-96709302D01*
X157216726Y-82042728D02*
X157214849Y-82039757D01*
X151449328Y-81636813D02*
X151445320Y-81640011D01*
X156089305Y-80086083D02*
X156070465Y-80070192D01*
X151057865Y-82038305D02*
X151057865Y-82038305D01*
X150450940Y-81806026D02*
X150244144Y-81742421D01*
X154525276Y-85723747D02*
X154531171Y-85723920D01*
X147422367Y-136116491D02*
X147812212Y-135293805D01*
X158697708Y-100894002D02*
X158697708Y-100894002D01*
X147773827Y-81542728D02*
X147538958Y-81575233D01*
X144577108Y-82941692D02*
X144403492Y-83097673D01*
X150546169Y-114350144D02*
X150540160Y-114330948D01*
X156050842Y-84175126D02*
X156070448Y-84159374D01*
X103480197Y-112155580D02*
X103093486Y-112832963D01*
X154554358Y-85721100D02*
X154559984Y-85719540D01*
X143727433Y-91329980D02*
X143744617Y-91342131D01*
X143514141Y-91131290D02*
X143514141Y-91131290D01*
X157224511Y-82061847D02*
X157223937Y-82059200D01*
X154957886Y-93823633D02*
X154957886Y-93823633D01*
X100193060Y-149528431D02*
X100221313Y-149568676D01*
X155154944Y-84622992D02*
X155243250Y-84597746D01*
X149612401Y-81594745D02*
X149398537Y-81560299D01*
X149973940Y-143516307D02*
X149970076Y-143465408D01*
X103800635Y-138808910D02*
X103822812Y-138966207D01*
X150516583Y-114275069D02*
X150506875Y-114257136D01*
X100792746Y-118573970D02*
X100607930Y-119322752D01*
X157221169Y-82051173D02*
X157219881Y-82048422D01*
X156472587Y-108493613D02*
X156543001Y-108410592D01*
X145565830Y-139267794D02*
X146073799Y-138502512D01*
X143480918Y-90931739D02*
X143483515Y-90943815D01*
X155733547Y-109272303D02*
X156136752Y-108855066D01*
X100287285Y-128957739D02*
X100396084Y-129581249D01*
X158382548Y-104675906D02*
X158463780Y-104350842D01*
X102728233Y-113520703D02*
X102384680Y-114218193D01*
X140862905Y-95304979D02*
X140776756Y-95401221D01*
X157035911Y-82384580D02*
X157038698Y-82376617D01*
X151491463Y-111935753D02*
X151842444Y-111821148D01*
X143804070Y-83742909D02*
X143716870Y-83855285D01*
X144242336Y-91873969D02*
X144297286Y-91930574D01*
X156954538Y-82794866D02*
X156974663Y-82714090D01*
X156160758Y-84075434D02*
X156196281Y-84039552D01*
X139193471Y-98196397D02*
X139102484Y-98444232D01*
X152026371Y-81724366D02*
X152027832Y-81732899D01*
X158656368Y-100576709D02*
X158656368Y-100576709D01*
X104773869Y-139992908D02*
X104812701Y-140020496D01*
X149830353Y-143048148D02*
X149804321Y-143007477D01*
X100283936Y-142894904D02*
X100251652Y-142932417D01*
X148691086Y-112367204D02*
X148864267Y-112365504D01*
X151466431Y-81626392D02*
X151462013Y-81628642D01*
X149224429Y-149943119D02*
X149271928Y-149929603D01*
X145136362Y-82516752D02*
X144943909Y-82651063D01*
X103842123Y-139087017D02*
X103849931Y-139128382D01*
X151551051Y-81626392D02*
X151546552Y-81624379D01*
X143131802Y-90269153D02*
X143201956Y-90410948D01*
X138666374Y-99724565D02*
X138666374Y-99724565D01*
X155733547Y-109272303D02*
X155733547Y-109272303D01*
X142567429Y-88442049D02*
X142567429Y-88442049D01*
X136231848Y-100032048D02*
X136216129Y-100044654D01*
X155006874Y-85262265D02*
X155008423Y-85257455D01*
X144138296Y-91764373D02*
X144189133Y-91818365D01*
X100026035Y-149021914D02*
X100029705Y-149071286D01*
X154388654Y-90338907D02*
X154474565Y-90133695D01*
X138794389Y-99495679D02*
X138788754Y-99513849D01*
X156745949Y-83335191D02*
X156782763Y-83261288D01*
X157092523Y-82287617D02*
X157104465Y-82271270D01*
X152660948Y-80396836D02*
X152626072Y-80433481D01*
X136758480Y-100072347D02*
X136758480Y-100072347D01*
X149462577Y-119643953D02*
X149313367Y-118999139D01*
X148545876Y-116461012D02*
X148569989Y-116464993D01*
X155078925Y-93936847D02*
X155015158Y-93876267D01*
X136354944Y-99968265D02*
X136336191Y-99974657D01*
X157223937Y-82059200D02*
X157223192Y-82056548D01*
X154600285Y-85695448D02*
X154983208Y-85300639D01*
X149224514Y-142596988D02*
X149176088Y-142585782D01*
X150562812Y-114468713D02*
X150562350Y-114448732D01*
X157009317Y-81691304D02*
X156994154Y-81606989D01*
X138554936Y-99877385D02*
X138545369Y-99891879D01*
X142542622Y-86774451D02*
X142536003Y-86835248D01*
X139505682Y-97460191D02*
X139395318Y-97703847D01*
X154493317Y-79524763D02*
X154447813Y-79525752D01*
X154942520Y-92319852D02*
X154938448Y-92308274D01*
X149363971Y-142644237D02*
X149318518Y-142626278D01*
X149715250Y-142893932D02*
X149682110Y-142859116D01*
X157007316Y-82550699D02*
X157019775Y-82468254D01*
X154402849Y-79527566D02*
X154358342Y-79530207D01*
X157121593Y-81938806D02*
X157108743Y-81926396D01*
X156974663Y-82714090D02*
X156992267Y-82632672D01*
X150560963Y-114428790D02*
X150558651Y-114408923D01*
X100309498Y-120834421D02*
X100196370Y-121596098D01*
X142313029Y-93823184D02*
X142271628Y-93861007D01*
X103868230Y-139179947D02*
X103890919Y-139213384D01*
X148545876Y-116461012D02*
X148545876Y-116461012D01*
X159290955Y-101466577D02*
X159290955Y-101466577D01*
X145745540Y-82159848D02*
X145537543Y-82270976D01*
X143871742Y-141462070D02*
X144464432Y-140748387D01*
X154868484Y-87791960D02*
X154868484Y-87791960D01*
X152061459Y-81550338D02*
X152053669Y-81560816D01*
X152028636Y-81737757D02*
X152029323Y-81743030D01*
X153969990Y-91126166D02*
X154085734Y-90934788D01*
X100024805Y-143567879D02*
X100024805Y-143567879D01*
X153194600Y-111236935D02*
X153518003Y-111060090D01*
X149028297Y-112362064D02*
X149176684Y-112356673D01*
X159325556Y-101504393D02*
X159290955Y-101466577D01*
X157214849Y-82039757D02*
X157212766Y-82036686D01*
X105142544Y-140321420D02*
X105199048Y-140380948D01*
X156849512Y-83109855D02*
X156879379Y-83032496D01*
X138941619Y-98940378D02*
X138872237Y-99187629D01*
X154974799Y-93742591D02*
X154974941Y-93736609D01*
X154963826Y-93806860D02*
X154965528Y-93801180D01*
X154975299Y-84663770D02*
X155065599Y-84645011D01*
X149975243Y-143567883D02*
X149975243Y-143567883D01*
X142591001Y-92137239D02*
X142587936Y-92148877D01*
X100196370Y-121596098D02*
X100196370Y-121596098D01*
X155825310Y-84333471D02*
X155902304Y-84283606D01*
X140582535Y-95643677D02*
X140582535Y-95643677D01*
X150496242Y-114698008D02*
X150506875Y-114680452D01*
X100103531Y-123054919D02*
X100098571Y-123551340D01*
X152025764Y-81867256D02*
X152023933Y-81889537D01*
X148691086Y-112367204D02*
X148691086Y-112367204D01*
X148781167Y-116434759D02*
X148802859Y-116424400D01*
X147305611Y-81617145D02*
X147074152Y-81668298D01*
X152025029Y-81715273D02*
X152026371Y-81724366D01*
X150496242Y-114239610D02*
X150484685Y-114222530D01*
X155015158Y-93876267D02*
X154957886Y-93823633D01*
X154974937Y-93730615D02*
X154974937Y-93730615D01*
X143599349Y-91224473D02*
X143616778Y-91240179D01*
X157203223Y-82138169D02*
X157206539Y-82132005D01*
X155065599Y-84645011D02*
X155154944Y-84622992D01*
X136728852Y-100044654D02*
X136713168Y-100032048D01*
X142599020Y-86399443D02*
X142567824Y-86586448D01*
X156933083Y-81358773D02*
X156907613Y-81277810D01*
X151576046Y-81643445D02*
X151572163Y-81640011D01*
X102639747Y-136260211D02*
X102926741Y-136816373D01*
X154542872Y-85723203D02*
X154548649Y-85722322D01*
X143871742Y-141462070D02*
X143871742Y-141462070D01*
X156431867Y-83796254D02*
X156459092Y-83767088D01*
X155973058Y-79995575D02*
X155892977Y-79939883D01*
X151503921Y-81616919D02*
X151499110Y-81617274D01*
X149126797Y-142576953D02*
X149076704Y-142570564D01*
X149857834Y-122084027D02*
X149834115Y-121842305D01*
X159043611Y-102496736D02*
X159107502Y-102415356D01*
X100098571Y-126382483D02*
X100111917Y-127270576D01*
X136713168Y-100032048D02*
X136696948Y-100020287D01*
X154992969Y-85165507D02*
X154989916Y-85161481D01*
X153197456Y-79918503D02*
X153132594Y-79961763D01*
X152320930Y-80879064D02*
X152290636Y-80938244D01*
X136532349Y-99954814D02*
X136512598Y-99952285D01*
X157225167Y-82067176D02*
X157224919Y-82064501D01*
X157170037Y-81987464D02*
X157159152Y-81976208D01*
X157212766Y-82036686D02*
X157207959Y-82030188D01*
X138565707Y-100437596D02*
X138568396Y-100458759D01*
X100446766Y-120076437D02*
X100309498Y-120834421D01*
X151489550Y-81618695D02*
X151484820Y-81619761D01*
X139102484Y-98444232D02*
X139018451Y-98692402D01*
X147834601Y-81536089D02*
X147773827Y-81542728D01*
X154983208Y-85300639D02*
X154986661Y-85296915D01*
X140004311Y-96515380D02*
X139871573Y-96746052D01*
X151480133Y-81621063D02*
X151475501Y-81622603D01*
X142801299Y-91965668D02*
X142789202Y-91966987D01*
X156858991Y-107983708D02*
X157042677Y-107709561D01*
X154358342Y-79530207D02*
X154314211Y-79533672D01*
X149803677Y-128337288D02*
X149834116Y-128091103D01*
X143531147Y-91156132D02*
X143541450Y-91167700D01*
X153847007Y-91313586D02*
X153969990Y-91126166D01*
X152987493Y-80070202D02*
X152978117Y-80078018D01*
X119739338Y-100455286D02*
X118801704Y-100676133D01*
X107932333Y-106617684D02*
X107479714Y-107052254D01*
X142651402Y-92034850D02*
X142651402Y-92034850D01*
X100976553Y-149973505D02*
X101026206Y-149974728D01*
X154548649Y-85722322D02*
X154554358Y-85721100D01*
X142602023Y-93551148D02*
X142602611Y-93556156D01*
X152079243Y-81520855D02*
X152077390Y-81524814D01*
X157375488Y-96709302D02*
X157204392Y-96416577D01*
X142679156Y-86029027D02*
X142636150Y-86213586D01*
X143522999Y-91146060D02*
X143531147Y-91156132D01*
X149707991Y-120942869D02*
X149594205Y-120292009D01*
X136216129Y-100044654D02*
X136200977Y-100058092D01*
X154978088Y-110033492D02*
X155022651Y-109991662D01*
X100825127Y-131456792D02*
X101000799Y-132079197D01*
X152018227Y-82032430D02*
X152017498Y-82097734D01*
X154995819Y-85284847D02*
X154998460Y-85280555D01*
X157195168Y-82151474D02*
X157199455Y-82144623D01*
X142519422Y-93651205D02*
X142506966Y-93660852D01*
X154910345Y-92254492D02*
X154903287Y-92244668D01*
X154559984Y-85719540D02*
X154565513Y-85717647D01*
X159312099Y-102148505D02*
X159334397Y-102116544D01*
X103633949Y-138059170D02*
X103652941Y-138098991D01*
X156706887Y-83407772D02*
X156745949Y-83335191D01*
X138666374Y-99724565D02*
X138622412Y-99783198D01*
X104773869Y-139992908D02*
X104773869Y-139992908D01*
X149146833Y-118358001D02*
X148963233Y-117720977D01*
X154740921Y-92145511D02*
X154728490Y-92143746D01*
X100029714Y-143468770D02*
X100026040Y-143518155D01*
X149804272Y-149532660D02*
X149830307Y-149491988D01*
X142777238Y-91968896D02*
X142765427Y-91971386D01*
X142830179Y-89524427D02*
X142883550Y-89677034D01*
X152053669Y-81560816D02*
X152053669Y-81560816D01*
X152017498Y-82097734D02*
X151579796Y-81647116D01*
X154821746Y-92173793D02*
X154810974Y-92168157D01*
X142582216Y-92184749D02*
X142581494Y-92196959D01*
X151445320Y-81640011D02*
X151441436Y-81643445D01*
X157829038Y-106250592D02*
X157958924Y-105943545D01*
X152104616Y-81427344D02*
X152089329Y-81488468D01*
X157206539Y-82132005D02*
X157209472Y-82126027D01*
X138528296Y-100037774D02*
X138530326Y-100110199D01*
X106629570Y-107924737D02*
X106229519Y-108365485D01*
X159386541Y-102033610D02*
X159399917Y-102008864D01*
X148037376Y-81525675D02*
X148037376Y-81525675D01*
X102926741Y-136816373D02*
X103225548Y-137358250D01*
X138532898Y-101255980D02*
X138528291Y-101372610D01*
X155451624Y-94310417D02*
X155236479Y-94092201D01*
X154447668Y-110457757D02*
X154742912Y-110233484D01*
X149352550Y-81554626D02*
X149297821Y-81549729D01*
X155005100Y-85266988D02*
X155006874Y-85262265D01*
X157084888Y-81903948D02*
X157032177Y-81854855D01*
X158534864Y-104023201D02*
X158595662Y-103693323D01*
X100166917Y-143053067D02*
X100142823Y-143095712D01*
X159458222Y-101857815D02*
X159465583Y-101830383D01*
X157218731Y-82101868D02*
X157220997Y-82094437D01*
X100318121Y-149681141D02*
X100318121Y-149681141D01*
X138572232Y-100506197D02*
X138573378Y-100532582D01*
X154062373Y-79569827D02*
X153985509Y-79586287D01*
X133015353Y-101214294D02*
X132230320Y-100962984D01*
X156050842Y-84175126D02*
X156050842Y-84175126D01*
X154862707Y-88564706D02*
X154867667Y-88504993D01*
X154933839Y-92296948D02*
X154928708Y-92285892D01*
X155508645Y-109503670D02*
X155733547Y-109272303D01*
X143773610Y-141574016D02*
X143871742Y-141462070D01*
X106337663Y-141675555D02*
X106539769Y-141890916D01*
X134562442Y-101784538D02*
X134558617Y-101793689D01*
X142352222Y-93788442D02*
X142313029Y-93823184D01*
X149914484Y-149316863D02*
X149930223Y-149270287D01*
X109379601Y-105363437D02*
X108642769Y-105976507D01*
X154493317Y-79524763D02*
X154493317Y-79524763D01*
X136186424Y-100072347D02*
X136186424Y-100072347D01*
X100083476Y-143229787D02*
X100068118Y-143276251D01*
X152455089Y-80652393D02*
X152419725Y-80707291D01*
X157071835Y-82318422D02*
X157081809Y-82303097D01*
X153355206Y-91939285D02*
X153384721Y-91907308D01*
X134584624Y-101740437D02*
X134579787Y-101749025D01*
X156136752Y-108855066D02*
X156277011Y-108707589D01*
X154662597Y-86179586D02*
X154616691Y-86026185D01*
X151135982Y-112037517D02*
X151491463Y-111935753D01*
X149063374Y-131888035D02*
X149297265Y-131011905D01*
X101763654Y-115640001D02*
X101486668Y-116363108D01*
X149896561Y-149362384D02*
X149914484Y-149316863D01*
X104812701Y-140020496D02*
X104853423Y-140051744D01*
X149803677Y-121596098D02*
X149803677Y-121596098D01*
X143488332Y-90970684D02*
X143492950Y-91002100D01*
X149313367Y-118999139D02*
X149146833Y-118358001D01*
X154617855Y-79526314D02*
X154617855Y-79526314D01*
X152025764Y-81867256D02*
X152025764Y-81867256D01*
X138583876Y-99836078D02*
X138554936Y-99877385D01*
X154519371Y-85723215D02*
X154525276Y-85723747D01*
X138551240Y-100347109D02*
X138556632Y-100383724D01*
X111733599Y-103699903D02*
X110926502Y-104224430D01*
X142592246Y-88595868D02*
X142621503Y-88750508D01*
X154965528Y-93801180D02*
X154967091Y-93795460D01*
X149901916Y-126382483D02*
X149904339Y-125754285D01*
X156931926Y-82874916D02*
X156954538Y-82794866D01*
X154873021Y-88361847D02*
X154873631Y-88264935D01*
X155584423Y-84465163D02*
X155666285Y-84424282D01*
X149149423Y-81541774D02*
X149049399Y-81538472D01*
X158711805Y-103024662D02*
X158723149Y-102992589D01*
X102384680Y-114218193D02*
X102063073Y-114924828D01*
X152021184Y-81607506D02*
X152020424Y-81611601D01*
X152082505Y-81512707D02*
X152080939Y-81516838D01*
X149176684Y-112356673D02*
X149242981Y-112353179D01*
X154986661Y-85157602D02*
X154983208Y-85153878D01*
X143057351Y-84957297D02*
X142980304Y-85130929D01*
X103723462Y-138302979D02*
X103733938Y-138348665D01*
X142530220Y-87607992D02*
X142536178Y-87958161D01*
X143810666Y-91398199D02*
X143823638Y-91411023D01*
X156743005Y-80889022D02*
X156702800Y-80814891D01*
X152020970Y-81941449D02*
X152019832Y-81970378D01*
X150562350Y-114448732D02*
X150560963Y-114428790D01*
X156498063Y-83722701D02*
X156513546Y-83703358D01*
X100142782Y-149444298D02*
X100166872Y-149486944D01*
X154139847Y-79555771D02*
X154062373Y-79569827D01*
X155463560Y-79711136D02*
X155372965Y-79675732D01*
X106229519Y-108365485D02*
X105844462Y-108811130D01*
X149498858Y-130127528D02*
X149667785Y-129235718D01*
X138560629Y-100859915D02*
X138552170Y-100957048D01*
X136571205Y-99962818D02*
X136551895Y-99958330D01*
X138574012Y-100560817D02*
X138573739Y-100623058D01*
X142595691Y-93595426D02*
X142583013Y-93604771D01*
X150655592Y-81876622D02*
X150450940Y-81806026D01*
X102063073Y-114924828D02*
X101763654Y-115640001D01*
X151475501Y-81622603D02*
X151470930Y-81624379D01*
X157041477Y-82370584D02*
X157041477Y-82370584D01*
X156879627Y-81197836D02*
X156849149Y-81118910D01*
X155071424Y-109944808D02*
X155185610Y-109832135D01*
X154581374Y-85710015D02*
X154586370Y-85706835D01*
X152017498Y-82097734D02*
X152017498Y-82097734D01*
X100044242Y-143371341D02*
X100035793Y-143419805D01*
X156388808Y-80388001D02*
X156347125Y-80344624D01*
X154595840Y-85699547D02*
X154600285Y-85695448D01*
X134623825Y-101683968D02*
X134617668Y-101691620D01*
X140706343Y-95484244D02*
X140644119Y-95562308D01*
X136373998Y-99962818D02*
X136354944Y-99968265D01*
X142608832Y-92092827D02*
X142603554Y-92103569D01*
X149297821Y-81549729D02*
X149231171Y-81545485D01*
X104940900Y-140125602D02*
X104987838Y-140168402D01*
X143894387Y-83632494D02*
X143804070Y-83742909D01*
X143464209Y-90879415D02*
X143468200Y-90889268D01*
X125003124Y-100024805D02*
X125003124Y-100024805D01*
X142558986Y-88381038D02*
X142567429Y-88442049D01*
X154576222Y-85712880D02*
X154581374Y-85710015D01*
X100318183Y-142858879D02*
X100283936Y-142894904D01*
X157030367Y-82405965D02*
X157033130Y-82394390D01*
X153263647Y-79877331D02*
X153197456Y-79918503D01*
X142542682Y-88177884D02*
X142546928Y-88255707D01*
X142789202Y-91966987D02*
X142777238Y-91968896D01*
X100512154Y-142707474D02*
X100470717Y-142733687D01*
X157041477Y-82370584D02*
X157052156Y-82351454D01*
X153612450Y-79703728D02*
X153540510Y-79734061D01*
X144085603Y-83416159D02*
X143988129Y-83523693D01*
X158656338Y-103289897D02*
X158667007Y-103223993D01*
X104317015Y-110834305D02*
X103888121Y-111489158D01*
X136551895Y-99958330D02*
X136532349Y-99954814D01*
X152234373Y-81058696D02*
X152208527Y-81119707D01*
X152022148Y-81604740D02*
X152022148Y-81604740D01*
X100735061Y-142608623D02*
X100688657Y-142623984D01*
X152121817Y-81365910D02*
X152104616Y-81427344D01*
X149888392Y-122663069D02*
X149875653Y-122348527D01*
X152861659Y-80190024D02*
X152816970Y-80235730D01*
X138697768Y-99682390D02*
X138666374Y-99724565D01*
X136627379Y-99981979D02*
X136608980Y-99974657D01*
X121634338Y-100126090D02*
X120684045Y-100271703D01*
X100096205Y-124179596D02*
X100095601Y-124966951D01*
X142427996Y-93724316D02*
X142390211Y-93755810D01*
X129014565Y-100219461D02*
X128194660Y-100100252D01*
X143468200Y-90889268D02*
X143471821Y-90899288D01*
X155416414Y-84537709D02*
X155501104Y-84502983D01*
X149242981Y-112353179D02*
X149302933Y-112349117D01*
X154616691Y-86026185D02*
X154566951Y-85873735D01*
X103225548Y-137358250D02*
X103535702Y-137884510D01*
X156196281Y-84039552D02*
X156240970Y-83993845D01*
X147925803Y-81529197D02*
X147894268Y-81531103D01*
X149076704Y-142570564D02*
X149025871Y-142566678D01*
X152085355Y-81503890D02*
X152083968Y-81508409D01*
X100878425Y-142576307D02*
X100830027Y-142584750D01*
X138541993Y-100269235D02*
X138551240Y-100347109D01*
X138528291Y-101372610D02*
X138521720Y-101622712D01*
X100068093Y-149263771D02*
X100083447Y-149310230D01*
X151518373Y-81617274D02*
X151513561Y-81616919D01*
X151523166Y-81617866D02*
X151518373Y-81617274D01*
X154989916Y-85293036D02*
X154992969Y-85289010D01*
X138545369Y-99891879D02*
X138539764Y-99901298D01*
X152948704Y-80104122D02*
X152937640Y-80114513D01*
X158646034Y-103361552D02*
X158646034Y-103361552D01*
X142731115Y-91982267D02*
X142720119Y-91987003D01*
X142621503Y-88750508D02*
X142655080Y-88905638D01*
X101854316Y-134519365D02*
X102103068Y-135110374D01*
X143632481Y-83969971D02*
X143632481Y-83969971D01*
X142585445Y-92160688D02*
X142583536Y-92172652D01*
X105473139Y-109263089D02*
X105114283Y-109722782D01*
X120684045Y-100271703D02*
X119739338Y-100455286D01*
X157040089Y-82373355D02*
X157041477Y-82370584D01*
X157108743Y-81926396D02*
X157096377Y-81914650D01*
X138528318Y-100005247D02*
X138528296Y-100037774D01*
X142608253Y-93585921D02*
X142608253Y-93585921D01*
X156296822Y-83936380D02*
X156396993Y-83832817D01*
X142842854Y-85484630D02*
X142782566Y-85664400D01*
X142581379Y-92209261D02*
X142581379Y-92209261D01*
X155006874Y-85192252D02*
X155005100Y-85187529D01*
X142603301Y-93561153D02*
X142604091Y-93566138D01*
X151579796Y-81647116D02*
X151579796Y-81647116D01*
X154552799Y-89925523D02*
X154623268Y-89714591D01*
X154270378Y-79537962D02*
X154226759Y-79543076D01*
X157033130Y-82394390D02*
X157035911Y-82384580D01*
X150562350Y-114488695D02*
X150562812Y-114468713D01*
X156543001Y-108410592D02*
X156605230Y-108332533D01*
X155726545Y-79838269D02*
X155640505Y-79792462D01*
X154974084Y-93754508D02*
X154974514Y-93748558D01*
X158911133Y-101089856D02*
X158697708Y-100894002D01*
X154788592Y-92158417D02*
X154777014Y-92154345D01*
X154699505Y-84700159D02*
X154699505Y-84700159D01*
X154183276Y-79549012D02*
X154139847Y-79555771D01*
X155328675Y-109687685D02*
X155508645Y-109503670D01*
X158734398Y-102968294D02*
X158777444Y-102891301D01*
X159474324Y-101781273D02*
X159475145Y-101769880D01*
X146394764Y-81875517D02*
X146174516Y-81961950D01*
X148864216Y-116385409D02*
X148883225Y-116369835D01*
X153540510Y-79734061D02*
X153469599Y-79766613D01*
X156605230Y-108332533D02*
X156666824Y-108251176D01*
X158198203Y-98571273D02*
X158085837Y-98249576D01*
X142980304Y-85130929D02*
X142908786Y-85306757D01*
X159440986Y-101648922D02*
X159433425Y-101636921D01*
X154948989Y-92343703D02*
X154946039Y-92331667D01*
X155003104Y-85182900D02*
X155000889Y-85178375D01*
X138538404Y-101146884D02*
X138532898Y-101255980D01*
X158777444Y-102891301D02*
X158817614Y-102822312D01*
X136590244Y-99968265D02*
X136571205Y-99962818D01*
X150444466Y-114174329D02*
X150444466Y-114174329D01*
X100688657Y-142623984D02*
X100643083Y-142641584D01*
X100688575Y-149916070D02*
X100734977Y-149931437D01*
X156297340Y-80293194D02*
X156196632Y-80189930D01*
X148171605Y-134458803D02*
X148500175Y-133612297D01*
X156451420Y-80454406D02*
X156423276Y-80424279D01*
X147074152Y-81668298D02*
X146844948Y-81728523D01*
X144187116Y-83309542D02*
X144085603Y-83416159D01*
X156459092Y-83767088D02*
X156480534Y-83743257D01*
X148802859Y-116424400D02*
X148823972Y-116412710D01*
X100665473Y-130832109D02*
X100825127Y-131456792D01*
X143000962Y-89977418D02*
X143064764Y-90124533D01*
X103778064Y-138632267D02*
X103778064Y-138632267D01*
X103535702Y-137884510D02*
X103535702Y-137884510D01*
X157038698Y-82376617D02*
X157040089Y-82373355D01*
X155012296Y-85237522D02*
X155012666Y-85232408D01*
X157159152Y-81976208D02*
X157147189Y-81964092D01*
X157384052Y-107142594D02*
X157541463Y-106850459D01*
X154753163Y-92147876D02*
X154740921Y-92145511D01*
X100251597Y-149607598D02*
X100283877Y-149645114D01*
X149025783Y-149973412D02*
X149076617Y-149969530D01*
X100643002Y-149898466D02*
X100688575Y-149916070D01*
X150472203Y-114731757D02*
X150484685Y-114715122D01*
X155012791Y-85227259D02*
X155012791Y-85227259D01*
X154971938Y-93772228D02*
X154972796Y-93766346D01*
X149857835Y-127849440D02*
X149875654Y-127585023D01*
X157154713Y-82206767D02*
X157171458Y-82184932D01*
X155011683Y-85211925D02*
X155010831Y-85206907D01*
X136472618Y-99950245D02*
X136452558Y-99950757D01*
X157032177Y-81854855D02*
X157032177Y-81854855D01*
X151555470Y-81628642D02*
X151551051Y-81626392D01*
X103856095Y-139154198D02*
X103856095Y-139154198D01*
X150558651Y-114528514D02*
X150560963Y-114508641D01*
X143775250Y-91365831D02*
X143786494Y-91375626D01*
X152161714Y-81242639D02*
X152140870Y-81304298D01*
X154957886Y-93823633D02*
X154960004Y-93818089D01*
X134600297Y-101715427D02*
X134594881Y-101723635D01*
X143542526Y-141827140D02*
X143663380Y-141696171D01*
X159431865Y-101937369D02*
X159449085Y-101887740D01*
X153132594Y-79961763D02*
X153069122Y-80007087D01*
X152140870Y-81304298D02*
X152121817Y-81365910D01*
X105037030Y-140215241D02*
X105088568Y-140266216D01*
X151579796Y-81647116D02*
X151576046Y-81643445D01*
X136758480Y-100072347D02*
X136743967Y-100058092D01*
X149493302Y-149829516D02*
X149533913Y-149803438D01*
X142536178Y-87958161D02*
X142542682Y-88177884D01*
X152188587Y-111693832D02*
X152529553Y-111553937D01*
X149904339Y-125754285D02*
X149904964Y-124966951D01*
X153384721Y-91907308D02*
X153411609Y-91877469D01*
X153909316Y-79605125D02*
X153833854Y-79626314D01*
X153579673Y-91675758D02*
X153716873Y-91496850D01*
X157222824Y-82087631D02*
X157224170Y-82081343D01*
X154954268Y-92380982D02*
X154953119Y-92368377D01*
X143351129Y-90684736D02*
X143429909Y-90816065D01*
X149297265Y-131011905D02*
X149498858Y-130127528D01*
X142678881Y-92011276D02*
X142669359Y-92018636D01*
X149231171Y-81545485D02*
X149149423Y-81541774D01*
X142813508Y-91964946D02*
X142801299Y-91965668D01*
X147538958Y-81575233D02*
X147305611Y-81617145D01*
X154995819Y-85169670D02*
X154992969Y-85165507D01*
X100165957Y-128091103D02*
X100196370Y-128337288D01*
X152064822Y-81545603D02*
X152061459Y-81550338D01*
X122121588Y-100071874D02*
X121880201Y-100095611D01*
X149049399Y-81538472D02*
X148927920Y-81535459D01*
X159107502Y-102415356D02*
X159191013Y-102309269D01*
X154862524Y-87441791D02*
X154856013Y-87222067D01*
X138782815Y-99531126D02*
X138776462Y-99547728D01*
X156480534Y-83743257D02*
X156498063Y-83722701D01*
X157021843Y-81776306D02*
X157009317Y-81691304D01*
X143499169Y-91045844D02*
X143505222Y-91084767D01*
X142734713Y-89216042D02*
X142780527Y-89370653D01*
X149746650Y-149609832D02*
X149776365Y-149571962D01*
X156132409Y-84103424D02*
X156160758Y-84075434D01*
X100829941Y-149955319D02*
X100878338Y-149963767D01*
X150551255Y-114369563D02*
X150546169Y-114350144D01*
X105258171Y-140444896D02*
X105320006Y-140513359D01*
X149272012Y-142610508D02*
X149224514Y-142596988D01*
X156634785Y-95573397D02*
X156587625Y-95512932D01*
X157224919Y-82064501D02*
X157224511Y-82061847D01*
X154868484Y-87791960D02*
X154862524Y-87441791D01*
X157217744Y-107429076D02*
X157384052Y-107142594D01*
X159058583Y-101230230D02*
X159006984Y-101180228D01*
X156089248Y-84143461D02*
X156098969Y-84134841D01*
X147959601Y-81527666D02*
X147925803Y-81529197D01*
X100782212Y-142595533D02*
X100735061Y-142608623D01*
X151057865Y-82038305D02*
X150857951Y-81954088D01*
X106147467Y-141469004D02*
X106337663Y-141675555D01*
X103890919Y-139213384D02*
X103923193Y-139253625D01*
X143616778Y-91240179D02*
X143634902Y-91256044D01*
X151572163Y-81640011D02*
X151568155Y-81636813D01*
X143567549Y-91194431D02*
X143582858Y-91209150D01*
X158291308Y-104998050D02*
X158382548Y-104675906D01*
X148901409Y-116353004D02*
X148901409Y-116353004D01*
X138567045Y-100772166D02*
X138560629Y-100859915D01*
X151537349Y-81621063D02*
X151532663Y-81619761D01*
X154953119Y-92368377D02*
X154951354Y-92355945D01*
X136200977Y-100058092D02*
X136186424Y-100072347D01*
X138776462Y-99547728D02*
X138769589Y-99563872D01*
X157222271Y-82053877D02*
X157221169Y-82051173D01*
X100354105Y-149715425D02*
X100391575Y-149747743D01*
X157223192Y-82056548D02*
X157222271Y-82053877D01*
X100878338Y-149963767D02*
X100927236Y-149969840D01*
X142655080Y-88905638D02*
X142692857Y-89060926D01*
X142605972Y-93576064D02*
X142607063Y-93581002D01*
X152559877Y-80507305D02*
X152544396Y-80526708D01*
X138529063Y-99975903D02*
X138528318Y-100005247D01*
X142636150Y-86213586D02*
X142599020Y-86399443D01*
X152019493Y-81623236D02*
X152019310Y-81630508D01*
X138799827Y-99476397D02*
X138794389Y-99495679D01*
X142525689Y-87038107D02*
X142525076Y-87135019D01*
X159258482Y-102221452D02*
X159312099Y-102148505D01*
X143866364Y-91455924D02*
X143898245Y-91491446D01*
X142688738Y-92004425D02*
X142678881Y-92011276D01*
X103670063Y-138138393D02*
X103685497Y-138177934D01*
X153007099Y-80054447D02*
X152987493Y-80070202D01*
X152761120Y-80293194D02*
X152761120Y-80293194D01*
X158656368Y-100576709D02*
X158606209Y-100234716D01*
X153069122Y-80007087D02*
X153007099Y-80054447D01*
X159411748Y-101984858D02*
X159422306Y-101961169D01*
X158911133Y-101089856D02*
X158911133Y-101089856D01*
X149803677Y-121596098D02*
X149707991Y-120942869D01*
X143201956Y-90410948D02*
X143275105Y-90549586D01*
X152029323Y-81743030D02*
X152029890Y-81748728D01*
X123587808Y-100027834D02*
X122700020Y-100041323D01*
X149854410Y-149450010D02*
X149876515Y-149406787D01*
X110141340Y-104779176D02*
X109379601Y-105363437D01*
X156906861Y-82954154D02*
X156931926Y-82874916D01*
X155094564Y-79591247D02*
X155000078Y-79570519D01*
X154867667Y-88504993D02*
X154871069Y-88439620D01*
X149451386Y-149853658D02*
X149493302Y-149829516D01*
X153254620Y-92044647D02*
X153323436Y-91973061D01*
X103964084Y-139299784D02*
X104012620Y-139350974D01*
X103743624Y-138397283D02*
X103752700Y-138449394D01*
X152865004Y-111401594D02*
X153194600Y-111236935D01*
X142643049Y-92043640D02*
X142635189Y-92052807D01*
X152020424Y-81611601D02*
X152019862Y-81616889D01*
X156513546Y-83703358D02*
X156528851Y-83683167D01*
X149803677Y-128337288D02*
X149803677Y-128337288D01*
X154842373Y-92186519D02*
X154832218Y-92179919D01*
X152080939Y-81516838D02*
X152079243Y-81520855D01*
X100142823Y-143095712D02*
X100120863Y-143139436D01*
X154859620Y-110138573D02*
X154897576Y-110105974D01*
X156132594Y-80126069D02*
X156109351Y-80104062D01*
X154972796Y-93766346D02*
X154973511Y-93760438D01*
X100283877Y-149645114D02*
X100318121Y-149681141D01*
X154523982Y-79524594D02*
X154493317Y-79524763D01*
X101026206Y-149974728D02*
X101026206Y-149974728D01*
X100196370Y-128337288D02*
X100287285Y-128957739D01*
X148569989Y-116464993D02*
X148594136Y-116467456D01*
X143505222Y-91084767D02*
X143510437Y-91114654D01*
X103712017Y-138259668D02*
X103723462Y-138302979D01*
X103589642Y-137976032D02*
X103612910Y-138018370D01*
X144464432Y-140748387D02*
X145029251Y-140016691D01*
X147773827Y-81542728D02*
X147773827Y-81542728D01*
X148257270Y-81525459D02*
X148134355Y-81524976D01*
X156622159Y-83548625D02*
X156665612Y-83478945D01*
X100024805Y-148972206D02*
X100026035Y-149021914D01*
X100098571Y-123551340D02*
X100096205Y-124179596D01*
X112561146Y-103206300D02*
X111733599Y-103699903D01*
X154703121Y-92142082D02*
X153181252Y-92119344D01*
X117872629Y-100933541D02*
X116953598Y-101226804D01*
X156050842Y-80054447D02*
X155973058Y-79995575D01*
X156277011Y-108707589D02*
X156386440Y-108589859D01*
X142583013Y-93604771D02*
X142557488Y-93623224D01*
X150776339Y-112126308D02*
X151135982Y-112037517D01*
X152925531Y-80126153D02*
X152897181Y-80154143D01*
X152019816Y-81656516D02*
X152020972Y-81676003D01*
X143970959Y-91576741D02*
X144006156Y-91618177D01*
X156474127Y-80479337D02*
X156451420Y-80454406D01*
X149647351Y-142825921D02*
X149611036Y-142794410D01*
X106969829Y-142338268D02*
X107192842Y-142565361D01*
X152053669Y-81560816D02*
X152042732Y-81575372D01*
X154852197Y-92193578D02*
X154842373Y-92186519D01*
X104705217Y-139944814D02*
X104773869Y-139992908D01*
X157219881Y-82048422D02*
X157218402Y-82045611D01*
X151532663Y-81619761D02*
X151527932Y-81618695D01*
X143541450Y-91167700D02*
X143553666Y-91180541D01*
X126785599Y-100033147D02*
X126295133Y-100028311D01*
X158957314Y-101132921D02*
X158911133Y-101089856D01*
X103685497Y-138177934D02*
X103699421Y-138218173D01*
X154314211Y-79533672D02*
X154270378Y-79537962D01*
X142627829Y-92062329D02*
X142620977Y-92072187D01*
X156634785Y-95573397D02*
X156634785Y-95573397D01*
X154590157Y-84704379D02*
X154631056Y-84703472D01*
X138521720Y-101622712D02*
X138518578Y-101885673D01*
X143823638Y-91411023D02*
X143837230Y-91424903D01*
X142583536Y-92172652D02*
X142582216Y-92184749D01*
X159107502Y-102415356D02*
X159107502Y-102415356D01*
X155012666Y-85222110D02*
X155012296Y-85216996D01*
X134636675Y-101669112D02*
X134630161Y-101676464D01*
X118801704Y-100676133D02*
X117872629Y-100933541D01*
X149834116Y-128091103D02*
X149857835Y-127849440D01*
X143851465Y-91439862D02*
X143866364Y-91455924D01*
X138573739Y-100623058D02*
X138571416Y-100693361D01*
X158300443Y-98896956D02*
X158198203Y-98571273D01*
X143764537Y-91356999D02*
X143775250Y-91365831D01*
X141515812Y-94622550D02*
X141515812Y-94622550D01*
X153435497Y-91850110D02*
X153435497Y-91850110D01*
X152030660Y-81761455D02*
X152030861Y-81768507D01*
X103093486Y-112832963D02*
X102728233Y-113520703D01*
X136743967Y-100058092D02*
X136728852Y-100044654D01*
X152023933Y-81889537D02*
X152022336Y-81914385D01*
X101619246Y-133919409D02*
X101854316Y-134519365D01*
X154936731Y-110071272D02*
X154978088Y-110033492D01*
X148864267Y-112365504D02*
X149028297Y-112362064D01*
X128194660Y-100100252D02*
X128194660Y-100100252D01*
X156529319Y-95443108D02*
X156456295Y-95360079D01*
X148974361Y-142565357D02*
X148974361Y-142565357D01*
X145334362Y-82390000D02*
X145136362Y-82516752D01*
X142506966Y-93660852D02*
X142506966Y-93660852D01*
X142178198Y-93949785D02*
X142063917Y-94062553D01*
X136282069Y-99999357D02*
X136264851Y-100009385D01*
X141112601Y-95039782D02*
X140972337Y-95187253D01*
X100024805Y-148972206D02*
X100024805Y-148972206D01*
X156240970Y-83993845D02*
X156296822Y-83936380D01*
X156992267Y-82632672D02*
X157007316Y-82550699D01*
X154968514Y-93789702D02*
X154969796Y-93783909D01*
X156816203Y-81041092D02*
X156780814Y-80964443D01*
X143786494Y-91375626D02*
X143798292Y-91386408D01*
X142669359Y-92018636D02*
X142660192Y-92026497D01*
X155902304Y-84283606D02*
X155977510Y-84230814D01*
X104633546Y-139892010D02*
X104705217Y-139944814D01*
X105088568Y-140266216D02*
X105142544Y-140321420D01*
X138810551Y-99433626D02*
X138810551Y-99433626D01*
X153716873Y-91496850D02*
X153847007Y-91313586D01*
X154704573Y-86333853D02*
X154662597Y-86179586D01*
X152067866Y-81541132D02*
X152064822Y-81545603D01*
X152529553Y-111553937D02*
X152865004Y-111401594D01*
X155000078Y-79570519D02*
X154905008Y-79553605D01*
X150540160Y-114330948D02*
X150533225Y-114312013D01*
X157195643Y-82015394D02*
X157188053Y-82006881D01*
X138544823Y-101046759D02*
X138538404Y-101146884D01*
X138539764Y-99901298D02*
X138539764Y-99901298D01*
X103699421Y-138218173D02*
X103712017Y-138259668D01*
X143798292Y-91386408D02*
X143810666Y-91398199D01*
X156109237Y-84125456D02*
X156120300Y-84115064D01*
X153834874Y-110871191D02*
X154144875Y-110670370D01*
X107932333Y-106617684D02*
X107932333Y-106617684D01*
X159472937Y-101792966D02*
X159474324Y-101781273D01*
X144757369Y-82792766D02*
X144577108Y-82941692D01*
X154600285Y-85695448D02*
X154600285Y-85695448D01*
X151568155Y-81636813D02*
X151564031Y-81633853D01*
X101192021Y-132697991D02*
X101398326Y-133311840D01*
X154954784Y-92393746D02*
X154954268Y-92380982D01*
X156665612Y-83478945D02*
X156706887Y-83407772D01*
X100026040Y-143518155D02*
X100024805Y-143567879D01*
X139395318Y-97703847D02*
X139291165Y-97949425D01*
X159405678Y-101598296D02*
X159382755Y-101569822D01*
X142782566Y-85664400D02*
X142727981Y-85845915D01*
X148607887Y-81529810D02*
X148257270Y-81525459D01*
X101232359Y-117093543D02*
X101000970Y-117830699D01*
X154742912Y-110233484D02*
X154742912Y-110233484D01*
X149875653Y-122348527D02*
X149857834Y-122084027D01*
X131437137Y-100737598D02*
X130636391Y-100538383D01*
X154809510Y-79540560D02*
X154713741Y-79531444D01*
X156251812Y-95139018D02*
X156113211Y-94993292D01*
X155281164Y-79643911D02*
X155188312Y-79615730D01*
X153323436Y-91973061D02*
X153355206Y-91939285D01*
X148974274Y-149974728D02*
X149025783Y-149973412D01*
X143471821Y-90899288D02*
X143475117Y-90909614D01*
X142542622Y-86774451D02*
X142542622Y-86774451D01*
X148762828Y-117088502D02*
X148545876Y-116461012D01*
X152029393Y-81821251D02*
X152027851Y-81843103D01*
X154566951Y-85873735D02*
X154513470Y-85722319D01*
X143837230Y-91424903D02*
X143851465Y-91439862D01*
X104067833Y-139406312D02*
X104128753Y-139464909D01*
X151453452Y-81633853D02*
X151449328Y-81636813D01*
X138723606Y-99645364D02*
X138711327Y-99663343D01*
X149682048Y-149681021D02*
X149715190Y-149646206D01*
X105320006Y-140513359D02*
X105384642Y-140586430D01*
X149804321Y-143007477D02*
X149776418Y-142968176D01*
X140142024Y-96289277D02*
X140004311Y-96515380D01*
X104766634Y-110191626D02*
X104317015Y-110834305D01*
X149746706Y-142930306D02*
X149715250Y-142893932D01*
X142742346Y-91978080D02*
X142731115Y-91982267D01*
X154821860Y-110170042D02*
X154859620Y-110138573D01*
X150558651Y-114408923D02*
X150555415Y-114389169D01*
X143227798Y-84617214D02*
X143139869Y-84786008D01*
X154765199Y-92150826D02*
X154753163Y-92147876D01*
X142780527Y-89370653D02*
X142830179Y-89524427D01*
X154938448Y-92308274D02*
X154933839Y-92296948D01*
X152352584Y-80820758D02*
X152320930Y-80879064D01*
X155000889Y-85276142D02*
X155003104Y-85271617D01*
X100927323Y-142570239D02*
X100878425Y-142576307D01*
X127189445Y-100040441D02*
X126785599Y-100033147D01*
X154969796Y-93783909D02*
X154970938Y-93778084D01*
X156666824Y-108251176D02*
X156858991Y-107983708D01*
X154799917Y-92163026D02*
X154788592Y-92158417D01*
X156833943Y-95848383D02*
X156634785Y-95573397D01*
X100029705Y-149071286D02*
X100035780Y-149120240D01*
X143475117Y-90909614D02*
X143478134Y-90920385D01*
X157118121Y-82253343D02*
X157133980Y-82233126D01*
X154792169Y-84691377D02*
X154884128Y-84679237D01*
X154856013Y-87222067D02*
X154851765Y-87144243D01*
X141740739Y-94391160D02*
X141515812Y-94622550D01*
X103888121Y-111489158D02*
X103480197Y-112155580D01*
X140431383Y-95852896D02*
X140284463Y-96068272D01*
X116953598Y-101226804D02*
X116046100Y-101555219D01*
X154923072Y-92275119D02*
X154916946Y-92264648D01*
X157207959Y-82030188D02*
X157202265Y-82023127D01*
X152544396Y-80526708D02*
X152529095Y-80546925D01*
X143933051Y-91531657D02*
X143970959Y-91576741D01*
X156347125Y-80344624D02*
X156297340Y-80293194D01*
X155009743Y-85201950D02*
X155008423Y-85197062D01*
X155330435Y-84569308D02*
X155416414Y-84537709D01*
X150444466Y-114763440D02*
X150458797Y-114747875D01*
X156587625Y-95512932D02*
X156529319Y-95443108D01*
X100111917Y-122663069D02*
X100103531Y-123054919D01*
X157218402Y-82045611D02*
X157216726Y-82042728D01*
X143898245Y-91491446D02*
X143933051Y-91531657D01*
X134643364Y-101661914D02*
X134636675Y-101669112D01*
X153331108Y-79838275D02*
X153263647Y-79877331D01*
X159399917Y-102008864D02*
X159411748Y-101984858D01*
X157042677Y-107709561D02*
X157217744Y-107429076D01*
X149025871Y-142566678D02*
X148974361Y-142565357D01*
X151494317Y-81617866D02*
X151489550Y-81618695D01*
X103822812Y-138966207D02*
X103842123Y-139087017D01*
X154295153Y-90540959D02*
X154388654Y-90338907D01*
X105522688Y-140746778D02*
X105673038Y-140926701D01*
X100095601Y-124966951D02*
X100098571Y-126382483D01*
X156576560Y-83616727D02*
X156622159Y-83548625D01*
X110926502Y-104224430D02*
X110141340Y-104779176D01*
X100927236Y-149969840D02*
X100976553Y-149973505D01*
X155188312Y-79615730D02*
X155094564Y-79591247D01*
X157147189Y-81964092D02*
X157134539Y-81951498D01*
X142765427Y-91971386D02*
X142753789Y-91974450D01*
X104012620Y-139350974D02*
X104067833Y-139406312D01*
X100522303Y-130206483D02*
X100665473Y-130832109D01*
X100044225Y-149168694D02*
X100055008Y-149216565D01*
X134643364Y-101661914D02*
X134643364Y-101661914D01*
X100095601Y-124966951D02*
X100095601Y-124966951D01*
X155005100Y-85187529D02*
X155003104Y-85182900D01*
X154961984Y-93812497D02*
X154963826Y-93806860D01*
X156518513Y-80532454D02*
X156518513Y-80532454D01*
X100470717Y-142733687D02*
X100430519Y-142761968D01*
X100124562Y-122348527D02*
X100111917Y-122663069D01*
X138805179Y-99455785D02*
X138799827Y-99476397D01*
X148618255Y-116468421D02*
X148642285Y-116467904D01*
X101000970Y-117830699D02*
X100792746Y-118573970D01*
X154531171Y-85723920D02*
X154537041Y-85723737D01*
X103733938Y-138348665D02*
X103743624Y-138397283D01*
X142651402Y-92034850D02*
X142643049Y-92043640D01*
X150412875Y-112201995D02*
X150776339Y-112126308D01*
X136264851Y-100009385D02*
X136248100Y-100020287D01*
X154992969Y-85289010D02*
X154995819Y-85284847D01*
X102103068Y-135110374D02*
X102365034Y-135691100D01*
X143510437Y-91114654D02*
X143512520Y-91124892D01*
X159290955Y-101466577D02*
X159253095Y-101426283D01*
X154565513Y-85717647D02*
X154570931Y-85715426D01*
X158463780Y-104350842D02*
X158534864Y-104023201D01*
X142604091Y-93566138D02*
X142604981Y-93571109D01*
X154861674Y-92201079D02*
X154852197Y-92193578D01*
X150444466Y-114174329D02*
X148691086Y-112367204D01*
X100430448Y-149778062D02*
X100470644Y-149806347D01*
X154554939Y-79524822D02*
X154523982Y-79524594D01*
X134575148Y-101757733D02*
X134570710Y-101766557D01*
X142698910Y-91998090D02*
X142688738Y-92004425D01*
X100470644Y-149806347D02*
X100512079Y-149832563D01*
X157202265Y-82023127D02*
X157195643Y-82015394D01*
X156956013Y-81440664D02*
X156933083Y-81358773D01*
X159425034Y-101624519D02*
X159405678Y-101598296D01*
X149888394Y-127270576D02*
X149896874Y-126878821D01*
X142390211Y-93755810D02*
X142352222Y-93788442D01*
X143691012Y-91302374D02*
X143709483Y-91316654D01*
X156297340Y-80293194D02*
X156297340Y-80293194D01*
X149533986Y-142736692D02*
X149493377Y-142710611D01*
X156615302Y-80670734D02*
X156568057Y-80600829D01*
X100512079Y-149832563D02*
X100554672Y-149856678D01*
X154623268Y-89714591D02*
X154685885Y-89501097D01*
X154787213Y-89067224D02*
X154825749Y-88847244D01*
X150857951Y-81954088D02*
X150655592Y-81876622D01*
X148594136Y-116467456D02*
X148618255Y-116468421D01*
X159354055Y-102087025D02*
X159371345Y-102059522D01*
X136696948Y-100020287D02*
X136680227Y-100009385D01*
X152025925Y-81598795D02*
X152023542Y-81602400D01*
X154871069Y-88439620D02*
X154873021Y-88361847D01*
X140284463Y-96068272D02*
X140142024Y-96289277D01*
X150533225Y-114312013D02*
X150525366Y-114293374D01*
X142536003Y-86835248D02*
X142531046Y-86894962D01*
X154998460Y-85173962D02*
X154995819Y-85169670D01*
X149176002Y-149954321D02*
X149224429Y-149943119D01*
X100830027Y-142584750D02*
X100782212Y-142595533D01*
X134630161Y-101676464D02*
X134623825Y-101683968D01*
X146552791Y-137721659D02*
X147002437Y-136926047D01*
X138556632Y-100383724D02*
X138562504Y-100418062D01*
X156528851Y-83683167D02*
X156528851Y-83683167D01*
X154742912Y-110233484D02*
X154821860Y-110170042D01*
X142602611Y-93556156D02*
X142603301Y-93561153D01*
X136412876Y-99954814D02*
X136393320Y-99958330D01*
X142614642Y-92082359D02*
X142608832Y-92092827D01*
X148736291Y-116451407D02*
X148758957Y-116443767D01*
X156518513Y-80532454D02*
X156506785Y-80517409D01*
X157212089Y-82120129D02*
X157214459Y-82114206D01*
X154954784Y-92393746D02*
X154954784Y-92393746D01*
X156660225Y-80742108D02*
X156615302Y-80670734D01*
X154740563Y-89285242D02*
X154787213Y-89067224D01*
X156879379Y-83032496D02*
X156906861Y-82954154D01*
X144943909Y-82651063D02*
X144757369Y-82792766D01*
X156506785Y-80517409D02*
X156492285Y-80500020D01*
X143443620Y-90838911D02*
X143449552Y-90849478D01*
X157224650Y-82078359D02*
X157224995Y-82075464D01*
X154983208Y-85300639D02*
X154983208Y-85300639D01*
X158723149Y-102992589D02*
X158728790Y-102979448D01*
X143478134Y-90920385D02*
X143480918Y-90931739D01*
X154946039Y-92331667D02*
X154942520Y-92319852D01*
X155010831Y-85247610D02*
X155011683Y-85242592D01*
X138788754Y-99513849D02*
X138782815Y-99531126D01*
X159453696Y-101671937D02*
X159447736Y-101660576D01*
X152022148Y-81604740D02*
X152021184Y-81607506D01*
X136186424Y-100072347D02*
X134643364Y-101661914D01*
X154974941Y-93736609D02*
X154974937Y-93730615D01*
X143064764Y-90124533D02*
X143131802Y-90269153D01*
X105114283Y-109722782D02*
X104766634Y-110191626D01*
X156079824Y-84151558D02*
X156089248Y-84143461D01*
X154887858Y-92226078D02*
X154879520Y-92217345D01*
X143419663Y-84287707D02*
X143321082Y-84451064D01*
X155003104Y-85271617D02*
X155005100Y-85266988D01*
X158940375Y-102634600D02*
X158988553Y-102568858D01*
X154989916Y-85161481D02*
X154986661Y-85157602D01*
X105199048Y-140380948D02*
X105258171Y-140444896D01*
X149975243Y-148972206D02*
X149975243Y-148972206D01*
X159463328Y-101693994D02*
X159458887Y-101683058D01*
X151564031Y-81633853D02*
X151559799Y-81631129D01*
X154831280Y-86957902D02*
X154805972Y-86801011D01*
X159356102Y-101538665D02*
X159325556Y-101504393D01*
X152027832Y-81732899D02*
X152028636Y-81737757D01*
X140776756Y-95401221D02*
X140706343Y-95484244D01*
X149126711Y-149963146D02*
X149176002Y-149954321D01*
X103752700Y-138449394D02*
X103761345Y-138505556D01*
X154974937Y-93730615D02*
X154954784Y-92393746D01*
X158085837Y-98249576D02*
X157963440Y-97932105D01*
X105673038Y-140926701D02*
X105673038Y-140926701D01*
X149408228Y-149875801D02*
X149451386Y-149853658D01*
X154586370Y-85706835D02*
X154591197Y-85703344D01*
X158606209Y-100234716D02*
X158545440Y-99895503D01*
X154194151Y-90739653D02*
X154295153Y-90540959D01*
X127788480Y-100063615D02*
X127519471Y-100050496D01*
X149970076Y-143465408D02*
X149963711Y-143415249D01*
X153759183Y-79649829D02*
X153685361Y-79675642D01*
X149363890Y-149895881D02*
X149408228Y-149875801D01*
X147894268Y-81531103D02*
X147864149Y-81533396D01*
X149611036Y-142794410D02*
X149573226Y-142764646D01*
X159191013Y-102309269D02*
X159258482Y-102221452D01*
X154839713Y-87018912D02*
X154831280Y-86957902D01*
X144353367Y-91987569D02*
X144353367Y-91987569D01*
X154699505Y-84700159D02*
X154792169Y-84691377D01*
X157027637Y-82419221D02*
X157030367Y-82405965D01*
X150506875Y-114257136D02*
X150496242Y-114239610D01*
X101026294Y-142565361D02*
X101026294Y-142565361D01*
X149076617Y-149969530D02*
X149126711Y-149963146D01*
X152027851Y-81843103D02*
X152025764Y-81867256D01*
X149973936Y-149023789D02*
X149975243Y-148972206D01*
X150484685Y-114222530D02*
X150472203Y-114205932D01*
X142720119Y-91987003D02*
X142709377Y-91992280D01*
X158817614Y-102822312D02*
X158856858Y-102758450D01*
X149682110Y-142859116D02*
X149647351Y-142825921D01*
X154983208Y-85153878D02*
X154983208Y-85153878D01*
X136645409Y-99990217D02*
X136627379Y-99981979D01*
X152385536Y-80763457D02*
X152352584Y-80820758D01*
X144403492Y-83097673D02*
X144292977Y-83203497D01*
X143653478Y-91271847D02*
X143672262Y-91287365D01*
X152290636Y-80938244D02*
X152261763Y-80998165D01*
X142908786Y-85306757D02*
X142842854Y-85484630D01*
X138552170Y-100957048D02*
X138544823Y-101046759D01*
X149408307Y-142664321D02*
X149363971Y-142644237D01*
X126295133Y-100028311D02*
X125003124Y-100024805D01*
X138534956Y-100188809D02*
X138541993Y-100269235D01*
X142940517Y-89828142D02*
X143000962Y-89977418D01*
X152019310Y-81630508D02*
X152019307Y-81638568D01*
X154970938Y-93778084D02*
X154971938Y-93772228D01*
X156070448Y-84159374D02*
X156079824Y-84151558D01*
X157024953Y-82434076D02*
X157027637Y-82419221D01*
X149830307Y-149491988D02*
X149854410Y-149450010D01*
X157179455Y-81997480D02*
X157179455Y-81997480D01*
X142825809Y-91964831D02*
X142825809Y-91964831D01*
X147996510Y-81526496D02*
X147959601Y-81527666D01*
X138530326Y-100110199D02*
X138534956Y-100188809D01*
X159470044Y-101715524D02*
X159467040Y-101704798D01*
X154974514Y-93748558D02*
X154974799Y-93742591D01*
X148927920Y-81535459D02*
X148607887Y-81529810D01*
X133791648Y-101491279D02*
X133015353Y-101214294D01*
X154928708Y-92285892D02*
X154923072Y-92275119D01*
X143663380Y-141696171D02*
X143773610Y-141574016D01*
X149930249Y-143269836D02*
X149914515Y-143223264D01*
X157190293Y-82158824D02*
X157195168Y-82151474D01*
X142530220Y-87607992D02*
X142530220Y-87607992D01*
X155810754Y-79887429D02*
X155726545Y-79838269D01*
X156120300Y-84115064D02*
X156132409Y-84103424D01*
X149271928Y-149929603D02*
X149318436Y-149913836D01*
X152958971Y-80094737D02*
X152948704Y-80104122D01*
X149176088Y-142585782D02*
X149126797Y-142576953D01*
X154144875Y-110670370D02*
X154447668Y-110457757D01*
X138571416Y-100693361D02*
X138567045Y-100772166D01*
X142709377Y-91992280D02*
X142698910Y-91998090D01*
X155008423Y-85197062D02*
X155006874Y-85192252D01*
X158988553Y-102568858D02*
X159043611Y-102496736D01*
X100391642Y-142792283D02*
X100354170Y-142824598D01*
X152419725Y-80707291D02*
X152385536Y-80763457D01*
X103923193Y-139253625D02*
X103964084Y-139299784D01*
X150533225Y-114625499D02*
X150540160Y-114606543D01*
X103860782Y-139166056D02*
X103868230Y-139179947D01*
X151470930Y-81624379D02*
X151466431Y-81626392D01*
X136452558Y-99950757D02*
X136432633Y-99952285D01*
X153181252Y-92119344D02*
X153254620Y-92044647D01*
X159371345Y-102059522D02*
X159386541Y-102033610D01*
X146844948Y-81728523D02*
X146618363Y-81797652D01*
X100318121Y-149681141D02*
X100354105Y-149715425D01*
X158545440Y-99895503D02*
X158474158Y-99559311D01*
X143437087Y-90827819D02*
X143443620Y-90838911D01*
X156492285Y-80500020D02*
X156474127Y-80479337D01*
X159422306Y-101961169D02*
X159431865Y-101937369D01*
X158677966Y-103164181D02*
X158689136Y-103110796D01*
X157204392Y-96416577D02*
X157023844Y-96129523D01*
X150540160Y-114606543D02*
X150546169Y-114587330D01*
X156396993Y-83832817D02*
X156431867Y-83796254D01*
X136608980Y-99974657D02*
X136590244Y-99968265D01*
X152968693Y-80086116D02*
X152958971Y-80094737D01*
X151437687Y-81647116D02*
X151437687Y-81647116D01*
X142883550Y-89677034D02*
X142940517Y-89828142D01*
X142527644Y-86960335D02*
X142525689Y-87038107D01*
X150444466Y-114763440D02*
X150444466Y-114763440D01*
X159447736Y-101660576D02*
X159440986Y-101648922D01*
X100111917Y-127270576D02*
X100124562Y-127585023D01*
X104987838Y-140168402D02*
X105037030Y-140215241D01*
X149451463Y-142686466D02*
X149408307Y-142664321D01*
X157019775Y-82468254D02*
X157019775Y-82468254D01*
X104485024Y-139775817D02*
X104559825Y-139835383D01*
X100734977Y-149931437D02*
X100782127Y-149944531D01*
X138532821Y-99928955D02*
X138530556Y-99950291D01*
X155008423Y-85257455D02*
X155009743Y-85252567D01*
X149573226Y-142764646D02*
X149533986Y-142736692D01*
X142546928Y-88255707D02*
X142552257Y-88321175D01*
X152816970Y-80235730D02*
X152761120Y-80293194D01*
X154951354Y-92355945D02*
X154948989Y-92343703D01*
X141515812Y-94622550D02*
X141112601Y-95039782D01*
X144046190Y-91663669D02*
X144090442Y-91712604D01*
X115151619Y-101918081D02*
X114271642Y-102314685D01*
X159472359Y-101726227D02*
X159470044Y-101715524D01*
X100055029Y-143323463D02*
X100044242Y-143371341D01*
X143492950Y-91002100D02*
X143499169Y-91045844D01*
X143634902Y-91256044D02*
X143653478Y-91271847D01*
X158897128Y-102696838D02*
X158940375Y-102634600D01*
X105844462Y-108811130D02*
X105473139Y-109263089D01*
X100221313Y-149568676D02*
X100251597Y-149607598D01*
X153833854Y-79626314D02*
X153759183Y-79649829D01*
X156070465Y-80070192D02*
X156050842Y-80054447D01*
X157541463Y-106850459D02*
X157689838Y-106553011D01*
X136299721Y-99990217D02*
X136282069Y-99999357D01*
X152030401Y-81801600D02*
X152029393Y-81821251D01*
X142603554Y-92103569D02*
X142598818Y-92114565D01*
X148963233Y-117720977D02*
X148762828Y-117088502D01*
X142635189Y-92052807D02*
X142627829Y-92062329D01*
X101398326Y-133311840D02*
X101619246Y-133919409D01*
X154668068Y-84702072D02*
X154699505Y-84700159D01*
X150472203Y-114205932D02*
X150458797Y-114189852D01*
X158190198Y-105316932D02*
X158291308Y-104998050D01*
X157134539Y-81951498D02*
X157121593Y-81938806D01*
X156666824Y-108251176D02*
X156666824Y-108251176D01*
X143449552Y-90849478D02*
X143454931Y-90859658D01*
X146073799Y-138502512D02*
X146552791Y-137721659D01*
X157188053Y-82006881D02*
X157179455Y-81997480D01*
X159475145Y-101769880D02*
X159475379Y-101758733D01*
X156702800Y-80814891D02*
X156660225Y-80742108D01*
X138518578Y-101885673D02*
X136758480Y-100072347D01*
X154685885Y-89501097D02*
X154740563Y-89285242D01*
X155022651Y-109991662D02*
X155071424Y-109944808D01*
X157081809Y-82303097D02*
X157092523Y-82287617D01*
X156386440Y-108589859D02*
X156472587Y-108493613D01*
X155185610Y-109832135D02*
X155328675Y-109687685D01*
X152261763Y-80998165D02*
X152234373Y-81058696D01*
X138810551Y-99433626D02*
X138805179Y-99455785D01*
X149610968Y-149745725D02*
X149647286Y-149714215D01*
X121880201Y-100095611D02*
X121634338Y-100126090D01*
X143485971Y-90956750D02*
X143488332Y-90970684D01*
X150506875Y-114680452D02*
X150516583Y-114662490D01*
X157184761Y-82166781D02*
X157190293Y-82158824D01*
X156423276Y-80424279D02*
X156388808Y-80388001D01*
X136680227Y-100009385D02*
X136663036Y-99999357D01*
X143512520Y-91124892D02*
X143514141Y-91131290D01*
X156098969Y-84134841D02*
X156109237Y-84125456D01*
X143754334Y-91349106D02*
X143764537Y-91356999D01*
X136432633Y-99952285D02*
X136412876Y-99954814D01*
X140972337Y-95187253D02*
X140862905Y-95304979D01*
X154870786Y-92209006D02*
X154861674Y-92201079D01*
X152529095Y-80546925D02*
X152491566Y-80598894D01*
X149954892Y-149174223D02*
X149963698Y-149124860D01*
X156907613Y-81277810D02*
X156879627Y-81197836D01*
X140644119Y-95562308D02*
X140582535Y-95643677D01*
X156817295Y-83186148D02*
X156849512Y-83109855D01*
X103856095Y-139154198D02*
X103860782Y-139166056D01*
X142825809Y-91964831D02*
X142813508Y-91964946D01*
X144353367Y-91987569D02*
X142825809Y-91964831D01*
X155243250Y-84597746D02*
X155330435Y-84569308D01*
X139018451Y-98692402D02*
X138941619Y-98940378D01*
X143321082Y-84451064D02*
X143227798Y-84617214D01*
X158697708Y-100894002D02*
X158656368Y-100576709D01*
X107479714Y-107052254D02*
X107045881Y-107487466D01*
X136492677Y-99950757D02*
X136472618Y-99950245D01*
X157021843Y-81776306D02*
X157021843Y-81776306D01*
X155501104Y-84502983D02*
X155584423Y-84465163D01*
X107192842Y-142565361D02*
X107192842Y-142565361D01*
X104128753Y-139464909D02*
X104194411Y-139525883D01*
X100196370Y-121596098D02*
X100165957Y-121842305D01*
X105812685Y-141092128D02*
X105971651Y-141273712D01*
X138769589Y-99563872D02*
X138762086Y-99579777D01*
X156528851Y-83683167D02*
X156576560Y-83616727D01*
X114271642Y-102314685D02*
X113407656Y-102744326D01*
X156296822Y-83936380D02*
X156296822Y-83936380D01*
X140582535Y-95643677D02*
X140431383Y-95852896D01*
X143139869Y-84786008D02*
X143057351Y-84957297D01*
X152030887Y-81784052D02*
X152030401Y-81801600D01*
X100024805Y-143567879D02*
X100024805Y-148972206D01*
X149943713Y-149222720D02*
X149954892Y-149174223D01*
X138711327Y-99663343D02*
X138697768Y-99682390D01*
X152577405Y-80486666D02*
X152559877Y-80507305D01*
X159475006Y-101747778D02*
X159474006Y-101736960D01*
X158595662Y-103693323D02*
X158646034Y-103361552D01*
X149875654Y-127585023D02*
X149888394Y-127270576D01*
X154905008Y-79553605D02*
X154809510Y-79540560D01*
X149675833Y-112313531D02*
X150045926Y-112264446D01*
X156109351Y-80104062D02*
X156089305Y-80086083D01*
X104263836Y-139588346D02*
X104336060Y-139651413D01*
X148883225Y-116369835D02*
X148901409Y-116353004D01*
X143483515Y-90943815D02*
X143485971Y-90956750D01*
X154825749Y-88847244D02*
X154856083Y-88625500D01*
X151842444Y-111821148D02*
X152188587Y-111693832D01*
X152086693Y-81499096D02*
X152085355Y-81503890D01*
X143582858Y-91209150D02*
X143599349Y-91224473D01*
X149963711Y-143415249D02*
X149954910Y-143365892D01*
X149318518Y-142626278D02*
X149272012Y-142610508D01*
X149302933Y-112349117D02*
X149675833Y-112313531D01*
X144297286Y-91930574D02*
X144353367Y-91987569D01*
X143970959Y-91576741D02*
X143970959Y-91576741D01*
X157214459Y-82114206D02*
X157218731Y-82101868D01*
X149533913Y-149803438D02*
X149573156Y-149775487D01*
X138539764Y-99901298D02*
X138535882Y-99912442D01*
X138622412Y-99783198D02*
X138583876Y-99836078D01*
X100120863Y-143139436D02*
X100101069Y-143184155D01*
X152491566Y-80598894D02*
X152455089Y-80652393D01*
X100120826Y-149400576D02*
X100142782Y-149444298D01*
X136512598Y-99952285D02*
X136492677Y-99950757D01*
X149398537Y-81560299D02*
X149352550Y-81554626D01*
X155236479Y-94092201D02*
X155078925Y-93936847D01*
X142581494Y-92196959D02*
X142581379Y-92209261D01*
X104853423Y-140051744D02*
X104896125Y-140086748D01*
X138562504Y-100418062D02*
X138565707Y-100437596D01*
X130636391Y-100538383D02*
X129828671Y-100365588D01*
X134611692Y-101699416D02*
X134605901Y-101707352D01*
X156780814Y-80964443D02*
X156743005Y-80889022D01*
X154447813Y-79525752D02*
X154402849Y-79527566D01*
X153685361Y-79675642D02*
X153612450Y-79703728D01*
X139871573Y-96746052D02*
X139744058Y-96980764D01*
X134558617Y-101793689D02*
X133791648Y-101491279D01*
X159433425Y-101636921D02*
X159425034Y-101624519D01*
X134617668Y-101691620D02*
X134611692Y-101699416D01*
X157689838Y-106553011D02*
X157829038Y-106250592D01*
X154973511Y-93760438D02*
X154974084Y-93754508D01*
X100165957Y-121842305D02*
X100142298Y-122084027D01*
X155000889Y-85178375D02*
X154998460Y-85173962D01*
X100318183Y-142858879D02*
X100318183Y-142858879D01*
X154986661Y-85296915D02*
X154989916Y-85293036D01*
X100643083Y-142641584D02*
X100598419Y-142661389D01*
X157220997Y-82094437D02*
X157222824Y-82087631D01*
X143459801Y-90869591D02*
X143464209Y-90879415D01*
X104410112Y-139714198D02*
X104485024Y-139775817D01*
X157209472Y-82126027D02*
X157212089Y-82120129D01*
X151546552Y-81624379D02*
X151541982Y-81622603D01*
X142598818Y-92114565D02*
X142594631Y-92125795D01*
X152020972Y-81676003D02*
X152022726Y-81695948D01*
X142753789Y-91974450D02*
X142742346Y-91978080D01*
X101026294Y-142565361D02*
X100976640Y-142566579D01*
X151441436Y-81643445D02*
X151437687Y-81647116D01*
X154703121Y-92142082D02*
X154703121Y-92142082D01*
X148607887Y-81529810D02*
X148607887Y-81529810D01*
X157224170Y-82081343D02*
X157224650Y-82078359D01*
X156196632Y-80189930D02*
X156161024Y-80154044D01*
X151499110Y-81617274D02*
X151494317Y-81617866D01*
X149904964Y-124966951D02*
X149901915Y-123551340D01*
X153399779Y-79801360D02*
X153331108Y-79838275D01*
X134594881Y-101723635D02*
X134589655Y-101731973D01*
X100396084Y-129581249D02*
X100522303Y-130206483D01*
X156976378Y-81523423D02*
X156956013Y-81440664D01*
X100221365Y-142971337D02*
X100193108Y-143011581D01*
X151437687Y-81647116D02*
X151057865Y-82038305D01*
X138568396Y-100458759D02*
X138570571Y-100481608D01*
X148974274Y-149974728D02*
X148974274Y-149974728D01*
X154513470Y-85722319D02*
X154513470Y-85722319D01*
X104336060Y-139651413D02*
X104410112Y-139714198D01*
X154831280Y-86957902D02*
X154831280Y-86957902D01*
X121634338Y-100126090D02*
X121634338Y-100126090D01*
X116046100Y-101555219D02*
X115151619Y-101918081D01*
X159449085Y-101887740D02*
X159458222Y-101857815D01*
X143130953Y-142258978D02*
X143412521Y-141965528D01*
X159458887Y-101683058D02*
X159453696Y-101671937D01*
X155746609Y-84380374D02*
X155825310Y-84333471D01*
X108642769Y-105976507D02*
X107932333Y-106617684D01*
X152030336Y-81754866D02*
X152030660Y-81761455D01*
X158728790Y-102979448D02*
X158734398Y-102968294D01*
X158667007Y-103223993D02*
X158677966Y-103164181D01*
X103849931Y-139128382D02*
X103856095Y-139154198D01*
X154617855Y-79526314D02*
X154586220Y-79525409D01*
X138562504Y-100418062D02*
X138562504Y-100418062D01*
X155977510Y-84230814D02*
X156050842Y-84175126D01*
X142531046Y-86894962D02*
X142527644Y-86960335D01*
X136248100Y-100020287D02*
X136231848Y-100032048D01*
X138744756Y-99611741D02*
X138734713Y-99628236D01*
X100430519Y-142761968D02*
X100391642Y-142792283D01*
X157831111Y-97619101D02*
X157688945Y-97310806D01*
X144403492Y-83097673D02*
X144403492Y-83097673D01*
X156161024Y-80154044D02*
X156132594Y-80126069D01*
X142620977Y-92072187D02*
X142614642Y-92082359D01*
X154742524Y-86488903D02*
X154704573Y-86333853D01*
X149970067Y-149074695D02*
X149973936Y-149023789D01*
X149398537Y-81560299D02*
X149398537Y-81560299D01*
X106539769Y-141890916D02*
X106751314Y-142112636D01*
X157133980Y-82233126D02*
X157154713Y-82206767D01*
X122385771Y-100054053D02*
X122121588Y-100071874D01*
X106751314Y-142112636D02*
X106969829Y-142338268D01*
X147812212Y-135293805D02*
X148171605Y-134458803D01*
X151457683Y-81631129D02*
X151453452Y-81633853D01*
X156456295Y-95360079D02*
X156364984Y-95259998D01*
X143672262Y-91287365D02*
X143691012Y-91302374D01*
X142830460Y-142565361D02*
X143130953Y-142258978D01*
X154960004Y-93818089D02*
X154961984Y-93812497D01*
X149901915Y-123551340D02*
X149888392Y-122663069D01*
X152073104Y-81532768D02*
X152070617Y-81536872D01*
X150546169Y-114587330D02*
X150551255Y-114567896D01*
X149876554Y-143133346D02*
X149854452Y-143090125D01*
X157022328Y-82450448D02*
X157024953Y-82434076D01*
X154873007Y-88142143D02*
X154868484Y-87791960D01*
X152027832Y-81732899D02*
X152027832Y-81732899D01*
X154895786Y-92235191D02*
X154887858Y-92226078D01*
X128194660Y-100100252D02*
X128009276Y-100080100D01*
X127519471Y-100050496D02*
X127189445Y-100040441D01*
X100598419Y-142661389D02*
X100554749Y-142683363D01*
X152019862Y-81616889D02*
X152019493Y-81623236D01*
X143454931Y-90859658D02*
X143459801Y-90869591D01*
X100124562Y-127585023D02*
X100142298Y-127849440D01*
X155552792Y-79750065D02*
X155463560Y-79711136D01*
X142587936Y-92148877D02*
X142585445Y-92160688D01*
X155745434Y-94612215D02*
X155451624Y-94310417D01*
X148134355Y-81524976D02*
X148037376Y-81525675D01*
X143429909Y-90816065D02*
X143437087Y-90827819D01*
X152019307Y-81638568D02*
X152019816Y-81656516D01*
X150551255Y-114567896D02*
X150555415Y-114548278D01*
X128009276Y-100080100D02*
X127788480Y-100063615D01*
X154570931Y-85715426D02*
X154576222Y-85712880D01*
X154903287Y-92244668D02*
X154895786Y-92235191D01*
X152598847Y-80462741D02*
X152577405Y-80486666D01*
X100035793Y-143419805D02*
X100029714Y-143468770D01*
X101486668Y-116363108D02*
X101232359Y-117093543D01*
X100251652Y-142932417D02*
X100221365Y-142971337D01*
X102365034Y-135691100D02*
X102639747Y-136260211D01*
X151527932Y-81618695D02*
X151523166Y-81617866D01*
X156113211Y-94993292D02*
X155945608Y-94818973D01*
X103563965Y-137931599D02*
X103589642Y-137976032D01*
X159006984Y-101180228D02*
X158957314Y-101132921D01*
X149930223Y-149270287D02*
X149943713Y-149222720D01*
X139622012Y-97218987D02*
X139505682Y-97460191D01*
X134566473Y-101775493D02*
X134562442Y-101784538D01*
X159471004Y-101805013D02*
X159472937Y-101792966D01*
X149647286Y-149714215D02*
X149682048Y-149681021D01*
X149943735Y-143317400D02*
X149930249Y-143269836D01*
X113407656Y-102744326D02*
X112561146Y-103206300D01*
X142601536Y-93546130D02*
X142602023Y-93551148D01*
X155666285Y-84424282D02*
X155746609Y-84380374D01*
X103761345Y-138505556D02*
X103778064Y-138632267D01*
X155745434Y-94612215D02*
X155745434Y-94612215D01*
X152897181Y-80154143D02*
X152861659Y-80190024D01*
X145029251Y-140016691D02*
X145565830Y-139267794D01*
X150525366Y-114644160D02*
X150533225Y-114625499D01*
X152626072Y-80433481D02*
X152598847Y-80462741D01*
X149302933Y-112349117D02*
X149302933Y-112349117D01*
X138762086Y-99579777D02*
X138753844Y-99595661D01*
X153435497Y-91850110D02*
X153579673Y-91675758D01*
X154513470Y-85722319D02*
X154519371Y-85723215D01*
X100391575Y-149747743D02*
X100430448Y-149778062D01*
X157224995Y-82075464D02*
X157225199Y-82072644D01*
X154879520Y-92217345D02*
X154870786Y-92209006D01*
X143744617Y-91342131D02*
X143754334Y-91349106D01*
X148666165Y-116465926D02*
X148689834Y-116462505D01*
X149715190Y-149646206D02*
X149746650Y-149609832D01*
X146618363Y-81797652D02*
X146394764Y-81875517D01*
X103778064Y-138632267D02*
X103800635Y-138808910D01*
X143517249Y-91137705D02*
X143522999Y-91146060D01*
X152042732Y-81575372D02*
X152033135Y-81588519D01*
X152761120Y-80293194D02*
X152660948Y-80396836D01*
X159467040Y-101704798D02*
X159463328Y-101693994D01*
X155892977Y-79939883D02*
X155810754Y-79887429D01*
X150458797Y-114747875D02*
X150472203Y-114731757D01*
X149318436Y-149913836D02*
X149363890Y-149895881D01*
X154547058Y-84704810D02*
X154547058Y-84704810D01*
X144292977Y-83203497D02*
X144187116Y-83309542D01*
X148500175Y-133612297D02*
X148797554Y-132755104D01*
X150484685Y-114715122D02*
X150496242Y-114698008D01*
X158392460Y-99226382D02*
X158300443Y-98896956D01*
X104896125Y-140086748D02*
X104940900Y-140125602D01*
X143275105Y-90549586D02*
X143351129Y-90684736D01*
X138573378Y-100532582D02*
X138574012Y-100560817D01*
X157225199Y-82072644D02*
X157225258Y-82069886D01*
X138518578Y-101885673D02*
X138518578Y-101885673D01*
X101000799Y-132079197D02*
X101192021Y-132697991D01*
X142608253Y-93585921D02*
X142595691Y-93595426D01*
X103535702Y-137884510D02*
X103563965Y-137931599D01*
X143514141Y-91131290D02*
X143515350Y-91134241D01*
X152978117Y-80078018D02*
X152968693Y-80086116D01*
X100607930Y-119322752D02*
X100446766Y-120076437D01*
X149914515Y-143223264D02*
X149896596Y-143177746D01*
X142525698Y-87257810D02*
X142527448Y-87413221D01*
X134589655Y-101731973D02*
X134584624Y-101740437D01*
X155011683Y-85242592D02*
X155012296Y-85237522D01*
X152208527Y-81119707D02*
X152184287Y-81181065D01*
X152033135Y-81588519D02*
X152025925Y-81598795D01*
X142552257Y-88321175D02*
X142558986Y-88381038D01*
X146174516Y-81961950D02*
X145957986Y-82056783D01*
X138552170Y-100957048D02*
X138552170Y-100957048D01*
X157019775Y-82468254D02*
X157022328Y-82450448D01*
X151508741Y-81616800D02*
X151503921Y-81616919D01*
X157171458Y-82184932D02*
X157184761Y-82166781D01*
X150516583Y-114662490D02*
X150525366Y-114644160D01*
X154851765Y-87144243D02*
X154846437Y-87078776D01*
M02*
