M48
; DRILL file {KiCad (6.0.9)} date Tue Feb 14 14:55:28 2023
; FORMAT={-:-/ absolute / inch / decimal}
; #@! TF.CreationDate,2023-02-14T14:55:28-08:00
; #@! TF.GenerationSoftware,Kicad,Pcbnew,(6.0.9)
; #@! TF.FileFunction,Plated,1,2,PTH
FMAT,2
INCH
; #@! TA.AperFunction,Plated,PTH,ViaDrill
T1C0.0157
; #@! TA.AperFunction,Plated,PTH,ComponentDrill
T2C0.0295
; #@! TA.AperFunction,Plated,PTH,ComponentDrill
T3C0.0394
; #@! TA.AperFunction,Plated,PTH,ComponentDrill
T4C0.0400
; #@! TA.AperFunction,Plated,PTH,ComponentDrill
T5C0.0433
%
G90
G05
T1
X2.5551Y-3.0354
X3.0748Y-2.7087
X3.0748Y-3.0748
X4.4646Y-3.2598
X4.6142Y-3.7598
X5.122Y-4.0433
X5.1811Y-5.315
T2
X2.2441Y-3.8406
X2.3228Y-3.8406
T3
X2.2954Y-2.436
X2.3661Y-2.3652
X2.3661Y-2.5067
X2.4368Y-2.2945
X2.4368Y-2.436
X2.5075Y-2.3652
X2.5886Y-5.561
X2.5886Y-5.661
X2.6886Y-5.561
X2.6886Y-5.661
X3.8878Y-2.1555
X3.8878Y-2.2555
X3.9878Y-2.1555
X3.9878Y-2.2555
X4.5833Y-2.2948
X4.6366Y-2.1806
X4.6725Y-2.3364
X4.7258Y-2.2222
X4.7617Y-2.378
X4.7756Y-3.4701
X4.7756Y-4.3701
X4.815Y-2.2638
X4.8756Y-3.4701
X4.8756Y-4.3701
X4.9756Y-3.4701
X4.9756Y-4.3701
X5.0756Y-3.4701
X5.0756Y-4.3701
X5.1756Y-3.4701
X5.1756Y-4.3701
X5.187Y-5.561
X5.187Y-5.661
X5.2756Y-3.4701
X5.2756Y-4.3701
X5.287Y-5.561
X5.287Y-5.661
X5.2992Y-2.737
X5.2992Y-2.837
X5.2992Y-2.937
X5.2992Y-3.037
X5.2992Y-3.137
X5.2992Y-3.237
X5.3756Y-3.4701
X5.3756Y-4.3701
X5.4756Y-3.4701
X5.4756Y-4.3701
T4
X2.7185Y-3.7633
X2.8405Y-4.0643
X3.0735Y-2.9153
X3.6935Y-2.7933
X3.9915Y-4.2963
X4.2215Y-4.0653
T5
X2.1358Y-5.5217
X2.1358Y-5.6988
X2.3917Y-5.5217
X2.3917Y-5.6988
X5.4823Y-5.5217
X5.4823Y-5.6988
X5.7382Y-5.5217
X5.7382Y-5.6988
T0
M30
