%TF.GenerationSoftware,KiCad,Pcbnew,(6.0.9)*%
%TF.CreationDate,2023-02-14T14:55:24-08:00*%
%TF.ProjectId,DC31_Cnet_Badge_Rear,44433331-5f43-46e6-9574-5f4261646765,rev?*%
%TF.SameCoordinates,Original*%
%TF.FileFunction,Legend,Top*%
%TF.FilePolarity,Positive*%
%FSLAX46Y46*%
G04 Gerber Fmt 4.6, Leading zero omitted, Abs format (unit mm)*
G04 Created by KiCad (PCBNEW (6.0.9)) date 2023-02-14 14:55:24*
%MOMM*%
%LPD*%
G01*
G04 APERTURE LIST*
%ADD10C,0.150000*%
%ADD11C,0.300000*%
%ADD12C,0.120000*%
%ADD13C,0.025400*%
%ADD14C,0.203200*%
G04 APERTURE END LIST*
D10*
X74800000Y-114500000D02*
X125600000Y-114500000D01*
X125600000Y-114500000D02*
X125600000Y-148000000D01*
X125600000Y-148000000D02*
X74800000Y-148000000D01*
X74800000Y-148000000D02*
X74800000Y-114500000D01*
X55019047Y-94871428D02*
X55780952Y-94871428D01*
X55400000Y-95252380D02*
X55400000Y-94490476D01*
X119171428Y-71842380D02*
X119171428Y-70842380D01*
X119504761Y-71556666D01*
X119838095Y-70842380D01*
X119838095Y-71842380D01*
X120314285Y-71842380D02*
X120314285Y-70842380D01*
X120314285Y-71318571D02*
X120885714Y-71318571D01*
X120885714Y-71842380D02*
X120885714Y-70842380D01*
X121361904Y-71461428D02*
X122123809Y-71461428D01*
X123171428Y-71747142D02*
X123123809Y-71794761D01*
X122980952Y-71842380D01*
X122885714Y-71842380D01*
X122742857Y-71794761D01*
X122647619Y-71699523D01*
X122600000Y-71604285D01*
X122552380Y-71413809D01*
X122552380Y-71270952D01*
X122600000Y-71080476D01*
X122647619Y-70985238D01*
X122742857Y-70890000D01*
X122885714Y-70842380D01*
X122980952Y-70842380D01*
X123123809Y-70890000D01*
X123171428Y-70937619D01*
X123600000Y-71842380D02*
X123600000Y-70842380D01*
X123838095Y-70842380D01*
X123980952Y-70890000D01*
X124076190Y-70985238D01*
X124123809Y-71080476D01*
X124171428Y-71270952D01*
X124171428Y-71413809D01*
X124123809Y-71604285D01*
X124076190Y-71699523D01*
X123980952Y-71794761D01*
X123838095Y-71842380D01*
X123600000Y-71842380D01*
X125028571Y-71175714D02*
X125028571Y-71842380D01*
X124790476Y-70794761D02*
X124552380Y-71509047D01*
X125171428Y-71509047D01*
X125504761Y-70937619D02*
X125552380Y-70890000D01*
X125647619Y-70842380D01*
X125885714Y-70842380D01*
X125980952Y-70890000D01*
X126028571Y-70937619D01*
X126076190Y-71032857D01*
X126076190Y-71128095D01*
X126028571Y-71270952D01*
X125457142Y-71842380D01*
X126076190Y-71842380D01*
X118695238Y-73452380D02*
X118219047Y-73452380D01*
X118219047Y-72452380D01*
X119028571Y-73452380D02*
X119028571Y-72785714D01*
X119028571Y-72452380D02*
X118980952Y-72500000D01*
X119028571Y-72547619D01*
X119076190Y-72500000D01*
X119028571Y-72452380D01*
X119028571Y-72547619D01*
X119504761Y-73452380D02*
X119504761Y-72452380D01*
X119885714Y-72452380D01*
X119980952Y-72500000D01*
X120028571Y-72547619D01*
X120076190Y-72642857D01*
X120076190Y-72785714D01*
X120028571Y-72880952D01*
X119980952Y-72928571D01*
X119885714Y-72976190D01*
X119504761Y-72976190D01*
X120647619Y-73452380D02*
X120552380Y-73404761D01*
X120504761Y-73357142D01*
X120457142Y-73261904D01*
X120457142Y-72976190D01*
X120504761Y-72880952D01*
X120552380Y-72833333D01*
X120647619Y-72785714D01*
X120790476Y-72785714D01*
X120885714Y-72833333D01*
X120933333Y-72880952D01*
X120980952Y-72976190D01*
X120980952Y-73261904D01*
X120933333Y-73357142D01*
X120885714Y-73404761D01*
X120790476Y-73452380D01*
X120647619Y-73452380D01*
X122504761Y-72928571D02*
X122647619Y-72976190D01*
X122695238Y-73023809D01*
X122742857Y-73119047D01*
X122742857Y-73261904D01*
X122695238Y-73357142D01*
X122647619Y-73404761D01*
X122552380Y-73452380D01*
X122171428Y-73452380D01*
X122171428Y-72452380D01*
X122504761Y-72452380D01*
X122600000Y-72500000D01*
X122647619Y-72547619D01*
X122695238Y-72642857D01*
X122695238Y-72738095D01*
X122647619Y-72833333D01*
X122600000Y-72880952D01*
X122504761Y-72928571D01*
X122171428Y-72928571D01*
X123600000Y-73452380D02*
X123600000Y-72928571D01*
X123552380Y-72833333D01*
X123457142Y-72785714D01*
X123266666Y-72785714D01*
X123171428Y-72833333D01*
X123600000Y-73404761D02*
X123504761Y-73452380D01*
X123266666Y-73452380D01*
X123171428Y-73404761D01*
X123123809Y-73309523D01*
X123123809Y-73214285D01*
X123171428Y-73119047D01*
X123266666Y-73071428D01*
X123504761Y-73071428D01*
X123600000Y-73023809D01*
X123933333Y-72785714D02*
X124314285Y-72785714D01*
X124076190Y-72452380D02*
X124076190Y-73309523D01*
X124123809Y-73404761D01*
X124219047Y-73452380D01*
X124314285Y-73452380D01*
X124504761Y-72785714D02*
X124885714Y-72785714D01*
X124647619Y-72452380D02*
X124647619Y-73309523D01*
X124695238Y-73404761D01*
X124790476Y-73452380D01*
X124885714Y-73452380D01*
X125600000Y-73404761D02*
X125504761Y-73452380D01*
X125314285Y-73452380D01*
X125219047Y-73404761D01*
X125171428Y-73309523D01*
X125171428Y-72928571D01*
X125219047Y-72833333D01*
X125314285Y-72785714D01*
X125504761Y-72785714D01*
X125600000Y-72833333D01*
X125647619Y-72928571D01*
X125647619Y-73023809D01*
X125171428Y-73119047D01*
X126076190Y-73452380D02*
X126076190Y-72785714D01*
X126076190Y-72976190D02*
X126123809Y-72880952D01*
X126171428Y-72833333D01*
X126266666Y-72785714D01*
X126361904Y-72785714D01*
X126600000Y-72785714D02*
X126838095Y-73452380D01*
X127076190Y-72785714D02*
X126838095Y-73452380D01*
X126742857Y-73690476D01*
X126695238Y-73738095D01*
X126600000Y-73785714D01*
X118195238Y-75062380D02*
X118195238Y-74062380D01*
X118528571Y-74776666D01*
X118861904Y-74062380D01*
X118861904Y-75062380D01*
X119766666Y-75062380D02*
X119766666Y-74538571D01*
X119719047Y-74443333D01*
X119623809Y-74395714D01*
X119433333Y-74395714D01*
X119338095Y-74443333D01*
X119766666Y-75014761D02*
X119671428Y-75062380D01*
X119433333Y-75062380D01*
X119338095Y-75014761D01*
X119290476Y-74919523D01*
X119290476Y-74824285D01*
X119338095Y-74729047D01*
X119433333Y-74681428D01*
X119671428Y-74681428D01*
X119766666Y-74633809D01*
X120242857Y-74395714D02*
X120242857Y-75062380D01*
X120242857Y-74490952D02*
X120290476Y-74443333D01*
X120385714Y-74395714D01*
X120528571Y-74395714D01*
X120623809Y-74443333D01*
X120671428Y-74538571D01*
X120671428Y-75062380D01*
X121576190Y-75062380D02*
X121576190Y-74538571D01*
X121528571Y-74443333D01*
X121433333Y-74395714D01*
X121242857Y-74395714D01*
X121147619Y-74443333D01*
X121576190Y-75014761D02*
X121480952Y-75062380D01*
X121242857Y-75062380D01*
X121147619Y-75014761D01*
X121100000Y-74919523D01*
X121100000Y-74824285D01*
X121147619Y-74729047D01*
X121242857Y-74681428D01*
X121480952Y-74681428D01*
X121576190Y-74633809D01*
X122480952Y-74395714D02*
X122480952Y-75205238D01*
X122433333Y-75300476D01*
X122385714Y-75348095D01*
X122290476Y-75395714D01*
X122147619Y-75395714D01*
X122052380Y-75348095D01*
X122480952Y-75014761D02*
X122385714Y-75062380D01*
X122195238Y-75062380D01*
X122100000Y-75014761D01*
X122052380Y-74967142D01*
X122004761Y-74871904D01*
X122004761Y-74586190D01*
X122052380Y-74490952D01*
X122100000Y-74443333D01*
X122195238Y-74395714D01*
X122385714Y-74395714D01*
X122480952Y-74443333D01*
X123338095Y-75014761D02*
X123242857Y-75062380D01*
X123052380Y-75062380D01*
X122957142Y-75014761D01*
X122909523Y-74919523D01*
X122909523Y-74538571D01*
X122957142Y-74443333D01*
X123052380Y-74395714D01*
X123242857Y-74395714D01*
X123338095Y-74443333D01*
X123385714Y-74538571D01*
X123385714Y-74633809D01*
X122909523Y-74729047D01*
X123814285Y-75062380D02*
X123814285Y-74395714D01*
X123814285Y-74490952D02*
X123861904Y-74443333D01*
X123957142Y-74395714D01*
X124100000Y-74395714D01*
X124195238Y-74443333D01*
X124242857Y-74538571D01*
X124242857Y-75062380D01*
X124242857Y-74538571D02*
X124290476Y-74443333D01*
X124385714Y-74395714D01*
X124528571Y-74395714D01*
X124623809Y-74443333D01*
X124671428Y-74538571D01*
X124671428Y-75062380D01*
X125528571Y-75014761D02*
X125433333Y-75062380D01*
X125242857Y-75062380D01*
X125147619Y-75014761D01*
X125100000Y-74919523D01*
X125100000Y-74538571D01*
X125147619Y-74443333D01*
X125242857Y-74395714D01*
X125433333Y-74395714D01*
X125528571Y-74443333D01*
X125576190Y-74538571D01*
X125576190Y-74633809D01*
X125100000Y-74729047D01*
X126004761Y-74395714D02*
X126004761Y-75062380D01*
X126004761Y-74490952D02*
X126052380Y-74443333D01*
X126147619Y-74395714D01*
X126290476Y-74395714D01*
X126385714Y-74443333D01*
X126433333Y-74538571D01*
X126433333Y-75062380D01*
X126766666Y-74395714D02*
X127147619Y-74395714D01*
X126909523Y-74062380D02*
X126909523Y-74919523D01*
X126957142Y-75014761D01*
X127052380Y-75062380D01*
X127147619Y-75062380D01*
X101119047Y-108271428D02*
X101880952Y-108271428D01*
X101500000Y-108652380D02*
X101500000Y-107890476D01*
D11*
X94342857Y-132978571D02*
X93628571Y-132978571D01*
X93628571Y-131478571D01*
X94842857Y-132978571D02*
X94842857Y-131978571D01*
X94842857Y-131478571D02*
X94771428Y-131550000D01*
X94842857Y-131621428D01*
X94914285Y-131550000D01*
X94842857Y-131478571D01*
X94842857Y-131621428D01*
X95557142Y-132978571D02*
X95557142Y-131478571D01*
X96128571Y-131478571D01*
X96271428Y-131550000D01*
X96342857Y-131621428D01*
X96414285Y-131764285D01*
X96414285Y-131978571D01*
X96342857Y-132121428D01*
X96271428Y-132192857D01*
X96128571Y-132264285D01*
X95557142Y-132264285D01*
X97271428Y-132978571D02*
X97128571Y-132907142D01*
X97057142Y-132835714D01*
X96985714Y-132692857D01*
X96985714Y-132264285D01*
X97057142Y-132121428D01*
X97128571Y-132050000D01*
X97271428Y-131978571D01*
X97485714Y-131978571D01*
X97628571Y-132050000D01*
X97700000Y-132121428D01*
X97771428Y-132264285D01*
X97771428Y-132692857D01*
X97700000Y-132835714D01*
X97628571Y-132907142D01*
X97485714Y-132978571D01*
X97271428Y-132978571D01*
X100057142Y-132192857D02*
X100271428Y-132264285D01*
X100342857Y-132335714D01*
X100414285Y-132478571D01*
X100414285Y-132692857D01*
X100342857Y-132835714D01*
X100271428Y-132907142D01*
X100128571Y-132978571D01*
X99557142Y-132978571D01*
X99557142Y-131478571D01*
X100057142Y-131478571D01*
X100200000Y-131550000D01*
X100271428Y-131621428D01*
X100342857Y-131764285D01*
X100342857Y-131907142D01*
X100271428Y-132050000D01*
X100200000Y-132121428D01*
X100057142Y-132192857D01*
X99557142Y-132192857D01*
X101700000Y-132978571D02*
X101700000Y-132192857D01*
X101628571Y-132050000D01*
X101485714Y-131978571D01*
X101200000Y-131978571D01*
X101057142Y-132050000D01*
X101700000Y-132907142D02*
X101557142Y-132978571D01*
X101200000Y-132978571D01*
X101057142Y-132907142D01*
X100985714Y-132764285D01*
X100985714Y-132621428D01*
X101057142Y-132478571D01*
X101200000Y-132407142D01*
X101557142Y-132407142D01*
X101700000Y-132335714D01*
X102200000Y-131978571D02*
X102771428Y-131978571D01*
X102414285Y-131478571D02*
X102414285Y-132764285D01*
X102485714Y-132907142D01*
X102628571Y-132978571D01*
X102771428Y-132978571D01*
X103057142Y-131978571D02*
X103628571Y-131978571D01*
X103271428Y-131478571D02*
X103271428Y-132764285D01*
X103342857Y-132907142D01*
X103485714Y-132978571D01*
X103628571Y-132978571D01*
X104700000Y-132907142D02*
X104557142Y-132978571D01*
X104271428Y-132978571D01*
X104128571Y-132907142D01*
X104057142Y-132764285D01*
X104057142Y-132192857D01*
X104128571Y-132050000D01*
X104271428Y-131978571D01*
X104557142Y-131978571D01*
X104700000Y-132050000D01*
X104771428Y-132192857D01*
X104771428Y-132335714D01*
X104057142Y-132478571D01*
X105414285Y-132978571D02*
X105414285Y-131978571D01*
X105414285Y-132264285D02*
X105485714Y-132121428D01*
X105557142Y-132050000D01*
X105700000Y-131978571D01*
X105842857Y-131978571D01*
X106200000Y-131978571D02*
X106557142Y-132978571D01*
X106914285Y-131978571D02*
X106557142Y-132978571D01*
X106414285Y-133335714D01*
X106342857Y-133407142D01*
X106200000Y-133478571D01*
D10*
X137947619Y-77128571D02*
X138090476Y-77176190D01*
X138138095Y-77223809D01*
X138185714Y-77319047D01*
X138185714Y-77461904D01*
X138138095Y-77557142D01*
X138090476Y-77604761D01*
X137995238Y-77652380D01*
X137614285Y-77652380D01*
X137614285Y-76652380D01*
X137947619Y-76652380D01*
X138042857Y-76700000D01*
X138090476Y-76747619D01*
X138138095Y-76842857D01*
X138138095Y-76938095D01*
X138090476Y-77033333D01*
X138042857Y-77080952D01*
X137947619Y-77128571D01*
X137614285Y-77128571D01*
X139042857Y-77652380D02*
X139042857Y-77128571D01*
X138995238Y-77033333D01*
X138900000Y-76985714D01*
X138709523Y-76985714D01*
X138614285Y-77033333D01*
X139042857Y-77604761D02*
X138947619Y-77652380D01*
X138709523Y-77652380D01*
X138614285Y-77604761D01*
X138566666Y-77509523D01*
X138566666Y-77414285D01*
X138614285Y-77319047D01*
X138709523Y-77271428D01*
X138947619Y-77271428D01*
X139042857Y-77223809D01*
X139376190Y-76985714D02*
X139757142Y-76985714D01*
X139519047Y-76652380D02*
X139519047Y-77509523D01*
X139566666Y-77604761D01*
X139661904Y-77652380D01*
X139757142Y-77652380D01*
X139947619Y-76985714D02*
X140328571Y-76985714D01*
X140090476Y-76652380D02*
X140090476Y-77509523D01*
X140138095Y-77604761D01*
X140233333Y-77652380D01*
X140328571Y-77652380D01*
%TO.C,U1*%
X135361904Y-83267619D02*
X135361904Y-82458095D01*
X135314285Y-82362857D01*
X135266666Y-82315238D01*
X135171428Y-82267619D01*
X134980952Y-82267619D01*
X134885714Y-82315238D01*
X134838095Y-82362857D01*
X134790476Y-82458095D01*
X134790476Y-83267619D01*
X133790476Y-82267619D02*
X134361904Y-82267619D01*
X134076190Y-82267619D02*
X134076190Y-83267619D01*
X134171428Y-83124761D01*
X134266666Y-83029523D01*
X134361904Y-82981904D01*
%TO.C,J1*%
X99686666Y-51432380D02*
X99686666Y-52146666D01*
X99639047Y-52289523D01*
X99543809Y-52384761D01*
X99400952Y-52432380D01*
X99305714Y-52432380D01*
X100686666Y-52432380D02*
X100115238Y-52432380D01*
X100400952Y-52432380D02*
X100400952Y-51432380D01*
X100305714Y-51575238D01*
X100210476Y-51670476D01*
X100115238Y-51718095D01*
%TO.C,NP1*%
X88438095Y-91552380D02*
X88438095Y-90552380D01*
X89009523Y-91552380D01*
X89009523Y-90552380D01*
X89485714Y-91552380D02*
X89485714Y-90552380D01*
X89866666Y-90552380D01*
X89961904Y-90600000D01*
X90009523Y-90647619D01*
X90057142Y-90742857D01*
X90057142Y-90885714D01*
X90009523Y-90980952D01*
X89961904Y-91028571D01*
X89866666Y-91076190D01*
X89485714Y-91076190D01*
X91009523Y-91552380D02*
X90438095Y-91552380D01*
X90723809Y-91552380D02*
X90723809Y-90552380D01*
X90628571Y-90695238D01*
X90533333Y-90790476D01*
X90438095Y-90838095D01*
X108948095Y-104510000D02*
X108852857Y-104462380D01*
X108710000Y-104462380D01*
X108567142Y-104510000D01*
X108471904Y-104605238D01*
X108424285Y-104700476D01*
X108376666Y-104890952D01*
X108376666Y-105033809D01*
X108424285Y-105224285D01*
X108471904Y-105319523D01*
X108567142Y-105414761D01*
X108710000Y-105462380D01*
X108805238Y-105462380D01*
X108948095Y-105414761D01*
X108995714Y-105367142D01*
X108995714Y-105033809D01*
X108805238Y-105033809D01*
X109424285Y-105462380D02*
X109424285Y-104462380D01*
X109995714Y-105462380D01*
X109995714Y-104462380D01*
X110471904Y-105462380D02*
X110471904Y-104462380D01*
X110710000Y-104462380D01*
X110852857Y-104510000D01*
X110948095Y-104605238D01*
X110995714Y-104700476D01*
X111043333Y-104890952D01*
X111043333Y-105033809D01*
X110995714Y-105224285D01*
X110948095Y-105319523D01*
X110852857Y-105414761D01*
X110710000Y-105462380D01*
X110471904Y-105462380D01*
X102348095Y-110740000D02*
X102252857Y-110692380D01*
X102110000Y-110692380D01*
X101967142Y-110740000D01*
X101871904Y-110835238D01*
X101824285Y-110930476D01*
X101776666Y-111120952D01*
X101776666Y-111263809D01*
X101824285Y-111454285D01*
X101871904Y-111549523D01*
X101967142Y-111644761D01*
X102110000Y-111692380D01*
X102205238Y-111692380D01*
X102348095Y-111644761D01*
X102395714Y-111597142D01*
X102395714Y-111263809D01*
X102205238Y-111263809D01*
X102824285Y-111692380D02*
X102824285Y-110692380D01*
X103395714Y-111692380D01*
X103395714Y-110692380D01*
X103871904Y-111692380D02*
X103871904Y-110692380D01*
X104110000Y-110692380D01*
X104252857Y-110740000D01*
X104348095Y-110835238D01*
X104395714Y-110930476D01*
X104443333Y-111120952D01*
X104443333Y-111263809D01*
X104395714Y-111454285D01*
X104348095Y-111549523D01*
X104252857Y-111644761D01*
X104110000Y-111692380D01*
X103871904Y-111692380D01*
X68286666Y-104242380D02*
X68620000Y-105242380D01*
X68953333Y-104242380D01*
X69858095Y-105147142D02*
X69810476Y-105194761D01*
X69667619Y-105242380D01*
X69572380Y-105242380D01*
X69429523Y-105194761D01*
X69334285Y-105099523D01*
X69286666Y-105004285D01*
X69239047Y-104813809D01*
X69239047Y-104670952D01*
X69286666Y-104480476D01*
X69334285Y-104385238D01*
X69429523Y-104290000D01*
X69572380Y-104242380D01*
X69667619Y-104242380D01*
X69810476Y-104290000D01*
X69858095Y-104337619D01*
X70858095Y-105147142D02*
X70810476Y-105194761D01*
X70667619Y-105242380D01*
X70572380Y-105242380D01*
X70429523Y-105194761D01*
X70334285Y-105099523D01*
X70286666Y-105004285D01*
X70239047Y-104813809D01*
X70239047Y-104670952D01*
X70286666Y-104480476D01*
X70334285Y-104385238D01*
X70429523Y-104290000D01*
X70572380Y-104242380D01*
X70667619Y-104242380D01*
X70810476Y-104290000D01*
X70858095Y-104337619D01*
X64326666Y-95742380D02*
X64660000Y-96742380D01*
X64993333Y-95742380D01*
X65898095Y-96647142D02*
X65850476Y-96694761D01*
X65707619Y-96742380D01*
X65612380Y-96742380D01*
X65469523Y-96694761D01*
X65374285Y-96599523D01*
X65326666Y-96504285D01*
X65279047Y-96313809D01*
X65279047Y-96170952D01*
X65326666Y-95980476D01*
X65374285Y-95885238D01*
X65469523Y-95790000D01*
X65612380Y-95742380D01*
X65707619Y-95742380D01*
X65850476Y-95790000D01*
X65898095Y-95837619D01*
X66898095Y-96647142D02*
X66850476Y-96694761D01*
X66707619Y-96742380D01*
X66612380Y-96742380D01*
X66469523Y-96694761D01*
X66374285Y-96599523D01*
X66326666Y-96504285D01*
X66279047Y-96313809D01*
X66279047Y-96170952D01*
X66326666Y-95980476D01*
X66374285Y-95885238D01*
X66469523Y-95790000D01*
X66612380Y-95742380D01*
X66707619Y-95742380D01*
X66850476Y-95790000D01*
X66898095Y-95837619D01*
X93540000Y-68182380D02*
X93730476Y-68182380D01*
X93825714Y-68230000D01*
X93920952Y-68325238D01*
X93968571Y-68515714D01*
X93968571Y-68849047D01*
X93920952Y-69039523D01*
X93825714Y-69134761D01*
X93730476Y-69182380D01*
X93540000Y-69182380D01*
X93444761Y-69134761D01*
X93349523Y-69039523D01*
X93301904Y-68849047D01*
X93301904Y-68515714D01*
X93349523Y-68325238D01*
X93444761Y-68230000D01*
X93540000Y-68182380D01*
X94397142Y-68182380D02*
X94397142Y-68991904D01*
X94444761Y-69087142D01*
X94492380Y-69134761D01*
X94587619Y-69182380D01*
X94778095Y-69182380D01*
X94873333Y-69134761D01*
X94920952Y-69087142D01*
X94968571Y-68991904D01*
X94968571Y-68182380D01*
X95301904Y-68182380D02*
X95873333Y-68182380D01*
X95587619Y-69182380D02*
X95587619Y-68182380D01*
X75466190Y-72772380D02*
X75466190Y-71772380D01*
X75942380Y-72772380D02*
X75942380Y-71772380D01*
X76513809Y-72772380D01*
X76513809Y-71772380D01*
%TO.C,J2*%
X132686666Y-137932380D02*
X132686666Y-138646666D01*
X132639047Y-138789523D01*
X132543809Y-138884761D01*
X132400952Y-138932380D01*
X132305714Y-138932380D01*
X133115238Y-138027619D02*
X133162857Y-137980000D01*
X133258095Y-137932380D01*
X133496190Y-137932380D01*
X133591428Y-137980000D01*
X133639047Y-138027619D01*
X133686666Y-138122857D01*
X133686666Y-138218095D01*
X133639047Y-138360952D01*
X133067619Y-138932380D01*
X133686666Y-138932380D01*
%TO.C,S1*%
X124742104Y-61916487D02*
X124887048Y-61763400D01*
X125027921Y-61461298D01*
X125023850Y-61312282D01*
X124991604Y-61223687D01*
X124898937Y-61106918D01*
X124778096Y-61050569D01*
X124629081Y-61054640D01*
X124540485Y-61086886D01*
X124423716Y-61179552D01*
X124250597Y-61393060D01*
X124133827Y-61485726D01*
X124045232Y-61517972D01*
X123896217Y-61522044D01*
X123775376Y-61465695D01*
X123682709Y-61348925D01*
X123650463Y-61260330D01*
X123646392Y-61111314D01*
X123787265Y-60809212D01*
X123932209Y-60656125D01*
X125704110Y-60011205D02*
X125366016Y-60736252D01*
X125535063Y-60373729D02*
X124266232Y-59782063D01*
X124391144Y-59987428D01*
X124455636Y-60164618D01*
X124459708Y-60313633D01*
%TO.C,J5*%
X57666666Y-94452380D02*
X57666666Y-95166666D01*
X57619047Y-95309523D01*
X57523809Y-95404761D01*
X57380952Y-95452380D01*
X57285714Y-95452380D01*
X58619047Y-94452380D02*
X58142857Y-94452380D01*
X58095238Y-94928571D01*
X58142857Y-94880952D01*
X58238095Y-94833333D01*
X58476190Y-94833333D01*
X58571428Y-94880952D01*
X58619047Y-94928571D01*
X58666666Y-95023809D01*
X58666666Y-95261904D01*
X58619047Y-95357142D01*
X58571428Y-95404761D01*
X58476190Y-95452380D01*
X58238095Y-95452380D01*
X58142857Y-95404761D01*
X58095238Y-95357142D01*
%TO.C,J4*%
X57090205Y-65352915D02*
X57595281Y-64847839D01*
X57729968Y-64780495D01*
X57864655Y-64780495D01*
X57999342Y-64847839D01*
X58066685Y-64915182D01*
X56686144Y-64477449D02*
X57157548Y-64006045D01*
X56585128Y-64915182D02*
X57258563Y-64578465D01*
X56820831Y-64140732D01*
%TO.C,J3*%
X66686666Y-137932380D02*
X66686666Y-138646666D01*
X66639047Y-138789523D01*
X66543809Y-138884761D01*
X66400952Y-138932380D01*
X66305714Y-138932380D01*
X67067619Y-137932380D02*
X67686666Y-137932380D01*
X67353333Y-138313333D01*
X67496190Y-138313333D01*
X67591428Y-138360952D01*
X67639047Y-138408571D01*
X67686666Y-138503809D01*
X67686666Y-138741904D01*
X67639047Y-138837142D01*
X67591428Y-138884761D01*
X67496190Y-138932380D01*
X67210476Y-138932380D01*
X67115238Y-138884761D01*
X67067619Y-138837142D01*
D12*
%TO.C,U1*%
X135930000Y-68190000D02*
X133270000Y-68190000D01*
X135930000Y-80950000D02*
X133270000Y-80950000D01*
X111400000Y-84020000D02*
X132400000Y-84020000D01*
X135930000Y-83550000D02*
X134600000Y-83550000D01*
X135930000Y-80950000D02*
X135930000Y-68190000D01*
X111400000Y-68020000D02*
X111400000Y-84020000D01*
X135930000Y-82220000D02*
X135930000Y-83550000D01*
X133270000Y-80950000D02*
X133270000Y-68190000D01*
X132400000Y-68020000D02*
X111400000Y-68020000D01*
%TO.C,J1*%
X102620000Y-53420000D02*
X102620000Y-54750000D01*
X97420000Y-53420000D02*
X100020000Y-53420000D01*
X101290000Y-53420000D02*
X102620000Y-53420000D01*
X97420000Y-53420000D02*
X97420000Y-58620000D01*
X100020000Y-53420000D02*
X100020000Y-56020000D01*
X97420000Y-58620000D02*
X102620000Y-58620000D01*
X100020000Y-56020000D02*
X102620000Y-56020000D01*
X102620000Y-56020000D02*
X102620000Y-58620000D01*
D13*
%TO.C,NP1*%
X105575000Y-91600000D02*
G75*
G03*
X105575000Y-91600000I-15875000J0D01*
G01*
X111925000Y-91600000D02*
G75*
G03*
X111925000Y-91600000I-22225000J0D01*
G01*
D12*
%TO.C,J2*%
X130420000Y-139920000D02*
X130420000Y-145120000D01*
X130420000Y-139920000D02*
X133020000Y-139920000D01*
X133020000Y-139920000D02*
X133020000Y-142520000D01*
X135620000Y-142520000D02*
X135620000Y-145120000D01*
X133020000Y-142520000D02*
X135620000Y-142520000D01*
X130420000Y-145120000D02*
X135620000Y-145120000D01*
X134290000Y-139920000D02*
X135620000Y-139920000D01*
X135620000Y-139920000D02*
X135620000Y-141250000D01*
D14*
%TO.C,S1*%
X114180849Y-58348165D02*
X122337619Y-62151730D01*
X122337619Y-62151730D02*
X124535234Y-57438929D01*
X116378464Y-53635365D02*
X114180849Y-58348165D01*
X124535234Y-57438929D02*
X116378464Y-53635365D01*
D12*
%TO.C,J5*%
X60300000Y-101650000D02*
X59300000Y-101650000D01*
X55700000Y-100050000D02*
X55700000Y-101650000D01*
X56700000Y-101650000D02*
X56700000Y-100050000D01*
X61060000Y-103910000D02*
X61060000Y-96090000D01*
X54940000Y-97690000D02*
X55860000Y-97690000D01*
X60300000Y-100050000D02*
X60300000Y-101650000D01*
X56140000Y-97690000D02*
X56140000Y-96475000D01*
X60140000Y-96090000D02*
X60140000Y-97690000D01*
X58500000Y-99550000D02*
X58500000Y-103910000D01*
X56200000Y-101650000D02*
X56200000Y-103910000D01*
X54940000Y-96090000D02*
X54940000Y-103910000D01*
X54940000Y-103910000D02*
X61060000Y-103910000D01*
X60140000Y-97690000D02*
X59860000Y-97690000D01*
X56140000Y-97690000D02*
X55860000Y-97690000D01*
X55860000Y-96090000D02*
X54940000Y-96090000D01*
X56700000Y-101650000D02*
X56700000Y-103910000D01*
X57500000Y-99550000D02*
X58500000Y-99550000D01*
X55700000Y-101650000D02*
X56700000Y-101650000D01*
X61060000Y-96090000D02*
X60140000Y-96090000D01*
X56700000Y-100050000D02*
X55700000Y-100050000D01*
X61060000Y-97690000D02*
X60140000Y-97690000D01*
X59300000Y-100050000D02*
X60300000Y-100050000D01*
X59300000Y-101650000D02*
X59300000Y-100050000D01*
X57500000Y-103910000D02*
X57500000Y-99550000D01*
X55860000Y-97690000D02*
X55860000Y-96090000D01*
%TO.C,J4*%
X60098439Y-61873277D02*
X58259962Y-60034799D01*
X65571446Y-60077226D02*
X61894490Y-56400271D01*
X56421484Y-61873277D02*
X57361936Y-60932825D01*
X57361936Y-62813729D02*
X56421484Y-61873277D01*
X60098439Y-65550232D02*
X58259962Y-63711755D01*
X60098439Y-65550232D02*
X65571446Y-60077226D01*
X58259962Y-63711755D02*
X60098439Y-61873277D01*
X58259962Y-60034799D02*
X61894490Y-56400271D01*
X57878124Y-59610535D02*
X56817464Y-58549875D01*
X56817464Y-58549875D02*
X56817464Y-58549875D01*
X56817464Y-58549875D02*
X57878124Y-59610535D01*
X57878124Y-59610535D02*
X57878124Y-59610535D01*
X58585231Y-56782108D02*
X59645891Y-57842768D01*
X59645891Y-57842768D02*
X59645891Y-57842768D01*
X59645891Y-57842768D02*
X58585231Y-56782108D01*
X58585231Y-56782108D02*
X58585231Y-56782108D01*
X56817464Y-58549875D02*
X56817464Y-58549875D01*
X56817464Y-58549875D02*
X58585231Y-56782108D01*
X58585231Y-56782108D02*
X58585231Y-56782108D01*
X58585231Y-56782108D02*
X56817464Y-58549875D01*
%TO.C,J3*%
X69620000Y-142520000D02*
X69620000Y-145120000D01*
X67020000Y-142520000D02*
X69620000Y-142520000D01*
X69620000Y-139920000D02*
X69620000Y-141250000D01*
X64420000Y-139920000D02*
X67020000Y-139920000D01*
X67020000Y-139920000D02*
X67020000Y-142520000D01*
X64420000Y-139920000D02*
X64420000Y-145120000D01*
X64420000Y-145120000D02*
X69620000Y-145120000D01*
X68290000Y-139920000D02*
X69620000Y-139920000D01*
%TO.C,U2*%
X112960000Y-88760000D02*
X112960000Y-110370000D01*
X140520000Y-112500000D02*
X115090000Y-112500000D01*
X147420000Y-86640000D02*
X115090000Y-86640000D01*
X140520000Y-112500000D02*
X140520000Y-109960000D01*
X147420000Y-109960000D02*
X147420000Y-86640000D01*
X140520000Y-109960000D02*
X147420000Y-109960000D01*
X112960000Y-110370000D02*
G75*
G03*
X115090000Y-112500000I2130002J2D01*
G01*
X115090000Y-86640000D02*
G75*
G03*
X112960000Y-88770000I0J-2130000D01*
G01*
G36*
X121935000Y-113540000D02*
G01*
X120665000Y-113540000D01*
X121300000Y-112905000D01*
X121935000Y-113540000D01*
G37*
D10*
X121935000Y-113540000D02*
X120665000Y-113540000D01*
X121300000Y-112905000D01*
X121935000Y-113540000D01*
%TD*%
M02*
