%TF.GenerationSoftware,KiCad,Pcbnew,(6.0.9)*%
%TF.CreationDate,2023-02-14T14:55:24-08:00*%
%TF.ProjectId,DC31_Cnet_Badge_Rear,44433331-5f43-46e6-9574-5f4261646765,rev?*%
%TF.SameCoordinates,Original*%
%TF.FileFunction,Copper,L2,Bot*%
%TF.FilePolarity,Positive*%
%FSLAX46Y46*%
G04 Gerber Fmt 4.6, Leading zero omitted, Abs format (unit mm)*
G04 Created by KiCad (PCBNEW (6.0.9)) date 2023-02-14 14:55:24*
%MOMM*%
%LPD*%
G01*
G04 APERTURE LIST*
G04 Aperture macros list*
%AMRoundRect*
0 Rectangle with rounded corners*
0 $1 Rounding radius*
0 $2 $3 $4 $5 $6 $7 $8 $9 X,Y pos of 4 corners*
0 Add a 4 corners polygon primitive as box body*
4,1,4,$2,$3,$4,$5,$6,$7,$8,$9,$2,$3,0*
0 Add four circle primitives for the rounded corners*
1,1,$1+$1,$2,$3*
1,1,$1+$1,$4,$5*
1,1,$1+$1,$6,$7*
1,1,$1+$1,$8,$9*
0 Add four rect primitives between the rounded corners*
20,1,$1+$1,$2,$3,$4,$5,0*
20,1,$1+$1,$4,$5,$6,$7,0*
20,1,$1+$1,$6,$7,$8,$9,0*
20,1,$1+$1,$8,$9,$2,$3,0*%
%AMHorizOval*
0 Thick line with rounded ends*
0 $1 width*
0 $2 $3 position (X,Y) of the first rounded end (center of the circle)*
0 $4 $5 position (X,Y) of the second rounded end (center of the circle)*
0 Add line between two ends*
20,1,$1,$2,$3,$4,$5,0*
0 Add two circle primitives to create the rounded ends*
1,1,$1,$2,$3*
1,1,$1,$4,$5*%
%AMRotRect*
0 Rectangle, with rotation*
0 The origin of the aperture is its center*
0 $1 length*
0 $2 width*
0 $3 Rotation angle, in degrees counterclockwise*
0 Add horizontal line*
21,1,$1,$2,0,0,$3*%
G04 Aperture macros list end*
%TA.AperFunction,ComponentPad*%
%ADD10R,1.700000X1.700000*%
%TD*%
%TA.AperFunction,ComponentPad*%
%ADD11O,1.700000X1.700000*%
%TD*%
%TA.AperFunction,ComponentPad*%
%ADD12C,1.778000*%
%TD*%
%TA.AperFunction,ComponentPad*%
%ADD13C,1.800000*%
%TD*%
%TA.AperFunction,ComponentPad*%
%ADD14RoundRect,0.250000X-0.350000X-0.625000X0.350000X-0.625000X0.350000X0.625000X-0.350000X0.625000X0*%
%TD*%
%TA.AperFunction,ComponentPad*%
%ADD15O,1.200000X1.750000*%
%TD*%
%TA.AperFunction,ComponentPad*%
%ADD16RotRect,1.700000X1.700000X135.000000*%
%TD*%
%TA.AperFunction,ComponentPad*%
%ADD17HorizOval,1.700000X0.000000X0.000000X0.000000X0.000000X0*%
%TD*%
%TA.AperFunction,ComponentPad*%
%ADD18R,2.000000X2.000000*%
%TD*%
%TA.AperFunction,ComponentPad*%
%ADD19O,1.600000X2.000000*%
%TD*%
%TA.AperFunction,ComponentPad*%
%ADD20C,2.000000*%
%TD*%
%TA.AperFunction,ViaPad*%
%ADD21C,0.800000*%
%TD*%
%TA.AperFunction,Conductor*%
%ADD22C,0.250000*%
%TD*%
G04 APERTURE END LIST*
D10*
%TO.P,U1,1,OUT*%
%TO.N,Net-(S1-Pad3)*%
X134600000Y-82220000D03*
D11*
%TO.P,U1,2,GND*%
%TO.N,GND*%
X134600000Y-79680000D03*
%TO.P,U1,3,BATT*%
%TO.N,Net-(J5-Pad1)*%
X134600000Y-77140000D03*
%TO.P,U1,4,GND*%
%TO.N,GND*%
X134600000Y-74600000D03*
%TO.P,U1,5,GND*%
X134600000Y-72060000D03*
%TO.P,U1,6,VIN*%
%TO.N,Net-(S1-Pad1)*%
X134600000Y-69520000D03*
%TD*%
D10*
%TO.P,J1,1,Pin_1*%
%TO.N,unconnected-(J1-Pad1)*%
X101290000Y-54750000D03*
D11*
%TO.P,J1,2,Pin_2*%
%TO.N,unconnected-(J1-Pad2)*%
X98750000Y-54750000D03*
%TO.P,J1,3,Pin_3*%
%TO.N,unconnected-(J1-Pad3)*%
X101290000Y-57290000D03*
%TO.P,J1,4,Pin_4*%
%TO.N,unconnected-(J1-Pad4)*%
X98750000Y-57290000D03*
%TD*%
D12*
%TO.P,NP1,1,IN*%
%TO.N,Net-(NP1-Pad1)*%
X78066800Y-74048600D03*
%TO.P,NP1,2,OUT*%
%TO.N,unconnected-(NP1-Pad2)*%
X93814800Y-70949800D03*
%TO.P,NP1,3,GND*%
%TO.N,GND*%
X107226000Y-103258600D03*
%TO.P,NP1,4,GND*%
X101384000Y-109126000D03*
%TO.P,NP1,5,VCC*%
%TO.N,VCC*%
X72148600Y-103233200D03*
%TO.P,NP1,6,VCC*%
X69049800Y-95587800D03*
%TD*%
D10*
%TO.P,J2,1,Pin_1*%
%TO.N,unconnected-(J2-Pad1)*%
X134290000Y-141250000D03*
D11*
%TO.P,J2,2,Pin_2*%
%TO.N,unconnected-(J2-Pad2)*%
X131750000Y-141250000D03*
%TO.P,J2,3,Pin_3*%
%TO.N,unconnected-(J2-Pad3)*%
X134290000Y-143790000D03*
%TO.P,J2,4,Pin_4*%
%TO.N,unconnected-(J2-Pad4)*%
X131750000Y-143790000D03*
%TD*%
D13*
%TO.P,S1,1*%
%TO.N,Net-(S1-Pad1)*%
X117768461Y-55386909D03*
%TO.P,S1,2*%
%TO.N,VCC*%
X120034230Y-56443455D03*
%TO.P,S1,3*%
%TO.N,Net-(S1-Pad3)*%
X122300000Y-57500000D03*
%TO.P,S1,4*%
%TO.N,Net-(S1-Pad1)*%
X116416083Y-58287094D03*
%TO.P,S1,5*%
%TO.N,VCC*%
X118681852Y-59343640D03*
%TO.P,S1,6*%
%TO.N,Net-(S1-Pad3)*%
X120947621Y-60400185D03*
%TD*%
D14*
%TO.P,J5,1,Pin_1*%
%TO.N,Net-(J5-Pad1)*%
X57000000Y-97550000D03*
D15*
%TO.P,J5,2,Pin_2*%
%TO.N,GND*%
X59000000Y-97550000D03*
%TD*%
D16*
%TO.P,J4,1,Pin_1*%
%TO.N,Net-(J4-Pad1)*%
X58302388Y-61873277D03*
D17*
%TO.P,J4,2,Pin_2*%
%TO.N,GND*%
X60098439Y-63669328D03*
%TO.P,J4,3,Pin_3*%
%TO.N,Net-(J4-Pad3)*%
X60098439Y-60077226D03*
%TO.P,J4,4,Pin_4*%
%TO.N,Net-(J4-Pad4)*%
X61894490Y-61873277D03*
%TO.P,J4,5,Pin_5*%
%TO.N,Net-(J4-Pad5)*%
X61894490Y-58281175D03*
%TO.P,J4,6,Pin_6*%
%TO.N,unconnected-(J4-Pad6)*%
X63690542Y-60077226D03*
%TD*%
D10*
%TO.P,J3,1,Pin_1*%
%TO.N,unconnected-(J3-Pad1)*%
X68290000Y-141250000D03*
D11*
%TO.P,J3,2,Pin_2*%
%TO.N,unconnected-(J3-Pad2)*%
X65750000Y-141250000D03*
%TO.P,J3,3,Pin_3*%
%TO.N,unconnected-(J3-Pad3)*%
X68290000Y-143790000D03*
%TO.P,J3,4,Pin_4*%
%TO.N,unconnected-(J3-Pad4)*%
X65750000Y-143790000D03*
%TD*%
D18*
%TO.P,U2,1,~{RST}*%
%TO.N,unconnected-(U2-Pad1)*%
X121300000Y-111000000D03*
D19*
%TO.P,U2,2,A0*%
%TO.N,unconnected-(U2-Pad2)*%
X123840000Y-111000000D03*
%TO.P,U2,3,D0*%
%TO.N,unconnected-(U2-Pad3)*%
X126380000Y-111000000D03*
%TO.P,U2,4,SCK/D5*%
%TO.N,Net-(SW1-Pad1)*%
X128920000Y-111000000D03*
%TO.P,U2,5,MISO/D6*%
%TO.N,Net-(SW2-Pad1)*%
X131460000Y-111000000D03*
%TO.P,U2,6,MOSI/D7*%
%TO.N,Net-(J4-Pad5)*%
X134000000Y-111000000D03*
%TO.P,U2,7,CS/D8*%
%TO.N,unconnected-(U2-Pad7)*%
X136540000Y-111000000D03*
%TO.P,U2,8,3V3*%
%TO.N,Net-(J4-Pad1)*%
X139080000Y-111000000D03*
%TO.P,U2,9,5V*%
%TO.N,VCC*%
X139080000Y-88140000D03*
%TO.P,U2,10,GND*%
%TO.N,GND*%
X136540000Y-88140000D03*
%TO.P,U2,11,D4*%
%TO.N,unconnected-(U2-Pad11)*%
X134000000Y-88140000D03*
%TO.P,U2,12,D3*%
%TO.N,Net-(NP1-Pad1)*%
X131460000Y-88140000D03*
%TO.P,U2,13,SDA/D2*%
%TO.N,Net-(J4-Pad3)*%
X128920000Y-88140000D03*
%TO.P,U2,14,SCL/D1*%
%TO.N,Net-(J4-Pad4)*%
X126380000Y-88140000D03*
%TO.P,U2,15,RX*%
%TO.N,unconnected-(U2-Pad15)*%
X123840000Y-88140000D03*
%TO.P,U2,16,TX*%
%TO.N,unconnected-(U2-Pad16)*%
X121300000Y-88140000D03*
%TD*%
D20*
%TO.P,SW2,1,1*%
%TO.N,Net-(SW2-Pad1)*%
X60750000Y-140250000D03*
X54250000Y-140250000D03*
%TO.P,SW2,2,2*%
%TO.N,GND*%
X54250000Y-144750000D03*
X60750000Y-144750000D03*
%TD*%
%TO.P,SW1,1,1*%
%TO.N,Net-(SW1-Pad1)*%
X145750000Y-140250000D03*
X139250000Y-140250000D03*
%TO.P,SW1,2,2*%
%TO.N,GND*%
X139250000Y-144750000D03*
X145750000Y-144750000D03*
%TD*%
D21*
%TO.N,VCC*%
X113400000Y-82800000D03*
%TO.N,Net-(J4-Pad4)*%
X78100000Y-68800000D03*
%TO.N,Net-(J4-Pad5)*%
X130100000Y-102700000D03*
%TO.N,Net-(NP1-Pad1)*%
X78100000Y-78100000D03*
%TO.N,Net-(SW2-Pad1)*%
X131600000Y-135000000D03*
%TO.N,Net-(J4-Pad1)*%
X64900000Y-77100000D03*
X117200000Y-95500000D03*
%TD*%
D22*
%TO.N,VCC*%
X137600000Y-85100000D02*
X121000000Y-85100000D01*
X118663704Y-82800000D02*
X118681852Y-82781852D01*
X139080000Y-88140000D02*
X139080000Y-86580000D01*
X118681852Y-82781852D02*
X118681852Y-59343640D01*
X121000000Y-85100000D02*
X118681852Y-82781852D01*
X139080000Y-86580000D02*
X137600000Y-85100000D01*
X113400000Y-82800000D02*
X118663704Y-82800000D01*
%TO.N,Net-(S1-Pad1)*%
X134600000Y-69520000D02*
X124216443Y-59136443D01*
X119526818Y-57668455D02*
X117768461Y-55910098D01*
X120068455Y-57668455D02*
X119526818Y-57668455D01*
X117768461Y-55910098D02*
X117768461Y-55386909D01*
X124216443Y-59136443D02*
X121536443Y-59136443D01*
X121536443Y-59136443D02*
X120068455Y-57668455D01*
%TO.N,Net-(J4-Pad3)*%
X73700000Y-72100000D02*
X93600000Y-92000000D01*
X73700000Y-63800000D02*
X73700000Y-72100000D01*
X62000000Y-55600000D02*
X65500000Y-55600000D01*
X60098439Y-60077226D02*
X60098439Y-57501561D01*
X60098439Y-57501561D02*
X62000000Y-55600000D01*
X128920000Y-90680000D02*
X128920000Y-88140000D01*
X93600000Y-92000000D02*
X127600000Y-92000000D01*
X65500000Y-55600000D02*
X73700000Y-63800000D01*
X127600000Y-92000000D02*
X128920000Y-90680000D01*
%TO.N,Net-(J4-Pad4)*%
X124020000Y-90500000D02*
X126380000Y-88140000D01*
X78100000Y-68800000D02*
X99800000Y-90500000D01*
X99800000Y-90500000D02*
X124020000Y-90500000D01*
%TO.N,Net-(J4-Pad5)*%
X63690542Y-94490542D02*
X63690542Y-63909458D01*
X66300000Y-58300000D02*
X65200000Y-57200000D01*
X130100000Y-102700000D02*
X126800000Y-99400000D01*
X126800000Y-99400000D02*
X68600000Y-99400000D01*
X63690542Y-63909458D02*
X66300000Y-61300000D01*
X65200000Y-57200000D02*
X62975665Y-57200000D01*
X68600000Y-99400000D02*
X63690542Y-94490542D01*
X62975665Y-57200000D02*
X61894490Y-58281175D01*
X66300000Y-61300000D02*
X66300000Y-58300000D01*
%TO.N,Net-(NP1-Pad1)*%
X130400000Y-93500000D02*
X131460000Y-92440000D01*
X78000000Y-78200000D02*
X78100000Y-78100000D01*
X78000000Y-80600000D02*
X78000000Y-78900000D01*
X131460000Y-92440000D02*
X131460000Y-88140000D01*
X90900000Y-93500000D02*
X78000000Y-80600000D01*
X90900000Y-93500000D02*
X130400000Y-93500000D01*
X78000000Y-78900000D02*
X78000000Y-78200000D01*
%TO.N,Net-(SW2-Pad1)*%
X76900000Y-135000000D02*
X74300000Y-137600000D01*
X131600000Y-135000000D02*
X76900000Y-135000000D01*
X74300000Y-137600000D02*
X63400000Y-137600000D01*
X63400000Y-137600000D02*
X60750000Y-140250000D01*
%TO.N,Net-(J4-Pad1)*%
X81900000Y-94200000D02*
X64900000Y-77200000D01*
X64900000Y-77200000D02*
X64900000Y-77100000D01*
X117200000Y-95500000D02*
X83200000Y-95500000D01*
X83200000Y-95500000D02*
X81900000Y-94200000D01*
%TO.N,Net-(S1-Pad3)*%
X134600000Y-82220000D02*
X133320000Y-82220000D01*
X133320000Y-82220000D02*
X120947621Y-69847621D01*
X120947621Y-69847621D02*
X120947621Y-60400185D01*
%TD*%
M02*
