%TF.GenerationSoftware,KiCad,Pcbnew,(6.0.7)*%
%TF.CreationDate,2022-08-24T16:40:06-07:00*%
%TF.ProjectId,DC31_Cnet_Badge_Front,44433331-5f43-46e6-9574-5f4261646765,rev?*%
%TF.SameCoordinates,Original*%
%TF.FileFunction,Legend,Bot*%
%TF.FilePolarity,Positive*%
%FSLAX46Y46*%
G04 Gerber Fmt 4.6, Leading zero omitted, Abs format (unit mm)*
G04 Created by KiCad (PCBNEW (6.0.7)) date 2022-08-24 16:40:06*
%MOMM*%
%LPD*%
G01*
G04 APERTURE LIST*
%ADD10C,0.150000*%
%ADD11C,0.120000*%
G04 APERTURE END LIST*
D10*
%TO.C,J3*%
X67338333Y-138347380D02*
X67338333Y-139061666D01*
X67385952Y-139204523D01*
X67481190Y-139299761D01*
X67624047Y-139347380D01*
X67719285Y-139347380D01*
X66957380Y-138347380D02*
X66338333Y-138347380D01*
X66671666Y-138728333D01*
X66528809Y-138728333D01*
X66433571Y-138775952D01*
X66385952Y-138823571D01*
X66338333Y-138918809D01*
X66338333Y-139156904D01*
X66385952Y-139252142D01*
X66433571Y-139299761D01*
X66528809Y-139347380D01*
X66814523Y-139347380D01*
X66909761Y-139299761D01*
X66957380Y-139252142D01*
%TO.C,J2*%
X133338333Y-138347380D02*
X133338333Y-139061666D01*
X133385952Y-139204523D01*
X133481190Y-139299761D01*
X133624047Y-139347380D01*
X133719285Y-139347380D01*
X132909761Y-138442619D02*
X132862142Y-138395000D01*
X132766904Y-138347380D01*
X132528809Y-138347380D01*
X132433571Y-138395000D01*
X132385952Y-138442619D01*
X132338333Y-138537857D01*
X132338333Y-138633095D01*
X132385952Y-138775952D01*
X132957380Y-139347380D01*
X132338333Y-139347380D01*
%TO.C,J1*%
X103057380Y-52666666D02*
X103771666Y-52666666D01*
X103914523Y-52619047D01*
X104009761Y-52523809D01*
X104057380Y-52380952D01*
X104057380Y-52285714D01*
X104057380Y-53666666D02*
X104057380Y-53095238D01*
X104057380Y-53380952D02*
X103057380Y-53380952D01*
X103200238Y-53285714D01*
X103295476Y-53190476D01*
X103343095Y-53095238D01*
D11*
%TO.C,J3*%
X69605000Y-142495000D02*
X67005000Y-142495000D01*
X64405000Y-139895000D02*
X64405000Y-145095000D01*
X69605000Y-145095000D02*
X64405000Y-145095000D01*
X69605000Y-141225000D02*
X69605000Y-139895000D01*
X69605000Y-142495000D02*
X69605000Y-145095000D01*
X69605000Y-139895000D02*
X68275000Y-139895000D01*
X67005000Y-139895000D02*
X64405000Y-139895000D01*
X67005000Y-142495000D02*
X67005000Y-139895000D01*
%TO.C,J2*%
X135605000Y-141225000D02*
X135605000Y-139895000D01*
X133005000Y-139895000D02*
X130405000Y-139895000D01*
X135605000Y-139895000D02*
X134275000Y-139895000D01*
X133005000Y-142495000D02*
X133005000Y-139895000D01*
X135605000Y-142495000D02*
X133005000Y-142495000D01*
X130405000Y-139895000D02*
X130405000Y-145095000D01*
X135605000Y-145095000D02*
X130405000Y-145095000D01*
X135605000Y-142495000D02*
X135605000Y-145095000D01*
%TO.C,J1*%
X102605000Y-54330000D02*
X102605000Y-53000000D01*
X100005000Y-54330000D02*
X100005000Y-51670000D01*
X101275000Y-54330000D02*
X102605000Y-54330000D01*
X100005000Y-51670000D02*
X97405000Y-51670000D01*
X97405000Y-54330000D02*
X97405000Y-51670000D01*
X100005000Y-54330000D02*
X97405000Y-54330000D01*
%TD*%
M02*
