%TF.GenerationSoftware,KiCad,Pcbnew,(6.0.7)*%
%TF.CreationDate,2022-09-20T10:58:03-07:00*%
%TF.ProjectId,DC31_Cnet_Badge_Front,44433331-5f43-46e6-9574-5f4261646765,rev?*%
%TF.SameCoordinates,Original*%
%TF.FileFunction,Drillmap*%
%TF.FilePolarity,Positive*%
%FSLAX45Y45*%
G04 Gerber Fmt 4.5, Leading zero omitted, Abs format (unit mm)*
G04 Created by KiCad (PCBNEW (6.0.7)) date 2022-09-20 10:58:03*
%MOMM*%
%LPD*%
G01*
G04 APERTURE LIST*
%ADD10C,0.099405*%
%ADD11C,0.200000*%
G04 APERTURE END LIST*
D10*
X14682002Y-8243576D02*
X14623174Y-8094067D01*
X5045114Y-13599129D02*
X5039912Y-13607243D01*
X14829370Y-14984989D02*
X14839045Y-14982755D01*
X13724791Y-6138217D02*
X13720571Y-6135159D01*
X8211376Y-5330305D02*
X8032692Y-5402690D01*
X5901886Y-12954506D02*
X5916825Y-12966386D01*
X5868368Y-7181256D02*
X5782691Y-7311889D01*
X5760625Y-12726401D02*
X5760625Y-12726401D01*
X14954741Y-10672780D02*
X14954741Y-10672780D01*
X5830734Y-12892498D02*
X5843846Y-12904659D01*
X14989054Y-14789066D02*
X14989054Y-13710941D01*
X5302971Y-8284194D02*
X5252169Y-8429909D01*
X9376807Y-5039137D02*
X9327694Y-5045217D01*
X14908729Y-13550694D02*
X14900889Y-13545118D01*
X14829382Y-13515021D02*
X14819534Y-13513261D01*
X13167046Y-6123497D02*
X13167046Y-6123497D01*
X14789066Y-14989054D02*
X14789066Y-14989054D01*
X14969330Y-14875767D02*
X14973335Y-14866909D01*
X5200640Y-14988793D02*
X5210931Y-14989054D01*
X5124232Y-14969325D02*
X5133090Y-14973330D01*
X12203344Y-5510316D02*
X12054771Y-5440496D01*
X13798457Y-6283411D02*
X13794963Y-6269319D01*
X5010955Y-14789066D02*
X5010955Y-14789066D01*
X10356690Y-5026672D02*
X10258716Y-5025709D01*
X13678097Y-13391322D02*
X13704075Y-13363725D01*
X14960822Y-10623671D02*
X14965563Y-10575465D01*
X14857827Y-14976916D02*
X14866909Y-14973335D01*
X14973340Y-13633105D02*
X14969335Y-13624247D01*
X6109222Y-13148258D02*
X6139259Y-13184151D01*
X5739082Y-12627936D02*
X5742161Y-12635816D01*
X9425025Y-5034402D02*
X9376807Y-5039137D01*
X5742161Y-12635816D02*
X5744938Y-12643836D01*
X14943391Y-13583741D02*
X14937106Y-13576485D01*
X14980060Y-14848535D02*
X14982755Y-14839045D01*
X5735666Y-12620082D02*
X5739082Y-12627936D01*
X5034404Y-10575465D02*
X5039138Y-10623671D01*
X14902323Y-9013104D02*
X14868327Y-8856815D01*
X14937106Y-13576485D02*
X14930484Y-13569539D01*
X5124243Y-13530678D02*
X5115620Y-13535094D01*
X13711435Y-6129762D02*
X13706468Y-6127402D01*
X5076470Y-14937090D02*
X5083726Y-14943376D01*
X5151475Y-13519947D02*
X5142183Y-13523092D01*
X6312363Y-13376440D02*
X6354614Y-13420656D01*
X13044729Y-6030273D02*
X13044729Y-6030273D01*
X5017251Y-14839041D02*
X5019946Y-14848530D01*
X14799370Y-13511215D02*
X14789078Y-13510953D01*
X9137862Y-5074264D02*
X8949146Y-5110885D01*
X5013260Y-14819519D02*
X5015018Y-14829366D01*
X5025011Y-10000470D02*
X5025011Y-10000470D01*
X5755563Y-12689929D02*
X5757288Y-12701128D01*
X13884212Y-6814359D02*
X13873131Y-6773198D01*
X14809526Y-13511988D02*
X14799370Y-13511215D01*
X5039906Y-14892757D02*
X5045107Y-14900871D01*
X14949327Y-13591296D02*
X14943391Y-13583741D01*
X13695610Y-6123300D02*
X13689667Y-6121536D01*
X14974385Y-9718092D02*
X14971675Y-9540919D01*
X5777220Y-12832895D02*
X5778707Y-12835666D01*
X5749732Y-12660739D02*
X5751821Y-12669846D01*
X6139259Y-13184151D02*
X6139259Y-13184151D01*
X6590549Y-6340177D02*
X6590549Y-6340177D01*
X13511313Y-6110045D02*
X13442932Y-6110801D01*
X14982759Y-13660967D02*
X14980064Y-13651478D01*
X14875778Y-13530683D02*
X14866920Y-13526677D01*
X5091281Y-14949313D02*
X5099121Y-14954889D01*
X5076479Y-13562910D02*
X5069534Y-13569532D01*
X10963159Y-5092693D02*
X10801232Y-5063712D01*
X8392660Y-5264791D02*
X8211376Y-5330305D01*
X14949320Y-14908719D02*
X14954896Y-14900878D01*
X8761842Y-5154941D02*
X8576248Y-5206290D01*
X6173487Y-6777689D02*
X6099314Y-6867837D01*
X10557020Y-5032743D02*
X10503284Y-5030128D01*
X13750247Y-13313244D02*
X13769852Y-13290915D01*
X14785097Y-8547483D02*
X14735999Y-8394769D01*
X13561803Y-13510953D02*
X13561803Y-13510953D01*
X5019949Y-13651473D02*
X5017254Y-13660962D01*
X5142183Y-13523092D02*
X5133101Y-13526673D01*
X13750214Y-6167393D02*
X13746846Y-6162314D01*
X6022469Y-13052355D02*
X6033256Y-13063374D01*
X5025135Y-9843411D02*
X5025011Y-10000470D01*
X5011216Y-14799356D02*
X5011988Y-14809511D01*
X5083726Y-14943376D02*
X5091281Y-14949313D01*
X14986748Y-14819522D02*
X14988020Y-14809513D01*
X14974385Y-10282840D02*
X14974872Y-10157527D01*
X14806870Y-11381084D02*
X14853587Y-11206313D01*
X5886924Y-12942216D02*
X5901886Y-12954506D01*
X14857838Y-13523096D02*
X14848547Y-13519951D01*
X14930484Y-13569539D02*
X14923539Y-13562917D01*
X7349899Y-5758134D02*
X7188671Y-5862767D01*
X14081783Y-7108492D02*
X13986739Y-6978381D01*
X5200652Y-13511214D02*
X5190496Y-13511987D01*
X11904124Y-5375614D02*
X11751518Y-5315719D01*
X5731875Y-12612145D02*
X5735666Y-12620082D01*
X6056365Y-13088019D02*
X6068722Y-13101681D01*
X5818568Y-12880812D02*
X5830734Y-12892498D01*
X13888248Y-13148549D02*
X14001075Y-13002590D01*
X6002336Y-13032831D02*
X6012168Y-13042180D01*
X13930917Y-6900360D02*
X13916715Y-6878392D01*
X13669482Y-6117258D02*
X13661883Y-6116133D01*
X6250402Y-6688801D02*
X6173487Y-6777689D01*
X13167046Y-6123497D02*
X13044729Y-6030273D01*
X5945866Y-12988213D02*
X5959580Y-12997806D01*
X5757288Y-12701128D02*
X5760625Y-12726401D01*
X11597069Y-5260856D02*
X11440892Y-5211075D01*
X5034404Y-9425431D02*
X5030848Y-9478185D01*
X5773481Y-12817126D02*
X5775049Y-12825379D01*
X5992955Y-13024287D02*
X6002336Y-13032831D01*
X13701201Y-6125251D02*
X13695610Y-6123300D01*
X5797849Y-12859567D02*
X5807542Y-12869776D01*
X5782691Y-7311889D02*
X5701203Y-7444831D01*
X5916825Y-12966386D02*
X5931550Y-12977681D01*
X5099121Y-14954889D02*
X5107235Y-14960092D01*
X10638157Y-5040049D02*
X10638157Y-5040049D01*
X13760303Y-6184675D02*
X13753563Y-6172805D01*
X6012168Y-13042180D02*
X6022469Y-13052355D01*
X14258933Y-7377551D02*
X14172537Y-7241604D01*
X5133090Y-14973330D02*
X5142171Y-14976912D01*
X6081639Y-13116263D02*
X6109222Y-13148258D01*
X5164350Y-8725239D02*
X5127431Y-8874612D01*
X5039912Y-13607243D02*
X5035096Y-13615618D01*
X5478407Y-12139765D02*
X5533282Y-12253295D01*
X5095236Y-9024962D02*
X5067816Y-9176168D01*
X6413473Y-6513672D02*
X6330314Y-6600890D01*
X13308124Y-6115539D02*
X13167046Y-6123497D01*
X5030675Y-14875760D02*
X5035091Y-14884383D01*
X14875767Y-14969330D02*
X14884390Y-14964913D01*
X13568935Y-6110578D02*
X13542004Y-6110140D01*
X13895432Y-6841336D02*
X13891657Y-6833604D01*
X13720571Y-6135159D02*
X13716127Y-6132344D01*
X14980064Y-13651478D02*
X14976920Y-13642186D01*
X13636116Y-6113501D02*
X13616210Y-6112255D01*
X14694378Y-11725040D02*
X14753776Y-11554047D01*
X5170628Y-14984986D02*
X5180476Y-14986746D01*
X13308124Y-6115539D02*
X13308124Y-6115539D01*
X14960104Y-13607250D02*
X14954902Y-13599136D01*
X5180488Y-13513259D02*
X5170640Y-13515019D01*
X14789078Y-13510953D02*
X13561803Y-13510953D01*
X5010955Y-13710941D02*
X5010955Y-14789066D01*
X9477794Y-5030847D02*
X9425025Y-5034402D01*
X5244097Y-11542676D02*
X5285306Y-11665131D01*
X5025616Y-9718092D02*
X5025135Y-9843411D01*
X5550989Y-7717158D02*
X5482360Y-7856301D01*
X13743432Y-6157557D02*
X13739947Y-6153112D01*
X5753753Y-12679539D02*
X5755563Y-12689929D01*
X13986739Y-6978381D02*
X13986739Y-6978381D01*
X6167152Y-13217148D02*
X6198902Y-13253361D01*
X5030848Y-10522720D02*
X5034404Y-10575465D01*
X8032692Y-5402690D02*
X7856905Y-5481806D01*
X5011216Y-13700650D02*
X5010955Y-13710941D01*
X14839045Y-14982755D02*
X14848535Y-14980060D01*
X13676629Y-6118526D02*
X13669482Y-6117258D01*
X5062904Y-14923523D02*
X5069525Y-14930468D01*
X5010955Y-13710941D02*
X5010955Y-13710941D01*
X14479097Y-12224578D02*
X14556965Y-12060468D01*
X14866909Y-14973335D02*
X14875767Y-14969330D01*
X5590611Y-12364241D02*
X5650300Y-12472336D01*
X13904858Y-6858672D02*
X13895432Y-6841336D01*
X14491295Y-7800762D02*
X14418380Y-7657295D01*
X12774573Y-5838026D02*
X12635457Y-5748929D01*
X13863766Y-6735740D02*
X13855822Y-6700332D01*
X6330314Y-6600890D02*
X6250402Y-6688801D01*
X14960822Y-9377219D02*
X14954741Y-9328108D01*
X13947378Y-6924438D02*
X13930917Y-6900360D01*
X13966014Y-6950490D02*
X13947378Y-6924438D01*
X13561803Y-13510953D02*
X13621837Y-13449844D01*
X14753776Y-11554047D02*
X14806870Y-11381084D01*
X5056619Y-14916267D02*
X5062904Y-14923523D01*
X5160953Y-14982752D02*
X5170628Y-14984986D01*
X10503284Y-5030128D02*
X10437360Y-5028124D01*
X5190484Y-14988019D02*
X5200640Y-14988793D01*
X5039138Y-9377219D02*
X5034404Y-9425431D01*
X14305404Y-12544777D02*
X14395219Y-12386068D01*
X7031825Y-5973429D02*
X6879658Y-6089978D01*
X14954741Y-9328108D02*
X14954741Y-9328108D01*
X5067816Y-9176168D02*
X5045217Y-9328108D01*
X5030848Y-9478185D02*
X5028309Y-9540919D01*
X13706468Y-6127402D02*
X13701201Y-6125251D01*
X5775049Y-12825379D02*
X5776283Y-12830530D01*
X5019946Y-14848530D02*
X5023089Y-14857821D01*
X11123822Y-5126946D02*
X10963159Y-5092693D01*
X14982755Y-14839045D02*
X14984989Y-14829370D01*
X5418115Y-7997269D02*
X5358302Y-8139940D01*
X14988793Y-14799357D02*
X14989054Y-14789066D01*
X7188671Y-5862767D02*
X7031825Y-5973429D01*
X13778103Y-6220860D02*
X13767268Y-6198015D01*
X5062912Y-13576477D02*
X5056627Y-13583734D01*
X5723029Y-12595569D02*
X5727675Y-12604011D01*
X5190496Y-13511987D02*
X5180488Y-13513259D01*
X5205946Y-8576965D02*
X5164350Y-8725239D01*
X5744938Y-12643836D02*
X5747450Y-12652107D01*
X14931150Y-9170257D02*
X14902323Y-9013104D01*
X14892764Y-14960098D02*
X14900878Y-14954896D01*
X14969126Y-10522720D02*
X14971676Y-10459995D01*
X14974872Y-10157527D02*
X14974998Y-10000470D01*
X5958184Y-7053053D02*
X5958184Y-7053053D01*
X5025616Y-10282840D02*
X5028309Y-10459995D01*
X14172537Y-7241604D02*
X14081783Y-7108492D01*
X14984991Y-13670642D02*
X14982759Y-13660967D01*
X13787206Y-6243988D02*
X13778103Y-6220860D01*
X5099131Y-13545112D02*
X5091291Y-13550688D01*
X14809513Y-14988020D02*
X14819522Y-14986748D01*
X10000625Y-5025011D02*
X10000625Y-5025011D01*
X5015018Y-14829366D02*
X5017251Y-14839041D01*
X5984007Y-13016532D02*
X5992955Y-13024287D01*
X5083736Y-13556625D02*
X5076479Y-13562910D01*
X13769852Y-13290915D02*
X13888248Y-13148549D01*
X10000625Y-5025011D02*
X9717903Y-5025616D01*
X14908719Y-14949320D02*
X14916274Y-14943383D01*
X13820246Y-6431085D02*
X13814016Y-6377736D01*
X13807983Y-6334272D02*
X13801760Y-6298774D01*
X9327694Y-5045217D02*
X9327694Y-5045217D01*
X6234015Y-13292306D02*
X6272000Y-13333494D01*
X14916283Y-13556631D02*
X14908729Y-13550694D01*
X5482360Y-7856301D02*
X5418115Y-7997269D01*
X13704075Y-13363725D02*
X13728223Y-13337606D01*
X14001075Y-13002590D02*
X14108258Y-12853201D01*
X14960098Y-14892764D02*
X14964913Y-14884390D01*
X10000625Y-5025011D02*
X10000625Y-5025011D01*
X6879658Y-6089978D02*
X6732467Y-6212274D01*
X5028309Y-10459995D02*
X5030848Y-10522720D01*
X13593884Y-6111310D02*
X13568935Y-6110578D01*
X13837555Y-6589896D02*
X13832336Y-6546172D01*
X5727675Y-12604011D02*
X5731875Y-12612145D01*
X7515212Y-5659668D02*
X7349899Y-5758134D01*
X13767268Y-6198015D02*
X13760303Y-6184675D01*
X5958184Y-7053053D02*
X5868368Y-7181256D01*
X5170640Y-13515019D02*
X5160965Y-13517252D01*
X5011989Y-13690494D02*
X5011216Y-13700650D01*
X12054771Y-5440496D02*
X11904124Y-5375614D01*
X5017254Y-13660962D02*
X5015021Y-13670638D01*
X5050682Y-14908712D02*
X5056619Y-14916267D01*
X8949146Y-5110885D02*
X8761842Y-5154941D01*
X13832336Y-6546172D02*
X13827058Y-6496239D01*
X13986739Y-6978381D02*
X13966014Y-6950490D01*
X13767268Y-6198015D02*
X13767268Y-6198015D01*
X13843012Y-6629062D02*
X13837555Y-6589896D01*
X13827058Y-6496239D02*
X13820246Y-6431085D01*
X5789683Y-12850361D02*
X5797849Y-12859567D01*
X14964913Y-14884390D02*
X14969330Y-14875767D01*
X5533282Y-12253295D02*
X5590611Y-12364241D01*
X14789078Y-13510953D02*
X14789078Y-13510953D01*
X5210943Y-13510953D02*
X5200652Y-13511214D01*
X14209726Y-12700542D02*
X14305404Y-12544777D01*
X14964919Y-13615624D02*
X14960104Y-13607250D01*
X14556965Y-12060468D02*
X14628750Y-11893901D01*
X5142171Y-14976912D02*
X5151463Y-14980057D01*
X5376390Y-11906019D02*
X5426078Y-12023918D01*
X5063378Y-10796548D02*
X5085111Y-10920928D01*
X5776283Y-12830530D02*
X5777220Y-12832895D01*
X5426078Y-12023918D02*
X5478407Y-12139765D01*
X14623174Y-8094067D02*
X14559583Y-7946408D01*
X13916715Y-6878392D02*
X13904858Y-6858672D01*
X14628750Y-11893901D02*
X14694378Y-11725040D01*
X14108258Y-12853201D02*
X14209726Y-12700542D01*
X11440892Y-5211075D02*
X11283105Y-5166422D01*
X5778707Y-12835666D02*
X5783238Y-12842335D01*
X14853587Y-11206313D02*
X14893854Y-11029898D01*
X5010955Y-14789066D02*
X5011216Y-14799356D01*
X14965563Y-9425431D02*
X14960822Y-9377219D01*
X5210931Y-14989054D02*
X5210931Y-14989054D01*
X14848535Y-14980060D02*
X14857827Y-14976916D01*
X7684313Y-5567512D02*
X7515212Y-5659668D01*
X14989054Y-14789066D02*
X14989054Y-14789066D01*
X14988020Y-14809513D02*
X14988793Y-14799357D01*
X5701203Y-7444831D02*
X5623953Y-7579961D01*
X5127431Y-8874612D02*
X5095236Y-9024962D01*
X14340903Y-7516170D02*
X14258933Y-7377551D01*
X13728814Y-6141530D02*
X13724791Y-6138217D01*
X5783238Y-12842335D02*
X5789683Y-12850361D01*
X5329435Y-11786334D02*
X5376390Y-11906019D01*
X14868327Y-8856815D02*
X14829229Y-8701553D01*
X13739947Y-6153112D02*
X13736366Y-6148966D01*
X14937097Y-14923530D02*
X14943383Y-14916274D01*
X14893854Y-11029898D02*
X14927596Y-10851999D01*
X5138921Y-11170456D02*
X5170811Y-11295072D01*
X14395219Y-12386068D02*
X14479097Y-12224578D01*
X5180476Y-14986746D02*
X5190484Y-14988019D01*
X6099314Y-6867837D02*
X6027631Y-6959530D01*
X5039138Y-10623671D02*
X5045217Y-10672780D01*
X13736366Y-6148966D02*
X13732663Y-6145110D01*
X5035091Y-14884383D02*
X5039906Y-14892757D01*
X5050690Y-13591288D02*
X5045114Y-13599129D01*
X6198902Y-13253361D02*
X6234015Y-13292306D01*
X5760625Y-12726401D02*
X5765145Y-12761640D01*
X14976916Y-14857827D02*
X14980060Y-14848535D01*
X14976920Y-13642186D02*
X14973340Y-13633105D01*
X13794963Y-6269319D02*
X13791228Y-6256258D01*
X5358302Y-8139940D02*
X5302971Y-8284194D01*
X6354614Y-13420656D02*
X6398259Y-13465656D01*
X9717903Y-5025616D02*
X9540565Y-5028307D01*
X14974998Y-10000470D02*
X14974998Y-10000470D01*
X10437360Y-5028124D02*
X10356690Y-5026672D01*
X14954896Y-14900878D02*
X14960098Y-14892764D01*
X13873131Y-6773198D02*
X13863766Y-6735740D01*
X12493803Y-5664580D02*
X12349726Y-5585027D01*
X14900889Y-13545118D02*
X14892775Y-13539916D01*
X13891657Y-6833604D02*
X13888522Y-6826520D01*
X14930475Y-14930475D02*
X14937097Y-14923530D01*
X5205901Y-11419234D02*
X5244097Y-11542676D01*
X6442806Y-13510953D02*
X6442806Y-13510953D01*
X13689667Y-6121536D02*
X13683349Y-6119949D01*
X13855822Y-6700332D02*
X13849002Y-6665324D01*
X13746846Y-6162314D02*
X13743432Y-6157557D01*
X12911036Y-5931823D02*
X12774573Y-5838026D01*
X5160965Y-13517252D02*
X5151475Y-13519947D01*
X14819522Y-14986748D02*
X14829370Y-14984989D01*
X14559583Y-7946408D02*
X14491295Y-7800762D01*
X5285306Y-11665131D02*
X5329435Y-11786334D01*
X14884390Y-14964913D02*
X14892764Y-14960098D01*
X12635457Y-5748929D02*
X12493803Y-5664580D01*
X13442932Y-6110801D02*
X13372349Y-6112686D01*
X5872135Y-12929694D02*
X5886924Y-12942216D01*
X14829229Y-8701553D02*
X14785097Y-8547483D01*
X5843846Y-12904659D02*
X5857711Y-12917116D01*
X14839057Y-13517255D02*
X14829382Y-13515021D01*
X5769600Y-12793022D02*
X5773481Y-12817126D01*
X10258716Y-5025709D02*
X10000625Y-5025011D01*
X5959580Y-12997806D02*
X5959580Y-12997806D01*
X11283105Y-5166422D02*
X11123822Y-5126946D01*
X6068722Y-13101681D02*
X6081639Y-13116263D01*
X14789066Y-14989054D02*
X14799357Y-14988793D01*
X13661883Y-6116133D02*
X13653806Y-6115139D01*
X5252169Y-8429909D02*
X5205946Y-8576965D01*
X5023094Y-13642181D02*
X5019949Y-13651473D01*
X10801232Y-5063712D02*
X10638157Y-5040049D01*
X14418380Y-7657295D02*
X14340903Y-7516170D01*
X14974998Y-10000470D02*
X14974385Y-9718092D01*
X5975474Y-13009546D02*
X5984007Y-13016532D01*
X6033256Y-13063374D02*
X6044549Y-13075256D01*
X5650300Y-12472336D02*
X5712256Y-12577315D01*
X5712256Y-12577315D02*
X5717902Y-12586708D01*
X14900878Y-14954896D02*
X14908719Y-14949320D01*
X5959580Y-12997806D02*
X5967337Y-13003310D01*
X5107245Y-13539910D02*
X5099131Y-13545112D01*
X14988794Y-13700651D02*
X14988022Y-13690496D01*
X13753563Y-6172805D02*
X13750214Y-6167393D01*
X6500134Y-6426862D02*
X6413473Y-6513672D01*
X13044729Y-6030273D02*
X12911036Y-5931823D01*
X13888522Y-6826520D02*
X13886037Y-6820099D01*
X5056627Y-13583734D02*
X5050690Y-13591288D01*
X13616210Y-6112255D02*
X13593884Y-6111310D01*
X6027631Y-6959530D02*
X5958184Y-7053053D01*
X14884401Y-13535100D02*
X14875778Y-13530683D01*
X14973335Y-14866909D02*
X14976916Y-14857827D01*
X5045217Y-9328108D02*
X5039138Y-9377219D01*
X13621837Y-13449844D02*
X13678097Y-13391322D01*
X14927596Y-10851999D02*
X14954741Y-10672780D01*
X13542004Y-6110140D02*
X13511313Y-6110045D01*
X13683349Y-6119949D02*
X13676629Y-6118526D01*
X13716127Y-6132344D02*
X13711435Y-6129762D01*
X13849002Y-6665324D02*
X13843012Y-6629062D01*
X5623953Y-7579961D02*
X5550989Y-7717158D01*
X5807542Y-12869776D02*
X5818568Y-12880812D01*
X5069534Y-13569532D02*
X5062912Y-13576477D01*
X13801760Y-6298774D02*
X13798457Y-6283411D01*
X13769852Y-13290915D02*
X13769852Y-13290915D01*
X5115609Y-14964908D02*
X5124232Y-14969325D01*
X14819534Y-13513261D02*
X14809526Y-13511988D01*
X14971675Y-9540919D02*
X14969126Y-9478185D01*
X5091291Y-13550688D02*
X5083736Y-13556625D01*
X5107235Y-14960092D02*
X5115609Y-14964908D01*
X5765145Y-12761640D02*
X5769600Y-12793022D01*
X9327694Y-5045217D02*
X9137862Y-5074264D01*
X6732467Y-6212274D02*
X6590549Y-6340177D01*
X14954902Y-13599136D02*
X14949327Y-13591296D01*
X13827058Y-6496239D02*
X13827058Y-6496239D01*
X14973374Y-10381849D02*
X14974385Y-10282840D01*
X13728223Y-13337606D02*
X13750247Y-13313244D01*
X5015021Y-13670638D02*
X5013261Y-13680486D01*
X14923539Y-13562917D02*
X14916283Y-13556631D01*
X8576248Y-5206290D02*
X8392660Y-5264791D01*
X5011988Y-14809511D02*
X5013260Y-14819519D01*
X5013261Y-13680486D02*
X5011989Y-13690494D01*
X6272000Y-13333494D02*
X6312363Y-13376440D01*
X5967337Y-13003310D02*
X5975474Y-13009546D01*
X13814016Y-6377736D02*
X13807983Y-6334272D01*
X5210931Y-14989054D02*
X14789066Y-14989054D01*
X5026675Y-13633099D02*
X5023094Y-13642181D01*
X5751821Y-12669846D02*
X5753753Y-12679539D01*
X14969126Y-9478185D02*
X14965563Y-9425431D01*
X5151463Y-14980057D02*
X5160953Y-14982752D01*
X6139259Y-13184151D02*
X6167152Y-13217148D01*
X12349726Y-5585027D02*
X12203344Y-5510316D01*
X5747450Y-12652107D02*
X5749732Y-12660739D01*
X5110323Y-11045653D02*
X5138921Y-11170456D01*
X14984989Y-14829370D02*
X14986748Y-14819522D01*
X13791228Y-6256258D02*
X13787206Y-6243988D01*
X5712256Y-12577315D02*
X5712256Y-12577315D01*
X6590549Y-6340177D02*
X6500134Y-6426862D01*
X5045107Y-14900871D02*
X5050682Y-14908712D01*
X5776283Y-12830530D02*
X5776283Y-12830530D01*
X14848547Y-13519951D02*
X14839057Y-13517255D01*
X14986750Y-13680489D02*
X14984991Y-13670642D01*
X5030680Y-13624241D02*
X5026675Y-13633099D01*
X10638157Y-5040049D02*
X10601125Y-5036030D01*
X14866920Y-13526677D02*
X14857838Y-13523096D01*
X13886037Y-6820099D02*
X13884212Y-6814359D01*
X5045217Y-9328108D02*
X5045217Y-9328108D01*
X14943383Y-14916274D02*
X14949320Y-14908719D01*
X5115620Y-13535094D02*
X5107245Y-13539910D01*
X13372349Y-6112686D02*
X13308124Y-6115539D01*
X13653806Y-6115139D02*
X13636116Y-6113501D01*
X5069525Y-14930468D02*
X5076470Y-14937090D01*
X14965563Y-10575465D02*
X14969126Y-10522720D01*
X5023089Y-14857821D02*
X5026670Y-14866902D01*
X14989054Y-13710941D02*
X14989054Y-13710941D01*
X11751518Y-5315719D02*
X11597069Y-5260856D01*
X14923530Y-14937097D02*
X14930475Y-14930475D01*
X14916274Y-14943383D02*
X14923530Y-14937097D01*
X7856905Y-5481806D02*
X7684313Y-5567512D01*
X5025011Y-10000470D02*
X5025616Y-10282840D01*
X5035096Y-13615618D02*
X5030680Y-13624241D01*
X14971676Y-10459995D02*
X14973374Y-10381849D01*
X13732663Y-6145110D02*
X13728814Y-6141530D01*
X5210943Y-13510953D02*
X5210943Y-13510953D01*
X5028309Y-9540919D02*
X5026619Y-9619075D01*
X5717902Y-12586708D02*
X5723029Y-12595569D01*
X13884212Y-6814359D02*
X13884212Y-6814359D01*
X5045217Y-10672780D02*
X5063378Y-10796548D01*
X5085111Y-10920928D02*
X5110323Y-11045653D01*
X14969335Y-13624247D02*
X14964919Y-13615624D01*
X5857711Y-12917116D02*
X5872135Y-12929694D01*
X5170811Y-11295072D02*
X5205901Y-11419234D01*
X14735999Y-8394769D02*
X14682002Y-8243576D01*
X5045217Y-10672780D02*
X5045217Y-10672780D01*
X5026670Y-14866902D02*
X5030675Y-14875760D01*
X13568935Y-6110578D02*
X13568935Y-6110578D01*
X6398259Y-13465656D02*
X6442806Y-13510953D01*
X5931550Y-12977681D02*
X5945866Y-12988213D01*
X14988022Y-13690496D02*
X14986750Y-13680489D01*
X5133101Y-13526673D02*
X5124243Y-13530678D01*
X14954741Y-10672780D02*
X14960822Y-10623671D01*
X14954741Y-9328108D02*
X14931150Y-9170257D01*
X14892775Y-13539916D02*
X14884401Y-13535100D01*
X9540565Y-5028307D02*
X9477794Y-5030847D01*
X6044549Y-13075256D02*
X6056365Y-13088019D01*
X10601125Y-5036030D02*
X10557020Y-5032743D01*
X5026619Y-9619075D02*
X5025616Y-9718092D01*
X6442806Y-13510953D02*
X5210943Y-13510953D01*
X14989054Y-13710941D02*
X14988794Y-13700651D01*
X14799357Y-14988793D02*
X14809513Y-14988020D01*
D11*
X5263604Y-15304500D02*
X5263604Y-15104500D01*
X5311223Y-15104500D01*
X5339795Y-15114024D01*
X5358842Y-15133072D01*
X5368366Y-15152119D01*
X5377890Y-15190215D01*
X5377890Y-15218786D01*
X5368366Y-15256881D01*
X5358842Y-15275929D01*
X5339795Y-15294977D01*
X5311223Y-15304500D01*
X5263604Y-15304500D01*
X5463604Y-15304500D02*
X5463604Y-15171167D01*
X5463604Y-15209262D02*
X5473128Y-15190215D01*
X5482652Y-15180691D01*
X5501699Y-15171167D01*
X5520747Y-15171167D01*
X5587414Y-15304500D02*
X5587414Y-15171167D01*
X5587414Y-15104500D02*
X5577890Y-15114024D01*
X5587414Y-15123548D01*
X5596937Y-15114024D01*
X5587414Y-15104500D01*
X5587414Y-15123548D01*
X5711223Y-15304500D02*
X5692176Y-15294977D01*
X5682652Y-15275929D01*
X5682652Y-15104500D01*
X5815985Y-15304500D02*
X5796937Y-15294977D01*
X5787414Y-15275929D01*
X5787414Y-15104500D01*
X6044557Y-15304500D02*
X6044557Y-15104500D01*
X6111223Y-15247358D01*
X6177890Y-15104500D01*
X6177890Y-15304500D01*
X6358842Y-15304500D02*
X6358842Y-15199738D01*
X6349318Y-15180691D01*
X6330271Y-15171167D01*
X6292176Y-15171167D01*
X6273128Y-15180691D01*
X6358842Y-15294977D02*
X6339795Y-15304500D01*
X6292176Y-15304500D01*
X6273128Y-15294977D01*
X6263604Y-15275929D01*
X6263604Y-15256881D01*
X6273128Y-15237834D01*
X6292176Y-15228310D01*
X6339795Y-15228310D01*
X6358842Y-15218786D01*
X6454080Y-15171167D02*
X6454080Y-15371167D01*
X6454080Y-15180691D02*
X6473128Y-15171167D01*
X6511223Y-15171167D01*
X6530271Y-15180691D01*
X6539795Y-15190215D01*
X6549318Y-15209262D01*
X6549318Y-15266405D01*
X6539795Y-15285453D01*
X6530271Y-15294977D01*
X6511223Y-15304500D01*
X6473128Y-15304500D01*
X6454080Y-15294977D01*
X6635033Y-15285453D02*
X6644557Y-15294977D01*
X6635033Y-15304500D01*
X6625509Y-15294977D01*
X6635033Y-15285453D01*
X6635033Y-15304500D01*
X6635033Y-15180691D02*
X6644557Y-15190215D01*
X6635033Y-15199738D01*
X6625509Y-15190215D01*
X6635033Y-15180691D01*
X6635033Y-15199738D01*
M02*
