<?xml version="1.0" encoding="utf-8"?>
<!-- Generator: Adobe Illustrator 26.4.1, SVG Export Plug-In . SVG Version: 6.00 Build 0)  -->
<svg version="1.1" id="Layer_1" xmlns="http://www.w3.org/2000/svg" xmlns:xlink="http://www.w3.org/1999/xlink" x="0px" y="0px"
	 viewBox="0 0 792 576" style="enable-background:new 0 0 792 576;" xml:space="preserve">
<style type="text/css">
	.st0{fill-rule:evenodd;clip-rule:evenodd;fill:#FFFFFF;}
	.st1{fill-rule:evenodd;clip-rule:evenodd;fill:#4677B7;}
</style>
<g>
	<g>
		<path d="M215.18,133.54c-5.08,0-9.65-0.72-13.58-2.14c-3.95-1.42-7.32-3.5-10-6.17c-2.69-2.67-4.75-5.98-6.13-9.82
			c-1.37-3.83-2.07-8.22-2.07-13.06c0-4.75,0.73-9.18,2.18-13.18c1.45-4.01,3.58-7.5,6.32-10.38c2.74-2.88,6.11-5.16,10.01-6.76
			c3.9-1.6,8.33-2.42,13.18-2.42c1.27,0,2.55,0.05,3.8,0.16c1.25,0.11,2.46,0.26,3.6,0.46c1.14,0.2,2.22,0.44,3.2,0.71
			c0.98,0.28,1.85,0.57,2.56,0.88l0.38,0.16l-0.76,7.58l-0.98-0.32c-1.65-0.55-2.96-0.98-4.97-1.35c-2.13-0.4-4.29-0.6-6.45-0.6
			c-3.31,0-6.44,0.53-9.31,1.57c-2.86,1.04-5.37,2.61-7.47,4.67c-2.1,2.06-3.79,4.66-5,7.72c-1.22,3.07-1.84,6.71-1.84,10.81
			c0,4.08,0.57,7.66,1.7,10.64c1.13,2.97,2.74,5.46,4.81,7.39c2.07,1.94,4.59,3.4,7.5,4.33c2.94,0.94,6.26,1.42,9.88,1.42
			c0.99,0,2.05-0.05,3.16-0.16c1.12-0.1,2.25-0.25,3.37-0.45c1.13-0.19,2.24-0.42,3.31-0.67c0.4-0.1,0.72-0.16,1-0.21
			c0.47-0.09,0.8-0.16,1.31-0.33l0.68-0.24l0.65,7.38l-0.39,0.15c-1.8,0.7-3.93,1.25-6.31,1.64
			C220.14,133.35,217.67,133.54,215.18,133.54z"/>
		<path d="M215.09,70.17c1.27,0,2.52,0.05,3.76,0.16c1.24,0.11,2.42,0.26,3.55,0.45c1.13,0.2,2.18,0.43,3.14,0.7
			c0.97,0.27,1.8,0.56,2.49,0.86l-0.65,6.48c-1.83-0.6-3.18-1.07-5.35-1.48c-2.17-0.41-4.35-0.61-6.55-0.61
			c-3.39,0-6.56,0.54-9.51,1.61c-2.95,1.07-5.51,2.67-7.67,4.8c-2.17,2.13-3.88,4.77-5.13,7.92c-1.25,3.15-1.88,6.83-1.88,11.02
			c0,4.16,0.58,7.78,1.74,10.84c1.16,3.06,2.81,5.6,4.95,7.6c2.14,2.01,4.71,3.49,7.72,4.46c3.01,0.97,6.36,1.45,10.05,1.45
			c1.01,0,2.08-0.05,3.21-0.16c1.13-0.11,2.27-0.26,3.41-0.45c1.15-0.2,2.26-0.42,3.34-0.68c1.08-0.26,1.51-0.26,2.36-0.56
			l0.55,6.24c-1.78,0.69-3.85,1.23-6.2,1.61c-2.35,0.38-4.77,0.57-7.24,0.57c-5.04,0-9.5-0.7-13.39-2.1
			c-3.89-1.4-7.16-3.42-9.8-6.04c-2.64-2.62-4.64-5.83-6-9.62c-1.36-3.79-2.04-8.08-2.04-12.87c0-4.71,0.72-9.03,2.15-12.99
			c1.43-3.95,3.5-7.35,6.2-10.18c2.7-2.84,5.97-5.05,9.82-6.63C205.97,70.96,210.3,70.17,215.09,70.17 M215.09,69.05
			c-4.92,0-9.43,0.83-13.39,2.46c-3.98,1.64-7.41,3.96-10.21,6.89c-2.8,2.94-4.96,6.49-6.44,10.57c-1.47,4.06-2.22,8.55-2.22,13.37
			c0,4.91,0.71,9.36,2.1,13.25c1.41,3.93,3.52,7.3,6.26,10.03c2.74,2.73,6.18,4.85,10.21,6.3c4,1.44,8.63,2.17,13.78,2.17
			c2.52,0,5.02-0.2,7.42-0.58c2.42-0.39,4.59-0.95,6.43-1.67l0.78-0.31l-0.07-0.84l-0.55-6.24l-0.13-1.44l-1.37,0.48
			c-0.47,0.16-0.77,0.22-1.23,0.31c-0.28,0.06-0.6,0.12-1.02,0.22c-1.06,0.25-2.16,0.47-3.27,0.66c-1.11,0.19-2.22,0.34-3.33,0.44
			c-1.09,0.1-2.13,0.15-3.1,0.15c-3.56,0-6.83-0.47-9.71-1.39c-2.83-0.91-5.29-2.32-7.29-4.21c-2-1.88-3.57-4.29-4.66-7.18
			c-1.11-2.92-1.67-6.43-1.67-10.44c0-4.03,0.6-7.6,1.8-10.6c1.19-2.99,2.83-5.52,4.87-7.53c2.04-2,4.49-3.53,7.27-4.54
			c2.81-1.02,5.88-1.54,9.12-1.54c2.12,0,4.25,0.2,6.34,0.59c1.97,0.37,3.26,0.8,4.9,1.34l0.31,0.1l1.33,0.44l0.14-1.39l0.65-6.48
			l0.08-0.82l-0.75-0.33c-0.74-0.32-1.62-0.63-2.63-0.91c-1-0.28-2.09-0.52-3.26-0.73c-1.15-0.2-2.38-0.36-3.65-0.46
			C217.68,69.1,216.38,69.05,215.09,69.05L215.09,69.05z"/>
	</g>
	<g>
		<path d="M257.9,133.54c-3.26,0-6.22-0.56-8.8-1.68c-2.58-1.11-4.81-2.71-6.62-4.73c-1.81-2.02-3.21-4.49-4.16-7.32
			c-0.95-2.82-1.43-5.99-1.43-9.41c0-3.46,0.5-6.64,1.48-9.46c0.98-2.83,2.4-5.3,4.21-7.34c1.81-2.04,4.04-3.65,6.62-4.76
			c2.58-1.11,5.49-1.67,8.66-1.67c3.23,0,6.18,0.56,8.77,1.67c2.6,1.11,4.83,2.71,6.63,4.76c1.79,2.04,3.18,4.51,4.14,7.34
			c0.95,2.82,1.43,6,1.43,9.46c0,3.43-0.5,6.59-1.48,9.41c-0.99,2.84-2.4,5.3-4.21,7.32c-1.81,2.03-4.03,3.62-6.6,4.73
			C263.97,132.98,261.07,133.54,257.9,133.54z M257.85,94.26c-1.81,0-3.5,0.36-5.01,1.06c-1.51,0.7-2.84,1.74-3.94,3.1
			c-1.11,1.37-1.99,3.08-2.62,5.06c-0.63,2-0.95,4.33-0.95,6.91c0,2.56,0.32,4.87,0.95,6.87c0.62,1.99,1.51,3.68,2.63,5.04
			c1.12,1.35,2.45,2.38,3.97,3.08c1.51,0.7,3.2,1.06,5.01,1.06s3.49-0.36,4.99-1.06c1.5-0.7,2.82-1.74,3.92-3.08
			c1.11-1.35,1.99-3.05,2.61-5.04c0.63-2,0.95-4.32,0.95-6.87c0-2.58-0.32-4.91-0.95-6.91c-0.62-1.99-1.51-3.69-2.62-5.06
			c-1.1-1.36-2.43-2.4-3.94-3.1C261.35,94.62,259.66,94.26,257.85,94.26z"/>
		<path d="M257.85,87.73c3.17,0,6.02,0.54,8.55,1.63c2.53,1.09,4.68,2.62,6.43,4.62c1.75,1.99,3.09,4.38,4.03,7.15
			c0.94,2.78,1.4,5.87,1.4,9.28c0,3.38-0.48,6.45-1.45,9.23c-0.97,2.78-2.33,5.15-4.1,7.13c-1.76,1.98-3.9,3.51-6.4,4.59
			c-2.5,1.09-5.31,1.63-8.42,1.63c-3.2,0-6.06-0.54-8.57-1.63c-2.52-1.09-4.66-2.62-6.43-4.59c-1.77-1.98-3.12-4.35-4.05-7.13
			c-0.94-2.78-1.4-5.85-1.4-9.23c0-3.41,0.48-6.5,1.45-9.28c0.97-2.78,2.33-5.16,4.09-7.15c1.77-1.99,3.91-3.53,6.43-4.62
			C251.93,88.27,254.75,87.73,257.85,87.73 M257.9,127c1.9,0,3.64-0.37,5.23-1.11c1.58-0.74,2.96-1.82,4.12-3.23
			c1.16-1.42,2.07-3.16,2.72-5.23c0.65-2.07,0.97-4.41,0.97-7.04c0-2.65-0.33-5.02-0.97-7.08c-0.65-2.07-1.55-3.82-2.72-5.25
			c-1.16-1.43-2.54-2.52-4.14-3.26c-1.6-0.74-3.35-1.11-5.25-1.11c-1.9,0-3.65,0.37-5.25,1.11c-1.6,0.74-2.98,1.83-4.14,3.26
			c-1.16,1.43-2.07,3.18-2.72,5.25c-0.65,2.07-0.97,4.43-0.97,7.08c0,2.62,0.32,4.97,0.97,7.04s1.56,3.81,2.74,5.23
			c1.18,1.42,2.56,2.5,4.16,3.23C254.25,126.64,256,127,257.9,127 M257.85,86.6c-3.25,0-6.24,0.58-8.88,1.72
			c-2.66,1.15-4.95,2.79-6.82,4.9c-1.85,2.09-3.31,4.63-4.32,7.53c-1,2.88-1.51,6.12-1.51,9.65c0,3.48,0.49,6.71,1.46,9.59
			c0.98,2.91,2.42,5.44,4.28,7.52c1.86,2.09,4.16,3.73,6.82,4.88c2.65,1.14,5.68,1.72,9.02,1.72c3.25,0,6.23-0.58,8.86-1.72
			c2.64-1.15,4.93-2.79,6.79-4.88c1.85-2.07,3.31-4.6,4.32-7.51c1-2.88,1.51-6.11,1.51-9.6c0-3.51-0.49-6.76-1.46-9.63
			c-0.98-2.91-2.41-5.44-4.25-7.53c-1.86-2.11-4.15-3.76-6.83-4.91C264.18,87.18,261.16,86.6,257.85,86.6L257.85,86.6z
			 M257.9,125.88c-1.73,0-3.34-0.34-4.78-1.01c-1.44-0.67-2.71-1.65-3.77-2.93c-1.08-1.3-1.93-2.93-2.53-4.85
			c-0.61-1.95-0.92-4.2-0.92-6.7c0-2.53,0.31-4.8,0.92-6.75c0.6-1.92,1.45-3.56,2.52-4.88c1.05-1.29,2.3-2.28,3.74-2.95
			c1.44-0.67,3.05-1,4.78-1c1.73,0,3.33,0.34,4.78,1c1.43,0.66,2.69,1.66,3.74,2.95c1.07,1.31,1.91,2.96,2.52,4.88
			c0.61,1.95,0.92,4.22,0.92,6.74c0,2.5-0.31,4.75-0.92,6.7c-0.6,1.92-1.45,3.55-2.51,4.85c-1.05,1.28-2.3,2.26-3.72,2.93
			C261.22,125.54,259.63,125.88,257.9,125.88L257.9,125.88z"/>
	</g>
	<g>
		<path d="M345.03,132.41V104.2c0-1.8-0.2-3.35-0.59-4.61c-0.38-1.23-0.93-2.24-1.64-3.02c-0.71-0.77-1.56-1.35-2.54-1.71
			c-1.01-0.37-2.15-0.55-3.4-0.55c-2.38,0-4.58,0.65-6.55,1.92c-1.95,1.27-3.73,3.03-5.29,5.25v30.93h-8.14V104.2
			c0-1.8-0.2-3.35-0.59-4.61c-0.38-1.23-0.93-2.24-1.64-3.02c-0.7-0.77-1.56-1.35-2.54-1.71c-1.01-0.37-2.15-0.55-3.4-0.55
			c-2.38,0-4.58,0.65-6.53,1.92c-1.94,1.27-3.71,3.03-5.27,5.25v30.93h-8.14V88.3h6.44l1.23,5.42c0.62-0.73,1.29-1.43,1.99-2.08
			c0.94-0.88,2.01-1.67,3.18-2.34c1.17-0.67,2.47-1.2,3.87-1.57s2.94-0.56,4.58-0.56c3.3,0,6.09,0.81,8.3,2.42
			c1.99,1.45,3.58,3.39,4.74,5.79c1.83-2.44,3.92-4.4,6.23-5.84c2.53-1.57,5.51-2.37,8.86-2.37c1.55,0,3.21,0.22,4.94,0.65
			c1.76,0.44,3.41,1.26,4.88,2.44c1.48,1.18,2.72,2.82,3.69,4.88c0.97,2.06,1.46,4.73,1.46,7.93v29.34H345.03z"/>
		<path d="M338.19,87.73c1.51,0,3.11,0.21,4.8,0.63c1.69,0.42,3.25,1.2,4.67,2.33c1.42,1.13,2.6,2.69,3.53,4.68
			c0.94,1.99,1.41,4.56,1.41,7.69v28.78h-7.01V104.2c0-1.87-0.2-3.46-0.61-4.77c-0.41-1.31-1-2.39-1.77-3.24
			c-0.77-0.84-1.69-1.46-2.76-1.85c-1.07-0.39-2.27-0.59-3.6-0.59c-2.5,0-4.79,0.67-6.86,2.01c-2.07,1.34-3.91,3.19-5.54,5.54v30.54
			h-7.01V104.2c0-1.87-0.2-3.46-0.61-4.77c-0.41-1.31-1-2.39-1.77-3.24c-0.77-0.84-1.69-1.46-2.76-1.85
			c-1.07-0.39-2.27-0.59-3.6-0.59c-2.5,0-4.78,0.67-6.83,2.01c-2.05,1.34-3.89,3.19-5.52,5.54v30.54h-7.01V88.86h5.43l1.36,5.97
			h0.14c0.78-1,1.64-1.92,2.56-2.78c0.92-0.86,1.95-1.61,3.08-2.26c1.13-0.65,2.38-1.15,3.73-1.52c1.36-0.36,2.83-0.54,4.43-0.54
			c3.2,0,5.85,0.77,7.96,2.31c2.11,1.54,3.74,3.64,4.89,6.29h0.18c1.9-2.68,4.08-4.79,6.53-6.31
			C332.07,88.49,334.93,87.73,338.19,87.73 M338.19,86.6c-3.46,0-6.54,0.83-9.16,2.45c-2.14,1.33-4.1,3.1-5.83,5.27
			c-1.16-2.12-2.67-3.86-4.5-5.2c-2.3-1.67-5.2-2.52-8.63-2.52c-1.69,0-3.28,0.2-4.72,0.58c-1.45,0.38-2.79,0.93-4,1.63
			c-1.21,0.69-2.31,1.5-3.29,2.42c-0.45,0.42-0.88,0.85-1.3,1.3l-0.89-3.92l-0.2-0.88h-0.9h-5.43h-1.12v1.12v42.99v1.12h1.12h7.01
			h1.12v-1.12v-30.19c1.49-2.09,3.17-3.75,5.01-4.96c1.86-1.21,3.95-1.83,6.22-1.83c1.19,0,2.27,0.18,3.21,0.52
			c0.91,0.33,1.66,0.84,2.32,1.56c0.65,0.72,1.17,1.66,1.52,2.81c0.37,1.2,0.56,2.69,0.56,4.44v27.65v1.12h1.12h7.01h1.12v-1.12
			v-30.19c1.49-2.09,3.18-3.75,5.03-4.96c1.87-1.22,3.97-1.83,6.24-1.83c1.19,0,2.27,0.18,3.21,0.52c0.9,0.33,1.66,0.84,2.31,1.56
			c0.65,0.72,1.17,1.66,1.52,2.81c0.37,1.2,0.56,2.69,0.56,4.44v27.65v1.12h1.12h7.01h1.12v-1.12v-28.78c0-3.29-0.51-6.04-1.51-8.17
			c-1.01-2.14-2.3-3.85-3.85-5.08c-1.54-1.23-3.25-2.08-5.1-2.54C341.5,86.83,339.79,86.6,338.19,86.6L338.19,86.6z"/>
	</g>
	<g>
		<path d="M365.57,153.45V88.3h6.27l1.33,4.35c0.3-0.37,0.64-0.72,1.02-1.07c0.64-0.59,1.51-1.23,2.57-1.9
			c1.08-0.67,2.38-1.26,3.88-1.75c1.51-0.5,3.18-0.75,4.95-0.75c2.47,0,4.88,0.42,7.18,1.25c2.32,0.84,4.39,2.2,6.16,4.03
			c1.77,1.83,3.2,4.2,4.26,7.05c1.06,2.84,1.6,6.32,1.6,10.35c0,3.02-0.3,5.74-0.9,8.08c-0.6,2.34-1.41,4.42-2.4,6.18
			c-1,1.77-2.18,3.27-3.52,4.46c-1.33,1.19-2.73,2.16-4.16,2.89c-1.43,0.73-2.9,1.26-4.38,1.59c-1.47,0.32-2.88,0.49-4.19,0.49
			c-2.7,0-5.09-0.45-7.09-1.34c-1.66-0.73-3.19-1.77-4.57-3.09v24.34H365.57z M373.57,121.88c1.4,1.38,2.99,2.49,4.75,3.3
			c1.81,0.84,3.79,1.26,5.88,1.26c1.27,0,2.63-0.24,4.05-0.72c1.4-0.47,2.71-1.32,3.9-2.53c1.2-1.22,2.2-2.91,2.99-5.03
			c0.79-2.13,1.19-4.9,1.19-8.22c0-2.44-0.26-4.66-0.78-6.6c-0.51-1.91-1.28-3.56-2.29-4.9c-1-1.32-2.25-2.36-3.71-3.07
			c-1.46-0.71-3.19-1.08-5.12-1.08c-1.39,0-2.67,0.19-3.81,0.56c-1.15,0.38-2.21,0.86-3.13,1.44c-0.93,0.58-1.74,1.21-2.4,1.87
			c-0.62,0.61-1.12,1.17-1.52,1.65V121.88z"/>
		<path d="M385.59,87.73c2.41,0,4.74,0.41,6.99,1.22c2.25,0.81,4.23,2.11,5.95,3.89c1.72,1.78,3.1,4.06,4.14,6.85
			c1.04,2.79,1.56,6.18,1.56,10.16c0,2.99-0.3,5.63-0.89,7.94c-0.59,2.31-1.37,4.32-2.34,6.04c-0.97,1.72-2.11,3.16-3.41,4.32
			c-1.3,1.16-2.65,2.1-4.04,2.81c-1.39,0.71-2.81,1.22-4.25,1.54c-1.44,0.32-2.79,0.48-4.07,0.48c-2.64,0-4.92-0.43-6.86-1.29
			c-1.94-0.86-3.68-2.13-5.23-3.82h-0.13v25.02h-6.88V88.86h5.29l1.49,4.89h0.14c0.39-0.6,0.9-1.19,1.52-1.76
			c0.62-0.57,1.45-1.18,2.49-1.83c1.04-0.65,2.29-1.21,3.76-1.7C382.28,87.97,383.87,87.73,385.59,87.73 M384.2,127
			c1.34,0,2.75-0.25,4.23-0.75c1.49-0.5,2.86-1.39,4.12-2.67c1.26-1.28,2.3-3.02,3.12-5.23c0.82-2.2,1.23-5.01,1.23-8.42
			c0-2.5-0.27-4.75-0.8-6.74c-0.53-1.99-1.33-3.69-2.39-5.09c-1.06-1.4-2.37-2.48-3.91-3.23c-1.55-0.75-3.34-1.13-5.37-1.13
			c-1.46,0-2.78,0.2-3.98,0.59c-1.2,0.39-2.28,0.89-3.25,1.49c-0.97,0.6-1.8,1.25-2.5,1.95c-0.7,0.69-1.26,1.31-1.68,1.86v22.49
			c1.49,1.51,3.18,2.7,5.07,3.57C379.98,126.57,382.02,127,384.2,127 M385.59,86.6c-1.83,0-3.55,0.26-5.12,0.78
			c-1.54,0.51-2.88,1.12-4,1.81c-1.1,0.69-1.99,1.35-2.66,1.96c-0.13,0.12-0.26,0.25-0.39,0.38l-0.92-3l-0.24-0.8h-0.83h-5.29h-1.12
			v1.12v64.03v1.12h1.12h6.88h1.12v-1.12v-22.53c1.17,0.97,2.43,1.76,3.78,2.35c2.07,0.92,4.54,1.39,7.32,1.39
			c1.35,0,2.8-0.17,4.31-0.5c1.53-0.34,3.05-0.89,4.52-1.63c1.47-0.75,2.91-1.75,4.28-2.97c1.39-1.24,2.61-2.79,3.64-4.61
			c1.01-1.8,1.84-3.92,2.45-6.31c0.61-2.39,0.92-5.15,0.92-8.22c0-4.1-0.55-7.65-1.63-10.55c-1.09-2.92-2.57-5.36-4.39-7.24
			c-1.83-1.9-3.98-3.3-6.38-4.17C390.6,87.04,388.12,86.6,385.59,86.6L385.59,86.6z M374.13,100.03c0.36-0.43,0.81-0.92,1.35-1.46
			c0.63-0.63,1.41-1.23,2.3-1.79c0.89-0.55,1.9-1.02,3.01-1.38c1.08-0.35,2.3-0.53,3.63-0.53c1.85,0,3.49,0.34,4.88,1.02
			c1.38,0.67,2.56,1.65,3.51,2.9c0.97,1.28,1.71,2.86,2.2,4.7c0.5,1.89,0.76,4.06,0.76,6.45c0,3.26-0.39,5.96-1.16,8.02
			c-0.76,2.04-1.72,3.67-2.86,4.83c-1.13,1.15-2.36,1.95-3.67,2.39c-1.37,0.46-2.67,0.69-3.88,0.69c-2.01,0-3.91-0.41-5.65-1.21
			c-1.63-0.75-3.11-1.77-4.42-3.02V100.03L374.13,100.03z"/>
	</g>
	<g>
		<path d="M432.38,133.54c-2.27,0-4.34-0.25-6.17-0.74c-1.83-0.49-3.45-1.2-4.84-2.11c-1.39-0.91-2.59-2.01-3.56-3.27
			c-0.96-1.26-1.74-2.65-2.3-4.15c-0.43-1.11-0.75-2.36-0.94-3.69c-0.18-1.32-0.28-2.77-0.28-4.33V88.3h8.14v26.9
			c0,2.3,0.31,4.24,0.91,5.77c0.68,1.69,1.78,3.04,3.29,4.01c1.51,0.98,3.49,1.47,5.87,1.47c2.52,0,4.57-0.54,6.08-1.62
			c1.51-1.07,2.61-2.54,3.26-4.35c0.49-1.41,0.74-3.19,0.74-5.28V88.3h8.14v26.99c0,1.47-0.08,2.85-0.25,4.12
			c-0.17,1.28-0.45,2.48-0.82,3.57c-0.56,1.54-1.34,2.96-2.32,4.25c-0.98,1.3-2.21,2.43-3.65,3.37c-1.43,0.93-3.11,1.67-4.98,2.18
			C436.83,133.28,434.7,133.54,432.38,133.54z"/>
		<path d="M450.16,88.86v26.43c0,1.45-0.08,2.8-0.25,4.05c-0.17,1.25-0.43,2.41-0.79,3.46c-0.54,1.48-1.29,2.84-2.24,4.09
			c-0.95,1.25-2.12,2.33-3.51,3.24c-1.39,0.9-2.99,1.61-4.82,2.1c-1.83,0.5-3.88,0.75-6.18,0.75c-2.23,0-4.24-0.24-6.02-0.72
			c-1.78-0.48-3.34-1.16-4.68-2.04c-1.34-0.87-2.48-1.92-3.42-3.15c-0.94-1.22-1.67-2.56-2.22-4c-0.42-1.09-0.72-2.28-0.91-3.58
			s-0.27-2.71-0.27-4.25V88.86h7.01v26.34c0,2.38,0.32,4.37,0.95,5.97c0.72,1.81,1.89,3.23,3.51,4.28s3.67,1.56,6.18,1.56
			c2.65,0,4.79-0.57,6.4-1.72c1.61-1.15,2.77-2.68,3.46-4.62c0.51-1.48,0.77-3.3,0.77-5.47V88.86H450.16 M451.28,87.73h-1.12h-7.01
			h-1.12v1.12v26.34c0,2.03-0.24,3.75-0.71,5.11c-0.62,1.71-1.62,3.05-3.05,4.07c-1.41,1-3.35,1.51-5.75,1.51
			c-2.27,0-4.15-0.46-5.57-1.38c-1.43-0.92-2.43-2.15-3.07-3.75c-0.58-1.46-0.87-3.33-0.87-5.56V88.86v-1.12h-1.12h-7.01h-1.12v1.12
			v26.38c0,1.58,0.1,3.07,0.28,4.41c0.19,1.38,0.52,2.67,0.97,3.83c0.58,1.53,1.37,2.98,2.37,4.28c1.01,1.32,2.25,2.46,3.69,3.4
			c1.44,0.94,3.12,1.67,5,2.18c1.87,0.51,3.99,0.76,6.31,0.76c2.38,0,4.56-0.26,6.47-0.79c1.93-0.53,3.66-1.28,5.14-2.25
			c1.49-0.97,2.76-2.15,3.79-3.5c1.01-1.33,1.82-2.81,2.4-4.39c0.39-1.15,0.68-2.39,0.85-3.7c0.17-1.29,0.26-2.71,0.26-4.2V88.86
			V87.73L451.28,87.73z"/>
	</g>
	<g>
		<path d="M505.71,132.41l-23.92-33.99c-3.72-5.34-7.13-10.41-10.13-15.11c0.32,5.13,0.47,11.06,0.47,17.64v31.47h-8.5V70.74h8.18
			l23.92,33.99c3.4,4.89,6.8,9.98,10.14,15.14c-0.32-5.34-0.48-10.83-0.48-16.36V70.74h8.54v61.67H505.71z"/>
		<path d="M513.37,71.3v60.54H506l-23.76-33.76c-4.1-5.88-7.77-11.37-11-16.47h-0.27c0.39,5.52,0.59,11.96,0.59,19.32v30.9h-7.38
			V71.3h7.33l23.76,33.76c3.71,5.34,7.38,10.83,11,16.47h0.27c-0.39-5.88-0.59-11.88-0.59-18.01V71.3H513.37 M514.5,70.18h-1.12
			h-7.42h-1.12v1.12v32.22c0,4.81,0.12,9.59,0.37,14.28c-2.97-4.56-5.99-9.05-9-13.38l-23.76-33.76l-0.34-0.48h-0.58h-7.33h-1.12
			v1.12v60.54v1.12h1.12h7.38h1.12v-1.12v-30.9c0-5.7-0.12-10.92-0.36-15.55c2.72,4.2,5.73,8.67,8.99,13.34l23.76,33.76l0.34,0.48
			H506h7.38h1.12v-1.12V71.3V70.18L514.5,70.18z"/>
	</g>
	<g>
		<path d="M545.13,133.54c-3.12,0-6.08-0.4-8.82-1.2c-2.77-0.81-5.2-2.12-7.23-3.92c-2.03-1.8-3.64-4.18-4.79-7.07
			c-1.14-2.88-1.72-6.38-1.72-10.41c0-3.97,0.56-7.47,1.66-10.4c1.1-2.94,2.6-5.43,4.45-7.4c1.85-1.98,4.01-3.49,6.42-4.48
			c2.41-0.99,4.95-1.49,7.57-1.49c2.46,0,4.8,0.42,6.95,1.24c2.17,0.83,4.07,2.15,5.66,3.93c1.58,1.77,2.84,4.07,3.75,6.85
			c0.9,2.76,1.36,6.1,1.36,9.95v0.93c0,0.26-0.01,0.85-0.04,1.76l-0.02,0.54h-29.66c0.05,2.42,0.45,4.5,1.19,6.2
			c0.79,1.83,1.88,3.32,3.24,4.45c1.36,1.14,2.99,1.97,4.84,2.49c1.87,0.53,3.92,0.79,6.09,0.79c2.28,0,4.38-0.19,6.25-0.55
			c1.82-0.36,3.1-0.67,5.02-1.37l0.67-0.25l0.74,6.73l-0.35,0.17c-1.57,0.77-3.54,1.39-5.84,1.83
			C550.23,133.31,547.74,133.54,545.13,133.54z M551.89,105.22c-0.04-1.42-0.26-2.76-0.63-4c-0.42-1.39-1.04-2.61-1.85-3.64
			c-0.8-1.01-1.8-1.82-2.97-2.4c-1.17-0.58-2.55-0.87-4.1-0.87c-1.53,0-2.97,0.3-4.28,0.9c-1.32,0.6-2.48,1.43-3.47,2.46
			c-0.99,1.04-1.8,2.27-2.41,3.66c-0.54,1.22-0.9,2.53-1.08,3.9H551.89z"/>
		<path d="M542.68,87.73c2.41,0,4.66,0.4,6.75,1.2c2.09,0.8,3.9,2.06,5.44,3.78c1.53,1.72,2.75,3.94,3.63,6.65
			c0.89,2.71,1.33,5.97,1.33,9.77c0,0.36,0,0.67,0,0.93c0,0.26-0.02,0.84-0.05,1.74H530.1c0,2.75,0.41,5.08,1.24,6.99
			c0.83,1.92,1.96,3.47,3.39,4.66c1.43,1.19,3.11,2.06,5.05,2.6c1.93,0.54,4.01,0.81,6.24,0.81c2.32,0,4.44-0.19,6.36-0.57
			c1.92-0.38,3.2-0.7,5.1-1.39l0.62,5.63c-1.54,0.75-3.44,1.35-5.7,1.79c-2.26,0.44-4.69,0.66-7.28,0.66
			c-3.08,0-5.97-0.39-8.67-1.18c-2.7-0.79-5.04-2.05-7.01-3.8c-1.97-1.75-3.52-4.03-4.64-6.85c-1.12-2.82-1.68-6.22-1.68-10.2
			c0-3.92,0.54-7.32,1.63-10.2c1.08-2.88,2.53-5.29,4.33-7.22c1.81-1.93,3.88-3.38,6.23-4.34
			C537.67,88.21,540.12,87.73,542.68,87.73 M530.46,105.78h21.99c0-1.69-0.22-3.26-0.66-4.73c-0.44-1.46-1.09-2.74-1.95-3.82
			c-0.86-1.09-1.91-1.94-3.16-2.56c-1.25-0.62-2.7-0.93-4.35-0.93c-1.62,0-3.12,0.32-4.51,0.95c-1.39,0.63-2.6,1.49-3.64,2.58
			c-1.04,1.09-1.88,2.36-2.52,3.82C531.01,102.56,530.62,104.12,530.46,105.78 M542.68,86.6c-2.69,0-5.31,0.52-7.78,1.53
			c-2.49,1.02-4.71,2.58-6.62,4.62c-1.9,2.03-3.44,4.58-4.56,7.59c-1.13,2.99-1.7,6.56-1.7,10.6c0,4.11,0.59,7.68,1.76,10.62
			c1.18,2.97,2.84,5.42,4.94,7.28c2.09,1.85,4.59,3.21,7.44,4.04c2.79,0.81,5.81,1.22,8.98,1.22c2.65,0,5.17-0.23,7.5-0.68
			c2.35-0.45,4.36-1.09,5.98-1.88l0.71-0.35l-0.09-0.79l-0.62-5.63l-0.16-1.42l-1.35,0.49c-1.89,0.69-3.14,0.99-4.94,1.35
			c-1.83,0.36-3.9,0.54-6.14,0.54c-2.12,0-4.12-0.26-5.94-0.77c-1.77-0.5-3.33-1.3-4.63-2.38c-1.29-1.07-2.33-2.5-3.08-4.24
			c-0.65-1.5-1.03-3.32-1.13-5.42h28.53h1.09l0.04-1.09c0.03-0.92,0.05-1.52,0.05-1.78v-0.93c0-3.9-0.47-7.31-1.39-10.12
			c-0.93-2.85-2.23-5.22-3.86-7.05c-1.65-1.85-3.62-3.22-5.88-4.08C547.62,87.03,545.21,86.6,542.68,86.6L542.68,86.6z
			 M531.75,104.66c0.19-1.09,0.51-2.13,0.94-3.11c0.58-1.33,1.36-2.51,2.3-3.5c0.93-0.98,2.04-1.76,3.29-2.33
			c1.24-0.56,2.6-0.85,4.05-0.85c1.47,0,2.76,0.27,3.86,0.81c1.09,0.54,2.03,1.3,2.78,2.24c0.76,0.97,1.36,2.13,1.75,3.45
			c0.31,1.03,0.5,2.13,0.58,3.28H531.75L531.75,104.66z"/>
	</g>
	<g>
		<path d="M587.21,133.54c-2.31,0-4.35-0.29-6.06-0.87c-1.73-0.58-3.19-1.43-4.35-2.52c-1.16-1.1-2.04-2.44-2.61-3.99
			c-0.56-1.53-0.85-3.26-0.85-5.13V95.44h-8.28V88.3h8.28l0.03-10.95l8.09-0.74l0.01,11.69h12.85v7.14h-12.85v24.51
			c0,0.93,0.13,1.8,0.4,2.58c0.26,0.76,0.67,1.42,1.22,1.98c0.56,0.56,1.28,1,2.17,1.32c0.9,0.32,2.01,0.49,3.29,0.49
			c0.91,0,1.88-0.07,2.88-0.22c1.02-0.15,1.45-0.24,2.3-0.47l0.65-0.18l0.6,6.87l-0.39,0.15c-0.65,0.26-1.59,0.49-2.87,0.71
			C590.48,133.38,588.96,133.51,587.21,133.54L587.21,133.54L587.21,133.54z"/>
		<path d="M580.91,77.22l0.01,11.64h12.85v6.02h-12.85v25.07c0,1,0.14,1.92,0.43,2.76c0.29,0.84,0.74,1.58,1.36,2.2
			c0.62,0.62,1.41,1.1,2.38,1.45c0.97,0.35,2.13,0.52,3.48,0.52c0.93,0,1.92-0.07,2.96-0.23c1.04-0.15,1.49-0.24,2.37-0.48
			l0.51,5.78c-0.6,0.24-1.52,0.47-2.76,0.68c-1.24,0.21-2.72,0.33-4.43,0.36c-2.26,0-4.22-0.28-5.88-0.84
			c-1.66-0.56-3.04-1.36-4.14-2.4c-1.1-1.04-1.92-2.3-2.47-3.78c-0.54-1.48-0.81-3.12-0.81-4.93V94.88h-8.28v-6.02h8.28l0.03-11
			L580.91,77.22 M582.03,75.99l-1.23,0.11l-6.97,0.64l-1.02,0.09l0,1.02l-0.03,9.88h-7.16h-1.12v1.12v6.02V96h1.12h7.16v25.03
			c0,1.93,0.3,3.72,0.88,5.32c0.6,1.64,1.53,3.05,2.75,4.21c1.22,1.15,2.75,2.04,4.55,2.65c1.77,0.59,3.87,0.9,6.24,0.9
			c1.79-0.03,3.34-0.16,4.62-0.38c1.33-0.23,2.3-0.47,2.99-0.74l0.78-0.31l-0.07-0.83l-0.51-5.78l-0.12-1.34l-1.3,0.36
			c-0.83,0.23-1.22,0.31-2.23,0.45c-0.98,0.14-1.92,0.21-2.8,0.21c-1.22,0-2.27-0.15-3.1-0.45c-0.8-0.29-1.46-0.69-1.96-1.18
			c-0.5-0.5-0.86-1.08-1.09-1.76c-0.25-0.72-0.37-1.53-0.37-2.4V96h11.73h1.12v-1.12v-6.02v-1.12h-1.12h-11.73l-0.01-10.51
			L582.03,75.99L582.03,75.99z"/>
	</g>
</g>
<g>
	<ellipse class="st0" cx="100.21" cy="101.25" rx="69.56" ry="69.53"/>
	<path class="st1" d="M100.22,31.7c38.4,0,69.54,31.14,69.54,69.54c0,38.4-31.14,69.54-69.54,69.54c-38.4,0-69.53-31.14-69.53-69.54
		C30.69,62.84,61.83,31.7,100.22,31.7L100.22,31.7z M131.83,49.49c-3.13,0.6-1.92,0.41-5.01,1.06c-0.27,0.06-1.23-0.28-2.14-0.09
		c-1.03,0.22-2.01,0.98-2.32,1.04c-0.74,0.15-2.2-0.06-2.92,0.12c-1.51,0.39-2.06,1.07-3.5,1.59c-2.75,1-6.33,1.96-9.22,2.97
		c-6.84,2.37-13.67,5.26-20.55,8.84c-3.81,2.6-7.49,5.28-11.01,8.33c-4.05,1.96-8.04,5.44-10.1,8.28c-1.02,1.4-2.59,1.15-3.73,2.41
		c-1.01,1.11-2.15,2.33-3.06,3.89c-0.8,1.37-1.39,3.07-2.18,4.3c-1.09,0.22-2.59,1.47-2.33,3.35c0.15,1.11-1.49,1.76-1.96,3
		c-0.51,1.32-1.52,2.37-2.23,2.88c-0.89,0.63,0.29,2.31-0.1,3.08c-1.29,2.61-3.51,5.87-4.32,8.09c-0.48,1.33,0.5,1.68-0.14,3.02
		c-0.97,2.01-1.82,4.01-2.48,6.1c-0.61,1.93-0.67,4.24-1.02,6.3c-0.63,3.74-0.65,8.29-0.05,12.53c1.23,1.69,4.93,4.02,7.52,5.11
		c0.59,0.01,7.82,5.28,8.46,4.8l1.27-0.96c0.47-0.35,0.43-0.49,0.6,0.08c0.86,2.89,2.95,3.9,4.81,6.6l7.81-5.15
		c1.13-0.95,9.67-4.96,11.9-4.99c2.86-0.55,5.7-1.33,8.5-2.39c0.92-3.49,3.33-2.02,4.05-3.08c1.84,0.3,3.56,0.37,4.38-1.18l1.9-1.56
		c0.88-0.73,6.43,0.83,7.45-0.26c1.01-2.63,2.15-4.8,3.86-4.68l4.97,0.38c0.43-2.89,1.64-1.55,2.86-2.88
		c1.26-2.05,2.84-2.72,4.86-1.39c1.7,0.11,3.23,1.03,3.58-3.04c0.09-1.04,2.75-1.24,2.41-2.13c-0.15-0.4-0.86-1.47-1.45-1.26
		c-1.76,0.61-4.41,1.16-5.28,1.35c-2.74-0.98-4.74-0.79-5.13,1.99l-4.11,0.65c-0.95-0.2-4.5,1.07-4.95,2.87
		c-0.32,1.27-2.38,1.77-3.5,0.7c-0.5-0.47-0.28-0.56-1.03-0.52c-1.1,0.06-2.21,0.11-3.32,0.17c-2.13,0.8-3.57,1.89-4.17,3.33
		c-1.31,0.39-5.08-0.18-5.93,0.3c-0.75,1.27-2.16,1.53-4.05,1.23c-1.68,0.35-1.83,1.19-5.29,1c-5.22,2.51-5.4,2.23-8.99,1.75
		c-1.26,0.32-2.5,1.31-3.65,1.5c-1.13,0.19-2.42-0.22-3.51,0.02c-3.93,0.86-7.59,0.82-7.64-0.53c-0.76-2.93-0.29-4.75,0.72-6.37
		c0.12-1.31,0.59-2.64,1.01-3.72c0.39-0.98,0.35-1.2,0.11-2.25c-0.92-4-1.68-6.81,1.42-7.53c0.23-0.05,0.99,0.23,1.12-0.19
		c0.2-0.7-0.34-2.35,0.08-2.89c0.97-1.26,2.4-1.8,2.88-2.79c0.2-0.42-1.54-1.45-0.92-1.98c0.9-1.23,1.11-2.17,1.23-3.04
		c0.14-1.08,2.37-0.95,3.65-1.7c0.82-0.48,1.26-1.79,1.96-2.02c1.05-0.34,2.52,1.22,2.54-1.41c0-0.54-0.02-0.33,0.43-0.48
		c0.72-0.23,1.05-1.1,1.08-2.1c1.21-1.33,2.32-2.69,3.31-4.23c0.9-1.4,2.92-3.56,4.13-4.43c0.38-1.8,0.4-2.56,1.93-3.03
		c2.63-0.82,4.08-2.01,4.06-3.78c-0.01-0.58,1.84-0.57,2.63-1.26c0.57-0.51,0.36-1.47,0.96-1.74c0.57-0.26,3.61-0.37,4.93-0.69
		c0.6-0.15,0.18-0.33,0.05-0.72c-0.99-2.18-0.15-3.36,2.05-2.92c2.71-0.11,3.89,0.57,4.8,0.3c0.71-0.21,0.59-0.48,0.53-1.1
		l-0.19-1.73c-0.18-2.37,2.47-2.62,3.37-1.28c0.36,0.53-0.23,0.61-0.4,1.4c0.11,2.23,2.95,2,3.45,1.79
		c3.28-1.35,8.23-3.29,9.92-4.51c0.59-0.43-0.07-1.33-0.42-2.11c-0.4-0.88-0.57-2.08-1.81-2.17c-0.91-0.06-3.39-0.09-4.13,0.81
		c-2.24,2.73-6.77,2.34-2.91-1.05c0.51-0.44,0.81-0.57,1.45-0.76c2.88-0.87,5.64-1.9,8.01-3.38c1.23,0.04,1.66-0.02,2.76,0.26
		c0.92,0.24,2.71-1.53,3.13-0.84c0.26,0.43,0.38,1.07-0.21,1.45c-5.76,2.38-3.63,4.62,0.84,4.84c1.12,0.06,0.9,0.04,1.47-0.8
		c1.03-1.5,2.81-1.34,4.53-0.61c0.92,0.39,1.15,0.48,2.17,0.4c2.16-0.17,5.56-0.6,6.98-0.62c4.4-0.06,4.6-0.56,9.01-0.64
		c2.87-1,3.15-5.67-2.32-4.02c-1.22,0.37-1.98,0.47-3.29,0.49l-1.92,0.02c-1.11-0.04-4.15,1.35-5.15,0.18
		c-0.85-0.99-0.89-2.51,0.41-2.87c1.44-0.67,1.38-0.57,2.95,0.03c2.71,1.87,3.66-0.91,4.65-0.38c2.48,0.5,5.14-1.58,4.4-3.68
		c-1.24-3.54-0.38-7.28-1.97-8.97c-0.54-0.58-2.99-0.3-4.18-0.31c-3.2-0.02-7.13,0.57-11.08,1.41c-0.84,0.18-2.51-0.06-3.35,0.07
		C132.68,48.9,132.66,49.33,131.83,49.49L131.83,49.49z M134.51,118.84c1.06-0.84,5.06-2.31,7.22-2.36c0.84-0.02,1.9-0.06,2.27,0.71
		c-0.09,0.73-1.53,1.58-3.03,2.58l-1.77,2.08c-1.39,0.93-2.54,2.54-3.52,1.32C135,122.04,133.17,119.91,134.51,118.84L134.51,118.84
		z M66.31,119.98c0.72-0.45-0.48-2.35,1.53-3.03c0.34-0.12-0.12-0.95,0.04-1.97c0.21-1.35,0.89-1.42,1.22-2.48
		c-0.02,0.16,0.17-0.34,0.48-0.93c0.31-0.6,0.74-1.3,1.2-1.54c1.2-0.63,2.39,0.85,1.55,1.42c-0.87,0.6-1.32,1.34-1.37,2.22
		c-0.05,0.99-0.03,0.5-0.53,1.23c-0.15,0.23-0.25,0.52-0.29,0.88c-0.08,0.66,0.04,0.59-0.42,1.04c-0.51,0.5-0.68,1.19-0.61,2.01
		l-0.75,1.72c-0.72,2.71-2.35,3.75-3.33,2.53C64.34,121.92,64.97,121.04,66.31,119.98L66.31,119.98z M124.95,69.28
		c3.05-0.76,3.44,1.85,2.29,2.44c-1.39,0.93-1.12,0.55-2.03,0.36C124.53,70.95,123.61,70.35,124.95,69.28L124.95,69.28z
		 M134.33,60.96c1.37-0.36,1.39-0.39,3.55-0.44c0.84-0.02-0.01,0.8,0.36,1.56l-0.97,1.09c-0.5,0.56-0.43,0.62-1.14,0.4l-1.37-0.43
		c-1.27,1.48-2.13,1.85-3.11,0.63C131.17,62.16,133.37,61.14,134.33,60.96L134.33,60.96z M87.29,68.33
		c1.37-0.36,1.08-0.87,3.24-0.92c0.84-0.02,0.04,1.14,0.41,1.9l-1.09,0.7c-0.79,0.88-0.95,0.75-2.06,1.21
		c-1.27,1.48-3.43,1.99-4.41,0.77C82.9,70.39,86.33,68.5,87.29,68.33L87.29,68.33z M45.23,135.69c1.91-1.8,3.26,0.59,2.62,2.17
		l-0.36,2.32c-1.19,0.8-1.57,0.69-2.56-0.52C44.85,137.98,45.23,137.46,45.23,135.69L45.23,135.69z"/>
</g>
<g>
	<g>
		<g>
			<path d="M293.57,477.59c-3.12,0-5.93-0.44-8.35-1.31c-2.43-0.88-4.5-2.15-6.15-3.79c-1.65-1.64-2.92-3.67-3.77-6.04
				c-0.84-2.35-1.27-5.05-1.27-8.03c0-2.92,0.45-5.65,1.34-8.1c0.89-2.46,2.2-4.61,3.88-6.38c1.69-1.77,3.76-3.17,6.16-4.16
				c2.39-0.99,5.12-1.49,8.1-1.49c0.78,0,1.56,0.03,2.34,0.1c0.78,0.07,1.52,0.16,2.21,0.28c0.7,0.12,1.37,0.27,1.97,0.44
				c0.6,0.17,1.13,0.35,1.57,0.54l0.23,0.1l-0.47,4.66l-0.61-0.2c-1.02-0.33-1.82-0.6-3.05-0.83c-1.31-0.25-2.64-0.37-3.96-0.37
				c-2.03,0-3.96,0.33-5.73,0.97c-1.76,0.64-3.3,1.6-4.59,2.87c-1.29,1.27-2.33,2.87-3.08,4.75c-0.75,1.89-1.13,4.12-1.13,6.65
				c0,2.51,0.35,4.71,1.05,6.54c0.69,1.83,1.69,3.35,2.95,4.54c1.27,1.19,2.82,2.09,4.61,2.66c1.8,0.58,3.85,0.87,6.08,0.87
				c0.61,0,1.26-0.03,1.94-0.09c0.69-0.07,1.39-0.16,2.07-0.28c0.7-0.12,1.38-0.26,2.03-0.41c0.25-0.06,0.44-0.1,0.62-0.13
				c0.27-0.05,0.49-0.09,0.8-0.21l0.42-0.15l0.4,4.54l-0.24,0.09c-1.11,0.43-2.42,0.77-3.88,1.01
				C296.62,477.47,295.1,477.59,293.57,477.59z"/>
			<path d="M293.51,438.63c0.78,0,1.55,0.03,2.31,0.1c0.76,0.06,1.49,0.16,2.18,0.28c0.7,0.12,1.34,0.26,1.93,0.43
				c0.59,0.17,1.1,0.34,1.53,0.53l-0.4,3.98c-1.13-0.37-1.96-0.66-3.29-0.91c-1.33-0.25-2.68-0.38-4.03-0.38
				c-2.08,0-4.03,0.33-5.84,0.99c-1.81,0.66-3.38,1.64-4.72,2.95c-1.33,1.31-2.39,2.93-3.16,4.87c-0.77,1.94-1.15,4.2-1.15,6.77
				c0,2.56,0.36,4.78,1.07,6.66c0.71,1.88,1.73,3.44,3.04,4.67c1.31,1.23,2.9,2.15,4.74,2.74c1.85,0.59,3.91,0.89,6.18,0.89
				c0.62,0,1.28-0.03,1.97-0.1c0.69-0.06,1.39-0.16,2.1-0.28c0.7-0.12,1.39-0.26,2.06-0.42c0.67-0.16,0.93-0.16,1.45-0.35l0.34,3.84
				c-1.09,0.43-2.36,0.76-3.81,0.99c-1.45,0.23-2.93,0.35-4.45,0.35c-3.1,0-5.84-0.43-8.23-1.29c-2.39-0.86-4.4-2.1-6.02-3.71
				c-1.62-1.61-2.85-3.58-3.69-5.91c-0.83-2.33-1.25-4.97-1.25-7.91c0-2.89,0.44-5.55,1.32-7.98c0.88-2.43,2.15-4.52,3.81-6.26
				c1.66-1.74,3.67-3.1,6.04-4.08C287.91,439.12,290.56,438.63,293.51,438.63 M293.51,437.94c-3.03,0-5.8,0.51-8.23,1.51
				c-2.44,1.01-4.56,2.43-6.27,4.24c-1.72,1.8-3.05,3.99-3.96,6.5c-0.9,2.49-1.36,5.26-1.36,8.22c0,3.02,0.43,5.76,1.29,8.15
				c0.87,2.41,2.16,4.49,3.85,6.17c1.69,1.68,3.8,2.98,6.28,3.87c2.46,0.89,5.31,1.33,8.47,1.33c1.55,0,3.08-0.12,4.56-0.36
				c1.49-0.24,2.82-0.58,3.95-1.03l0.48-0.19l-0.05-0.52l-0.34-3.84l-0.08-0.89l-0.84,0.3c-0.29,0.1-0.47,0.14-0.76,0.19
				c-0.17,0.03-0.37,0.07-0.62,0.13c-0.65,0.15-1.33,0.29-2.01,0.41c-0.68,0.12-1.37,0.21-2.05,0.27c-0.67,0.06-1.31,0.09-1.91,0.09
				c-2.19,0-4.2-0.29-5.97-0.86c-1.74-0.56-3.25-1.43-4.48-2.59c-1.23-1.15-2.2-2.64-2.87-4.41c-0.68-1.79-1.03-3.95-1.03-6.42
				c0-2.48,0.37-4.67,1.11-6.52c0.73-1.84,1.74-3.4,3-4.63c1.26-1.23,2.76-2.17,4.47-2.79c1.73-0.63,3.61-0.95,5.61-0.95
				c1.3,0,2.61,0.12,3.9,0.36c1.21,0.23,2.01,0.49,3.01,0.82l0.19,0.06l0.82,0.27l0.09-0.86l0.4-3.98l0.05-0.5l-0.46-0.2
				c-0.45-0.2-1-0.39-1.62-0.56c-0.61-0.17-1.29-0.32-2-0.45c-0.71-0.12-1.46-0.22-2.24-0.29
				C295.1,437.97,294.31,437.94,293.51,437.94L293.51,437.94z"/>
		</g>
		<g>
			<path d="M319.83,477.59c-2,0-3.82-0.35-5.41-1.03c-1.59-0.68-2.96-1.66-4.07-2.91c-1.11-1.25-1.97-2.76-2.56-4.5
				c-0.58-1.73-0.88-3.68-0.88-5.78c0-2.13,0.31-4.08,0.91-5.82c0.6-1.74,1.47-3.26,2.58-4.51c1.12-1.26,2.49-2.24,4.07-2.92
				c1.58-0.68,3.37-1.03,5.32-1.03c1.99,0,3.8,0.35,5.39,1.03c1.6,0.68,2.97,1.67,4.07,2.93c1.1,1.25,1.96,2.77,2.54,4.51
				c0.58,1.73,0.88,3.69,0.88,5.81c0,2.1-0.31,4.05-0.91,5.79c-0.61,1.74-1.48,3.26-2.59,4.5c-1.11,1.25-2.48,2.23-4.06,2.91
				C323.56,477.24,321.78,477.59,319.83,477.59z M319.8,453.44c-1.11,0-2.15,0.22-3.08,0.65c-0.93,0.43-1.74,1.07-2.42,1.91
				c-0.68,0.84-1.22,1.89-1.61,3.11c-0.39,1.23-0.58,2.66-0.58,4.25c0,1.57,0.2,2.99,0.58,4.22c0.38,1.22,0.93,2.26,1.62,3.1
				c0.69,0.83,1.51,1.46,2.44,1.9c0.93,0.43,1.97,0.65,3.08,0.65s2.15-0.22,3.07-0.65c0.92-0.43,1.73-1.07,2.41-1.9
				c0.68-0.83,1.22-1.88,1.61-3.1c0.39-1.23,0.58-2.65,0.58-4.22c0-1.59-0.2-3.02-0.58-4.25c-0.38-1.22-0.92-2.27-1.61-3.11
				c-0.68-0.83-1.49-1.48-2.42-1.91C321.95,453.66,320.91,453.44,319.8,453.44z"/>
			<path d="M319.8,449.42c1.95,0,3.7,0.33,5.26,1c1.56,0.67,2.87,1.61,3.95,2.84c1.08,1.22,1.9,2.69,2.48,4.4s0.86,3.61,0.86,5.7
				c0,2.08-0.3,3.97-0.89,5.67c-0.59,1.71-1.43,3.17-2.52,4.38c-1.08,1.21-2.4,2.16-3.94,2.82c-1.54,0.67-3.26,1-5.17,1
				c-1.97,0-3.72-0.33-5.27-1c-1.55-0.67-2.87-1.61-3.95-2.82c-1.09-1.21-1.92-2.67-2.49-4.38c-0.58-1.71-0.86-3.6-0.86-5.67
				c0-2.1,0.3-4,0.89-5.7c0.59-1.71,1.43-3.17,2.52-4.4c1.09-1.22,2.4-2.17,3.95-2.84C316.16,449.76,317.89,449.42,319.8,449.42
				 M319.83,473.57c1.17,0,2.24-0.23,3.21-0.68c0.97-0.45,1.82-1.12,2.53-1.99c0.71-0.87,1.27-1.94,1.67-3.21
				c0.4-1.27,0.6-2.71,0.6-4.33c0-1.63-0.2-3.08-0.6-4.35c-0.4-1.27-0.96-2.35-1.67-3.23c-0.71-0.88-1.56-1.55-2.55-2
				c-0.98-0.45-2.06-0.68-3.23-0.68c-1.17,0-2.24,0.23-3.23,0.68c-0.98,0.46-1.83,1.12-2.55,2c-0.71,0.88-1.27,1.96-1.67,3.23
				c-0.4,1.27-0.6,2.72-0.6,4.35c0,1.61,0.2,3.06,0.6,4.33c0.4,1.27,0.96,2.34,1.68,3.21c0.72,0.87,1.58,1.53,2.56,1.99
				C317.58,473.34,318.66,473.57,319.83,473.57 M319.8,448.73c-2,0-3.83,0.36-5.46,1.06c-1.63,0.7-3.05,1.72-4.19,3.01
				c-1.14,1.29-2.03,2.84-2.65,4.63c-0.62,1.77-0.93,3.77-0.93,5.93c0,2.14,0.3,4.13,0.9,5.9c0.6,1.79,1.49,3.34,2.63,4.62
				c1.15,1.28,2.56,2.29,4.19,3c1.63,0.7,3.49,1.06,5.54,1.06c2,0,3.83-0.36,5.45-1.06c1.62-0.7,3.03-1.71,4.18-3
				c1.14-1.28,2.03-2.83,2.65-4.61c0.62-1.77,0.93-3.76,0.93-5.9c0-2.16-0.3-4.15-0.9-5.92c-0.6-1.79-1.48-3.34-2.61-4.63
				c-1.14-1.3-2.55-2.31-4.2-3.02C323.69,449.09,321.83,448.73,319.8,448.73L319.8,448.73z M319.83,472.88
				c-1.06,0-2.05-0.21-2.94-0.62c-0.89-0.41-1.66-1.02-2.32-1.8c-0.66-0.8-1.19-1.8-1.56-2.98c-0.38-1.2-0.57-2.58-0.57-4.12
				c0-1.55,0.19-2.95,0.57-4.15c0.37-1.18,0.89-2.19,1.55-3c0.64-0.79,1.42-1.4,2.3-1.81c0.89-0.41,1.87-0.62,2.94-0.62
				c1.06,0,2.05,0.21,2.94,0.62c0.88,0.41,1.65,1.02,2.3,1.81c0.65,0.81,1.18,1.82,1.55,3c0.38,1.2,0.57,2.59,0.57,4.15
				c0,1.53-0.19,2.92-0.57,4.12c-0.37,1.18-0.89,2.18-1.54,2.98c-0.64,0.79-1.41,1.39-2.29,1.8
				C321.87,472.67,320.89,472.88,319.83,472.88L319.83,472.88z"/>
		</g>
		<g>
			<path d="M373.39,476.89v-17.34c0-1.11-0.12-2.06-0.36-2.83c-0.23-0.76-0.57-1.38-1.01-1.86c-0.43-0.47-0.96-0.83-1.56-1.05
				c-0.62-0.23-1.32-0.34-2.09-0.34c-1.46,0-2.82,0.4-4.03,1.18c-1.2,0.78-2.29,1.87-3.25,3.23v19.01h-5v-17.34
				c0-1.11-0.12-2.06-0.36-2.83c-0.23-0.75-0.57-1.38-1.01-1.86c-0.43-0.48-0.96-0.83-1.56-1.05c-0.62-0.23-1.32-0.34-2.09-0.34
				c-1.46,0-2.81,0.4-4.01,1.18c-1.19,0.78-2.28,1.87-3.24,3.23v19.01h-5v-27.12h3.96l0.76,3.33c0.38-0.45,0.79-0.88,1.22-1.28
				c0.58-0.54,1.24-1.03,1.96-1.44c0.72-0.41,1.52-0.74,2.38-0.97c0.86-0.23,1.81-0.34,2.81-0.34c2.03,0,3.75,0.5,5.1,1.48
				c1.22,0.89,2.2,2.09,2.91,3.56c1.12-1.5,2.41-2.71,3.83-3.59c1.55-0.97,3.39-1.46,5.45-1.46c0.95,0,1.98,0.13,3.04,0.4
				c1.08,0.27,2.09,0.77,3,1.5c0.91,0.73,1.67,1.74,2.27,3c0.6,1.27,0.9,2.91,0.9,4.88v18.04H373.39z"/>
			<path d="M369.19,449.42c0.93,0,1.91,0.13,2.95,0.39c1.04,0.26,2,0.74,2.87,1.43c0.87,0.7,1.6,1.65,2.17,2.88
				c0.58,1.22,0.86,2.8,0.86,4.73v17.69h-4.31v-17c0-1.15-0.13-2.13-0.38-2.93c-0.25-0.81-0.61-1.47-1.09-1.99
				c-0.47-0.52-1.04-0.9-1.7-1.14c-0.66-0.24-1.4-0.36-2.21-0.36c-1.54,0-2.94,0.41-4.21,1.24c-1.27,0.83-2.41,1.96-3.41,3.41v18.78
				h-4.31v-17c0-1.15-0.13-2.13-0.38-2.93c-0.25-0.81-0.61-1.47-1.09-1.99c-0.47-0.52-1.04-0.9-1.7-1.14
				c-0.66-0.24-1.4-0.36-2.21-0.36c-1.54,0-2.94,0.41-4.2,1.24c-1.26,0.83-2.39,1.96-3.39,3.41v18.78h-4.31v-26.43h3.34l0.83,3.67
				h0.08c0.48-0.61,1.01-1.18,1.57-1.71c0.57-0.53,1.2-0.99,1.89-1.39c0.7-0.4,1.46-0.71,2.29-0.93c0.83-0.22,1.74-0.33,2.73-0.33
				c1.97,0,3.6,0.47,4.9,1.42c1.3,0.95,2.3,2.24,3,3.87h0.11c1.17-1.65,2.51-2.94,4.01-3.88
				C365.43,449.89,367.19,449.42,369.19,449.42 M369.19,448.73c-2.13,0-4.02,0.51-5.63,1.51c-1.31,0.82-2.52,1.91-3.59,3.24
				c-0.71-1.3-1.64-2.38-2.77-3.2c-1.41-1.03-3.2-1.55-5.3-1.55c-1.04,0-2.01,0.12-2.9,0.36c-0.89,0.24-1.72,0.57-2.46,1
				c-0.74,0.43-1.42,0.93-2.02,1.49c-0.27,0.26-0.54,0.52-0.8,0.8l-0.55-2.41l-0.12-0.54h-0.55h-3.34h-0.69v0.69v26.43v0.69h0.69
				h4.31h0.69v-0.69v-18.56c0.92-1.28,1.95-2.31,3.08-3.05c1.14-0.75,2.43-1.13,3.82-1.13c0.73,0,1.39,0.11,1.97,0.32
				c0.56,0.2,1.02,0.52,1.42,0.96c0.4,0.44,0.72,1.02,0.94,1.73c0.23,0.74,0.34,1.65,0.34,2.73v17v0.69h0.69h4.31h0.69v-0.69v-18.56
				c0.92-1.28,1.96-2.31,3.09-3.05c1.15-0.75,2.44-1.13,3.84-1.13c0.73,0,1.39,0.11,1.97,0.32c0.56,0.2,1.02,0.52,1.42,0.96
				c0.4,0.44,0.72,1.02,0.94,1.73c0.23,0.74,0.34,1.65,0.34,2.73v17v0.69h0.69h4.31h0.69v-0.69v-17.69c0-2.02-0.31-3.71-0.93-5.02
				c-0.62-1.32-1.42-2.37-2.37-3.13c-0.95-0.75-2-1.28-3.13-1.56C371.22,448.87,370.17,448.73,369.19,448.73L369.19,448.73z"/>
		</g>
		<g>
			<path d="M386.02,489.83v-40.05h3.86l0.82,2.67c0.18-0.22,0.39-0.45,0.63-0.66c0.39-0.37,0.93-0.76,1.58-1.17
				c0.66-0.41,1.46-0.78,2.38-1.08c0.93-0.31,1.95-0.46,3.04-0.46c1.52,0,3,0.26,4.42,0.77c1.43,0.52,2.7,1.35,3.79,2.48
				c1.09,1.12,1.97,2.58,2.62,4.33c0.65,1.75,0.98,3.89,0.98,6.37c0,1.86-0.19,3.53-0.56,4.97c-0.37,1.44-0.86,2.72-1.47,3.8
				c-0.61,1.09-1.34,2.01-2.17,2.74c-0.82,0.73-1.68,1.33-2.56,1.77c-0.88,0.45-1.78,0.77-2.7,0.98c-0.91,0.2-1.77,0.3-2.57,0.3
				c-1.66,0-3.13-0.28-4.36-0.82c-1.02-0.45-1.96-1.09-2.81-1.9v14.97H386.02z M390.94,470.42c0.86,0.85,1.84,1.53,2.92,2.03
				c1.11,0.51,2.33,0.78,3.62,0.78c0.78,0,1.62-0.15,2.49-0.44c0.86-0.29,1.66-0.81,2.4-1.56c0.74-0.75,1.35-1.79,1.84-3.09
				c0.49-1.31,0.73-3.01,0.73-5.05c0-1.5-0.16-2.86-0.48-4.06c-0.31-1.18-0.79-2.19-1.41-3.01c-0.62-0.82-1.39-1.45-2.28-1.89
				c-0.9-0.44-1.96-0.66-3.15-0.66c-0.85,0-1.64,0.12-2.34,0.34c-0.71,0.23-1.36,0.53-1.92,0.88c-0.57,0.35-1.07,0.74-1.48,1.15
				c-0.38,0.38-0.69,0.72-0.93,1.02V470.42z"/>
			<path d="M398.33,449.42c1.48,0,2.92,0.25,4.3,0.75c1.38,0.5,2.6,1.3,3.66,2.39c1.06,1.09,1.91,2.5,2.55,4.21
				c0.64,1.72,0.96,3.8,0.96,6.25c0,1.84-0.18,3.46-0.54,4.88c-0.36,1.42-0.84,2.66-1.44,3.71c-0.6,1.06-1.3,1.94-2.1,2.66
				c-0.8,0.71-1.63,1.29-2.49,1.73c-0.86,0.44-1.73,0.75-2.61,0.95c-0.88,0.19-1.72,0.29-2.5,0.29c-1.62,0-3.03-0.26-4.22-0.79
				c-1.19-0.53-2.26-1.31-3.21-2.35h-0.08v15.38h-4.23v-39.36h3.25l0.92,3h0.08c0.24-0.37,0.55-0.73,0.93-1.08
				c0.38-0.35,0.89-0.73,1.53-1.13c0.64-0.4,1.41-0.75,2.31-1.04C396.29,449.57,397.27,449.42,398.33,449.42 M397.48,473.57
				c0.82,0,1.69-0.15,2.6-0.46c0.91-0.31,1.76-0.85,2.53-1.64c0.77-0.79,1.41-1.86,1.92-3.21c0.5-1.35,0.76-3.08,0.76-5.17
				c0-1.54-0.16-2.92-0.49-4.14c-0.33-1.22-0.82-2.27-1.47-3.13c-0.65-0.86-1.45-1.53-2.41-1.99c-0.95-0.46-2.05-0.7-3.3-0.7
				c-0.9,0-1.71,0.12-2.45,0.36c-0.74,0.24-1.4,0.55-2,0.92s-1.11,0.77-1.54,1.2c-0.43,0.43-0.77,0.81-1.04,1.14v13.83
				c0.91,0.93,1.95,1.66,3.12,2.2C394.88,473.3,396.14,473.57,397.48,473.57 M398.33,448.73c-1.12,0-2.18,0.16-3.15,0.48
				c-0.95,0.31-1.77,0.69-2.46,1.11c-0.68,0.42-1.23,0.83-1.63,1.21c-0.08,0.08-0.16,0.15-0.24,0.23l-0.56-1.85l-0.15-0.49h-0.51
				h-3.25h-0.69v0.69v39.36v0.69h0.69h4.23h0.69v-0.69v-13.85c0.72,0.6,1.5,1.08,2.32,1.45c1.27,0.57,2.79,0.85,4.5,0.85
				c0.83,0,1.72-0.1,2.65-0.31c0.94-0.21,1.87-0.54,2.78-1c0.91-0.46,1.79-1.07,2.63-1.83c0.85-0.76,1.61-1.71,2.24-2.83
				c0.62-1.1,1.13-2.41,1.51-3.88c0.38-1.47,0.57-3.17,0.57-5.05c0-2.52-0.34-4.7-1-6.49c-0.67-1.8-1.58-3.29-2.7-4.45
				c-1.13-1.17-2.44-2.03-3.92-2.56C401.41,449,399.89,448.73,398.33,448.73L398.33,448.73z M391.29,456.98
				c0.22-0.27,0.5-0.57,0.83-0.89c0.39-0.39,0.87-0.76,1.42-1.1c0.55-0.34,1.17-0.62,1.85-0.85c0.67-0.22,1.42-0.33,2.23-0.33
				c1.14,0,2.15,0.21,3,0.63c0.85,0.41,1.57,1.01,2.16,1.78c0.6,0.79,1.05,1.76,1.35,2.89c0.31,1.16,0.47,2.5,0.47,3.97
				c0,2-0.24,3.66-0.71,4.93c-0.47,1.26-1.06,2.26-1.76,2.97c-0.69,0.71-1.45,1.2-2.26,1.47c-0.84,0.28-1.64,0.42-2.38,0.42
				c-1.24,0-2.4-0.25-3.47-0.74c-1-0.46-1.91-1.09-2.72-1.86V456.98L391.29,456.98z"/>
		</g>
		<g>
			<path d="M427.09,477.59c-1.4,0-2.67-0.15-3.79-0.46c-1.12-0.3-2.12-0.74-2.98-1.3c-0.85-0.56-1.59-1.23-2.19-2.01
				c-0.59-0.77-1.07-1.63-1.41-2.55c-0.27-0.68-0.46-1.45-0.58-2.27c-0.11-0.81-0.17-1.7-0.17-2.66v-16.56h5v16.54
				c0,1.41,0.19,2.61,0.56,3.54c0.42,1.04,1.1,1.87,2.02,2.47c0.93,0.6,2.15,0.9,3.61,0.9c1.55,0,2.81-0.33,3.74-0.99
				c0.93-0.66,1.6-1.56,2-2.67c0.3-0.87,0.45-1.96,0.45-3.25v-16.54h5v16.59c0,0.9-0.05,1.75-0.16,2.54
				c-0.1,0.79-0.27,1.52-0.5,2.19c-0.35,0.95-0.83,1.82-1.43,2.61c-0.61,0.8-1.36,1.49-2.24,2.07c-0.88,0.57-1.91,1.02-3.06,1.34
				C429.83,477.43,428.53,477.59,427.09,477.59z"/>
			<path d="M438.03,450.12v16.25c0,0.89-0.05,1.72-0.15,2.49c-0.1,0.77-0.26,1.48-0.49,2.13c-0.33,0.91-0.79,1.75-1.38,2.52
				c-0.58,0.77-1.3,1.43-2.16,1.99c-0.85,0.56-1.84,0.99-2.96,1.29c-1.12,0.31-2.39,0.46-3.8,0.46c-1.37,0-2.61-0.15-3.7-0.45
				c-1.09-0.3-2.05-0.71-2.88-1.25c-0.82-0.54-1.53-1.18-2.1-1.93c-0.58-0.75-1.03-1.57-1.36-2.46c-0.26-0.67-0.45-1.4-0.56-2.2
				c-0.11-0.8-0.17-1.67-0.17-2.61v-16.22h4.31v16.19c0,1.46,0.19,2.69,0.58,3.67c0.45,1.11,1.16,1.99,2.16,2.63
				c0.99,0.64,2.26,0.96,3.8,0.96c1.63,0,2.94-0.35,3.94-1.06c0.99-0.7,1.7-1.65,2.13-2.84c0.31-0.91,0.47-2.03,0.47-3.37v-16.19
				H438.03 M438.72,449.43h-0.69h-4.31h-0.69v0.69v16.19c0,1.25-0.15,2.31-0.43,3.14c-0.38,1.05-0.99,1.87-1.88,2.5
				c-0.87,0.62-2.06,0.93-3.54,0.93c-1.4,0-2.55-0.29-3.42-0.85c-0.88-0.57-1.49-1.32-1.89-2.3c-0.35-0.89-0.53-2.04-0.53-3.42
				v-16.19v-0.69h-0.69h-4.31h-0.69v0.69v16.22c0,0.97,0.06,1.89,0.17,2.71c0.12,0.85,0.32,1.64,0.6,2.35
				c0.35,0.94,0.85,1.83,1.46,2.63c0.62,0.81,1.38,1.51,2.27,2.09c0.88,0.58,1.92,1.03,3.08,1.34c1.15,0.31,2.46,0.47,3.88,0.47
				c1.46,0,2.8-0.16,3.98-0.48c1.19-0.32,2.25-0.79,3.16-1.38c0.92-0.6,1.7-1.32,2.33-2.15c0.62-0.82,1.12-1.73,1.48-2.7
				c0.24-0.71,0.42-1.47,0.52-2.28c0.11-0.8,0.16-1.66,0.16-2.58v-16.25V449.43L438.72,449.43z"/>
		</g>
		<g>
			<path d="M472.17,476.89l-14.71-20.9c-2.29-3.28-4.38-6.4-6.23-9.29c0.19,3.16,0.29,6.8,0.29,10.85v19.35h-5.23v-37.91h5.03
				l14.71,20.9c2.09,3.01,4.19,6.14,6.23,9.31c-0.2-3.29-0.3-6.66-0.3-10.06v-20.15h5.25v37.91H472.17z"/>
			<path d="M476.89,439.33v37.22h-4.53l-14.6-20.75c-2.52-3.62-4.78-6.99-6.76-10.13h-0.17c0.24,3.39,0.36,7.35,0.36,11.88v19h-4.53
				v-37.22h4.51l14.6,20.75c2.28,3.28,4.53,6.66,6.76,10.13h0.17c-0.24-3.62-0.36-7.31-0.36-11.07v-19.81H476.89 M477.58,438.64
				h-0.69h-4.56h-0.69v0.69v19.81c0,2.96,0.08,5.9,0.22,8.78c-1.83-2.81-3.68-5.56-5.53-8.22l-14.61-20.76l-0.21-0.29h-0.36h-4.51
				h-0.69v0.69v37.22v0.69h0.69h4.53h0.69v-0.69v-19c0-3.51-0.07-6.71-0.22-9.56c1.67,2.58,3.53,5.33,5.53,8.2l14.61,20.75
				l0.21,0.29h0.36h4.53h0.69v-0.69v-37.22V438.64L477.58,438.64z"/>
		</g>
		<g>
			<path d="M496.41,477.59c-1.92,0-3.74-0.25-5.42-0.74c-1.7-0.5-3.2-1.31-4.44-2.41c-1.25-1.11-2.24-2.57-2.94-4.35
				c-0.7-1.77-1.05-3.92-1.05-6.4c0-2.44,0.34-4.59,1.02-6.4c0.68-1.8,1.6-3.34,2.74-4.55c1.14-1.22,2.47-2.14,3.95-2.75
				c1.48-0.61,3.04-0.92,4.66-0.92c1.52,0,2.95,0.26,4.27,0.76c1.33,0.51,2.5,1.32,3.48,2.42c0.97,1.09,1.75,2.5,2.3,4.21
				c0.56,1.7,0.84,3.75,0.84,6.12v0.57c0,0.16-0.01,0.52-0.03,1.08l-0.01,0.33h-18.23c0.03,1.49,0.28,2.77,0.73,3.81
				c0.48,1.12,1.15,2.04,1.99,2.74c0.84,0.7,1.84,1.21,2.98,1.53c1.15,0.32,2.41,0.49,3.74,0.49c1.4,0,2.7-0.11,3.84-0.34
				c1.12-0.22,1.91-0.41,3.09-0.84l0.41-0.15l0.46,4.14l-0.22,0.11c-0.97,0.47-2.18,0.85-3.59,1.13
				C499.55,477.45,498.02,477.59,496.41,477.59z M500.56,460.18c-0.03-0.87-0.16-1.69-0.39-2.46c-0.26-0.85-0.64-1.6-1.14-2.24
				c-0.49-0.62-1.11-1.12-1.82-1.48s-1.57-0.53-2.52-0.53c-0.94,0-1.83,0.19-2.63,0.55c-0.81,0.37-1.53,0.88-2.13,1.51
				c-0.61,0.64-1.11,1.4-1.48,2.25c-0.33,0.75-0.55,1.55-0.66,2.39H500.56z"/>
			<path d="M494.9,449.42c1.48,0,2.86,0.25,4.15,0.74c1.29,0.49,2.4,1.27,3.34,2.32c0.94,1.06,1.69,2.42,2.23,4.09
				c0.55,1.67,0.82,3.67,0.82,6.01c0,0.22,0,0.41,0,0.57c0,0.16-0.01,0.51-0.03,1.07h-18.25c0,1.69,0.25,3.12,0.76,4.3
				c0.51,1.18,1.21,2.13,2.09,2.87c0.88,0.73,1.91,1.27,3.1,1.6c1.19,0.33,2.47,0.5,3.84,0.5c1.43,0,2.73-0.12,3.91-0.35
				c1.18-0.23,1.97-0.43,3.14-0.86l0.38,3.46c-0.95,0.46-2.11,0.83-3.51,1.1c-1.39,0.27-2.88,0.4-4.48,0.4
				c-1.89,0-3.67-0.24-5.33-0.72c-1.66-0.48-3.1-1.26-4.31-2.34c-1.21-1.08-2.16-2.48-2.85-4.21c-0.69-1.73-1.03-3.83-1.03-6.27
				c0-2.41,0.33-4.5,1-6.27c0.67-1.77,1.55-3.25,2.66-4.44c1.11-1.19,2.39-2.08,3.83-2.67C491.82,449.72,493.33,449.42,494.9,449.42
				 M487.39,460.52h13.52c0-1.04-0.14-2.01-0.41-2.91c-0.27-0.9-0.67-1.68-1.2-2.35c-0.53-0.67-1.17-1.19-1.94-1.57
				c-0.77-0.38-1.66-0.57-2.68-0.57c-1,0-1.92,0.19-2.77,0.58c-0.85,0.39-1.6,0.92-2.24,1.59c-0.64,0.67-1.16,1.45-1.55,2.35
				C487.73,458.54,487.49,459.5,487.39,460.52 M494.9,448.73c-1.65,0-3.27,0.32-4.79,0.94c-1.53,0.63-2.9,1.58-4.07,2.84
				c-1.17,1.25-2.11,2.82-2.81,4.67c-0.69,1.84-1.04,4.03-1.04,6.52c0,2.52,0.36,4.72,1.08,6.53c0.72,1.83,1.75,3.33,3.04,4.48
				c1.28,1.14,2.82,1.97,4.58,2.48c1.72,0.5,3.57,0.75,5.52,0.75c1.63,0,3.18-0.14,4.61-0.42c1.44-0.28,2.68-0.67,3.68-1.16
				l0.44-0.21l-0.05-0.48l-0.38-3.46l-0.1-0.88l-0.83,0.3c-1.16,0.42-1.93,0.61-3.03,0.83c-1.13,0.22-2.4,0.33-3.78,0.33
				c-1.3,0-2.53-0.16-3.65-0.47c-1.09-0.31-2.05-0.8-2.85-1.47c-0.79-0.66-1.43-1.54-1.89-2.61c-0.4-0.92-0.63-2.04-0.69-3.33h17.54
				h0.67l0.02-0.67c0.02-0.57,0.03-0.93,0.03-1.09v-0.57c0-2.4-0.29-4.49-0.85-6.22c-0.57-1.75-1.37-3.21-2.38-4.33
				c-1.01-1.14-2.23-1.98-3.61-2.51C497.94,449,496.46,448.73,494.9,448.73L494.9,448.73z M488.18,459.83
				c0.12-0.67,0.31-1.31,0.58-1.91c0.36-0.82,0.84-1.54,1.42-2.15c0.57-0.6,1.26-1.08,2.03-1.43c0.76-0.35,1.6-0.52,2.49-0.52
				c0.9,0,1.7,0.17,2.37,0.5c0.67,0.33,1.25,0.8,1.71,1.38c0.47,0.6,0.83,1.31,1.08,2.12c0.19,0.63,0.31,1.31,0.36,2.02H488.18
				L488.18,459.83z"/>
		</g>
		<g>
			<path d="M522.28,477.59c-1.42,0-2.67-0.18-3.73-0.53c-1.06-0.36-1.96-0.88-2.67-1.55c-0.71-0.67-1.25-1.5-1.6-2.45
				c-0.35-0.94-0.52-2-0.52-3.15v-15.73h-5.09v-4.39h5.09l0.02-6.73l4.98-0.46l0,7.19h7.9v4.39h-7.9v15.07
				c0,0.57,0.08,1.11,0.25,1.58c0.16,0.47,0.41,0.88,0.75,1.22c0.34,0.34,0.79,0.62,1.33,0.81c0.55,0.2,1.23,0.3,2.03,0.3
				c0.56,0,1.15-0.04,1.77-0.13c0.63-0.09,0.9-0.15,1.41-0.29l0.4-0.11l0.37,4.22l-0.24,0.09c-0.4,0.16-0.99,0.3-1.77,0.44
				C524.29,477.49,523.35,477.57,522.28,477.59L522.28,477.59L522.28,477.59z"/>
			<path d="M518.41,442.96l0,7.15h7.9v3.7h-7.9v15.41c0,0.61,0.09,1.18,0.26,1.7c0.18,0.52,0.45,0.97,0.83,1.35
				c0.38,0.38,0.87,0.68,1.46,0.89c0.59,0.21,1.31,0.32,2.14,0.32c0.57,0,1.18-0.05,1.82-0.14c0.64-0.09,0.92-0.15,1.46-0.3
				l0.31,3.55c-0.37,0.15-0.94,0.29-1.7,0.42c-0.76,0.13-1.67,0.2-2.73,0.22c-1.39,0-2.6-0.17-3.62-0.51
				c-1.02-0.34-1.87-0.83-2.55-1.47c-0.68-0.64-1.18-1.41-1.52-2.32c-0.33-0.91-0.5-1.92-0.5-3.03v-16.08h-5.09v-3.7h5.09l0.02-6.76
				L518.41,442.96 M519.1,442.21l-0.75,0.07l-4.29,0.39l-0.63,0.06l0,0.63l-0.02,6.07h-4.4h-0.69v0.69v3.7v0.69h0.69h4.4v15.39
				c0,1.19,0.18,2.29,0.54,3.27c0.37,1.01,0.94,1.88,1.69,2.59c0.75,0.71,1.69,1.25,2.8,1.63c1.09,0.37,2.38,0.55,3.84,0.55
				c1.1-0.02,2.05-0.1,2.84-0.23c0.81-0.14,1.42-0.29,1.84-0.46l0.48-0.19l-0.04-0.51l-0.31-3.55l-0.07-0.83l-0.8,0.22
				c-0.51,0.14-0.75,0.19-1.37,0.28c-0.6,0.09-1.18,0.13-1.72,0.13c-0.75,0-1.39-0.09-1.91-0.28c-0.49-0.18-0.9-0.42-1.21-0.73
				c-0.31-0.31-0.53-0.66-0.67-1.08c-0.15-0.44-0.23-0.94-0.23-1.48v-14.72h7.21H527v-0.69v-3.7v-0.69h-0.69h-7.21l0-6.46
				L519.1,442.21L519.1,442.21z"/>
		</g>
	</g>
	<g>
		<ellipse class="st0" cx="400.54" cy="341.57" rx="83.54" ry="83.51"/>
		<path class="st1" d="M400.55,258.05c46.11,0,83.51,37.4,83.51,83.51c0,46.11-37.4,83.51-83.51,83.51
			c-46.11,0-83.51-37.4-83.51-83.51C317.04,295.44,354.44,258.05,400.55,258.05L400.55,258.05z M438.51,279.4
			c-3.76,0.73-2.3,0.49-6.02,1.28c-0.32,0.07-1.48-0.34-2.57-0.11c-1.23,0.26-2.41,1.17-2.79,1.25c-0.89,0.18-2.64-0.08-3.51,0.15
			c-1.82,0.47-2.47,1.28-4.2,1.91c-3.3,1.2-7.61,2.36-11.07,3.56c-8.21,2.85-16.42,6.32-24.68,10.62c-4.58,3.13-9,6.34-13.22,10
			c-4.86,2.36-9.66,6.54-12.13,9.94c-1.22,1.69-3.11,1.39-4.48,2.9c-1.22,1.34-2.58,2.8-3.67,4.67c-0.97,1.65-1.67,3.69-2.62,5.16
			c-1.31,0.26-3.11,1.77-2.8,4.02c0.18,1.33-1.79,2.12-2.36,3.6c-0.61,1.58-1.83,2.85-2.68,3.46c-1.07,0.76,0.35,2.77-0.11,3.7
			c-1.55,3.14-4.22,7.06-5.19,9.72c-0.58,1.6,0.61,2.01-0.17,3.63c-1.16,2.41-2.19,4.82-2.98,7.32c-0.73,2.32-0.81,5.1-1.22,7.57
			c-0.76,4.5-0.79,9.95-0.06,15.05c1.47,2.03,5.92,4.83,9.03,6.13c0.71,0.01,9.4,6.34,10.16,5.76l1.52-1.16
			c0.56-0.42,0.51-0.59,0.72,0.09c1.03,3.47,3.54,4.68,5.78,7.93l9.38-6.18c1.36-1.14,11.62-5.95,14.3-6
			c3.44-0.66,6.84-1.6,10.2-2.87c1.1-4.19,4-2.43,4.86-3.69c2.21,0.36,4.28,0.44,5.26-1.42l2.28-1.87c1.06-0.87,7.72,0.99,8.95-0.31
			c1.22-3.16,2.58-5.76,4.64-5.62l5.97,0.45c0.52-3.47,1.97-1.86,3.43-3.46c1.52-2.46,3.41-3.27,5.84-1.67
			c2.04,0.13,3.88,1.24,4.3-3.65c0.11-1.25,3.3-1.49,2.89-2.56c-0.18-0.48-1.03-1.76-1.74-1.52c-2.11,0.74-5.3,1.4-6.34,1.63
			c-3.29-1.18-5.7-0.95-6.16,2.39l-4.94,0.78c-1.14-0.24-5.4,1.29-5.95,3.45c-0.38,1.52-2.86,2.12-4.2,0.84
			c-0.6-0.57-0.34-0.67-1.23-0.63c-1.33,0.07-2.65,0.14-3.98,0.21c-2.56,0.96-4.29,2.27-5.01,3.99c-1.57,0.47-6.1-0.21-7.12,0.36
			c-0.9,1.52-2.6,1.84-4.87,1.47c-2.01,0.42-2.2,1.42-6.35,1.2c-6.26,3.02-6.49,2.67-10.8,2.1c-1.51,0.39-3,1.57-4.38,1.8
			c-1.36,0.23-2.91-0.27-4.21,0.02c-4.72,1.04-9.11,0.98-9.18-0.64c-0.91-3.52-0.35-5.7,0.87-7.65c0.14-1.57,0.7-3.18,1.21-4.47
			c0.47-1.18,0.42-1.45,0.13-2.71c-1.11-4.8-2.02-8.18,1.7-9.05c0.27-0.06,1.19,0.27,1.34-0.23c0.24-0.84-0.4-2.82,0.1-3.47
			c1.17-1.51,2.89-2.16,3.46-3.35c0.25-0.51-1.85-1.75-1.11-2.38c1.08-1.48,1.34-2.61,1.48-3.65c0.17-1.29,2.85-1.14,4.39-2.04
			c0.99-0.58,1.51-2.15,2.35-2.43c1.27-0.41,3.02,1.46,3.05-1.7c0.01-0.65-0.03-0.4,0.52-0.57c0.86-0.28,1.26-1.32,1.3-2.52
			c1.46-1.6,2.79-3.23,3.97-5.08c1.08-1.69,3.51-4.28,4.96-5.31c0.46-2.16,0.48-3.07,2.32-3.64c3.16-0.98,4.9-2.42,4.87-4.54
			c-0.01-0.7,2.21-0.68,3.15-1.51c0.69-0.61,0.44-1.76,1.15-2.08c0.69-0.31,4.34-0.44,5.92-0.83c0.72-0.18,0.22-0.39,0.06-0.86
			c-1.19-2.61-0.18-4.04,2.46-3.5c3.26-0.13,4.67,0.68,5.77,0.36c0.85-0.25,0.71-0.57,0.63-1.32l-0.23-2.08
			c-0.22-2.85,2.96-3.14,4.05-1.53c0.43,0.64-0.28,0.73-0.48,1.68c0.13,2.68,3.55,2.4,4.15,2.15c3.94-1.62,9.88-3.95,11.91-5.41
			c0.71-0.51-0.08-1.6-0.5-2.53c-0.48-1.06-0.69-2.5-2.17-2.6c-1.09-0.08-4.07-0.11-4.95,0.97c-2.68,3.27-8.14,2.81-3.49-1.26
			c0.61-0.53,0.98-0.68,1.74-0.92c3.46-1.05,6.77-2.28,9.63-4.06c1.47,0.05,1.99-0.03,3.32,0.32c1.1,0.29,3.26-1.84,3.76-1
			c0.31,0.52,0.46,1.29-0.25,1.74c-6.92,2.86-4.36,5.55,1.01,5.81c1.35,0.07,1.08,0.05,1.77-0.96c1.24-1.8,3.37-1.61,5.44-0.73
			c1.1,0.47,1.38,0.58,2.61,0.48c2.6-0.21,6.68-0.72,8.38-0.75c5.29-0.07,5.53-0.68,10.82-0.77c3.44-1.2,3.78-6.81-2.78-4.83
			c-1.47,0.44-2.38,0.56-3.95,0.58l-2.31,0.03c-1.33-0.05-4.99,1.62-6.19,0.22c-1.02-1.19-1.07-3.01,0.5-3.45
			c1.73-0.81,1.66-0.69,3.54,0.04c3.25,2.25,4.39-1.09,5.58-0.45c2.98,0.6,6.17-1.9,5.29-4.42c-1.49-4.25-0.46-8.74-2.37-10.77
			c-0.65-0.69-3.59-0.36-5.02-0.37c-3.84-0.02-8.56,0.68-13.31,1.7c-1.01,0.22-3.02-0.08-4.03,0.08
			C439.53,278.69,439.51,279.21,438.51,279.4L438.51,279.4z M441.73,362.7c1.27-1.01,6.08-2.77,8.67-2.83
			c1.01-0.03,2.28-0.07,2.73,0.85c-0.1,0.88-1.83,1.9-3.64,3.1l-2.13,2.5c-1.67,1.11-3.05,3.05-4.23,1.59
			C442.32,366.54,440.12,363.98,441.73,362.7L441.73,362.7z M359.83,364.06c0.87-0.54-0.58-2.83,1.83-3.64
			c0.41-0.14-0.14-1.14,0.05-2.37c0.26-1.62,1.07-1.7,1.47-2.98c-0.02,0.19,0.2-0.4,0.57-1.12c0.37-0.72,0.89-1.56,1.45-1.85
			c1.44-0.76,2.87,1.03,1.86,1.7c-1.04,0.72-1.59,1.61-1.64,2.66c-0.06,1.18-0.04,0.6-0.63,1.47c-0.18,0.27-0.3,0.62-0.35,1.06
			c-0.1,0.8,0.04,0.71-0.51,1.25c-0.61,0.6-0.82,1.42-0.73,2.41l-0.9,2.07c-0.86,3.26-2.82,4.5-4,3.04
			C357.46,366.4,358.21,365.34,359.83,364.06L359.83,364.06z M430.25,303.18c3.66-0.92,4.13,2.22,2.76,2.93
			c-1.67,1.12-1.35,0.66-2.44,0.44C429.75,305.18,428.64,304.46,430.25,303.18L430.25,303.18z M441.52,293.19
			c1.65-0.43,1.67-0.47,4.27-0.53c1.01-0.02-0.01,0.96,0.43,1.88l-1.17,1.31c-0.6,0.67-0.51,0.75-1.37,0.48l-1.65-0.52
			c-1.53,1.78-2.56,2.22-3.74,0.76C437.72,294.63,440.36,293.4,441.52,293.19L441.52,293.19z M385.02,302.03
			c1.65-0.43,1.3-1.05,3.89-1.11c1.01-0.02,0.04,1.36,0.49,2.28l-1.31,0.84c-0.95,1.06-1.14,0.91-2.47,1.46
			c-1.53,1.78-4.11,2.39-5.29,0.93C379.75,304.51,383.86,302.24,385.02,302.03L385.02,302.03z M334.51,382.94
			c2.29-2.16,3.91,0.71,3.14,2.61l-0.43,2.78c-1.42,0.97-1.89,0.83-3.07-0.63C334.05,385.68,334.51,385.06,334.51,382.94
			L334.51,382.94z"/>
	</g>
</g>
</svg>
