<?xml version="1.0" encoding="UTF-8" standalone="no"?>
<!-- Created with Inkscape (http://www.inkscape.org/) -->

<svg
   version="1.1"
   id="svg20730"
   width="377.95276"
   height="377.95276"
   viewBox="0 0 377.95276 377.95276"
   sodipodi:docname="Front_Board_100x100mm_SolderMask.svg"
   inkscape:version="1.2.1 (9c6d41e410, 2022-07-14)"
   xmlns:inkscape="http://www.inkscape.org/namespaces/inkscape"
   xmlns:sodipodi="http://sodipodi.sourceforge.net/DTD/sodipodi-0.dtd"
   xmlns="http://www.w3.org/2000/svg"
   xmlns:svg="http://www.w3.org/2000/svg">
  <defs
     id="defs20734" />
  <sodipodi:namedview
     id="namedview20732"
     pagecolor="#ffffff"
     bordercolor="#000000"
     borderopacity="0.25"
     inkscape:showpageshadow="2"
     inkscape:pageopacity="0.0"
     inkscape:pagecheckerboard="0"
     inkscape:deskcolor="#d1d1d1"
     showgrid="false"
     inkscape:zoom="2.1801667"
     inkscape:cx="174.2986"
     inkscape:cy="188.97638"
     inkscape:window-width="1920"
     inkscape:window-height="1027"
     inkscape:window-x="-8"
     inkscape:window-y="22"
     inkscape:window-maximized="1"
     inkscape:current-layer="g20736" />
  <g
     inkscape:groupmode="layer"
     inkscape:label="Image"
     id="g20736">
    <path
       style="fill:#000000;stroke-width:0.377953"
       d="m 0.03858438,374.83465 c 0.03508551,-2.83536 0.07631059,-2.99977 0.45461358,-1.8131 0.53395064,1.6749 2.76310994,3.90406 4.43801524,4.43801 1.1866673,0.37831 1.0222522,0.41953 -1.8131029,0.45461 L 0,377.95276 Z M 373.02155,377.45956 c 1.6749,-0.53395 3.90406,-2.76311 4.43801,-4.43801 0.37831,-1.18667 0.41953,-1.02226 0.45461,1.8131 l 0.0386,3.11811 -3.11811,-0.0386 c -2.83536,-0.0351 -2.99977,-0.0763 -1.8131,-0.45461 z M 88.96528,336.05676 c -1.015945,-1.2386 -3.329757,-3.89396 -5.141806,-5.9008 -3.082907,-3.4143 -6.343158,-8.69563 -6.343158,-10.27538 0,-0.3258 -0.978917,0.20522 -2.497331,1.35469 l -2.497326,1.89052 -1.376689,-0.57382 c -2.219944,-0.92531 -5.090068,-2.60876 -12.603731,-7.39262 -3.888261,-2.47561 -8.525764,-5.17069 -10.305562,-5.98907 -1.779799,-0.81838 -4.253613,-2.08437 -5.497365,-2.81332 -1.243752,-0.72894 -2.259405,-1.20313 -2.257005,-1.05375 0.006,0.37604 5.9666,7.42605 10.135601,11.98813 l 3.453864,3.77953 -24.277228,0.18898 c -22.834236,0.17774 -24.36274,0.23145 -25.7158858,0.90358 -1.5643414,0.77703 -2.9614194,2.41301 -3.58563865,4.19878 C 0.17831134,327.15668 0.05074543,278.48248 0.02983838,163.74803 L 0,0 88.72441,0.01149305 c 52.00915,0.0067371 88.48689,0.15066121 88.15043,0.34780045 -0.31569,0.18496906 -2.39779,0.39239562 -4.62688,0.46094789 -2.2291,0.0685523 -4.05427,0.21532781 -4.05594,0.32616791 -0.002,0.1108402 -1.83139,0.4185557 -4.06603,0.6838124 -2.23465,0.2652567 -6.35906,0.9014209 -9.16536,1.4136983 C 101.78149,12.951534 55.111828,45.29839 27.131608,91.842521 11.98033,117.04615 3.0570264,145.18395 0.76848405,174.97319 c -0.5020149,6.53457 -0.5020149,21.47181 0,28.00638 1.77594515,23.11693 7.34727785,44.47514 17.16879495,65.81814 2.165042,4.70482 7.992873,15.59547 9.653272,18.03937 0.51172,0.75319 0.569329,-0.0421 0.591566,-8.16667 0.01939,-7.08524 0.197085,-10.20782 0.83483,-14.67041 0.445606,-3.11811 1.087937,-7.87267 1.427403,-10.5657 0.892489,-7.08026 3.018599,-13.76107 7.34249,-23.07209 1.565662,-3.37148 1.577586,-3.43 1.347916,-6.61418 -0.221227,-3.06706 -0.174577,-3.34101 1.029762,-6.04724 0.693819,-1.55906 3.055831,-5.9811 5.248921,-9.82677 2.193086,-3.84567 4.372921,-7.74812 4.844077,-8.67211 0.876983,-1.71986 0.891489,-2.3251 0.168216,-7.01938 -0.227656,-1.47757 -0.164285,-1.58896 2.365451,-4.15748 1.66422,-1.68973 3.130534,-3.65902 4.075797,-5.47387 0.812032,-1.55905 2.272211,-3.68504 3.244842,-4.72441 2.288946,-2.446 2.551188,-2.99823 2.569882,-5.41166 0.0098,-1.26727 0.321112,-2.64029 0.843073,-3.71851 0.840616,-1.73649 3.147689,-3.74342 4.771854,-4.15106 0.691672,-0.1736 1.511395,-1.51801 3.863988,-6.33726 3.115556,-6.38217 5.765095,-10.33645 9.892604,-14.76411 1.963279,-2.10605 3.02468,-2.87858 5.631817,-4.09905 4.008265,-1.87638 4.340391,-2.13762 7.092201,-5.57867 5.519559,-6.90204 14.804209,-14.58585 23.338409,-19.31446 1.66002,-0.91978 4.80404,-3.16988 6.98671,-5.00022 4.59255,-3.85121 14.82,-11.55603 21.31153,-16.05499 11.91887,-8.260373 43.94164,-22.010008 70.90895,-30.446208 12.86012,-4.023043 15.00444,-4.796961 18.33071,-6.615855 3.6838,-2.014401 6.14918,-2.665425 10.09378,-2.665425 3.11773,0 3.52597,-0.09464 6.07313,-1.407961 2.6367,-1.359485 2.87387,-1.409669 6.8882,-1.457601 5.01661,-0.0599 15.76549,-2.224524 18.63701,-3.753147 1.59966,-0.851569 2.19495,-0.940346 6.30548,-0.940346 3.32059,0 5.75727,-0.247616 9.07717,-0.922424 2.49596,-0.507334 6.89894,-1.268073 9.78441,-1.690534 2.88546,-0.422464 5.31901,-0.840824 5.40788,-0.929696 C 308.49938,41.988813 290.66795,29.59214 282.70866,25.039875 263.73893,14.190249 241.28094,6.1700648 220.53544,2.8366112 217.00158,2.2687796 213.85512,1.7148535 213.54331,1.6056644 213.2315,1.4964753 212.42788,1.4433549 211.75748,1.4876189 c -0.67039,0.044264 -1.3958,-0.028853 -1.61202,-0.1624818 -0.21622,-0.1336291 -2.21745,-0.33090704 -4.44718,-0.43839541 -14.1227,-0.68081141 3.44351,-0.86487451 83.53007,-0.87524864 L 377.95276,0 l -0.0386,163.74803 c -0.0282,119.74446 -0.15038,163.39735 -0.45461,162.44303 -0.56671,-1.77767 -2.78791,-3.90633 -4.66208,-4.46784 -1.14984,-0.3445 -7.62969,-0.46337 -25.25932,-0.46337 h -23.71273 l 2.7802,-3.05391 c 14.11014,-15.49925 24.03796,-29.96527 32.27249,-47.02483 9.57801,-19.84287 15.04194,-38.82919 17.78359,-61.79528 0.82184,-6.8843 1.14508,-26.62531 0.56254,-34.35547 -2.74288,-36.3973 -15.50544,-70.28926 -37.56445,-99.755323 l -3.77301,-5.039921 -0.48205,1.402216 c -0.62735,1.824828 -2.52255,3.771379 -4.88505,5.017429 -1.62075,0.85482 -2.38076,1.001522 -5.3388,1.03053 -3.25717,0.03194 -3.56164,0.106027 -5.47308,1.331747 -2.76098,1.770497 -5.19862,1.774378 -8.50237,0.01353 -3.13441,-1.670592 -4.89203,-1.86113 -7.47973,-0.810859 -2.45491,0.996374 -3.2195,1.75776 -3.48029,3.46569 -0.24342,1.594152 1.13918,4.459027 2.49474,5.169355 1.16178,0.60878 5.66475,0.351118 8.69291,-0.497409 1.18658,-0.332496 4.99855,-0.731297 8.88189,-0.929212 4.16316,-0.212171 7.52129,-0.574322 8.65375,-0.933245 5.73066,-1.816267 9.50146,-1.561012 11.55906,0.782461 2.21409,2.521708 1.09478,6.740338 -2.4188,9.116345 -1.67885,1.135302 -2.04939,1.228596 -4.89184,1.231631 -1.69147,0.0019 -5.20138,0.257314 -7.7998,0.567799 -2.59843,0.31048 -6.76536,0.657259 -9.25985,0.770615 -2.49448,0.113356 -9.29825,0.643015 -15.11946,1.177017 l -10.58404,0.970915 -4.00032,-1.366862 c -2.36559,-0.808286 -4.72537,-1.366855 -5.77456,-1.366855 -2.99688,0 -4.00896,0.635947 -7.13209,4.481486 -0.80354,0.98941 -3.01915,1.07357 -7.15155,0.27167 -10.089,-1.957795 -10.44087,-6.903394 -0.83029,-11.669752 3.34475,-1.658827 3.86473,-2.309643 3.38199,-4.233011 -0.33131,-1.320056 -1.44112,-1.226464 -4.89249,0.412581 -2.72313,1.293211 -2.9495,1.337938 -4.78224,0.944882 -4.29726,-0.921596 -5.71081,-0.649531 -11.50291,2.213968 -3.07449,1.519967 -8.23856,3.616664 -12.25724,4.976644 -6.60312,2.234589 -7.05149,2.449221 -9.123,4.367074 -1.95929,1.813954 -3.39715,3.918904 -3.39715,4.973244 0,0.91034 1.24898,1.57616 2.95613,1.57588 2.37491,-3.8e-4 5.76098,-1.66584 8.29173,-4.07828 2.38035,-2.269063 4.28517,-2.856923 9.3669,-2.89078 4.54092,-0.03024 5.02194,0.303254 7.22483,5.00928 0.94251,2.01347 1.80267,4.28366 1.91146,5.04485 0.18611,1.30214 0.10013,1.44576 -1.45379,2.4284 -2.59275,1.63956 -9.24407,4.72624 -18.20738,8.4495 -7.19812,2.99002 -8.52207,3.42315 -10.46358,3.42315 -2.62882,0 -3.97842,-0.44884 -5.38538,-1.79103 -1.38694,-1.32311 -1.69697,-3.14519 -0.85343,-5.01581 0.79622,-1.76571 0.60441,-2.39882 -1.02834,-3.39431 -1.57854,-0.96242 -3.91303,-0.97106 -5.47242,-0.0202 -1.79798,1.0963 -2.20002,2.85276 -1.67397,7.31324 0.23368,1.98144 0.32112,3.87304 0.19429,4.20353 -0.32852,0.85613 -1.72487,1.10674 -4.62067,0.8293 -5.99408,-0.57428 -13.15987,-0.96414 -13.85717,-0.75391 -0.41579,0.12536 -1.13866,0.57818 -1.60638,1.00627 -1.11328,1.01896 -1.14696,3.92475 -0.0729,6.29224 0.41847,0.92244 0.68186,1.883 0.58532,2.13458 -0.1905,0.49644 -3.08653,1.01919 -9.29978,1.67868 -2.18268,0.23168 -4.34415,0.66365 -4.80327,0.95994 -0.45912,0.2963 -1.03698,1.21366 -1.28413,2.03858 -0.62501,2.0861 -1.68905,2.94126 -5.11159,4.10814 l -2.96011,1.00923 -0.26589,1.57742 c -0.14624,0.86758 -0.52109,2.07092 -0.83299,2.67407 -1.2686,2.45322 -5.33462,5.16803 -10.05938,6.71647 -2.92963,0.96013 -3.89861,2.08089 -4.72912,5.46988 -0.52116,2.12661 -0.93502,3.00615 -1.66967,3.54841 -2.43466,1.79707 -7.58218,7.59339 -10.9146,12.29029 -2.00604,2.82743 -4.6875,6.33506 -5.95879,7.79474 -1.82693,2.09768 -2.35676,2.99195 -2.5277,4.26637 -0.27313,2.03633 -1.1929,3.45399 -2.58083,3.97788 -0.90853,0.34293 -1.12108,0.68419 -1.32365,2.12524 -0.13272,0.94419 -0.49403,2.11787 -0.8029,2.60817 -0.53586,0.85062 -0.691,0.87933 -3.38697,0.6267 -3.19337,-0.29925 -3.48954,-0.1524 -5.46321,2.7087 -1.5614,2.26347 -2.74546,2.96834 -7.11264,4.23413 -2.12984,0.61731 -4.18461,1.4049 -4.56615,1.75019 -0.38153,0.34528 -0.81151,1.33548 -0.95549,2.20043 -0.35612,2.13931 -1.21497,4.27731 -2.499235,6.22151 -0.590464,0.89388 -1.073575,1.74739 -1.073575,1.89669 0,0.14929 0.680315,1.09472 1.51181,2.10094 0.8315,1.00623 1.51181,2.00536 1.51181,2.2203 0,0.407 -1.974827,2.37115 -6.042884,6.01021 l -2.38876,2.13684 0.252673,3.59458 c 0.215547,3.06638 0.160596,3.68666 -0.373943,4.2212 -0.376452,0.37645 -0.953624,0.54454 -1.445703,0.42104 -2.236414,-0.56131 -5.831645,1.71767 -6.677499,4.23279 -0.749756,2.22937 -0.476867,6.27297 0.821355,12.17056 0.663444,3.01391 1.206036,6.07511 1.205757,6.80267 -2.76e-4,0.72756 -0.606785,3.05562 -1.347791,5.17347 -0.741007,2.11785 -1.538604,4.90569 -1.77244,6.19521 -0.233836,1.28952 -0.666085,2.71229 -0.960559,3.16171 -1.261316,1.92501 -2.131571,5.33369 -2.176407,8.52473 -0.05359,3.814 0.703619,8.05126 1.574404,8.81017 1.881104,1.63943 9.013572,1.91803 16.469813,0.64332 3.106054,-0.531 5.891574,-0.74431 9.059374,-0.69373 l 4.57427,0.073 4.29315,-2.00833 4.29315,-2.00834 3.26591,0.3321 c 7.47055,0.75965 10.09752,0.25904 18.03213,-3.43633 3.14757,-1.46591 3.74977,-1.61356 7.37007,-1.80703 3.11779,-0.16661 4.59403,-0.45318 7.05753,-1.36999 2.64206,-0.98326 3.61773,-1.15506 6.42519,-1.1314 3.91541,0.033 5.89159,-0.62292 7.62896,-2.53216 1.34094,-1.47358 1.46881,-1.49241 8.94097,-1.31637 6.66234,0.15697 7.37164,-0.0223 8.79758,-2.22285 1.43923,-2.22112 4.33436,-4.50555 7.71479,-6.08745 2.36492,-1.10668 2.91348,-1.20452 7.8487,-1.39989 5.28452,-0.2092 5.31023,-0.20617 6.33078,0.74532 1.4578,1.35915 2.55638,1.84868 4.19961,1.87136 2.89225,0.0399 4.49811,-1.01343 5.70519,-3.74224 0.90965,-2.05642 2.97428,-3.94763 5.8595,-5.36734 2.73953,-1.34803 4.0272,-1.65339 11.33915,-2.68895 7.15135,-1.01282 7.37008,-1.0675 7.37008,-1.84226 0,-0.3524 0.43528,-1.51422 0.96729,-2.58183 1.36739,-2.744 3.34111,-3.68574 7.10143,-3.3884 1.48661,0.11756 3.42167,0.47201 4.30012,0.78767 1.55246,0.55786 1.78531,0.52593 8.31496,-1.14018 3.69478,-0.94276 7.14548,-1.79759 7.66823,-1.89963 1.17568,-0.22949 2.59396,0.81953 3.57769,2.6462 0.9111,1.69182 0.59175,2.12031 -2.88537,3.87136 -1.40702,0.70856 -2.71213,1.58713 -2.90024,1.95237 -0.18812,0.36525 -0.45656,1.59952 -0.59653,2.74282 -0.35895,2.93193 -1.83867,5.84128 -3.27309,6.43544 -1.63193,0.67597 -5.8755,0.25126 -7.86838,-0.78748 -3.62333,-1.88859 -7.05873,-1.12033 -9.7813,2.18741 -2.47223,3.00358 -3.33982,3.69549 -5.47967,4.37001 -2.33838,0.73711 -3.03942,1.53271 -3.71515,4.21632 l -0.44109,1.7517 -1.55744,-0.19839 c -3.8136,-0.4858 -12.83912,-1.01593 -13.68439,-0.80378 -2.28143,0.5726 -5.12753,4.24456 -7.49002,9.66342 -0.58908,1.35118 -1.29484,2.69456 -1.56835,2.98528 -0.89218,0.94834 -3.94922,1.12242 -10.18476,0.57996 -8.81196,-0.76659 -8.45917,-0.80309 -11.04815,1.14309 -1.23263,0.92658 -3.15597,2.62594 -4.27409,3.77634 -1.11812,1.1504 -2.59438,2.27693 -3.28058,2.5034 -0.6862,0.22646 -2.84719,0.3652 -4.80222,0.30829 -2.19065,-0.0638 -3.74813,0.0568 -4.05902,0.31419 -0.27745,0.2297 -1.60274,0.61652 -2.94509,0.8596 -1.34235,0.24307 -2.90679,0.68301 -3.47652,0.97763 -1.25452,0.64874 -2.65256,2.47523 -3.4165,4.46355 -0.50203,1.30665 -0.8345,1.57218 -2.98572,2.38464 -4.22703,1.59642 -13.58863,4.17385 -18.86512,5.19393 -5.94087,1.14852 -9.29667,2.19842 -16.05959,5.02441 -9.85798,4.11932 -14.5519,6.70283 -26.70584,14.69884 -6.514942,4.28613 -12.034594,7.86638 -12.265894,7.9561 -0.231303,0.0897 -1.251775,-0.85027 -2.267716,-2.08887 z M 36.205228,300.20787 c -1.338787,-1.82929 -3.5073,-4.94173 -4.818917,-6.91653 -2.922204,-4.39974 -3.182179,-4.68669 -2.910579,-3.2126 0.114901,0.62363 0.321994,2.2175 0.460206,3.54195 0.214597,2.05642 0.452078,2.63183 1.626182,3.94021 1.413203,1.57482 7.652869,6.39734 7.92507,6.12514 0.08371,-0.0837 -0.943175,-1.64888 -2.281962,-3.47817 z m 8.372361,-4.8856 c 0.964282,-0.56962 1.090466,-0.93937 1.718937,-5.03702 0.760388,-4.95777 0.605764,-6.64143 -0.743664,-8.09749 -1.150677,-1.2416 -3.408971,-1.35836 -4.819086,-0.24917 -0.991189,0.77967 -1.031468,0.99034 -1.667248,8.71991 l -0.234214,2.84748 1.384396,1.21552 c 1.544719,1.35628 2.791204,1.528 4.360879,0.60077 z M 151.23583,110.21636 c 0.75765,-0.36215 2.03324,-1.21773 2.83464,-1.9013 0.8014,-0.68357 2.11099,-1.47803 2.91021,-1.76546 0.79921,-0.28744 2.0748,-1.04474 2.83464,-1.68291 0.75985,-0.63816 1.89177,-1.51604 2.51539,-1.95085 1.05791,-0.73761 1.13386,-0.95141 1.13386,-3.191783 v -2.401221 l -2.26772,0.06205 c -1.65862,0.04538 -2.92756,0.375228 -4.72441,1.228048 -1.35118,0.641299 -2.67494,1.166136 -2.94169,1.166298 -0.80999,3.78e-4 -4.30933,1.884448 -6.39693,3.443918 -2.15163,1.6073 -4.01646,4.3709 -3.82328,5.66591 0.30921,2.07285 4.79408,2.82396 7.92529,1.3273 z M 280.08405,87.863283 c 0.71598,-0.525589 1.58155,-1.322657 1.9235,-1.771268 l 0.62172,-0.815653 2.77985,0.842023 2.77986,0.842022 1.8598,-2.121438 c 1.67572,-1.911462 1.87076,-2.324508 1.97054,-4.173116 l 0.11075,-2.051679 -3.10441,0.003 c -7.841,0.0074 -14.63196,3.439801 -14.63196,7.395515 0,2.59341 3.24212,3.647784 5.69035,1.85057 z M 335.0954,65.688915 c -0.55392,-2.175617 -1.31872,-7.020181 -1.73331,-10.979471 -0.79141,-7.557959 -1.47393,-9.98496 -3.28464,-11.680131 -0.94675,-0.886333 -0.96099,-0.887459 -10.11682,-0.802133 -5.0428,0.047 -9.54947,0.226292 -10.01481,0.398434 -0.77442,0.286473 -0.49916,0.614242 3.24972,3.869602 5.35563,4.650595 14.93156,14.311309 19.20148,19.371511 1.86403,2.209021 3.45678,3.948775 3.53943,3.866117 0.0827,-0.08266 -0.29581,-1.902426 -0.84105,-4.043929 z M 94.529791,249.31472 c -2.052336,-1.17247 -2.544582,-4.17921 -1.022044,-6.24289 0.500126,-0.67789 1.605637,-1.87535 2.456692,-2.66104 1.441792,-1.33106 1.547755,-1.56788 1.552944,-3.47084 0.0069,-2.52585 0.562889,-3.67527 2.333881,-4.82485 l 1.375376,-0.89279 -0.19495,-2.69777 c -0.17971,-2.48694 -0.105,-2.86021 0.95604,-4.77651 0.63303,-1.1433 2.02501,-3.73375 3.09327,-5.75655 1.06827,-2.02279 2.45149,-4.10626 3.07383,-4.62992 1.52287,-1.28142 3.61996,-1.29204 4.98683,-0.0253 1.40888,1.3057 1.30286,2.58328 -0.3169,3.81872 -1.7772,1.35554 -2.79108,3.09892 -3.09135,5.31562 -0.1374,1.01439 -0.64568,2.44536 -1.1295,3.17994 -0.48382,0.73459 -1.03143,2.14796 -1.21692,3.14082 -0.18549,0.99286 -0.6762,2.17766 -1.09048,2.63289 -1.15545,1.26968 -1.6036,2.34774 -1.6036,3.85762 0,0.75835 -0.48404,2.51283 -1.07564,3.89886 -0.5916,1.38602 -1.35955,3.29787 -1.70655,4.24854 -1.73259,4.74685 -4.922104,7.29011 -7.380929,5.88543 z m 190.881689,-0.56541 c -0.55112,-0.59261 -1.74617,-2.38215 -2.65568,-3.97674 -1.91732,-3.36154 -2.38127,-5.73887 -1.40942,-7.2221 1.33274,-2.03402 11.30998,-5.9762 17.75749,-7.01629 4.75784,-0.76752 8.92763,0.10661 8.92763,1.87154 0,0.84913 -2.64613,3.34415 -5.69949,5.37405 -1.3678,0.90932 -3.6233,2.96021 -5.01223,4.55754 -1.38893,1.59732 -3.89447,3.93591 -5.56786,5.19685 -3.55688,2.68019 -4.763,2.91134 -6.34044,1.21515 z M 257.36274,110.11542 c -0.89312,-0.24082 -3.00053,-3.97225 -3.00053,-5.31279 0,-1.79763 1.78982,-3.13334 4.19861,-3.13334 3.33772,0 5.62816,1.67706 5.62816,4.12093 0,2.74573 -3.78644,5.14487 -6.82624,4.3252 z M 179.62205,0.09865008 c 1.19527,-0.07500497 3.15118,-0.07500497 4.34646,0 1.19527,0.07500498 0.21732,0.13637269 -2.17323,0.13637269 -2.39055,0 -3.36851,-0.0613677 -2.17323,-0.13637269 z m 14.3622,0 c 1.19528,-0.07500497 3.15119,-0.07500497 4.34646,0 1.19528,0.07500498 0.21732,0.13637269 -2.17323,0.13637269 -2.39055,0 -3.3685,-0.0613677 -2.17323,-0.13637269 z"
       id="path22562" />
  </g>
</svg>
