<?xml version="1.0" encoding="UTF-8" standalone="no"?>
<!-- Created with Inkscape (http://www.inkscape.org/) -->

<svg
   width="100mm"
   height="100mm"
   viewBox="0 0 100 100"
   version="1.1"
   id="svg13569"
   xml:space="preserve"
   inkscape:version="1.2.1 (9c6d41e410, 2022-07-14)"
   sodipodi:docname="Front_Board_100x100mm_EdgeCuts.svg"
   xmlns:inkscape="http://www.inkscape.org/namespaces/inkscape"
   xmlns:sodipodi="http://sodipodi.sourceforge.net/DTD/sodipodi-0.dtd"
   xmlns="http://www.w3.org/2000/svg"
   xmlns:svg="http://www.w3.org/2000/svg"><sodipodi:namedview
     id="namedview13571"
     pagecolor="#ffffff"
     bordercolor="#000000"
     borderopacity="0.25"
     inkscape:showpageshadow="2"
     inkscape:pageopacity="0.0"
     inkscape:pagecheckerboard="0"
     inkscape:deskcolor="#d1d1d1"
     inkscape:document-units="mm"
     showgrid="false"
     inkscape:zoom="2.18"
     inkscape:cx="174.31193"
     inkscape:cy="188.99083"
     inkscape:window-width="1920"
     inkscape:window-height="1027"
     inkscape:window-x="-8"
     inkscape:window-y="22"
     inkscape:window-maximized="1"
     inkscape:current-layer="layer1" /><defs
     id="defs13566"><inkscape:path-effect
       effect="fillet_chamfer"
       id="path-effect14115"
       is_visible="true"
       lpeversion="1"
       nodesatellites_param="F,0,0,1,0,2,0,1 @ F,0,0,1,0,2,0,1 @ F,0,0,1,0,2,0,1 @ F,0,0,1,0,2,0,1"
       unit="mm"
       method="auto"
       mode="F"
       radius="2"
       chamfer_steps="1"
       flexible="false"
       use_knot_distance="true"
       apply_no_radius="true"
       apply_with_radius="true"
       only_selected="false"
       hide_knots="false" /><inkscape:path-effect
       effect="fillet_chamfer"
       id="path-effect14069"
       is_visible="true"
       lpeversion="1"
       nodesatellites_param="F,0,0,1,0,2,0,1 @ F,0,0,1,0,2,0,1 @ F,0,0,1,0,2,0,1 @ F,0,0,1,0,2,0,1"
       unit="mm"
       method="auto"
       mode="F"
       radius="2"
       chamfer_steps="1"
       flexible="false"
       use_knot_distance="true"
       apply_no_radius="true"
       apply_with_radius="true"
       only_selected="false"
       hide_knots="false" /></defs><g
     inkscape:label="Layer 1"
     inkscape:groupmode="layer"
     id="layer1"><path
       id="path17059"
       style="fill:none;stroke-width:0.0994051;stroke:#000000;stroke-opacity:1;fill-opacity:1"
       d="M 50.00625 0.25011393 C 45.34034 0.25011393 44.646995 0.27064146 43.276945 0.45216878 C 33.128095 1.7968575 23.328569 6.4333194 15.905489 13.401766 C 13.442124 15.71426 11.406161 18.009675 9.5818441 20.53053 C 4.6820872 27.301051 1.5279657 35.160153 0.45216878 43.281079 C 0.27068578 44.65105 0.25011393 45.344874 0.25011393 50.0047 C 0.25011393 54.664526 0.27068564 55.357832 0.45216878 56.727804 C 1.3238268 63.307736 3.7594232 70.262117 7.1225627 75.773153 C 7.4381101 76.290228 7.51731 76.533012 7.6062541 77.264018 C 7.6647003 77.74437 7.7349252 78.213127 7.7628337 78.305298 C 7.8324434 78.535194 8.8839084 79.494585 9.5957967 79.978064 C 9.9997729 80.252425 10.557603 80.831022 11.392586 81.841516 C 12.080632 82.674188 13.232474 83.901975 14.42806 85.109534 L 2.109432 85.109534 A 2 2 0 0 0 0.10955404 87.109412 L 0.10955404 97.890666 A 2 2 0 0 0 2.109432 99.890544 L 97.890666 99.890544 A 2 2 0 0 0 99.890544 97.890666 L 99.890544 87.109412 A 2 2 0 0 0 97.890666 85.109534 L 85.61803 85.109534 C 86.433133 84.287335 87.210612 83.475022 87.698523 82.909151 C 94.160176 75.415032 98.276915 66.318463 99.547412 56.727804 C 99.728901 55.357832 99.749984 54.664526 99.749984 50.0047 C 99.749984 45.344874 99.728897 44.65105 99.547412 43.281079 C 98.430083 34.846642 95.049634 26.640188 89.867383 19.783805 C 89.28763 19.016761 88.921602 18.431236 88.842122 18.143595 C 88.521108 16.981903 88.414709 16.391409 88.270581 14.962394 C 88.077746 13.050463 87.988103 12.602652 87.672685 11.980147 C 87.291559 11.227959 87.093582 11.140782 85.689343 11.105782 C 85.030825 11.089362 83.857159 11.111621 83.081234 11.155391 L 81.670467 11.234973 L 80.447286 10.30273 C 73.392899 4.9288497 65.10745 1.5197948 56.381571 0.40049235 C 55.465612 0.28299879 54.068058 0.25011393 50.00625 0.25011393 z " /></g></svg>
