<?xml version="1.0" encoding="UTF-8" standalone="no"?>
<!-- Created with Inkscape (http://www.inkscape.org/) -->

<svg
   version="1.1"
   id="svg20730"
   width="377.95276"
   height="377.95276"
   viewBox="0 0 377.95276 377.95276"
   sodipodi:docname="Front_Board_100x100mm_Copper.svg"
   inkscape:version="1.2.1 (9c6d41e410, 2022-07-14)"
   xmlns:inkscape="http://www.inkscape.org/namespaces/inkscape"
   xmlns:sodipodi="http://sodipodi.sourceforge.net/DTD/sodipodi-0.dtd"
   xmlns="http://www.w3.org/2000/svg"
   xmlns:svg="http://www.w3.org/2000/svg">
  <defs
     id="defs20734" />
  <sodipodi:namedview
     id="namedview20732"
     pagecolor="#ffffff"
     bordercolor="#000000"
     borderopacity="0.25"
     inkscape:showpageshadow="2"
     inkscape:pageopacity="0.0"
     inkscape:pagecheckerboard="0"
     inkscape:deskcolor="#d1d1d1"
     showgrid="false"
     inkscape:zoom="2.1801667"
     inkscape:cx="140.1269"
     inkscape:cy="189.43506"
     inkscape:window-width="1920"
     inkscape:window-height="1027"
     inkscape:window-x="-8"
     inkscape:window-y="22"
     inkscape:window-maximized="1"
     inkscape:current-layer="g20736" />
  <g
     inkscape:groupmode="layer"
     inkscape:label="Image"
     id="g20736">
    <path
       style="fill:#000000;stroke-width:0.378085"
       d="m 4.9593493,377.46098 c -1.7773812,-0.5672 -3.9056795,-2.79035 -4.46710712,-4.66615 -0.63522502,-2.12241 -0.66556,-44.43421 -0.0331956,-46.32485 0.64127452,-1.91731 1.99579062,-3.55037 3.61091342,-4.35346 1.3529226,-0.67272 2.8811738,-0.72647 25.711635,-0.90437 l 24.273217,-0.18912 -3.453294,-3.78284 c -4.168312,-4.56606 -10.127886,-11.62223 -10.133925,-11.9986 -0.0023,-0.14952 1.013087,0.32508 2.256631,1.05467 1.243547,0.72958 3.716953,1.99668 5.496457,2.81578 1.779503,0.81909 6.416243,3.51653 10.303861,5.9943 7.512419,4.78804 10.38207,6.47296 12.601647,7.39908 l 1.376462,0.57432 2.423464,-1.83651 2.42347,-1.83652 0.623312,1.75387 c 1.036426,2.91625 3.29051,6.20566 7.340145,10.71149 2.116796,2.35526 4.262551,4.78404 4.768354,5.39731 l 0.919638,1.11503 11.917336,-7.85083 c 12.44867,-8.20085 16.79654,-10.63044 26.07422,-14.57023 7.65606,-3.25118 11.00893,-4.33215 17.10318,-5.51409 5.38898,-1.04516 14.77821,-3.6291 19.03535,-5.23856 2.15087,-0.81317 2.48329,-1.07893 2.98523,-2.38673 0.76382,-1.99005 2.16162,-3.81814 3.41594,-4.46745 0.56963,-0.29488 2.13381,-0.7352 3.47594,-0.97848 1.34213,-0.24329 2.6672,-0.63045 2.9446,-0.86035 0.31083,-0.25761 1.86807,-0.37828 4.05835,-0.31446 1.95471,0.057 4.11534,-0.0819 4.80143,-0.30856 0.68609,-0.22666 2.1621,-1.35418 3.28004,-2.50559 1.11793,-1.1514 3.04096,-2.85225 4.27338,-3.77964 2.58856,-1.94787 2.23582,-1.91135 11.04632,-1.14409 6.23452,0.54295 9.29105,0.36869 10.18308,-0.58047 0.27345,-0.29098 0.97911,-1.63552 1.5681,-2.98789 2.36209,-5.42359 5.20772,-9.09876 7.48878,-9.67186 0.84513,-0.21234 9.86916,0.31827 13.68212,0.80448 l 1.55719,0.19858 0.44101,-1.75323 c 0.67562,-2.68596 1.37655,-3.48225 3.71454,-4.22 2.1395,-0.67512 3.00694,-1.36763 5.47877,-4.37384 2.72211,-3.31063 6.15695,-4.07956 9.77968,-2.18931 1.99255,1.03964 6.23542,1.46472 7.86708,0.78816 1.43418,-0.59468 2.91366,-3.50657 3.27255,-6.44105 0.13995,-1.14431 0.40834,-2.37966 0.59643,-2.74523 0.18807,-0.36556 1.49297,-1.2449 2.89976,-1.95408 3.47654,-1.75258 3.79584,-2.18144 2.88489,-3.87474 -0.98357,-1.82827 -2.40161,-2.8782 -3.5771,-2.64851 -0.52266,0.10212 -3.97279,0.95771 -7.66696,1.90129 -6.52857,1.66756 -6.76138,1.69952 -8.31359,1.14117 -0.8783,-0.31593 -2.81304,-0.67069 -4.29941,-0.78834 -3.75969,-0.2976 -5.73309,0.64495 -7.10025,3.39135 -0.53192,1.06854 -0.96713,2.23138 -0.96713,2.58409 0,0.77543 -0.21868,0.83016 -7.36886,1.84387 -7.31075,1.03646 -8.5982,1.34209 -11.33728,2.69129 -2.88474,1.42096 -4.94903,3.31382 -5.85853,5.37203 -1.20688,2.7312 -2.81247,3.78546 -5.70425,3.74551 -1.64296,-0.0227 -2.74136,-0.51265 -4.19891,-1.87299 -1.02038,-0.95232 -1.04609,-0.95535 -6.32974,-0.74597 -4.9344,0.19555 -5.48287,0.29348 -7.8474,1.40111 -3.37987,1.58329 -6.27452,3.86971 -7.71351,6.09277 -1.42571,2.20253 -2.13489,2.3819 -8.79613,2.2248 -7.47093,-0.17621 -7.59878,-0.15735 -8.93949,1.31752 -1.73709,1.9109 -3.71294,2.56741 -7.6277,2.53437 -2.807,-0.0238 -3.78251,0.14827 -6.42413,1.1324 -2.46309,0.9176 -3.93909,1.20442 -7.05636,1.37117 -3.61971,0.19363 -4.22181,0.34141 -7.36886,1.80861 -7.93329,3.6986 -10.55983,4.19966 -18.02915,3.43934 l -3.26537,-0.33241 -4.29244,2.01009 -4.29244,2.0101 -4.57351,-0.0731 c -3.16728,-0.0507 -5.95234,0.16286 -9.057884,0.69434 -7.455008,1.27582 -14.586296,0.99698 -16.46709,-0.64389 -0.870641,-0.75957 -1.627729,-5.00054 -1.574143,-8.81787 0.04483,-3.19381 0.91494,-6.60547 2.176047,-8.53218 0.294426,-0.44981 0.726603,-1.87382 0.960401,-3.16447 0.233802,-1.29065 1.031259,-4.08092 1.772145,-6.20062 0.740885,-2.1197 1.347292,-4.4498 1.347568,-5.178 2.79e-4,-0.72819 -0.542223,-3.79207 -1.205556,-6.80861 -1.298007,-5.90274 -1.570851,-9.94988 -0.82122,-12.1812 0.845715,-2.51732 4.440352,-4.79829 6.676396,-4.23649 0.491996,0.12359 1.069073,-0.0446 1.445465,-0.4214 0.534448,-0.53501 0.589391,-1.15583 0.373871,-4.22489 l -0.252624,-3.59773 2.388366,-2.13871 c 4.067384,-3.64223 6.041888,-5.60809 6.041888,-6.01546 0,-0.21513 -0.68019,-1.21513 -1.51156,-2.22224 -0.831361,-1.0071 -1.511562,-1.95335 -1.511562,-2.10277 0,-0.14944 0.483031,-1.00369 1.073397,-1.89835 1.284055,-1.9459 2.142765,-4.08577 2.498825,-6.22695 0.14396,-0.8657 0.57387,-1.85677 0.95533,-2.20235 0.38148,-0.3456 2.43591,-1.13386 4.5654,-1.75172 4.36646,-1.2669 5.55032,-1.97238 7.11147,-4.23783 1.97334,-2.8636 2.26946,-3.01058 5.4623,-2.71107 2.69553,0.25285 2.85064,0.22413 3.38641,-0.62724 0.30883,-0.49073 0.67007,-1.66544 0.80277,-2.61045 0.20254,-1.44231 0.41505,-1.78387 1.32343,-2.1271 1.3877,-0.52435 2.30732,-1.94325 2.5804,-3.98136 0.17091,-1.27553 0.70066,-2.17059 2.52728,-4.27009 1.27109,-1.46095 3.9521,-4.97166 5.95781,-7.80156 3.33187,-4.70101 8.47854,-10.50239 10.9128,-12.30102 0.73452,-0.54274 1.14832,-1.42305 1.66939,-3.55152 0.83037,-3.39196 1.7992,-4.51369 4.72834,-5.47466 4.72398,-1.5498 8.78933,-4.26698 10.05772,-6.72234 0.31184,-0.60368 0.68663,-1.80807 0.83285,-2.67641 l 0.26585,-1.5788 2.95962,-1.01011 c 3.42197,-1.1679 4.48584,-2.02381 5.11074,-4.11173 0.24711,-0.82564 0.82488,-1.7438 1.28392,-2.04036 0.45905,-0.29655 2.62016,-0.7289 4.80248,-0.96077 6.21222,-0.66007 9.10777,-1.18329 9.29824,-1.68016 0.0965,-0.25179 -0.16683,-1.2132 -0.58522,-2.13643 -1.07384,-2.36957 -1.04017,-5.27789 0.0729,-6.29776 0.46765,-0.42846 1.1904,-0.88167 1.60612,-1.00714 0.69718,-0.21041 7.86179,0.17979 13.85488,0.75457 2.89532,0.27768 4.29144,0.0268 4.61991,-0.83002 0.1268,-0.33078 0.0394,-2.22403 -0.19427,-4.20721 -0.52597,-4.46438 -0.12401,-6.22238 1.67369,-7.31963 1.55913,-0.95165 3.89324,-0.94301 5.47152,0.02 1.63248,0.99636 1.82426,1.63003 1.02817,3.39727 -0.8434,1.87226 -0.53343,3.69593 0.85329,5.0202 1.40672,1.34336 2.7561,1.79259 5.38448,1.79259 1.9412,0 3.26493,-0.43351 10.46186,-3.42614 8.96182,-3.72651 15.61205,-6.81589 18.20437,-8.45688 1.55366,-0.9835 1.63963,-1.12725 1.45355,-2.43053 -0.10878,-0.76185 -0.9688,-3.03403 -1.91115,-5.04926 -2.20252,-4.710121 -2.68346,-5.043922 -7.22364,-5.013644 -5.08088,0.03402 -6.98539,0.622262 -9.36535,2.893314 -2.53033,2.41453 -5.91584,4.08143 -8.29036,4.08183 -1.70686,3e-4 -2.95564,-0.6661 -2.95564,-1.57724 0,-1.05525 1.43763,-3.162044 3.39659,-4.977579 2.07117,-1.919525 2.51947,-2.134353 9.12149,-4.370886 4.01802,-1.361168 9.18124,-3.459702 12.25522,-4.981001 5.79114,-2.865999 7.20446,-3.138302 11.50101,-2.215901 1.83244,0.3934 2.05877,0.348624 4.78145,-0.945706 3.45079,-1.640478 4.56042,-1.734154 4.89168,-0.412944 0.48266,1.925051 -0.037,2.576434 -3.38143,4.23671 -9.609,4.770526 -9.25718,9.720448 0.83015,11.679957 4.13172,0.8026 6.34696,0.71836 7.15037,-0.2719 3.12261,-3.848907 4.13452,-4.485402 7.13091,-4.485402 1.04902,0 3.4084,0.559056 5.77361,1.368053 l 3.99965,1.368054 10.5823,-0.971759 c 5.82024,-0.534474 12.62289,-1.064587 15.11696,-1.178049 2.49407,-0.113461 6.66031,-0.460532 9.25832,-0.771292 2.59799,-0.310753 6.10731,-0.566484 7.79851,-0.568287 2.84198,-0.003 3.21245,-0.09638 4.89103,-1.232705 3.513,-2.378087 4.63212,-6.600408 2.4184,-9.124318 -2.05726,-2.345523 -5.82744,-2.601 -11.55715,-0.783145 -1.13227,0.359245 -4.48985,0.721701 -8.65232,0.934062 -3.8827,0.198085 -7.69404,0.597234 -8.88042,0.930021 -3.02766,0.849268 -7.52989,1.107157 -8.69148,0.497844 -1.35533,-0.710949 -2.73771,-3.578327 -2.49432,-5.173871 0.26075,-1.709424 1.02521,-2.471476 3.47971,-3.46872 2.58727,-1.051189 4.3446,-0.860485 7.47849,0.811567 3.30321,1.76238 5.74044,1.758495 8.50097,-0.01361 1.91112,-1.22679 2.21554,-1.300941 5.47217,-1.332908 2.95756,-0.0291 3.71744,-0.175861 5.33792,-1.03143 2.36211,-1.247139 4.257,-3.195392 4.88425,-5.021816 l 0.48197,-1.403441 3.77238,5.044327 c 17.05808,22.809576 28.92777,49.106565 34.29171,75.972395 2.81516,14.09996 3.78305,25.52637 3.51196,41.46026 -0.35803,21.04516 -3.25962,38.07218 -9.7221,57.05123 -8.741,25.67061 -21.68042,47.26883 -41.13358,68.65932 l -2.77974,3.05657 h 23.70881 c 17.62672,0 24.1055,0.11898 25.25515,0.46378 1.97921,0.5936 4.09814,2.71473 4.69113,4.69601 0.66241,2.21315 0.66241,44.20973 0,46.42289 -0.59299,1.98127 -2.71192,4.1024 -4.69113,4.696 -2.11915,0.63554 -365.8128358,0.60606 -367.8054805,-0.0299 z M 98.453688,248.68287 c 1.174095,-0.8726 2.678592,-3.20115 3.469142,-5.3693 0.34696,-0.9515 1.11477,-2.86502 1.70627,-4.25225 0.5915,-1.38724 1.07546,-3.14326 1.07546,-3.90227 0,-1.5112 0.44808,-2.5902 1.60334,-3.86098 0.41421,-0.45563 0.90484,-1.64146 1.0903,-2.63519 0.18546,-0.99374 0.73298,-2.40833 1.21672,-3.14357 0.48374,-0.73522 0.99193,-2.16745 1.12931,-3.18272 0.30021,-2.21863 1.31393,-3.96354 3.09084,-5.32026 1.61949,-1.23653 1.72549,-2.51522 0.31684,-3.82206 -1.36665,-1.26788 -3.46339,-1.25724 -4.98601,0.0253 -0.62224,0.52412 -2.00523,2.60941 -3.07332,4.63397 -1.06808,2.02457 -2.45983,4.61727 -3.09276,5.76158 -1.06087,1.91797 -1.13556,2.29156 -0.95588,4.78069 l 0.19491,2.70012 -1.375157,0.89356 c -1.770701,1.1506 -2.326605,2.30101 -2.333495,4.82908 -0.0053,1.90462 -0.111118,2.14165 -1.552687,3.47387 -2.402403,2.22019 -3.367131,3.72885 -3.352062,5.24202 0.03477,3.50427 3.112455,5.16678 5.82822,3.14842 z m 193.278972,-1.26084 c 1.67311,-1.26204 4.17824,-3.60267 5.56694,-5.20139 1.3887,-1.59873 3.64382,-3.65141 5.0114,-4.56153 3.05285,-2.03167 5.69855,-4.52887 5.69855,-5.37874 0,-1.76648 -4.1691,-2.64137 -8.92616,-1.87318 -6.44644,1.041 -16.42203,4.98663 -17.75455,7.02242 -0.97169,1.48453 -0.50782,3.86394 1.40918,7.22842 3.39711,5.96215 4.36177,6.25859 8.99464,2.764 z M 261.74932,109.10288 c 2.40984,-1.52616 2.98198,-3.22793 1.83302,-5.45209 -1.20278,-2.32831 -5.91908,-3.05399 -8.07054,-1.24177 -0.83973,0.7073 -1.16267,1.30637 -1.16267,2.15674 0,1.34171 2.10706,5.0764 3.00003,5.31743 1.51994,0.41027 2.90924,0.16392 4.40016,-0.78031 z M 35.159147,301.40063 c -4.847662,-3.59911 -5.893854,-4.92424 -6.199041,-7.85179 -0.138187,-1.32561 -0.345248,-2.92087 -0.46013,-3.54505 -0.271555,-1.47538 -0.01164,-1.18818 2.910098,3.21541 1.3114,1.97653 3.479555,5.09169 4.818121,6.92257 1.338565,1.83089 2.365281,3.39744 2.281584,3.48122 -0.08368,0.0838 -1.591475,-0.91629 -3.350632,-2.22236 z m 5.079867,-6.75002 -1.384168,-1.21658 0.234179,-2.84997 c 0.635675,-7.73633 0.67595,-7.94718 1.666972,-8.72753 1.409885,-1.11016 3.667805,-0.9933 4.818289,0.24937 1.349208,1.45733 1.503806,3.14247 0.743543,8.10457 -0.628366,4.10123 -0.75453,4.4713 -1.718654,5.04142 -1.569414,0.92804 -2.815695,0.75617 -4.360161,-0.6013 z M 26.63856,285.18069 C 11.717738,259.81037 3.0506097,232.18955 0.79731225,202.8285 c -0.50193753,-6.54028 -0.50193753,-21.49058 0,-28.03086 C 5.3668368,115.25567 36.789329,62.387018 86.943719,29.855436 109.88836,14.972889 138.15539,4.5895468 164.12782,1.5033649 c 2.23427,-0.265489 4.06232,-0.60009308 4.06232,-0.74356634 0,-0.14347322 0.2976,-0.18738644 0.66131,-0.0975852 0.36374,0.0897986 2.36181,-0.007007 4.44021,-0.21501594 4.17378,-0.41781785 26.6542,-0.62335632 28.15282,-0.25740175 0.51961,0.12688279 2.60326,0.30780979 4.63036,0.40206008 2.02708,0.0942524 3.85938,0.2788677 4.07175,0.41026125 0.21238,0.1313938 0.93457,0.2026501 1.60485,0.1583472 0.67029,-0.044299 1.47378,0.00891 1.78553,0.1181481 0.31178,0.1092855 3.4577,0.6636955 6.99098,1.2320228 20.74207,3.3363673 43.19635,11.3635609 62.16294,22.2226689 7.95798,4.556243 25.78646,16.963751 25.20779,17.543028 -0.0889,0.08893 -2.52201,0.507674 -5.40699,0.930509 -2.88499,0.422828 -7.28725,1.184233 -9.78279,1.692009 -3.31935,0.675398 -5.75563,0.923229 -9.07567,0.923229 -4.10985,0 -4.70505,0.08886 -6.30444,0.941171 -2.87105,1.529958 -13.61815,3.696475 -18.63393,3.756426 -4.01367,0.04796 -4.2508,0.09819 -6.88706,1.458876 -2.54674,1.314464 -2.95491,1.40919 -6.07213,1.40919 -3.94395,0 -6.40892,0.651595 -10.09211,2.667755 -3.32572,1.820482 -5.46969,2.595078 -18.32768,6.621638 -26.96286,8.443572 -58.98033,22.205225 -70.89723,30.472811 -6.49046,4.502894 -16.71622,12.214454 -21.30801,16.069024 -2.18231,1.83194 -5.32581,4.08401 -6.98556,5.00459 -8.53279,4.73274 -17.8159,12.42327 -23.334552,19.33134 -2.751356,3.44406 -3.083425,3.70553 -7.091028,5.58355 -2.606706,1.22153 -3.667933,1.99474 -5.630888,4.10263 -4.126828,4.43153 -6.775929,8.38926 -9.89097,14.77701 -2.352204,4.82347 -3.171791,6.16905 -3.86335,6.3428 -1.623896,0.408 -3.930587,2.41668 -4.771063,4.15469 -0.521874,1.07916 -0.833121,2.45338 -0.842933,3.72176 -0.0189,2.41554 -0.280895,2.96825 -2.569459,5.41639 -0.972469,1.04028 -2.432405,3.16812 -3.244305,4.72854 -0.945108,1.81643 -2.411179,3.78744 -4.075124,5.47865 -2.529316,2.57077 -2.592676,2.68225 -2.365058,4.16112 0.723152,4.69838 0.70865,5.30415 -0.168189,7.02551 -0.47108,0.92479 -2.650552,4.83066 -4.843275,8.67969 -2.192731,3.84903 -4.55435,8.27493 -5.248056,9.83535 -1.204138,2.7086 -1.250781,2.98279 -1.029592,6.05253 0.229644,3.18696 0.217701,3.24553 -1.347693,6.61996 -4.323176,9.31916 -6.448935,16.00581 -7.341276,23.09226 -0.339409,2.69538 -0.981635,7.4541 -1.427167,10.57493 -0.637102,4.46273 -0.81532,7.59247 -0.834692,14.65837 -0.01353,4.94127 -0.059,8.98418 -0.101004,8.98422 -0.042,7e-5 -0.702085,-1.06382 -1.466848,-2.36416 z M 144.76094,110.2056 c -0.76328,-0.41994 -1.37443,-1.07538 -1.44513,-1.54984 -0.19313,-1.29614 1.67137,-4.06216 3.82265,-5.67087 2.08726,-1.56082 5.58602,-3.446416 6.39587,-3.446915 0.26672,-1.62e-4 1.59025,-0.52546 2.94121,-1.167312 1.79655,-0.853565 3.06528,-1.183703 4.72362,-1.229122 l 2.26735,-0.06206 v 2.40332 c 0,2.242329 -0.076,2.456319 -1.13367,3.194569 -0.62352,0.43519 -1.75525,1.31383 -2.51498,1.95255 -0.75971,0.63873 -2.03509,1.39669 -2.83417,1.68438 -0.79909,0.28766 -2.10846,1.08284 -2.90973,1.767 -3.07967,2.6296 -6.83698,3.48667 -9.31302,2.12435 z M 275.373,87.784045 c -1.26569,-0.99662 -1.32332,-2.784769 -0.14543,-4.512021 1.86843,-2.73988 7.95033,-4.909103 13.77928,-4.914652 l 3.10389,-0.003 L 292,80.407843 c -0.0998,1.850223 -0.29476,2.263632 -1.97021,4.176766 l -1.85949,2.123291 -2.7794,-0.84276 -2.77939,-0.842756 -0.62162,0.816364 c -1.10254,1.448032 -3.17899,2.729346 -4.42298,2.729346 -0.65902,0 -1.6463,-0.352819 -2.19392,-0.784026 z m 56.99804,-22.18821 c -4.26921,-5.064623 -13.84356,-14.733783 -19.1983,-19.38844 -3.74827,-3.258204 -4.02348,-3.58626 -3.24919,-3.872983 0.46526,-0.172308 4.97119,-0.351761 10.01316,-0.398785 9.15431,-0.08542 9.16855,-0.08428 10.11515,0.802836 1.8104,1.696654 2.49281,4.125773 3.28409,11.690339 0.41452,3.96275 1.17919,8.811547 1.73302,10.989066 0.54516,2.143376 0.92356,3.964731 0.84091,4.047465 -0.0827,0.08273 -1.67512,-1.658545 -3.53884,-3.869498 z"
       id="path288" />
  </g>
</svg>
