<?xml version="1.0" encoding="UTF-8" standalone="no"?>
<!-- Created with Inkscape (http://www.inkscape.org/) -->

<svg
   width="100mm"
   height="100mm"
   viewBox="0 0 100 100"
   version="1.1"
   id="svg10942"
   inkscape:version="1.2.1 (9c6d41e410, 2022-07-14)"
   sodipodi:docname="Logo_100x100mm.svg"
   xmlns:inkscape="http://www.inkscape.org/namespaces/inkscape"
   xmlns:sodipodi="http://sodipodi.sourceforge.net/DTD/sodipodi-0.dtd"
   xmlns="http://www.w3.org/2000/svg"
   xmlns:svg="http://www.w3.org/2000/svg">
  <sodipodi:namedview
     id="namedview10944"
     pagecolor="#ffffff"
     bordercolor="#000000"
     borderopacity="0.25"
     inkscape:showpageshadow="2"
     inkscape:pageopacity="0.0"
     inkscape:pagecheckerboard="0"
     inkscape:deskcolor="#d1d1d1"
     inkscape:document-units="mm"
     showgrid="false"
     inkscape:zoom="2.1801667"
     inkscape:cx="188.74704"
     inkscape:cy="188.97638"
     inkscape:window-width="1920"
     inkscape:window-height="1027"
     inkscape:window-x="-8"
     inkscape:window-y="22"
     inkscape:window-maximized="1"
     inkscape:current-layer="layer1" />
  <defs
     id="defs10939">
	
	
</defs>
  <g
     inkscape:label="Layer 1"
     inkscape:groupmode="layer"
     id="layer1">
    <g
       id="g10776"
       transform="matrix(0.59851567,0,0,0.59869481,-189.72947,-154.4932)">
		<ellipse
   class="st0"
   cx="400.54001"
   cy="341.57001"
   rx="83.540001"
   ry="83.510002"
   id="ellipse14140"
   style="clip-rule:evenodd;fill:#ffffff;fill-rule:evenodd" />

		<path
   class="st1"
   d="m 400.55,258.05 c 46.11,0 83.51,37.4 83.51,83.51 0,46.11 -37.4,83.51 -83.51,83.51 -46.11,0 -83.51,-37.4 -83.51,-83.51 0,-46.12 37.4,-83.51 83.51,-83.51 z m 37.96,21.35 c -3.76,0.73 -2.3,0.49 -6.02,1.28 -0.32,0.07 -1.48,-0.34 -2.57,-0.11 -1.23,0.26 -2.41,1.17 -2.79,1.25 -0.89,0.18 -2.64,-0.08 -3.51,0.15 -1.82,0.47 -2.47,1.28 -4.2,1.91 -3.3,1.2 -7.61,2.36 -11.07,3.56 -8.21,2.85 -16.42,6.32 -24.68,10.62 -4.58,3.13 -9,6.34 -13.22,10 -4.86,2.36 -9.66,6.54 -12.13,9.94 -1.22,1.69 -3.11,1.39 -4.48,2.9 -1.22,1.34 -2.58,2.8 -3.67,4.67 -0.97,1.65 -1.67,3.69 -2.62,5.16 -1.31,0.26 -3.11,1.77 -2.8,4.02 0.18,1.33 -1.79,2.12 -2.36,3.6 -0.61,1.58 -1.83,2.85 -2.68,3.46 -1.07,0.76 0.35,2.77 -0.11,3.7 -1.55,3.14 -4.22,7.06 -5.19,9.72 -0.58,1.6 0.61,2.01 -0.17,3.63 -1.16,2.41 -2.19,4.82 -2.98,7.32 -0.73,2.32 -0.81,5.1 -1.22,7.57 -0.76,4.5 -0.79,9.95 -0.06,15.05 1.47,2.03 5.92,4.83 9.03,6.13 0.71,0.01 9.4,6.34 10.16,5.76 l 1.52,-1.16 c 0.56,-0.42 0.51,-0.59 0.72,0.09 1.03,3.47 3.54,4.68 5.78,7.93 l 9.38,-6.18 c 1.36,-1.14 11.62,-5.95 14.3,-6 3.44,-0.66 6.84,-1.6 10.2,-2.87 1.1,-4.19 4,-2.43 4.86,-3.69 2.21,0.36 4.28,0.44 5.26,-1.42 l 2.28,-1.87 c 1.06,-0.87 7.72,0.99 8.95,-0.31 1.22,-3.16 2.58,-5.76 4.64,-5.62 l 5.97,0.45 c 0.52,-3.47 1.97,-1.86 3.43,-3.46 1.52,-2.46 3.41,-3.27 5.84,-1.67 2.04,0.13 3.88,1.24 4.3,-3.65 0.11,-1.25 3.3,-1.49 2.89,-2.56 -0.18,-0.48 -1.03,-1.76 -1.74,-1.52 -2.11,0.74 -5.3,1.4 -6.34,1.63 -3.29,-1.18 -5.7,-0.95 -6.16,2.39 l -4.94,0.78 c -1.14,-0.24 -5.4,1.29 -5.95,3.45 -0.38,1.52 -2.86,2.12 -4.2,0.84 -0.6,-0.57 -0.34,-0.67 -1.23,-0.63 -1.33,0.07 -2.65,0.14 -3.98,0.21 -2.56,0.96 -4.29,2.27 -5.01,3.99 -1.57,0.47 -6.1,-0.21 -7.12,0.36 -0.9,1.52 -2.6,1.84 -4.87,1.47 -2.01,0.42 -2.2,1.42 -6.35,1.2 -6.26,3.02 -6.49,2.67 -10.8,2.1 -1.51,0.39 -3,1.57 -4.38,1.8 -1.36,0.23 -2.91,-0.27 -4.21,0.02 -4.72,1.04 -9.11,0.98 -9.18,-0.64 -0.91,-3.52 -0.35,-5.7 0.87,-7.65 0.14,-1.57 0.7,-3.18 1.21,-4.47 0.47,-1.18 0.42,-1.45 0.13,-2.71 -1.11,-4.8 -2.02,-8.18 1.7,-9.05 0.27,-0.06 1.19,0.27 1.34,-0.23 0.24,-0.84 -0.4,-2.82 0.1,-3.47 1.17,-1.51 2.89,-2.16 3.46,-3.35 0.25,-0.51 -1.85,-1.75 -1.11,-2.38 1.08,-1.48 1.34,-2.61 1.48,-3.65 0.17,-1.29 2.85,-1.14 4.39,-2.04 0.99,-0.58 1.51,-2.15 2.35,-2.43 1.27,-0.41 3.02,1.46 3.05,-1.7 0.01,-0.65 -0.03,-0.4 0.52,-0.57 0.86,-0.28 1.26,-1.32 1.3,-2.52 1.46,-1.6 2.79,-3.23 3.97,-5.08 1.08,-1.69 3.51,-4.28 4.96,-5.31 0.46,-2.16 0.48,-3.07 2.32,-3.64 3.16,-0.98 4.9,-2.42 4.87,-4.54 -0.01,-0.7 2.21,-0.68 3.15,-1.51 0.69,-0.61 0.44,-1.76 1.15,-2.08 0.69,-0.31 4.34,-0.44 5.92,-0.83 0.72,-0.18 0.22,-0.39 0.06,-0.86 -1.19,-2.61 -0.18,-4.04 2.46,-3.5 3.26,-0.13 4.67,0.68 5.77,0.36 0.85,-0.25 0.71,-0.57 0.63,-1.32 l -0.23,-2.08 c -0.22,-2.85 2.96,-3.14 4.05,-1.53 0.43,0.64 -0.28,0.73 -0.48,1.68 0.13,2.68 3.55,2.4 4.15,2.15 3.94,-1.62 9.88,-3.95 11.91,-5.41 0.71,-0.51 -0.08,-1.6 -0.5,-2.53 -0.48,-1.06 -0.69,-2.5 -2.17,-2.6 -1.09,-0.08 -4.07,-0.11 -4.95,0.97 -2.68,3.27 -8.14,2.81 -3.49,-1.26 0.61,-0.53 0.98,-0.68 1.74,-0.92 3.46,-1.05 6.77,-2.28 9.63,-4.06 1.47,0.05 1.99,-0.03 3.32,0.32 1.1,0.29 3.26,-1.84 3.76,-1 0.31,0.52 0.46,1.29 -0.25,1.74 -6.92,2.86 -4.36,5.55 1.01,5.81 1.35,0.07 1.08,0.05 1.77,-0.96 1.24,-1.8 3.37,-1.61 5.44,-0.73 1.1,0.47 1.38,0.58 2.61,0.48 2.6,-0.21 6.68,-0.72 8.38,-0.75 5.29,-0.07 5.53,-0.68 10.82,-0.77 3.44,-1.2 3.78,-6.81 -2.78,-4.83 -1.47,0.44 -2.38,0.56 -3.95,0.58 l -2.31,0.03 c -1.33,-0.05 -4.99,1.62 -6.19,0.22 -1.02,-1.19 -1.07,-3.01 0.5,-3.45 1.73,-0.81 1.66,-0.69 3.54,0.04 3.25,2.25 4.39,-1.09 5.58,-0.45 2.98,0.6 6.17,-1.9 5.29,-4.42 -1.49,-4.25 -0.46,-8.74 -2.37,-10.77 -0.65,-0.69 -3.59,-0.36 -5.02,-0.37 -3.84,-0.02 -8.56,0.68 -13.31,1.7 -1.01,0.22 -3.02,-0.08 -4.03,0.08 -1.02,0.16 -1.04,0.68 -2.04,0.87 z m 3.22,83.3 c 1.27,-1.01 6.08,-2.77 8.67,-2.83 1.01,-0.03 2.28,-0.07 2.73,0.85 -0.1,0.88 -1.83,1.9 -3.64,3.1 l -2.13,2.5 c -1.67,1.11 -3.05,3.05 -4.23,1.59 -0.81,-1.37 -3.01,-3.93 -1.4,-5.21 z m -81.9,1.36 c 0.87,-0.54 -0.58,-2.83 1.83,-3.64 0.41,-0.14 -0.14,-1.14 0.05,-2.37 0.26,-1.62 1.07,-1.7 1.47,-2.98 -0.02,0.19 0.2,-0.4 0.57,-1.12 0.37,-0.72 0.89,-1.56 1.45,-1.85 1.44,-0.76 2.87,1.03 1.86,1.7 -1.04,0.72 -1.59,1.61 -1.64,2.66 -0.06,1.18 -0.04,0.6 -0.63,1.47 -0.18,0.27 -0.3,0.62 -0.35,1.06 -0.1,0.8 0.04,0.71 -0.51,1.25 -0.61,0.6 -0.82,1.42 -0.73,2.41 l -0.9,2.07 c -0.86,3.26 -2.82,4.5 -4,3.04 -0.84,-1.36 -0.09,-2.42 1.53,-3.7 z m 70.42,-60.88 c 3.66,-0.92 4.13,2.22 2.76,2.93 -1.67,1.12 -1.35,0.66 -2.44,0.44 -0.82,-1.37 -1.93,-2.09 -0.32,-3.37 z m 11.27,-9.99 c 1.65,-0.43 1.67,-0.47 4.27,-0.53 1.01,-0.02 -0.01,0.96 0.43,1.88 l -1.17,1.31 c -0.6,0.67 -0.51,0.75 -1.37,0.48 l -1.65,-0.52 c -1.53,1.78 -2.56,2.22 -3.74,0.76 -0.57,-1.94 2.07,-3.17 3.23,-3.38 z m -56.5,8.84 c 1.65,-0.43 1.3,-1.05 3.89,-1.11 1.01,-0.02 0.04,1.36 0.49,2.28 l -1.31,0.84 c -0.95,1.06 -1.14,0.91 -2.47,1.46 -1.53,1.78 -4.11,2.39 -5.29,0.93 -0.58,-1.92 3.53,-4.19 4.69,-4.4 z m -50.51,80.91 c 2.29,-2.16 3.91,0.71 3.14,2.61 l -0.43,2.78 c -1.42,0.97 -1.89,0.83 -3.07,-0.63 -0.1,-2.02 0.36,-2.64 0.36,-4.76 z"
   id="path14137"
   style="clip-rule:evenodd;fill:#4677b7;fill-rule:evenodd" />

	</g>
  </g>
</svg>
