<?xml version="1.0" encoding="UTF-8" standalone="no"?>
<!-- Created with Inkscape (http://www.inkscape.org/) -->

<svg
   width="100mm"
   height="100mm"
   viewBox="0 0 100 100"
   version="1.1"
   id="svg1945"
   inkscape:version="1.2.1 (9c6d41e410, 2022-07-14)"
   sodipodi:docname="Board Front 100 x 100.svg"
   xmlns:inkscape="http://www.inkscape.org/namespaces/inkscape"
   xmlns:sodipodi="http://sodipodi.sourceforge.net/DTD/sodipodi-0.dtd"
   xmlns="http://www.w3.org/2000/svg"
   xmlns:svg="http://www.w3.org/2000/svg">
  <sodipodi:namedview
     id="namedview1947"
     pagecolor="#505050"
     bordercolor="#eeeeee"
     borderopacity="1"
     inkscape:showpageshadow="0"
     inkscape:pageopacity="0"
     inkscape:pagecheckerboard="0"
     inkscape:deskcolor="#505050"
     inkscape:document-units="mm"
     showgrid="false"
     inkscape:zoom="2.1457708"
     inkscape:cx="188.97638"
     inkscape:cy="188.97638"
     inkscape:window-width="1920"
     inkscape:window-height="1014"
     inkscape:window-x="-8"
     inkscape:window-y="30"
     inkscape:window-maximized="1"
     inkscape:current-layer="layer1" />
  <defs
     id="defs1942">
    <inkscape:path-effect
       effect="fillet_chamfer"
       id="path-effect2186"
       is_visible="true"
       lpeversion="1"
       nodesatellites_param="F,0,0,1,0,2,0,1 @ F,0,0,1,0,2,0,1 @ F,0,0,1,0,2,0,1 @ F,0,0,1,0,2,0,1"
       unit="mm"
       method="auto"
       mode="F"
       radius="2"
       chamfer_steps="1"
       flexible="false"
       use_knot_distance="true"
       apply_no_radius="true"
       apply_with_radius="true"
       only_selected="false"
       hide_knots="false" />
  </defs>
  <g
     inkscape:label="Layer 1"
     inkscape:groupmode="layer"
     id="layer1">
    <path
       style="fill:none;stroke:#000000;stroke-width:0.264583"
       d="M 50.000049,0.1317749 A 49.868057,49.868057 0 0 0 0.1317749,50.000049 49.868057,49.868057 0 0 0 14.655953,85.130721 H 2.1311361 A 2,2 0 0 0 0.13074137,87.131116 V 97.868962 A 2,2 0 0 0 2.1311361,99.86884 H 97.868962 A 2,2 0 0 0 99.86884,97.868962 V 87.131116 A 2,2 0 0 0 97.868962,85.130721 H 85.343628 A 49.868057,49.868057 0 0 0 99.867806,50.000049 49.868057,49.868057 0 0 0 85.805098,15.29209 C 85.73656,14.770588 85.664495,14.291802 85.608728,14.074076 85.29223,12.838357 85.020613,12.68006 83.093119,12.69845 A 49.868057,49.868057 0 0 0 50.000049,0.1317749 Z"
       id="path2267" />
    <path
       style="fill:none;stroke:#000000;stroke-width:0.264583"
       d="m 50.003174,50.302887 a 0.01089869,0.3051632 0 0 1 0,0.0018 l -0.0109,-0.0018 z"
       id="path2063" />
  </g>
</svg>
