%TF.GenerationSoftware,KiCad,Pcbnew,(6.0.7)*%
%TF.CreationDate,2022-08-23T13:49:22-07:00*%
%TF.ProjectId,DC31_Cnet_Badge_Rear,44433331-5f43-46e6-9574-5f4261646765,rev?*%
%TF.SameCoordinates,Original*%
%TF.FileFunction,Copper,L2,Bot*%
%TF.FilePolarity,Positive*%
%FSLAX46Y46*%
G04 Gerber Fmt 4.6, Leading zero omitted, Abs format (unit mm)*
G04 Created by KiCad (PCBNEW (6.0.7)) date 2022-08-23 13:49:22*
%MOMM*%
%LPD*%
G01*
G04 APERTURE LIST*
G04 Aperture macros list*
%AMRoundRect*
0 Rectangle with rounded corners*
0 $1 Rounding radius*
0 $2 $3 $4 $5 $6 $7 $8 $9 X,Y pos of 4 corners*
0 Add a 4 corners polygon primitive as box body*
4,1,4,$2,$3,$4,$5,$6,$7,$8,$9,$2,$3,0*
0 Add four circle primitives for the rounded corners*
1,1,$1+$1,$2,$3*
1,1,$1+$1,$4,$5*
1,1,$1+$1,$6,$7*
1,1,$1+$1,$8,$9*
0 Add four rect primitives between the rounded corners*
20,1,$1+$1,$2,$3,$4,$5,0*
20,1,$1+$1,$4,$5,$6,$7,0*
20,1,$1+$1,$6,$7,$8,$9,0*
20,1,$1+$1,$8,$9,$2,$3,0*%
%AMHorizOval*
0 Thick line with rounded ends*
0 $1 width*
0 $2 $3 position (X,Y) of the first rounded end (center of the circle)*
0 $4 $5 position (X,Y) of the second rounded end (center of the circle)*
0 Add line between two ends*
20,1,$1,$2,$3,$4,$5,0*
0 Add two circle primitives to create the rounded ends*
1,1,$1,$2,$3*
1,1,$1,$4,$5*%
%AMRotRect*
0 Rectangle, with rotation*
0 The origin of the aperture is its center*
0 $1 length*
0 $2 width*
0 $3 Rotation angle, in degrees counterclockwise*
0 Add horizontal line*
21,1,$1,$2,0,0,$3*%
G04 Aperture macros list end*
%TA.AperFunction,ComponentPad*%
%ADD10C,1.879600*%
%TD*%
%TA.AperFunction,ComponentPad*%
%ADD11C,1.778000*%
%TD*%
%TA.AperFunction,ComponentPad*%
%ADD12R,1.700000X1.700000*%
%TD*%
%TA.AperFunction,ComponentPad*%
%ADD13O,1.700000X1.700000*%
%TD*%
%TA.AperFunction,ComponentPad*%
%ADD14C,1.800000*%
%TD*%
%TA.AperFunction,ComponentPad*%
%ADD15RoundRect,0.250000X-0.625000X0.350000X-0.625000X-0.350000X0.625000X-0.350000X0.625000X0.350000X0*%
%TD*%
%TA.AperFunction,ComponentPad*%
%ADD16O,1.750000X1.200000*%
%TD*%
%TA.AperFunction,ComponentPad*%
%ADD17RotRect,1.700000X1.700000X135.000000*%
%TD*%
%TA.AperFunction,ComponentPad*%
%ADD18HorizOval,1.700000X0.000000X0.000000X0.000000X0.000000X0*%
%TD*%
%TA.AperFunction,ComponentPad*%
%ADD19C,2.000000*%
%TD*%
%TA.AperFunction,ViaPad*%
%ADD20C,0.800000*%
%TD*%
%TA.AperFunction,Conductor*%
%ADD21C,0.250000*%
%TD*%
G04 APERTURE END LIST*
D10*
%TO.P,B1,1,TXO*%
%TO.N,unconnected-(B1-Pad1)*%
X144065000Y-92380000D03*
%TO.P,B1,2,RXI*%
%TO.N,unconnected-(B1-Pad2)*%
X141525000Y-92380000D03*
%TO.P,B1,3,GND*%
%TO.N,GND*%
X138985000Y-92380000D03*
%TO.P,B1,4,GND*%
X136445000Y-92380000D03*
%TO.P,B1,5,2*%
%TO.N,Net-(B1-Pad5)*%
X133905000Y-92380000D03*
%TO.P,B1,6,\u002A3*%
%TO.N,Net-(B1-Pad6)*%
X131365000Y-92380000D03*
%TO.P,B1,7,4*%
%TO.N,Net-(B1-Pad7)*%
X128825000Y-92380000D03*
%TO.P,B1,8,\u002A5*%
%TO.N,Net-(B1-Pad8)*%
X126285000Y-92380000D03*
%TO.P,B1,9,\u002A6*%
%TO.N,Net-(B1-Pad9)*%
X123745000Y-92380000D03*
%TO.P,B1,10,7*%
%TO.N,unconnected-(B1-Pad10)*%
X121205000Y-92380000D03*
%TO.P,B1,11,8*%
%TO.N,Net-(B1-Pad11)*%
X118665000Y-92380000D03*
%TO.P,B1,12,\u002A9*%
%TO.N,Net-(B1-Pad12)*%
X116125000Y-92380000D03*
%TO.P,B1,13,\u002A10*%
%TO.N,unconnected-(B1-Pad13)*%
X116125000Y-107620000D03*
%TO.P,B1,14,11(MOSI)*%
%TO.N,unconnected-(B1-Pad14)*%
X118665000Y-107620000D03*
%TO.P,B1,15,12(MISO)*%
%TO.N,unconnected-(B1-Pad15)*%
X121205000Y-107620000D03*
%TO.P,B1,16,13(SCK)*%
%TO.N,unconnected-(B1-Pad16)*%
X123745000Y-107620000D03*
%TO.P,B1,17,A0*%
%TO.N,unconnected-(B1-Pad17)*%
X126285000Y-107620000D03*
%TO.P,B1,18,A1*%
%TO.N,unconnected-(B1-Pad18)*%
X128825000Y-107620000D03*
%TO.P,B1,19,A2*%
%TO.N,unconnected-(B1-Pad19)*%
X131365000Y-107620000D03*
%TO.P,B1,20,A3*%
%TO.N,unconnected-(B1-Pad20)*%
X133905000Y-107620000D03*
%TO.P,B1,21,VCC*%
%TO.N,unconnected-(B1-Pad21)*%
X136445000Y-107620000D03*
%TO.P,B1,22,RESET*%
%TO.N,unconnected-(B1-Pad22)*%
X138985000Y-107620000D03*
%TO.P,B1,23,GND*%
%TO.N,GND*%
X141525000Y-107620000D03*
%TO.P,B1,24,RAW*%
%TO.N,VCC*%
X144065000Y-107620000D03*
%TD*%
D11*
%TO.P,NP1,1,IN*%
%TO.N,Net-(B1-Pad7)*%
X69466800Y-72748600D03*
%TO.P,NP1,2,OUT*%
%TO.N,unconnected-(NP1-Pad2)*%
X85214800Y-69649800D03*
%TO.P,NP1,3,GND*%
%TO.N,GND*%
X98626000Y-101958600D03*
%TO.P,NP1,4,GND*%
X92784000Y-107826000D03*
%TO.P,NP1,5,VCC*%
%TO.N,VCC*%
X63548600Y-101933200D03*
%TO.P,NP1,6,VCC*%
X60449800Y-94287800D03*
%TD*%
D12*
%TO.P,J1,1,Pin_1*%
%TO.N,unconnected-(J1-Pad1)*%
X101250000Y-53025000D03*
D13*
%TO.P,J1,2,Pin_2*%
%TO.N,unconnected-(J1-Pad2)*%
X98710000Y-53025000D03*
%TD*%
D12*
%TO.P,U1,1,OUT*%
%TO.N,Net-(S1-Pad3)*%
X132400000Y-70000000D03*
D13*
%TO.P,U1,2,GND*%
%TO.N,GND*%
X132400000Y-72540000D03*
%TO.P,U1,3,BATT*%
%TO.N,Net-(J5-Pad1)*%
X132400000Y-75080000D03*
%TO.P,U1,4,GND*%
%TO.N,GND*%
X132400000Y-77620000D03*
%TO.P,U1,5,GND*%
X132400000Y-80160000D03*
%TO.P,U1,6,VIN*%
%TO.N,Net-(S1-Pad1)*%
X132400000Y-82700000D03*
%TD*%
D12*
%TO.P,J2,1,Pin_1*%
%TO.N,unconnected-(J2-Pad1)*%
X134290000Y-141250000D03*
D13*
%TO.P,J2,2,Pin_2*%
%TO.N,unconnected-(J2-Pad2)*%
X131750000Y-141250000D03*
%TO.P,J2,3,Pin_3*%
%TO.N,unconnected-(J2-Pad3)*%
X134290000Y-143790000D03*
%TO.P,J2,4,Pin_4*%
%TO.N,unconnected-(J2-Pad4)*%
X131750000Y-143790000D03*
%TD*%
D14*
%TO.P,S1,1*%
%TO.N,Net-(S1-Pad1)*%
X62223298Y-128965602D03*
%TO.P,S1,2*%
%TO.N,VCC*%
X60789357Y-126917722D03*
%TO.P,S1,3*%
%TO.N,Net-(S1-Pad3)*%
X59355416Y-124869842D03*
%TO.P,S1,4*%
%TO.N,Net-(S1-Pad1)*%
X64844585Y-127130157D03*
%TO.P,S1,5*%
%TO.N,VCC*%
X63410643Y-125082277D03*
%TO.P,S1,6*%
%TO.N,Net-(S1-Pad3)*%
X61976702Y-123034397D03*
%TD*%
D15*
%TO.P,J5,1,Pin_1*%
%TO.N,Net-(J5-Pad1)*%
X141300000Y-114700000D03*
D16*
%TO.P,J5,2,Pin_2*%
%TO.N,GND*%
X141300000Y-116700000D03*
%TD*%
D17*
%TO.P,J4,1,Pin_1*%
%TO.N,VCC*%
X58302388Y-61873277D03*
D18*
%TO.P,J4,2,Pin_2*%
%TO.N,GND*%
X60098439Y-63669328D03*
%TO.P,J4,3,Pin_3*%
%TO.N,Net-(B1-Pad5)*%
X60098439Y-60077226D03*
%TO.P,J4,4,Pin_4*%
%TO.N,Net-(B1-Pad6)*%
X61894490Y-61873277D03*
%TO.P,J4,5,Pin_5*%
%TO.N,Net-(B1-Pad11)*%
X61894490Y-58281175D03*
%TO.P,J4,6,Pin_6*%
%TO.N,Net-(B1-Pad12)*%
X63690542Y-60077226D03*
%TD*%
D12*
%TO.P,J3,1,Pin_1*%
%TO.N,unconnected-(J3-Pad1)*%
X68290000Y-141250000D03*
D13*
%TO.P,J3,2,Pin_2*%
%TO.N,unconnected-(J3-Pad2)*%
X65750000Y-141250000D03*
%TO.P,J3,3,Pin_3*%
%TO.N,unconnected-(J3-Pad3)*%
X68290000Y-143790000D03*
%TO.P,J3,4,Pin_4*%
%TO.N,unconnected-(J3-Pad4)*%
X65750000Y-143790000D03*
%TD*%
D19*
%TO.P,SW2,1,1*%
%TO.N,Net-(B1-Pad9)*%
X60750000Y-140250000D03*
X54250000Y-140250000D03*
%TO.P,SW2,2,2*%
%TO.N,GND*%
X54250000Y-144750000D03*
X60750000Y-144750000D03*
%TD*%
%TO.P,SW1,1,1*%
%TO.N,Net-(B1-Pad8)*%
X145750000Y-140250000D03*
X139250000Y-140250000D03*
%TO.P,SW1,2,2*%
%TO.N,GND*%
X139250000Y-144750000D03*
X145750000Y-144750000D03*
%TD*%
D20*
%TO.N,VCC*%
X67100000Y-118600000D03*
X57600000Y-113100000D03*
X121100000Y-103400000D03*
X110300000Y-107700000D03*
%TO.N,Net-(B1-Pad11)*%
X67100000Y-76300000D03*
X87700000Y-89700000D03*
%TO.N,Net-(B1-Pad12)*%
X65100000Y-78700000D03*
X85200000Y-92300000D03*
%TO.N,Net-(B1-Pad6)*%
X104900000Y-71700000D03*
%TO.N,Net-(B1-Pad7)*%
X88200000Y-86700000D03*
%TO.N,Net-(B1-Pad5)*%
X60400000Y-55600000D03*
X115800000Y-72700000D03*
%TO.N,Net-(S1-Pad1)*%
X95100000Y-117200000D03*
%TD*%
D21*
%TO.N,VCC*%
X67100000Y-121392920D02*
X67100000Y-118600000D01*
X63410643Y-125082277D02*
X67100000Y-121392920D01*
X61666800Y-101933200D02*
X63548600Y-101933200D01*
X57600000Y-106000000D02*
X61666800Y-101933200D01*
X57600000Y-113100000D02*
X57600000Y-106000000D01*
X121100000Y-103400000D02*
X114600000Y-103400000D01*
X114600000Y-103400000D02*
X110300000Y-107700000D01*
%TO.N,Net-(B1-Pad11)*%
X62875665Y-57300000D02*
X61894490Y-58281175D01*
X64600000Y-57300000D02*
X62875665Y-57300000D01*
X67100000Y-59800000D02*
X64600000Y-57300000D01*
X67100000Y-76300000D02*
X67100000Y-59800000D01*
X87900000Y-89500000D02*
X87700000Y-89700000D01*
X117800000Y-89500000D02*
X87900000Y-89500000D01*
X118665000Y-90365000D02*
X117800000Y-89500000D01*
X118665000Y-92380000D02*
X118665000Y-90365000D01*
%TO.N,Net-(B1-Pad12)*%
X85280000Y-92380000D02*
X85200000Y-92300000D01*
X116125000Y-92380000D02*
X85280000Y-92380000D01*
X65100000Y-78700000D02*
X65100000Y-61486684D01*
X65100000Y-61486684D02*
X63690542Y-60077226D01*
%TO.N,Net-(B1-Pad6)*%
X127300000Y-85500000D02*
X113500000Y-71700000D01*
X131365000Y-89565000D02*
X127300000Y-85500000D01*
X113500000Y-71700000D02*
X104900000Y-71700000D01*
X131365000Y-92380000D02*
X131365000Y-89565000D01*
%TO.N,Net-(B1-Pad7)*%
X90000000Y-87300000D02*
X88800000Y-87300000D01*
X88800000Y-87300000D02*
X88200000Y-86700000D01*
X127200000Y-87300000D02*
X90000000Y-87300000D01*
X128825000Y-88925000D02*
X128700000Y-88800000D01*
X128825000Y-92380000D02*
X128825000Y-88925000D01*
X128700000Y-88800000D02*
X127200000Y-87300000D01*
%TO.N,Net-(B1-Pad5)*%
X60098439Y-55901561D02*
X60098439Y-60077226D01*
X60400000Y-55600000D02*
X60098439Y-55901561D01*
X116100000Y-72700000D02*
X115800000Y-72700000D01*
X116900000Y-73500000D02*
X116100000Y-72700000D01*
X133905000Y-90505000D02*
X116900000Y-73500000D01*
X133905000Y-92380000D02*
X133905000Y-90505000D01*
%TO.N,Net-(S1-Pad3)*%
X61976702Y-110923298D02*
X61976702Y-123034397D01*
X132400000Y-70000000D02*
X102900000Y-70000000D01*
X102900000Y-70000000D02*
X61976702Y-110923298D01*
%TO.N,Net-(S1-Pad1)*%
X95100000Y-117300000D02*
X95100000Y-117200000D01*
X91900000Y-120500000D02*
X95100000Y-117300000D01*
X85269843Y-127130157D02*
X91900000Y-120500000D01*
X64844585Y-127130157D02*
X85269843Y-127130157D01*
%TO.N,Net-(S1-Pad3)*%
X61190861Y-123034397D02*
X61976702Y-123034397D01*
X59355416Y-124869842D02*
X61190861Y-123034397D01*
%TO.N,VCC*%
X62624802Y-125082277D02*
X63410643Y-125082277D01*
X60789357Y-126917722D02*
X62624802Y-125082277D01*
%TO.N,Net-(S1-Pad1)*%
X64058743Y-127130157D02*
X64844585Y-127130157D01*
X62223298Y-128965602D02*
X64058743Y-127130157D01*
%TO.N,Net-(B1-Pad9)*%
X80900000Y-136500000D02*
X81100000Y-136300000D01*
X81100000Y-135025000D02*
X123745000Y-92380000D01*
X64500000Y-136500000D02*
X80900000Y-136500000D01*
X81100000Y-136300000D02*
X81100000Y-135025000D01*
X60750000Y-140250000D02*
X64500000Y-136500000D01*
%TO.N,Net-(J5-Pad1)*%
X140260200Y-82940200D02*
X132400000Y-75080000D01*
X140260200Y-113660200D02*
X140260200Y-82940200D01*
X141300000Y-114700000D02*
X140260200Y-113660200D01*
%TO.N,Net-(B1-Pad8)*%
X130089800Y-96184800D02*
X126285000Y-92380000D01*
X130089800Y-136389800D02*
X130089800Y-96184800D01*
X130100000Y-136400000D02*
X130089800Y-136389800D01*
X139250000Y-138350000D02*
X137300000Y-136400000D01*
X137300000Y-136400000D02*
X130100000Y-136400000D01*
X139250000Y-140250000D02*
X139250000Y-138350000D01*
X145750000Y-140250000D02*
X139250000Y-140250000D01*
%TO.N,Net-(B1-Pad9)*%
X54250000Y-140250000D02*
X60750000Y-140250000D01*
%TO.N,VCC*%
X58302388Y-71702388D02*
X60449800Y-73849800D01*
X58302388Y-61873277D02*
X58302388Y-71702388D01*
X60449800Y-73849800D02*
X60449800Y-94287800D01*
X63548600Y-101933200D02*
X63548600Y-97386600D01*
X63548600Y-97386600D02*
X60449800Y-94287800D01*
%TD*%
M02*
