%TF.GenerationSoftware,KiCad,Pcbnew,(6.0.7)*%
%TF.CreationDate,2022-09-07T20:17:11-07:00*%
%TF.ProjectId,DC31_Cnet_Badge_Rear,44433331-5f43-46e6-9574-5f4261646765,rev?*%
%TF.SameCoordinates,Original*%
%TF.FileFunction,Drillmap*%
%TF.FilePolarity,Positive*%
%FSLAX45Y45*%
G04 Gerber Fmt 4.5, Leading zero omitted, Abs format (unit mm)*
G04 Created by KiCad (PCBNEW (6.0.7)) date 2022-09-07 20:17:11*
%MOMM*%
%LPD*%
G01*
G04 APERTURE LIST*
%ADD10C,0.464309*%
%ADD11C,0.100000*%
%ADD12C,0.200000*%
G04 APERTURE END LIST*
D10*
X5073216Y-6602949D02*
X5079168Y-6610837D01*
X5043101Y-6541155D02*
X5046119Y-6550571D01*
X14908316Y-14935425D02*
X14915572Y-14929139D01*
X14977031Y-14821412D02*
X14978790Y-14811563D01*
X6488676Y-5036275D02*
X6479281Y-5034088D01*
X5021218Y-14811560D02*
X5022976Y-14821408D01*
X5040529Y-6531587D02*
X5043101Y-6541155D01*
X14390504Y-7656459D02*
X14270788Y-7444780D01*
X12126495Y-5500375D02*
X11904531Y-5402028D01*
X9283583Y-5076226D02*
X9106970Y-5105473D01*
X5787985Y-7341927D02*
X5791178Y-7344440D01*
X5188434Y-14978788D02*
X5198442Y-14980061D01*
X5092243Y-6338368D02*
X5092243Y-6338368D01*
X5019174Y-14791398D02*
X5019946Y-14801553D01*
X5178598Y-13522977D02*
X5168923Y-13525210D01*
X14811563Y-14978790D02*
X14821412Y-14977031D01*
X5027907Y-13659431D02*
X5025212Y-13668921D01*
X14980063Y-13698454D02*
X14978792Y-13688447D01*
X5862782Y-12761324D02*
X6003501Y-12960998D01*
X5064585Y-13591692D02*
X5058648Y-13599247D01*
X13519128Y-6480857D02*
X13340298Y-6310679D01*
X5208598Y-14980834D02*
X5218889Y-14981096D01*
X6365412Y-5045614D02*
X6356636Y-5049629D01*
X5053072Y-13607087D02*
X5047870Y-13615201D01*
X10975449Y-5119708D02*
X10734912Y-5077740D01*
X5046119Y-6550571D02*
X5049576Y-6559819D01*
X5018914Y-14781108D02*
X5018914Y-14781108D01*
X6374367Y-5042045D02*
X6365412Y-5045614D01*
X12960890Y-5999756D02*
X12761126Y-5859349D01*
X14867820Y-13538641D02*
X14858962Y-13534636D01*
X6339686Y-5058971D02*
X6331544Y-5064285D01*
X5067663Y-6369315D02*
X5062515Y-6377723D01*
X14922526Y-13577497D02*
X14915581Y-13570876D01*
X14831087Y-14974797D02*
X14840577Y-14972102D01*
X6411656Y-5032374D02*
X6402145Y-5034088D01*
X5047870Y-13615201D02*
X5043055Y-13623576D01*
X13514416Y-13518912D02*
X13684910Y-13340229D01*
X5141048Y-14965372D02*
X5150129Y-14968953D01*
X14781120Y-13518912D02*
X14781120Y-13518912D01*
X13996465Y-12961056D02*
X14137188Y-12761383D01*
X14961377Y-13632205D02*
X14956961Y-13623583D01*
X14981096Y-13718899D02*
X14981096Y-13718899D01*
X9640134Y-5036822D02*
X9461360Y-5053326D01*
X5018914Y-13718899D02*
X5018914Y-14781108D01*
X14952139Y-14884806D02*
X14956955Y-14876432D01*
X5023203Y-10000004D02*
X5023203Y-10000004D01*
X14970441Y-10246896D02*
X14976808Y-10000005D01*
X7756051Y-5561932D02*
X7597443Y-5646051D01*
X14387674Y-12343903D02*
X14497098Y-12126914D01*
X5048058Y-10492073D02*
X5078511Y-10735168D01*
X6323646Y-5070017D02*
X6316007Y-5076161D01*
X6579852Y-5089659D02*
X6579852Y-5089659D01*
X5178586Y-14977028D02*
X5188434Y-14978788D01*
X5794422Y-7346885D02*
X5794422Y-7346885D01*
X9461360Y-5053326D02*
X9283583Y-5076226D01*
X5067663Y-6594793D02*
X5073216Y-6602949D01*
X13514416Y-13518912D02*
X13514416Y-13518912D01*
X5051891Y-9474340D02*
X5036172Y-9648842D01*
X14935425Y-14908316D02*
X14941362Y-14900761D01*
X7266380Y-5799185D02*
X7262038Y-5794224D01*
X5702996Y-7497184D02*
X5617122Y-7650279D01*
X5272618Y-8452250D02*
X5221007Y-8618853D01*
X7257537Y-5789409D02*
X7257537Y-5789409D01*
X5150129Y-14968953D02*
X5159421Y-14972098D01*
X14970691Y-9753216D02*
X14952454Y-9508103D01*
X5218889Y-14981096D02*
X5218889Y-14981096D01*
X5062515Y-6377723D02*
X5057781Y-6386366D01*
X5038633Y-14867802D02*
X5043049Y-14876425D01*
X7288905Y-5831784D02*
X7285586Y-5826035D01*
X5141059Y-13534631D02*
X5132201Y-13538636D01*
X14821412Y-14977031D02*
X14831087Y-14974797D01*
X5084438Y-13570869D02*
X5077492Y-13577490D01*
X14978790Y-14811563D02*
X14980062Y-14801555D01*
X5123567Y-14956949D02*
X5132190Y-14961366D01*
X6392750Y-5036275D02*
X6383485Y-5038930D01*
X13684910Y-13340229D02*
X13845649Y-13154141D01*
X5077492Y-13577490D02*
X5070870Y-13584436D01*
X10000005Y-5023203D02*
X9819738Y-5026764D01*
X5049576Y-6404290D02*
X5046119Y-6413538D01*
X14801555Y-14980062D02*
X14811563Y-14978790D01*
X14981096Y-14781108D02*
X14981096Y-14781108D01*
X8931688Y-5141016D02*
X8757906Y-5182806D01*
X5462212Y-7964236D02*
X5393266Y-8124786D01*
X14981096Y-13718899D02*
X14980836Y-13708609D01*
X5043049Y-14876425D02*
X5047864Y-14884799D01*
X5099249Y-13558646D02*
X5091694Y-13564583D01*
X5034628Y-14858944D02*
X5038633Y-14867802D01*
X5198454Y-13519945D02*
X5188446Y-13521218D01*
X5019947Y-13698452D02*
X5019174Y-13708608D01*
X5123578Y-13543053D02*
X5115203Y-13547868D01*
X5062515Y-6586385D02*
X5067663Y-6594793D01*
X14974800Y-13668925D02*
X14972106Y-13659436D01*
X9999987Y-5023203D02*
X9999987Y-5023203D01*
X14952146Y-13615208D02*
X14946944Y-13607095D01*
X5034835Y-6471978D02*
X5034593Y-6482054D01*
X7597443Y-5646051D02*
X7441672Y-5736019D01*
X5168911Y-14974794D02*
X5178586Y-14977028D01*
X11678036Y-5314620D02*
X11447419Y-5238317D01*
X5085512Y-6345669D02*
X5079168Y-6353272D01*
X5036172Y-9648842D02*
X5026594Y-9824116D01*
X7441672Y-5736019D02*
X7288905Y-5831784D01*
X5769927Y-7325491D02*
X5772801Y-7328388D01*
X6549882Y-5064285D02*
X6541741Y-5058971D01*
X12555201Y-5729204D02*
X12343521Y-5609490D01*
X12761126Y-5859349D02*
X12555201Y-5729204D01*
X6316007Y-5076161D02*
X6308645Y-5082711D01*
X5781751Y-7336704D02*
X5784842Y-7339348D01*
X5049576Y-6559819D02*
X5053465Y-6568881D01*
X5772801Y-7328388D02*
X5775730Y-7331224D01*
X5316526Y-11678421D02*
X5404232Y-11904911D01*
X5218901Y-13518912D02*
X5208610Y-13519173D01*
X14140641Y-7238855D02*
X14000233Y-7039092D01*
X14781108Y-14981096D02*
X14791399Y-14980835D01*
X5791178Y-7344440D02*
X5794422Y-7346885D01*
X8247224Y-5345157D02*
X8081109Y-5411434D01*
X14952454Y-9508103D02*
X14922266Y-9265073D01*
X5018914Y-14781108D02*
X5019174Y-14791398D01*
X7270559Y-5804288D02*
X7266380Y-5799185D01*
X5084429Y-14929132D02*
X5091685Y-14935418D01*
X7274573Y-5809529D02*
X7270559Y-5804288D01*
X14961371Y-14867809D02*
X14965377Y-14858950D01*
X14821424Y-13522979D02*
X14811576Y-13521220D01*
X5038410Y-6442225D02*
X5036750Y-6452046D01*
X13689307Y-6659686D02*
X13519128Y-6480857D01*
X5769927Y-7325491D02*
X5769927Y-7325491D01*
X5099239Y-14941355D02*
X5107079Y-14946931D01*
X5159421Y-14972098D02*
X5168911Y-14974794D01*
X5022979Y-13678596D02*
X5021220Y-13688444D01*
X14791399Y-14980835D02*
X14801555Y-14980062D01*
X14915572Y-14929139D02*
X14922517Y-14922517D01*
X5208610Y-13519173D02*
X5198454Y-13519945D01*
X5073216Y-6361159D02*
X5067663Y-6369315D01*
X5057781Y-6386366D02*
X5053465Y-6395227D01*
X14849880Y-13531054D02*
X14840588Y-13527909D01*
X5502881Y-12126854D02*
X5612302Y-12343843D01*
X5031052Y-13650139D02*
X5027907Y-13659431D01*
X14867809Y-14961371D02*
X14876432Y-14956955D01*
X7262038Y-5794224D02*
X7257537Y-5789409D01*
X14976808Y-10000005D02*
X14970691Y-9753216D01*
X5035556Y-6502139D02*
X5036750Y-6512062D01*
X14965377Y-14858950D02*
X14968958Y-14849869D01*
X5132190Y-14961366D02*
X5141048Y-14965372D01*
X14876442Y-13543058D02*
X14867820Y-13538641D01*
X6003501Y-12960998D02*
X6154314Y-13154085D01*
X6572781Y-5082711D02*
X6565419Y-5076161D01*
X8585789Y-5230793D02*
X8415506Y-5284926D01*
X14781120Y-13518912D02*
X13514416Y-13518912D01*
X14892930Y-13553076D02*
X14884817Y-13547874D01*
X14595750Y-11904969D02*
X14683460Y-11678477D01*
X14000233Y-7039092D02*
X13849732Y-6845900D01*
X5115193Y-14952133D02*
X5123567Y-14956949D01*
X14900761Y-14941362D02*
X14908316Y-14935425D01*
X5393266Y-8124786D02*
X5330053Y-8287509D01*
X5064577Y-14908308D02*
X5070862Y-14915565D01*
X5188446Y-13521218D02*
X5178598Y-13522977D01*
X5036750Y-6512062D02*
X5038410Y-6521884D01*
X5150141Y-13531050D02*
X5141059Y-13534631D01*
X14761683Y-8552562D02*
X14685379Y-8321944D01*
X5404232Y-11904911D02*
X5502881Y-12126854D01*
X7282090Y-5820407D02*
X7278417Y-5814903D01*
X14974797Y-14831087D02*
X14977031Y-14821412D01*
X14683460Y-11678477D02*
X14760059Y-11447846D01*
X5085512Y-6618440D02*
X5092243Y-6625741D01*
X14956955Y-14876432D02*
X14961371Y-14867809D01*
X5078511Y-10735168D02*
X5120753Y-10975759D01*
X14978792Y-13688447D02*
X14977033Y-13678600D01*
X5135437Y-8957020D02*
X5101568Y-9128274D01*
X14267647Y-12555529D02*
X14387674Y-12343903D01*
X11447419Y-5238317D02*
X11213087Y-5173291D01*
X5073704Y-9300766D02*
X5051891Y-9474340D01*
X5079168Y-6610837D02*
X5085512Y-6618440D01*
X7285586Y-5826035D02*
X7282090Y-5820407D01*
X6460162Y-5031142D02*
X6450470Y-5030397D01*
X5019174Y-13708608D02*
X5018914Y-13718899D01*
X14801567Y-13519947D02*
X14791411Y-13519173D01*
X5107079Y-14946931D02*
X5115193Y-14952133D01*
X5046119Y-6413538D02*
X5043101Y-6422954D01*
X14840577Y-14972102D02*
X14849869Y-14968958D01*
X12343521Y-5609490D02*
X12126495Y-5500375D01*
X14956961Y-13623583D02*
X14952146Y-13615208D01*
X14972102Y-14840577D02*
X14974797Y-14831087D01*
X6301574Y-5089659D02*
X6301574Y-5089659D01*
X14760059Y-11447846D02*
X14825376Y-11213484D01*
X14915581Y-13570876D02*
X14908325Y-13564590D01*
X6301574Y-5089659D02*
X5092243Y-6338368D01*
X5021220Y-13688444D02*
X5019947Y-13698452D01*
X5617122Y-7650279D02*
X5536846Y-7806015D01*
X13519128Y-6480857D02*
X13519128Y-6480857D01*
X14980062Y-14801555D02*
X14980835Y-14791399D01*
X5091694Y-13564583D02*
X5084438Y-13570869D01*
X14935432Y-13591699D02*
X14929147Y-13584443D01*
X5115203Y-13547868D02*
X5107089Y-13553070D01*
X6485542Y-13518861D02*
X5218901Y-13518912D01*
X7288905Y-5831784D02*
X7288905Y-5831784D01*
X6154314Y-13154085D02*
X6315051Y-13340175D01*
X6541741Y-5058971D02*
X6533371Y-5054084D01*
X8081109Y-5411434D02*
X7917329Y-5483709D01*
X6479281Y-5034088D02*
X6469770Y-5032374D01*
X5778714Y-7333996D02*
X5781751Y-7336704D01*
X14965381Y-13641063D02*
X14961377Y-13632205D01*
X14922517Y-14922517D02*
X14929139Y-14915572D01*
X5101568Y-9128274D02*
X5073704Y-9300766D01*
X5053465Y-6395227D02*
X5049576Y-6404290D01*
X5077484Y-14922510D02*
X5084429Y-14929132D01*
X14858950Y-14965377D02*
X14867809Y-14961371D01*
X14968958Y-14849869D02*
X14972102Y-14840577D01*
X14826711Y-8786894D02*
X14761683Y-8552562D01*
X5053065Y-14892913D02*
X5058641Y-14900754D01*
X14831099Y-13525213D02*
X14821424Y-13522979D01*
X6497941Y-5038930D02*
X6488676Y-5036275D01*
X5218901Y-13518912D02*
X5218901Y-13518912D01*
X14858962Y-13534636D02*
X14849880Y-13531054D01*
X6440713Y-5030148D02*
X6440713Y-5030148D01*
X5330053Y-8287509D02*
X5272618Y-8452250D01*
X14840588Y-13527909D02*
X14831099Y-13525213D01*
X5174616Y-11213437D02*
X5239930Y-11447794D01*
X5168923Y-13525210D02*
X5159433Y-13527906D01*
X5092243Y-6625741D02*
X5769927Y-7325491D01*
X6565419Y-5076161D02*
X6557781Y-5070017D01*
X5026594Y-9824116D02*
X5023203Y-10000004D01*
X5091685Y-14935418D02*
X5099239Y-14941355D01*
X5025209Y-14831082D02*
X5027904Y-14840572D01*
X14929147Y-13584443D02*
X14922526Y-13577497D01*
X6469770Y-5032374D02*
X6460162Y-5031142D01*
X14884806Y-14952139D02*
X14892920Y-14946937D01*
X5058648Y-13599247D02*
X5053072Y-13607087D01*
X14781108Y-14981096D02*
X14781108Y-14981096D01*
X5218889Y-14981096D02*
X14781108Y-14981096D01*
X5775730Y-7331224D02*
X5778714Y-7333996D01*
X9106970Y-5105473D02*
X8931688Y-5141016D01*
X6516015Y-5045614D02*
X6507060Y-5042045D01*
X7257537Y-5789409D02*
X6579852Y-5089659D01*
X5038410Y-6521884D02*
X5040529Y-6531587D01*
X9819738Y-5026764D02*
X9640134Y-5036822D01*
X6430956Y-5030397D02*
X6421265Y-5031142D01*
X6331544Y-5064285D02*
X6323646Y-5070017D01*
X5023203Y-10000004D02*
X5029566Y-10246883D01*
X5536846Y-7806015D02*
X5462212Y-7964236D01*
X14946937Y-14892920D02*
X14952139Y-14884806D01*
X14597968Y-8095449D02*
X14499620Y-7873485D01*
X5092243Y-6338368D02*
X5085512Y-6345669D01*
X6421265Y-5031142D02*
X6411656Y-5032374D01*
X5034593Y-6482054D02*
X5034835Y-6492131D01*
X5043101Y-6422954D02*
X5040529Y-6432522D01*
X14968962Y-13650144D02*
X14965381Y-13641063D01*
X14941369Y-13599254D02*
X14935432Y-13591699D01*
X5612302Y-12343843D02*
X5732325Y-12555469D01*
X5036750Y-6452046D02*
X5035556Y-6461969D01*
X14270788Y-7444780D02*
X14140641Y-7238855D01*
X14980836Y-13708609D02*
X14980063Y-13698454D01*
X8415506Y-5284926D02*
X8247224Y-5345157D01*
X5120753Y-10975759D02*
X5174616Y-11213437D01*
X14976808Y-10000005D02*
X14976808Y-10000005D01*
X10246773Y-5029318D02*
X9999987Y-5023203D01*
X14879243Y-10975800D02*
X14921489Y-10735202D01*
X5029566Y-10246883D02*
X5048058Y-10492073D01*
X5784842Y-7339348D02*
X5787985Y-7341927D01*
X5057781Y-6577743D02*
X5062515Y-6586385D01*
X6450470Y-5030397D02*
X6440713Y-5030148D01*
X5053465Y-6568881D02*
X5057781Y-6577743D01*
X10491884Y-5047553D02*
X10246773Y-5029318D01*
X9999987Y-5023203D02*
X10000005Y-5023203D01*
X6507060Y-5042045D02*
X6497941Y-5038930D01*
D11*
X9190000Y-5620000D02*
G75*
G03*
X9190000Y-5620000I-200000J0D01*
G01*
D10*
X5040529Y-6432522D02*
X5038410Y-6442225D01*
X5732325Y-12555469D02*
X5862782Y-12761324D01*
X14811576Y-13521220D02*
X14801567Y-13519947D01*
X5043055Y-13623576D02*
X5038638Y-13632199D01*
X5019946Y-14801553D02*
X5021218Y-14811560D01*
X14849869Y-14968958D02*
X14858950Y-14965377D01*
X14922266Y-9265073D02*
X14880295Y-9024534D01*
X5058641Y-14900754D02*
X5064577Y-14908308D01*
X5070862Y-14915565D02*
X5077484Y-14922510D01*
X5018914Y-13718899D02*
X5018914Y-13718899D01*
X6440713Y-5030148D02*
X6430956Y-5030397D01*
X6402145Y-5034088D02*
X6392750Y-5036275D01*
X5175265Y-8787161D02*
X5135437Y-8957020D01*
X5794422Y-7346885D02*
X5702996Y-7497184D01*
X5221007Y-8618853D02*
X5175265Y-8787161D01*
X14951945Y-10492098D02*
X14970441Y-10246896D01*
X6533371Y-5054084D02*
X6524791Y-5049629D01*
X5132201Y-13538636D02*
X5123578Y-13543053D01*
X8757906Y-5182806D02*
X8585789Y-5230793D01*
X5239930Y-11447794D02*
X5316526Y-11678421D01*
X5025212Y-13668921D02*
X5022979Y-13678596D01*
X5022976Y-14821408D02*
X5025209Y-14831082D01*
X14929139Y-14915572D02*
X14935425Y-14908316D01*
X14941362Y-14900761D02*
X14946937Y-14892920D01*
X5107089Y-13553070D02*
X5099249Y-13558646D01*
X14685379Y-8321944D02*
X14597968Y-8095449D01*
X13845649Y-13154141D02*
X13996465Y-12961056D01*
X7278417Y-5814903D02*
X7274573Y-5809529D01*
X14497098Y-12126914D02*
X14595750Y-11904969D01*
X5070870Y-13584436D02*
X5064585Y-13591692D01*
X14499620Y-7873485D02*
X14390504Y-7656459D01*
X14972106Y-13659436D02*
X14968962Y-13650144D01*
X5034835Y-6492131D02*
X5035556Y-6502139D01*
X6383485Y-5038930D02*
X6374367Y-5042045D01*
X5092243Y-6625741D02*
X5092243Y-6625741D01*
X6356636Y-5049629D02*
X6348055Y-5054084D01*
X14977033Y-13678600D02*
X14974800Y-13668925D01*
X11904531Y-5402028D02*
X11678036Y-5314620D01*
X14791411Y-13519173D02*
X14781120Y-13518912D01*
X14137188Y-12761383D02*
X14267647Y-12555529D01*
X11213087Y-5173291D02*
X10975449Y-5119708D01*
X14825376Y-11213484D02*
X14879243Y-10975800D01*
X5198442Y-14980061D02*
X5208598Y-14980834D01*
X5034633Y-13641057D02*
X5031052Y-13650139D01*
X6579852Y-5089659D02*
X6572781Y-5082711D01*
X5027904Y-14840572D02*
X5031048Y-14849863D01*
X5079168Y-6353272D02*
X5073216Y-6361159D01*
X14921489Y-10735202D02*
X14951945Y-10492098D01*
X13340298Y-6310679D02*
X13154083Y-6150256D01*
X14980835Y-14791399D02*
X14981096Y-14781108D01*
X6348055Y-5054084D02*
X6339686Y-5058971D01*
X5034593Y-6482054D02*
X5034593Y-6482054D01*
X13154083Y-6150256D02*
X12960890Y-5999756D01*
X6315051Y-13340175D02*
X6485542Y-13518861D01*
X14900771Y-13558652D02*
X14892930Y-13553076D01*
X5159433Y-13527906D02*
X5150141Y-13531050D01*
X13849732Y-6845900D02*
X13689307Y-6659686D01*
X10734912Y-5077740D02*
X10491884Y-5047553D01*
X14884817Y-13547874D02*
X14876442Y-13543058D01*
X14946944Y-13607095D02*
X14941369Y-13599254D01*
X14908325Y-13564590D02*
X14900771Y-13558652D01*
X14880295Y-9024534D02*
X14826711Y-8786894D01*
X6524791Y-5049629D02*
X6516015Y-5045614D01*
X5031048Y-14849863D02*
X5034628Y-14858944D01*
X14892920Y-14946937D02*
X14900761Y-14941362D01*
X5047864Y-14884799D02*
X5053065Y-14892913D01*
X14876432Y-14956955D02*
X14884806Y-14952139D01*
X5035556Y-6461969D02*
X5034835Y-6471978D01*
X6308645Y-5082711D02*
X6301574Y-5089659D01*
X6557781Y-5070017D02*
X6549882Y-5064285D01*
X5038638Y-13632199D02*
X5034633Y-13641057D01*
X7917329Y-5483709D02*
X7756051Y-5561932D01*
X6485542Y-13518861D02*
X6485542Y-13518861D01*
X14981096Y-14781108D02*
X14981096Y-13718899D01*
D12*
X5253317Y-15314787D02*
X5253317Y-15114787D01*
X5300936Y-15114787D01*
X5329508Y-15124311D01*
X5348555Y-15143359D01*
X5358079Y-15162406D01*
X5367603Y-15200502D01*
X5367603Y-15229073D01*
X5358079Y-15267168D01*
X5348555Y-15286216D01*
X5329508Y-15305264D01*
X5300936Y-15314787D01*
X5253317Y-15314787D01*
X5453317Y-15314787D02*
X5453317Y-15181454D01*
X5453317Y-15219549D02*
X5462841Y-15200502D01*
X5472365Y-15190978D01*
X5491412Y-15181454D01*
X5510460Y-15181454D01*
X5577127Y-15314787D02*
X5577127Y-15181454D01*
X5577127Y-15114787D02*
X5567603Y-15124311D01*
X5577127Y-15133835D01*
X5586651Y-15124311D01*
X5577127Y-15114787D01*
X5577127Y-15133835D01*
X5700936Y-15314787D02*
X5681889Y-15305264D01*
X5672365Y-15286216D01*
X5672365Y-15114787D01*
X5805698Y-15314787D02*
X5786650Y-15305264D01*
X5777127Y-15286216D01*
X5777127Y-15114787D01*
X6034270Y-15314787D02*
X6034270Y-15114787D01*
X6100936Y-15257645D01*
X6167603Y-15114787D01*
X6167603Y-15314787D01*
X6348555Y-15314787D02*
X6348555Y-15210025D01*
X6339031Y-15190978D01*
X6319984Y-15181454D01*
X6281889Y-15181454D01*
X6262841Y-15190978D01*
X6348555Y-15305264D02*
X6329508Y-15314787D01*
X6281889Y-15314787D01*
X6262841Y-15305264D01*
X6253317Y-15286216D01*
X6253317Y-15267168D01*
X6262841Y-15248121D01*
X6281889Y-15238597D01*
X6329508Y-15238597D01*
X6348555Y-15229073D01*
X6443793Y-15181454D02*
X6443793Y-15381454D01*
X6443793Y-15190978D02*
X6462841Y-15181454D01*
X6500936Y-15181454D01*
X6519984Y-15190978D01*
X6529508Y-15200502D01*
X6539031Y-15219549D01*
X6539031Y-15276692D01*
X6529508Y-15295740D01*
X6519984Y-15305264D01*
X6500936Y-15314787D01*
X6462841Y-15314787D01*
X6443793Y-15305264D01*
X6624746Y-15295740D02*
X6634270Y-15305264D01*
X6624746Y-15314787D01*
X6615222Y-15305264D01*
X6624746Y-15295740D01*
X6624746Y-15314787D01*
X6624746Y-15190978D02*
X6634270Y-15200502D01*
X6624746Y-15210025D01*
X6615222Y-15200502D01*
X6624746Y-15190978D01*
X6624746Y-15210025D01*
M02*
