%TF.GenerationSoftware,KiCad,Pcbnew,(6.0.7)*%
%TF.CreationDate,2022-09-07T20:17:11-07:00*%
%TF.ProjectId,DC31_Cnet_Badge_Rear,44433331-5f43-46e6-9574-5f4261646765,rev?*%
%TF.SameCoordinates,Original*%
%TF.FileFunction,Drillmap*%
%TF.FilePolarity,Positive*%
%FSLAX45Y45*%
G04 Gerber Fmt 4.5, Leading zero omitted, Abs format (unit mm)*
G04 Created by KiCad (PCBNEW (6.0.7)) date 2022-09-07 20:17:11*
%MOMM*%
%LPD*%
G01*
G04 APERTURE LIST*
%ADD10C,0.464309*%
%ADD11C,0.100000*%
%ADD12C,0.200000*%
%ADD13C,0.040000*%
%ADD14C,0.075000*%
%ADD15C,0.101600*%
%ADD16C,0.110000*%
G04 APERTURE END LIST*
D10*
X5073216Y-6602949D02*
X5079168Y-6610837D01*
X5043101Y-6541155D02*
X5046119Y-6550571D01*
X14908316Y-14935425D02*
X14915572Y-14929139D01*
X14977031Y-14821412D02*
X14978790Y-14811563D01*
X6488676Y-5036275D02*
X6479281Y-5034088D01*
X5021218Y-14811560D02*
X5022976Y-14821408D01*
X5040529Y-6531587D02*
X5043101Y-6541155D01*
X14390504Y-7656459D02*
X14270788Y-7444780D01*
X12126495Y-5500375D02*
X11904531Y-5402028D01*
X9283583Y-5076226D02*
X9106970Y-5105473D01*
X5787985Y-7341927D02*
X5791178Y-7344440D01*
X5188434Y-14978788D02*
X5198442Y-14980061D01*
X5092243Y-6338368D02*
X5092243Y-6338368D01*
X5019174Y-14791398D02*
X5019946Y-14801553D01*
X5178598Y-13522977D02*
X5168923Y-13525210D01*
X14811563Y-14978790D02*
X14821412Y-14977031D01*
X5027907Y-13659431D02*
X5025212Y-13668921D01*
X14980063Y-13698454D02*
X14978792Y-13688447D01*
X5862782Y-12761324D02*
X6003501Y-12960998D01*
X5064585Y-13591692D02*
X5058648Y-13599247D01*
X13519128Y-6480857D02*
X13340298Y-6310679D01*
X5208598Y-14980834D02*
X5218889Y-14981096D01*
X6365412Y-5045614D02*
X6356636Y-5049629D01*
X5053072Y-13607087D02*
X5047870Y-13615201D01*
X10975449Y-5119708D02*
X10734912Y-5077740D01*
X5046119Y-6550571D02*
X5049576Y-6559819D01*
X5018914Y-14781108D02*
X5018914Y-14781108D01*
X6374367Y-5042045D02*
X6365412Y-5045614D01*
X12960890Y-5999756D02*
X12761126Y-5859349D01*
X14867820Y-13538641D02*
X14858962Y-13534636D01*
X6339686Y-5058971D02*
X6331544Y-5064285D01*
X5067663Y-6369315D02*
X5062515Y-6377723D01*
X14922526Y-13577497D02*
X14915581Y-13570876D01*
X14831087Y-14974797D02*
X14840577Y-14972102D01*
X6411656Y-5032374D02*
X6402145Y-5034088D01*
X5047870Y-13615201D02*
X5043055Y-13623576D01*
X13514416Y-13518912D02*
X13684910Y-13340229D01*
X5141048Y-14965372D02*
X5150129Y-14968953D01*
X14781120Y-13518912D02*
X14781120Y-13518912D01*
X13996465Y-12961056D02*
X14137188Y-12761383D01*
X14961377Y-13632205D02*
X14956961Y-13623583D01*
X14981096Y-13718899D02*
X14981096Y-13718899D01*
X9640134Y-5036822D02*
X9461360Y-5053326D01*
X5018914Y-13718899D02*
X5018914Y-14781108D01*
X14952139Y-14884806D02*
X14956955Y-14876432D01*
X5023203Y-10000004D02*
X5023203Y-10000004D01*
X14970441Y-10246896D02*
X14976808Y-10000005D01*
X7756051Y-5561932D02*
X7597443Y-5646051D01*
X14387674Y-12343903D02*
X14497098Y-12126914D01*
X5048058Y-10492073D02*
X5078511Y-10735168D01*
X6323646Y-5070017D02*
X6316007Y-5076161D01*
X6579852Y-5089659D02*
X6579852Y-5089659D01*
X5178586Y-14977028D02*
X5188434Y-14978788D01*
X5794422Y-7346885D02*
X5794422Y-7346885D01*
X9461360Y-5053326D02*
X9283583Y-5076226D01*
X5067663Y-6594793D02*
X5073216Y-6602949D01*
X13514416Y-13518912D02*
X13514416Y-13518912D01*
X5051891Y-9474340D02*
X5036172Y-9648842D01*
X14935425Y-14908316D02*
X14941362Y-14900761D01*
X7266380Y-5799185D02*
X7262038Y-5794224D01*
X5702996Y-7497184D02*
X5617122Y-7650279D01*
X5272618Y-8452250D02*
X5221007Y-8618853D01*
X7257537Y-5789409D02*
X7257537Y-5789409D01*
X5150129Y-14968953D02*
X5159421Y-14972098D01*
X14970691Y-9753216D02*
X14952454Y-9508103D01*
X5218889Y-14981096D02*
X5218889Y-14981096D01*
X5062515Y-6377723D02*
X5057781Y-6386366D01*
X5038633Y-14867802D02*
X5043049Y-14876425D01*
X7288905Y-5831784D02*
X7285586Y-5826035D01*
X5141059Y-13534631D02*
X5132201Y-13538636D01*
X14821412Y-14977031D02*
X14831087Y-14974797D01*
X5084438Y-13570869D02*
X5077492Y-13577490D01*
X14978790Y-14811563D02*
X14980062Y-14801555D01*
X5123567Y-14956949D02*
X5132190Y-14961366D01*
X6392750Y-5036275D02*
X6383485Y-5038930D01*
X13684910Y-13340229D02*
X13845649Y-13154141D01*
X5077492Y-13577490D02*
X5070870Y-13584436D01*
X10000005Y-5023203D02*
X9819738Y-5026764D01*
X5049576Y-6404290D02*
X5046119Y-6413538D01*
X14801555Y-14980062D02*
X14811563Y-14978790D01*
X14981096Y-14781108D02*
X14981096Y-14781108D01*
X8931688Y-5141016D02*
X8757906Y-5182806D01*
X5462212Y-7964236D02*
X5393266Y-8124786D01*
X14981096Y-13718899D02*
X14980836Y-13708609D01*
X5043049Y-14876425D02*
X5047864Y-14884799D01*
X5099249Y-13558646D02*
X5091694Y-13564583D01*
X5034628Y-14858944D02*
X5038633Y-14867802D01*
X5198454Y-13519945D02*
X5188446Y-13521218D01*
X5019947Y-13698452D02*
X5019174Y-13708608D01*
X5123578Y-13543053D02*
X5115203Y-13547868D01*
X5062515Y-6586385D02*
X5067663Y-6594793D01*
X14974800Y-13668925D02*
X14972106Y-13659436D01*
X9999987Y-5023203D02*
X9999987Y-5023203D01*
X14952146Y-13615208D02*
X14946944Y-13607095D01*
X5034835Y-6471978D02*
X5034593Y-6482054D01*
X7597443Y-5646051D02*
X7441672Y-5736019D01*
X5168911Y-14974794D02*
X5178586Y-14977028D01*
X11678036Y-5314620D02*
X11447419Y-5238317D01*
X5085512Y-6345669D02*
X5079168Y-6353272D01*
X5036172Y-9648842D02*
X5026594Y-9824116D01*
X7441672Y-5736019D02*
X7288905Y-5831784D01*
X5769927Y-7325491D02*
X5772801Y-7328388D01*
X6549882Y-5064285D02*
X6541741Y-5058971D01*
X12555201Y-5729204D02*
X12343521Y-5609490D01*
X12761126Y-5859349D02*
X12555201Y-5729204D01*
X6316007Y-5076161D02*
X6308645Y-5082711D01*
X5781751Y-7336704D02*
X5784842Y-7339348D01*
X5049576Y-6559819D02*
X5053465Y-6568881D01*
X5772801Y-7328388D02*
X5775730Y-7331224D01*
X5316526Y-11678421D02*
X5404232Y-11904911D01*
X5218901Y-13518912D02*
X5208610Y-13519173D01*
X14140641Y-7238855D02*
X14000233Y-7039092D01*
X14781108Y-14981096D02*
X14791399Y-14980835D01*
X5791178Y-7344440D02*
X5794422Y-7346885D01*
X8247224Y-5345157D02*
X8081109Y-5411434D01*
X14952454Y-9508103D02*
X14922266Y-9265073D01*
X5018914Y-14781108D02*
X5019174Y-14791398D01*
X7270559Y-5804288D02*
X7266380Y-5799185D01*
X5084429Y-14929132D02*
X5091685Y-14935418D01*
X7274573Y-5809529D02*
X7270559Y-5804288D01*
X14961371Y-14867809D02*
X14965377Y-14858950D01*
X14821424Y-13522979D02*
X14811576Y-13521220D01*
X5038410Y-6442225D02*
X5036750Y-6452046D01*
X13689307Y-6659686D02*
X13519128Y-6480857D01*
X5769927Y-7325491D02*
X5769927Y-7325491D01*
X5099239Y-14941355D02*
X5107079Y-14946931D01*
X5159421Y-14972098D02*
X5168911Y-14974794D01*
X5022979Y-13678596D02*
X5021220Y-13688444D01*
X14791399Y-14980835D02*
X14801555Y-14980062D01*
X14915572Y-14929139D02*
X14922517Y-14922517D01*
X5208610Y-13519173D02*
X5198454Y-13519945D01*
X5073216Y-6361159D02*
X5067663Y-6369315D01*
X5057781Y-6386366D02*
X5053465Y-6395227D01*
X14849880Y-13531054D02*
X14840588Y-13527909D01*
X5502881Y-12126854D02*
X5612302Y-12343843D01*
X5031052Y-13650139D02*
X5027907Y-13659431D01*
X14867809Y-14961371D02*
X14876432Y-14956955D01*
X7262038Y-5794224D02*
X7257537Y-5789409D01*
X14976808Y-10000005D02*
X14970691Y-9753216D01*
X5035556Y-6502139D02*
X5036750Y-6512062D01*
X14965377Y-14858950D02*
X14968958Y-14849869D01*
X5132190Y-14961366D02*
X5141048Y-14965372D01*
X14876442Y-13543058D02*
X14867820Y-13538641D01*
X6003501Y-12960998D02*
X6154314Y-13154085D01*
X6572781Y-5082711D02*
X6565419Y-5076161D01*
X8585789Y-5230793D02*
X8415506Y-5284926D01*
X14781120Y-13518912D02*
X13514416Y-13518912D01*
X14892930Y-13553076D02*
X14884817Y-13547874D01*
X14595750Y-11904969D02*
X14683460Y-11678477D01*
X14000233Y-7039092D02*
X13849732Y-6845900D01*
X5115193Y-14952133D02*
X5123567Y-14956949D01*
X14900761Y-14941362D02*
X14908316Y-14935425D01*
X5393266Y-8124786D02*
X5330053Y-8287509D01*
X5064577Y-14908308D02*
X5070862Y-14915565D01*
X5188446Y-13521218D02*
X5178598Y-13522977D01*
X5036750Y-6512062D02*
X5038410Y-6521884D01*
X5150141Y-13531050D02*
X5141059Y-13534631D01*
X14761683Y-8552562D02*
X14685379Y-8321944D01*
X5404232Y-11904911D02*
X5502881Y-12126854D01*
X7282090Y-5820407D02*
X7278417Y-5814903D01*
X14974797Y-14831087D02*
X14977031Y-14821412D01*
X14683460Y-11678477D02*
X14760059Y-11447846D01*
X5085512Y-6618440D02*
X5092243Y-6625741D01*
X14956955Y-14876432D02*
X14961371Y-14867809D01*
X5078511Y-10735168D02*
X5120753Y-10975759D01*
X14978792Y-13688447D02*
X14977033Y-13678600D01*
X5135437Y-8957020D02*
X5101568Y-9128274D01*
X14267647Y-12555529D02*
X14387674Y-12343903D01*
X11447419Y-5238317D02*
X11213087Y-5173291D01*
X5073704Y-9300766D02*
X5051891Y-9474340D01*
X5079168Y-6610837D02*
X5085512Y-6618440D01*
X7285586Y-5826035D02*
X7282090Y-5820407D01*
X6460162Y-5031142D02*
X6450470Y-5030397D01*
X5019174Y-13708608D02*
X5018914Y-13718899D01*
X14801567Y-13519947D02*
X14791411Y-13519173D01*
X5107079Y-14946931D02*
X5115193Y-14952133D01*
X5046119Y-6413538D02*
X5043101Y-6422954D01*
X14840577Y-14972102D02*
X14849869Y-14968958D01*
X12343521Y-5609490D02*
X12126495Y-5500375D01*
X14956961Y-13623583D02*
X14952146Y-13615208D01*
X14972102Y-14840577D02*
X14974797Y-14831087D01*
X6301574Y-5089659D02*
X6301574Y-5089659D01*
X14760059Y-11447846D02*
X14825376Y-11213484D01*
X14915581Y-13570876D02*
X14908325Y-13564590D01*
X6301574Y-5089659D02*
X5092243Y-6338368D01*
X5021220Y-13688444D02*
X5019947Y-13698452D01*
X5617122Y-7650279D02*
X5536846Y-7806015D01*
X13519128Y-6480857D02*
X13519128Y-6480857D01*
X14980062Y-14801555D02*
X14980835Y-14791399D01*
X5091694Y-13564583D02*
X5084438Y-13570869D01*
X14935432Y-13591699D02*
X14929147Y-13584443D01*
X5115203Y-13547868D02*
X5107089Y-13553070D01*
X6485542Y-13518861D02*
X5218901Y-13518912D01*
X7288905Y-5831784D02*
X7288905Y-5831784D01*
X6154314Y-13154085D02*
X6315051Y-13340175D01*
X6541741Y-5058971D02*
X6533371Y-5054084D01*
X8081109Y-5411434D02*
X7917329Y-5483709D01*
X6479281Y-5034088D02*
X6469770Y-5032374D01*
X5778714Y-7333996D02*
X5781751Y-7336704D01*
X14965381Y-13641063D02*
X14961377Y-13632205D01*
X14922517Y-14922517D02*
X14929139Y-14915572D01*
X5101568Y-9128274D02*
X5073704Y-9300766D01*
X5053465Y-6395227D02*
X5049576Y-6404290D01*
X5077484Y-14922510D02*
X5084429Y-14929132D01*
X14858950Y-14965377D02*
X14867809Y-14961371D01*
X14968958Y-14849869D02*
X14972102Y-14840577D01*
X14826711Y-8786894D02*
X14761683Y-8552562D01*
X5053065Y-14892913D02*
X5058641Y-14900754D01*
X14831099Y-13525213D02*
X14821424Y-13522979D01*
X6497941Y-5038930D02*
X6488676Y-5036275D01*
X5218901Y-13518912D02*
X5218901Y-13518912D01*
X14858962Y-13534636D02*
X14849880Y-13531054D01*
X6440713Y-5030148D02*
X6440713Y-5030148D01*
X5330053Y-8287509D02*
X5272618Y-8452250D01*
X14840588Y-13527909D02*
X14831099Y-13525213D01*
X5174616Y-11213437D02*
X5239930Y-11447794D01*
X5168923Y-13525210D02*
X5159433Y-13527906D01*
X5092243Y-6625741D02*
X5769927Y-7325491D01*
X6565419Y-5076161D02*
X6557781Y-5070017D01*
X5026594Y-9824116D02*
X5023203Y-10000004D01*
X5091685Y-14935418D02*
X5099239Y-14941355D01*
X5025209Y-14831082D02*
X5027904Y-14840572D01*
X14929147Y-13584443D02*
X14922526Y-13577497D01*
X6469770Y-5032374D02*
X6460162Y-5031142D01*
X14884806Y-14952139D02*
X14892920Y-14946937D01*
X5058648Y-13599247D02*
X5053072Y-13607087D01*
X14781108Y-14981096D02*
X14781108Y-14981096D01*
X5218889Y-14981096D02*
X14781108Y-14981096D01*
X5775730Y-7331224D02*
X5778714Y-7333996D01*
X9106970Y-5105473D02*
X8931688Y-5141016D01*
X6516015Y-5045614D02*
X6507060Y-5042045D01*
X7257537Y-5789409D02*
X6579852Y-5089659D01*
X5038410Y-6521884D02*
X5040529Y-6531587D01*
X9819738Y-5026764D02*
X9640134Y-5036822D01*
X6430956Y-5030397D02*
X6421265Y-5031142D01*
X6331544Y-5064285D02*
X6323646Y-5070017D01*
X5023203Y-10000004D02*
X5029566Y-10246883D01*
X5536846Y-7806015D02*
X5462212Y-7964236D01*
X14946937Y-14892920D02*
X14952139Y-14884806D01*
X14597968Y-8095449D02*
X14499620Y-7873485D01*
X5092243Y-6338368D02*
X5085512Y-6345669D01*
X6421265Y-5031142D02*
X6411656Y-5032374D01*
X5034593Y-6482054D02*
X5034835Y-6492131D01*
X5043101Y-6422954D02*
X5040529Y-6432522D01*
X14968962Y-13650144D02*
X14965381Y-13641063D01*
X14941369Y-13599254D02*
X14935432Y-13591699D01*
X5612302Y-12343843D02*
X5732325Y-12555469D01*
X5036750Y-6452046D02*
X5035556Y-6461969D01*
X14270788Y-7444780D02*
X14140641Y-7238855D01*
X14980836Y-13708609D02*
X14980063Y-13698454D01*
X8415506Y-5284926D02*
X8247224Y-5345157D01*
X5120753Y-10975759D02*
X5174616Y-11213437D01*
X14976808Y-10000005D02*
X14976808Y-10000005D01*
X10246773Y-5029318D02*
X9999987Y-5023203D01*
X14879243Y-10975800D02*
X14921489Y-10735202D01*
X5029566Y-10246883D02*
X5048058Y-10492073D01*
X5784842Y-7339348D02*
X5787985Y-7341927D01*
X5057781Y-6577743D02*
X5062515Y-6586385D01*
X6450470Y-5030397D02*
X6440713Y-5030148D01*
X5053465Y-6568881D02*
X5057781Y-6577743D01*
X10491884Y-5047553D02*
X10246773Y-5029318D01*
X9999987Y-5023203D02*
X10000005Y-5023203D01*
X6507060Y-5042045D02*
X6497941Y-5038930D01*
D11*
X9190000Y-5620000D02*
G75*
G03*
X9190000Y-5620000I-200000J0D01*
G01*
D10*
X5040529Y-6432522D02*
X5038410Y-6442225D01*
X5732325Y-12555469D02*
X5862782Y-12761324D01*
X14811576Y-13521220D02*
X14801567Y-13519947D01*
X5043055Y-13623576D02*
X5038638Y-13632199D01*
X5019946Y-14801553D02*
X5021218Y-14811560D01*
X14849869Y-14968958D02*
X14858950Y-14965377D01*
X14922266Y-9265073D02*
X14880295Y-9024534D01*
X5058641Y-14900754D02*
X5064577Y-14908308D01*
X5070862Y-14915565D02*
X5077484Y-14922510D01*
X5018914Y-13718899D02*
X5018914Y-13718899D01*
X6440713Y-5030148D02*
X6430956Y-5030397D01*
X6402145Y-5034088D02*
X6392750Y-5036275D01*
X5175265Y-8787161D02*
X5135437Y-8957020D01*
X5794422Y-7346885D02*
X5702996Y-7497184D01*
X5221007Y-8618853D02*
X5175265Y-8787161D01*
X14951945Y-10492098D02*
X14970441Y-10246896D01*
X6533371Y-5054084D02*
X6524791Y-5049629D01*
X5132201Y-13538636D02*
X5123578Y-13543053D01*
X8757906Y-5182806D02*
X8585789Y-5230793D01*
X5239930Y-11447794D02*
X5316526Y-11678421D01*
X5025212Y-13668921D02*
X5022979Y-13678596D01*
X5022976Y-14821408D02*
X5025209Y-14831082D01*
X14929139Y-14915572D02*
X14935425Y-14908316D01*
X14941362Y-14900761D02*
X14946937Y-14892920D01*
X5107089Y-13553070D02*
X5099249Y-13558646D01*
X14685379Y-8321944D02*
X14597968Y-8095449D01*
X13845649Y-13154141D02*
X13996465Y-12961056D01*
X7278417Y-5814903D02*
X7274573Y-5809529D01*
X14497098Y-12126914D02*
X14595750Y-11904969D01*
X5070870Y-13584436D02*
X5064585Y-13591692D01*
X14499620Y-7873485D02*
X14390504Y-7656459D01*
X14972106Y-13659436D02*
X14968962Y-13650144D01*
X5034835Y-6492131D02*
X5035556Y-6502139D01*
X6383485Y-5038930D02*
X6374367Y-5042045D01*
X5092243Y-6625741D02*
X5092243Y-6625741D01*
X6356636Y-5049629D02*
X6348055Y-5054084D01*
X14977033Y-13678600D02*
X14974800Y-13668925D01*
X11904531Y-5402028D02*
X11678036Y-5314620D01*
X14791411Y-13519173D02*
X14781120Y-13518912D01*
X14137188Y-12761383D02*
X14267647Y-12555529D01*
X11213087Y-5173291D02*
X10975449Y-5119708D01*
X14825376Y-11213484D02*
X14879243Y-10975800D01*
X5198442Y-14980061D02*
X5208598Y-14980834D01*
X5034633Y-13641057D02*
X5031052Y-13650139D01*
X6579852Y-5089659D02*
X6572781Y-5082711D01*
X5027904Y-14840572D02*
X5031048Y-14849863D01*
X5079168Y-6353272D02*
X5073216Y-6361159D01*
X14921489Y-10735202D02*
X14951945Y-10492098D01*
X13340298Y-6310679D02*
X13154083Y-6150256D01*
X14980835Y-14791399D02*
X14981096Y-14781108D01*
X6348055Y-5054084D02*
X6339686Y-5058971D01*
X5034593Y-6482054D02*
X5034593Y-6482054D01*
X13154083Y-6150256D02*
X12960890Y-5999756D01*
X6315051Y-13340175D02*
X6485542Y-13518861D01*
X14900771Y-13558652D02*
X14892930Y-13553076D01*
X5159433Y-13527906D02*
X5150141Y-13531050D01*
X13849732Y-6845900D02*
X13689307Y-6659686D01*
X10734912Y-5077740D02*
X10491884Y-5047553D01*
X14884817Y-13547874D02*
X14876442Y-13543058D01*
X14946944Y-13607095D02*
X14941369Y-13599254D01*
X14908325Y-13564590D02*
X14900771Y-13558652D01*
X14880295Y-9024534D02*
X14826711Y-8786894D01*
X6524791Y-5049629D02*
X6516015Y-5045614D01*
X5031048Y-14849863D02*
X5034628Y-14858944D01*
X14892920Y-14946937D02*
X14900761Y-14941362D01*
X5047864Y-14884799D02*
X5053065Y-14892913D01*
X14876432Y-14956955D02*
X14884806Y-14952139D01*
X5035556Y-6461969D02*
X5034835Y-6471978D01*
X6308645Y-5082711D02*
X6301574Y-5089659D01*
X6557781Y-5070017D02*
X6549882Y-5064285D01*
X5038638Y-13632199D02*
X5034633Y-13641057D01*
X7917329Y-5483709D02*
X7756051Y-5561932D01*
X6485542Y-13518861D02*
X6485542Y-13518861D01*
X14981096Y-14781108D02*
X14981096Y-13718899D01*
D12*
D13*
X6470000Y-7690000D02*
X6510000Y-7730000D01*
X6510000Y-7690000D02*
X6470000Y-7730000D01*
X7790000Y-6860000D02*
X7830000Y-6900000D01*
X7830000Y-6860000D02*
X7790000Y-6900000D01*
X7790000Y-7790000D02*
X7830000Y-7830000D01*
X7830000Y-7790000D02*
X7790000Y-7830000D01*
X11320000Y-8260000D02*
X11360000Y-8300000D01*
X11360000Y-8260000D02*
X11320000Y-8300000D01*
X11700000Y-9530000D02*
X11740000Y-9570000D01*
X11740000Y-9530000D02*
X11700000Y-9570000D01*
X12990000Y-10250000D02*
X13030000Y-10290000D01*
X13030000Y-10250000D02*
X12990000Y-10290000D01*
X13140000Y-13480000D02*
X13180000Y-13520000D01*
X13180000Y-13480000D02*
X13140000Y-13520000D01*
D14*
X5737500Y-9755000D02*
G75*
G03*
X5737500Y-9755000I-37500J0D01*
G01*
X5937500Y-9755000D02*
G75*
G03*
X5937500Y-9755000I-37500J0D01*
G01*
D11*
X5830239Y-6137328D02*
X5830239Y-6237328D01*
X5780239Y-6187328D02*
X5880239Y-6187328D01*
X6009844Y-5957723D02*
X6009844Y-6057723D01*
X5959844Y-6007723D02*
X6059844Y-6007723D01*
X6009844Y-6316933D02*
X6009844Y-6416933D01*
X5959844Y-6366933D02*
X6059844Y-6366933D01*
X6189449Y-5778117D02*
X6189449Y-5878117D01*
X6139449Y-5828117D02*
X6239449Y-5828117D01*
X6189449Y-6137328D02*
X6189449Y-6237328D01*
X6139449Y-6187328D02*
X6239449Y-6187328D01*
X6369054Y-5957723D02*
X6369054Y-6057723D01*
X6319054Y-6007723D02*
X6419054Y-6007723D01*
X6575000Y-14075000D02*
X6575000Y-14175000D01*
X6525000Y-14125000D02*
X6625000Y-14125000D01*
X6575000Y-14329000D02*
X6575000Y-14429000D01*
X6525000Y-14379000D02*
X6625000Y-14379000D01*
X6829000Y-14075000D02*
X6829000Y-14175000D01*
X6779000Y-14125000D02*
X6879000Y-14125000D01*
X6829000Y-14329000D02*
X6829000Y-14429000D01*
X6779000Y-14379000D02*
X6879000Y-14379000D01*
X9875000Y-5425000D02*
X9875000Y-5525000D01*
X9825000Y-5475000D02*
X9925000Y-5475000D01*
X9875000Y-5679000D02*
X9875000Y-5779000D01*
X9825000Y-5729000D02*
X9925000Y-5729000D01*
X10129000Y-5425000D02*
X10129000Y-5525000D01*
X10079000Y-5475000D02*
X10179000Y-5475000D01*
X10129000Y-5679000D02*
X10129000Y-5779000D01*
X10079000Y-5729000D02*
X10179000Y-5729000D01*
X11641608Y-5778709D02*
X11641608Y-5878709D01*
X11591608Y-5828709D02*
X11691608Y-5828709D01*
X11776846Y-5488691D02*
X11776846Y-5588691D01*
X11726846Y-5538691D02*
X11826846Y-5538691D01*
X11868185Y-5884364D02*
X11868185Y-5984364D01*
X11818185Y-5934364D02*
X11918185Y-5934364D01*
X12003423Y-5594345D02*
X12003423Y-5694345D01*
X11953423Y-5644345D02*
X12053423Y-5644345D01*
X12094762Y-5990018D02*
X12094762Y-6090018D01*
X12044762Y-6040018D02*
X12144762Y-6040018D01*
X12130000Y-8764000D02*
X12130000Y-8864000D01*
X12080000Y-8814000D02*
X12180000Y-8814000D01*
X12130000Y-11050000D02*
X12130000Y-11150000D01*
X12080000Y-11100000D02*
X12180000Y-11100000D01*
X12230000Y-5700000D02*
X12230000Y-5800000D01*
X12180000Y-5750000D02*
X12280000Y-5750000D01*
X12384000Y-8764000D02*
X12384000Y-8864000D01*
X12334000Y-8814000D02*
X12434000Y-8814000D01*
X12384000Y-11050000D02*
X12384000Y-11150000D01*
X12334000Y-11100000D02*
X12434000Y-11100000D01*
X12638000Y-8764000D02*
X12638000Y-8864000D01*
X12588000Y-8814000D02*
X12688000Y-8814000D01*
X12638000Y-11050000D02*
X12638000Y-11150000D01*
X12588000Y-11100000D02*
X12688000Y-11100000D01*
X12892000Y-8764000D02*
X12892000Y-8864000D01*
X12842000Y-8814000D02*
X12942000Y-8814000D01*
X12892000Y-11050000D02*
X12892000Y-11150000D01*
X12842000Y-11100000D02*
X12942000Y-11100000D01*
X13146000Y-8764000D02*
X13146000Y-8864000D01*
X13096000Y-8814000D02*
X13196000Y-8814000D01*
X13146000Y-11050000D02*
X13146000Y-11150000D01*
X13096000Y-11100000D02*
X13196000Y-11100000D01*
X13175000Y-14075000D02*
X13175000Y-14175000D01*
X13125000Y-14125000D02*
X13225000Y-14125000D01*
X13175000Y-14329000D02*
X13175000Y-14429000D01*
X13125000Y-14379000D02*
X13225000Y-14379000D01*
X13400000Y-8764000D02*
X13400000Y-8864000D01*
X13350000Y-8814000D02*
X13450000Y-8814000D01*
X13400000Y-11050000D02*
X13400000Y-11150000D01*
X13350000Y-11100000D02*
X13450000Y-11100000D01*
X13429000Y-14075000D02*
X13429000Y-14175000D01*
X13379000Y-14125000D02*
X13479000Y-14125000D01*
X13429000Y-14329000D02*
X13429000Y-14429000D01*
X13379000Y-14379000D02*
X13479000Y-14379000D01*
X13460000Y-6902000D02*
X13460000Y-7002000D01*
X13410000Y-6952000D02*
X13510000Y-6952000D01*
X13460000Y-7156000D02*
X13460000Y-7256000D01*
X13410000Y-7206000D02*
X13510000Y-7206000D01*
X13460000Y-7410000D02*
X13460000Y-7510000D01*
X13410000Y-7460000D02*
X13510000Y-7460000D01*
X13460000Y-7664000D02*
X13460000Y-7764000D01*
X13410000Y-7714000D02*
X13510000Y-7714000D01*
X13460000Y-7918000D02*
X13460000Y-8018000D01*
X13410000Y-7968000D02*
X13510000Y-7968000D01*
X13460000Y-8172000D02*
X13460000Y-8272000D01*
X13410000Y-8222000D02*
X13510000Y-8222000D01*
X13654000Y-8764000D02*
X13654000Y-8864000D01*
X13604000Y-8814000D02*
X13704000Y-8814000D01*
X13654000Y-11050000D02*
X13654000Y-11150000D01*
X13604000Y-11100000D02*
X13704000Y-11100000D01*
X13908000Y-8764000D02*
X13908000Y-8864000D01*
X13858000Y-8814000D02*
X13958000Y-8814000D01*
X13908000Y-11050000D02*
X13908000Y-11150000D01*
X13858000Y-11100000D02*
X13958000Y-11100000D01*
D15*
X6940901Y-9594701D02*
X6940901Y-9522859D01*
X6869059Y-9522859D01*
X6869059Y-9594701D01*
X6940901Y-9594701D01*
X7250781Y-10359241D02*
X7250781Y-10287399D01*
X7178939Y-10287399D01*
X7178939Y-10359241D01*
X7250781Y-10359241D01*
X7842601Y-7440781D02*
X7842601Y-7368939D01*
X7770759Y-7368939D01*
X7770759Y-7440781D01*
X7842601Y-7440781D01*
X9417401Y-7130901D02*
X9417401Y-7059059D01*
X9345559Y-7059059D01*
X9345559Y-7130901D01*
X9417401Y-7130901D01*
X10174321Y-10948521D02*
X10174321Y-10876679D01*
X10102479Y-10876679D01*
X10102479Y-10948521D01*
X10174321Y-10948521D01*
X10758521Y-10361781D02*
X10758521Y-10289939D01*
X10686679Y-10289939D01*
X10686679Y-10361781D01*
X10758521Y-10361781D01*
D16*
X5425000Y-14080000D02*
X5480000Y-14025000D01*
X5425000Y-13970000D01*
X5370000Y-14025000D01*
X5425000Y-14080000D01*
X5425000Y-14530000D02*
X5480000Y-14475000D01*
X5425000Y-14420000D01*
X5370000Y-14475000D01*
X5425000Y-14530000D01*
X6075000Y-14080000D02*
X6130000Y-14025000D01*
X6075000Y-13970000D01*
X6020000Y-14025000D01*
X6075000Y-14080000D01*
X6075000Y-14530000D02*
X6130000Y-14475000D01*
X6075000Y-14420000D01*
X6020000Y-14475000D01*
X6075000Y-14530000D01*
X13925000Y-14080000D02*
X13980000Y-14025000D01*
X13925000Y-13970000D01*
X13870000Y-14025000D01*
X13925000Y-14080000D01*
X13925000Y-14530000D02*
X13980000Y-14475000D01*
X13925000Y-14420000D01*
X13870000Y-14475000D01*
X13925000Y-14530000D01*
X14575000Y-14080000D02*
X14630000Y-14025000D01*
X14575000Y-13970000D01*
X14520000Y-14025000D01*
X14575000Y-14080000D01*
X14575000Y-14530000D02*
X14630000Y-14475000D01*
X14575000Y-14420000D01*
X14520000Y-14475000D01*
X14575000Y-14530000D01*
D12*
X5253317Y-15314787D02*
X5253317Y-15114787D01*
X5300936Y-15114787D01*
X5329508Y-15124311D01*
X5348555Y-15143359D01*
X5358079Y-15162406D01*
X5367603Y-15200502D01*
X5367603Y-15229073D01*
X5358079Y-15267168D01*
X5348555Y-15286216D01*
X5329508Y-15305264D01*
X5300936Y-15314787D01*
X5253317Y-15314787D01*
X5453317Y-15314787D02*
X5453317Y-15181454D01*
X5453317Y-15219549D02*
X5462841Y-15200502D01*
X5472365Y-15190978D01*
X5491412Y-15181454D01*
X5510460Y-15181454D01*
X5577127Y-15314787D02*
X5577127Y-15181454D01*
X5577127Y-15114787D02*
X5567603Y-15124311D01*
X5577127Y-15133835D01*
X5586651Y-15124311D01*
X5577127Y-15114787D01*
X5577127Y-15133835D01*
X5700936Y-15314787D02*
X5681889Y-15305264D01*
X5672365Y-15286216D01*
X5672365Y-15114787D01*
X5805698Y-15314787D02*
X5786650Y-15305264D01*
X5777127Y-15286216D01*
X5777127Y-15114787D01*
X6034270Y-15314787D02*
X6034270Y-15114787D01*
X6100936Y-15257645D01*
X6167603Y-15114787D01*
X6167603Y-15314787D01*
X6348555Y-15314787D02*
X6348555Y-15210025D01*
X6339031Y-15190978D01*
X6319984Y-15181454D01*
X6281889Y-15181454D01*
X6262841Y-15190978D01*
X6348555Y-15305264D02*
X6329508Y-15314787D01*
X6281889Y-15314787D01*
X6262841Y-15305264D01*
X6253317Y-15286216D01*
X6253317Y-15267168D01*
X6262841Y-15248121D01*
X6281889Y-15238597D01*
X6329508Y-15238597D01*
X6348555Y-15229073D01*
X6443793Y-15181454D02*
X6443793Y-15381454D01*
X6443793Y-15190978D02*
X6462841Y-15181454D01*
X6500936Y-15181454D01*
X6519984Y-15190978D01*
X6529508Y-15200502D01*
X6539031Y-15219549D01*
X6539031Y-15276692D01*
X6529508Y-15295740D01*
X6519984Y-15305264D01*
X6500936Y-15314787D01*
X6462841Y-15314787D01*
X6443793Y-15305264D01*
X6624746Y-15295740D02*
X6634270Y-15305264D01*
X6624746Y-15314787D01*
X6615222Y-15305264D01*
X6624746Y-15295740D01*
X6624746Y-15314787D01*
X6624746Y-15190978D02*
X6634270Y-15200502D01*
X6624746Y-15210025D01*
X6615222Y-15200502D01*
X6624746Y-15190978D01*
X6624746Y-15210025D01*
D13*
X4955698Y-15624311D02*
X4995698Y-15664311D01*
X4995698Y-15624311D02*
X4955698Y-15664311D01*
D12*
X5291412Y-15534787D02*
X5310460Y-15534787D01*
X5329508Y-15544311D01*
X5339032Y-15553835D01*
X5348555Y-15572883D01*
X5358079Y-15610978D01*
X5358079Y-15658597D01*
X5348555Y-15696692D01*
X5339032Y-15715740D01*
X5329508Y-15725264D01*
X5310460Y-15734787D01*
X5291412Y-15734787D01*
X5272365Y-15725264D01*
X5262841Y-15715740D01*
X5253317Y-15696692D01*
X5243793Y-15658597D01*
X5243793Y-15610978D01*
X5253317Y-15572883D01*
X5262841Y-15553835D01*
X5272365Y-15544311D01*
X5291412Y-15534787D01*
X5443793Y-15715740D02*
X5453317Y-15725264D01*
X5443793Y-15734787D01*
X5434270Y-15725264D01*
X5443793Y-15715740D01*
X5443793Y-15734787D01*
X5624746Y-15601454D02*
X5624746Y-15734787D01*
X5577127Y-15525264D02*
X5529508Y-15668121D01*
X5653317Y-15668121D01*
X5767603Y-15534787D02*
X5786650Y-15534787D01*
X5805698Y-15544311D01*
X5815222Y-15553835D01*
X5824746Y-15572883D01*
X5834270Y-15610978D01*
X5834270Y-15658597D01*
X5824746Y-15696692D01*
X5815222Y-15715740D01*
X5805698Y-15725264D01*
X5786650Y-15734787D01*
X5767603Y-15734787D01*
X5748555Y-15725264D01*
X5739031Y-15715740D01*
X5729508Y-15696692D01*
X5719984Y-15658597D01*
X5719984Y-15610978D01*
X5729508Y-15572883D01*
X5739031Y-15553835D01*
X5748555Y-15544311D01*
X5767603Y-15534787D01*
X5958079Y-15534787D02*
X5977127Y-15534787D01*
X5996174Y-15544311D01*
X6005698Y-15553835D01*
X6015222Y-15572883D01*
X6024746Y-15610978D01*
X6024746Y-15658597D01*
X6015222Y-15696692D01*
X6005698Y-15715740D01*
X5996174Y-15725264D01*
X5977127Y-15734787D01*
X5958079Y-15734787D01*
X5939031Y-15725264D01*
X5929508Y-15715740D01*
X5919984Y-15696692D01*
X5910460Y-15658597D01*
X5910460Y-15610978D01*
X5919984Y-15572883D01*
X5929508Y-15553835D01*
X5939031Y-15544311D01*
X5958079Y-15534787D01*
X6110460Y-15734787D02*
X6110460Y-15601454D01*
X6110460Y-15620502D02*
X6119984Y-15610978D01*
X6139031Y-15601454D01*
X6167603Y-15601454D01*
X6186650Y-15610978D01*
X6196174Y-15630025D01*
X6196174Y-15734787D01*
X6196174Y-15630025D02*
X6205698Y-15610978D01*
X6224746Y-15601454D01*
X6253317Y-15601454D01*
X6272365Y-15610978D01*
X6281889Y-15630025D01*
X6281889Y-15734787D01*
X6377127Y-15734787D02*
X6377127Y-15601454D01*
X6377127Y-15620502D02*
X6386650Y-15610978D01*
X6405698Y-15601454D01*
X6434270Y-15601454D01*
X6453317Y-15610978D01*
X6462841Y-15630025D01*
X6462841Y-15734787D01*
X6462841Y-15630025D02*
X6472365Y-15610978D01*
X6491412Y-15601454D01*
X6519984Y-15601454D01*
X6539031Y-15610978D01*
X6548555Y-15630025D01*
X6548555Y-15734787D01*
X6939031Y-15525264D02*
X6767603Y-15782406D01*
X7196174Y-15534787D02*
X7215222Y-15534787D01*
X7234270Y-15544311D01*
X7243793Y-15553835D01*
X7253317Y-15572883D01*
X7262841Y-15610978D01*
X7262841Y-15658597D01*
X7253317Y-15696692D01*
X7243793Y-15715740D01*
X7234270Y-15725264D01*
X7215222Y-15734787D01*
X7196174Y-15734787D01*
X7177127Y-15725264D01*
X7167603Y-15715740D01*
X7158079Y-15696692D01*
X7148555Y-15658597D01*
X7148555Y-15610978D01*
X7158079Y-15572883D01*
X7167603Y-15553835D01*
X7177127Y-15544311D01*
X7196174Y-15534787D01*
X7348555Y-15715740D02*
X7358079Y-15725264D01*
X7348555Y-15734787D01*
X7339031Y-15725264D01*
X7348555Y-15715740D01*
X7348555Y-15734787D01*
X7481889Y-15534787D02*
X7500936Y-15534787D01*
X7519984Y-15544311D01*
X7529508Y-15553835D01*
X7539031Y-15572883D01*
X7548555Y-15610978D01*
X7548555Y-15658597D01*
X7539031Y-15696692D01*
X7529508Y-15715740D01*
X7519984Y-15725264D01*
X7500936Y-15734787D01*
X7481889Y-15734787D01*
X7462841Y-15725264D01*
X7453317Y-15715740D01*
X7443793Y-15696692D01*
X7434270Y-15658597D01*
X7434270Y-15610978D01*
X7443793Y-15572883D01*
X7453317Y-15553835D01*
X7462841Y-15544311D01*
X7481889Y-15534787D01*
X7739031Y-15734787D02*
X7624746Y-15734787D01*
X7681889Y-15734787D02*
X7681889Y-15534787D01*
X7662841Y-15563359D01*
X7643793Y-15582406D01*
X7624746Y-15591930D01*
X7919984Y-15534787D02*
X7824746Y-15534787D01*
X7815222Y-15630025D01*
X7824746Y-15620502D01*
X7843793Y-15610978D01*
X7891412Y-15610978D01*
X7910460Y-15620502D01*
X7919984Y-15630025D01*
X7929508Y-15649073D01*
X7929508Y-15696692D01*
X7919984Y-15715740D01*
X7910460Y-15725264D01*
X7891412Y-15734787D01*
X7843793Y-15734787D01*
X7824746Y-15725264D01*
X7815222Y-15715740D01*
X7996174Y-15534787D02*
X8129508Y-15534787D01*
X8043793Y-15734787D01*
X8196174Y-15534787D02*
X8196174Y-15572883D01*
X8272365Y-15534787D02*
X8272365Y-15572883D01*
X8567603Y-15810978D02*
X8558079Y-15801454D01*
X8539032Y-15772883D01*
X8529508Y-15753835D01*
X8519984Y-15725264D01*
X8510460Y-15677645D01*
X8510460Y-15639549D01*
X8519984Y-15591930D01*
X8529508Y-15563359D01*
X8539032Y-15544311D01*
X8558079Y-15515740D01*
X8567603Y-15506216D01*
X8624746Y-15534787D02*
X8758079Y-15534787D01*
X8672365Y-15734787D01*
X8986651Y-15734787D02*
X8986651Y-15534787D01*
X9072365Y-15734787D02*
X9072365Y-15630025D01*
X9062841Y-15610978D01*
X9043793Y-15601454D01*
X9015222Y-15601454D01*
X8996174Y-15610978D01*
X8986651Y-15620502D01*
X9196174Y-15734787D02*
X9177127Y-15725264D01*
X9167603Y-15715740D01*
X9158079Y-15696692D01*
X9158079Y-15639549D01*
X9167603Y-15620502D01*
X9177127Y-15610978D01*
X9196174Y-15601454D01*
X9224746Y-15601454D01*
X9243793Y-15610978D01*
X9253317Y-15620502D01*
X9262841Y-15639549D01*
X9262841Y-15696692D01*
X9253317Y-15715740D01*
X9243793Y-15725264D01*
X9224746Y-15734787D01*
X9196174Y-15734787D01*
X9377127Y-15734787D02*
X9358079Y-15725264D01*
X9348555Y-15706216D01*
X9348555Y-15534787D01*
X9529508Y-15725264D02*
X9510460Y-15734787D01*
X9472365Y-15734787D01*
X9453317Y-15725264D01*
X9443793Y-15706216D01*
X9443793Y-15630025D01*
X9453317Y-15610978D01*
X9472365Y-15601454D01*
X9510460Y-15601454D01*
X9529508Y-15610978D01*
X9539032Y-15630025D01*
X9539032Y-15649073D01*
X9443793Y-15668121D01*
X9615222Y-15725264D02*
X9634270Y-15734787D01*
X9672365Y-15734787D01*
X9691412Y-15725264D01*
X9700936Y-15706216D01*
X9700936Y-15696692D01*
X9691412Y-15677645D01*
X9672365Y-15668121D01*
X9643793Y-15668121D01*
X9624746Y-15658597D01*
X9615222Y-15639549D01*
X9615222Y-15630025D01*
X9624746Y-15610978D01*
X9643793Y-15601454D01*
X9672365Y-15601454D01*
X9691412Y-15610978D01*
X9767603Y-15810978D02*
X9777127Y-15801454D01*
X9796174Y-15772883D01*
X9805698Y-15753835D01*
X9815222Y-15725264D01*
X9824746Y-15677645D01*
X9824746Y-15639549D01*
X9815222Y-15591930D01*
X9805698Y-15563359D01*
X9796174Y-15544311D01*
X9777127Y-15515740D01*
X9767603Y-15506216D01*
D14*
X4995698Y-15908311D02*
G75*
G03*
X4995698Y-15908311I-37500J0D01*
G01*
D12*
X5291412Y-15798787D02*
X5310460Y-15798787D01*
X5329508Y-15808311D01*
X5339032Y-15817835D01*
X5348555Y-15836883D01*
X5358079Y-15874978D01*
X5358079Y-15922597D01*
X5348555Y-15960692D01*
X5339032Y-15979740D01*
X5329508Y-15989264D01*
X5310460Y-15998787D01*
X5291412Y-15998787D01*
X5272365Y-15989264D01*
X5262841Y-15979740D01*
X5253317Y-15960692D01*
X5243793Y-15922597D01*
X5243793Y-15874978D01*
X5253317Y-15836883D01*
X5262841Y-15817835D01*
X5272365Y-15808311D01*
X5291412Y-15798787D01*
X5443793Y-15979740D02*
X5453317Y-15989264D01*
X5443793Y-15998787D01*
X5434270Y-15989264D01*
X5443793Y-15979740D01*
X5443793Y-15998787D01*
X5519984Y-15798787D02*
X5653317Y-15798787D01*
X5567603Y-15998787D01*
X5824746Y-15798787D02*
X5729508Y-15798787D01*
X5719984Y-15894025D01*
X5729508Y-15884502D01*
X5748555Y-15874978D01*
X5796174Y-15874978D01*
X5815222Y-15884502D01*
X5824746Y-15894025D01*
X5834270Y-15913073D01*
X5834270Y-15960692D01*
X5824746Y-15979740D01*
X5815222Y-15989264D01*
X5796174Y-15998787D01*
X5748555Y-15998787D01*
X5729508Y-15989264D01*
X5719984Y-15979740D01*
X5958079Y-15798787D02*
X5977127Y-15798787D01*
X5996174Y-15808311D01*
X6005698Y-15817835D01*
X6015222Y-15836883D01*
X6024746Y-15874978D01*
X6024746Y-15922597D01*
X6015222Y-15960692D01*
X6005698Y-15979740D01*
X5996174Y-15989264D01*
X5977127Y-15998787D01*
X5958079Y-15998787D01*
X5939031Y-15989264D01*
X5929508Y-15979740D01*
X5919984Y-15960692D01*
X5910460Y-15922597D01*
X5910460Y-15874978D01*
X5919984Y-15836883D01*
X5929508Y-15817835D01*
X5939031Y-15808311D01*
X5958079Y-15798787D01*
X6110460Y-15998787D02*
X6110460Y-15865454D01*
X6110460Y-15884502D02*
X6119984Y-15874978D01*
X6139031Y-15865454D01*
X6167603Y-15865454D01*
X6186650Y-15874978D01*
X6196174Y-15894025D01*
X6196174Y-15998787D01*
X6196174Y-15894025D02*
X6205698Y-15874978D01*
X6224746Y-15865454D01*
X6253317Y-15865454D01*
X6272365Y-15874978D01*
X6281889Y-15894025D01*
X6281889Y-15998787D01*
X6377127Y-15998787D02*
X6377127Y-15865454D01*
X6377127Y-15884502D02*
X6386650Y-15874978D01*
X6405698Y-15865454D01*
X6434270Y-15865454D01*
X6453317Y-15874978D01*
X6462841Y-15894025D01*
X6462841Y-15998787D01*
X6462841Y-15894025D02*
X6472365Y-15874978D01*
X6491412Y-15865454D01*
X6519984Y-15865454D01*
X6539031Y-15874978D01*
X6548555Y-15894025D01*
X6548555Y-15998787D01*
X6939031Y-15789264D02*
X6767603Y-16046406D01*
X7196174Y-15798787D02*
X7215222Y-15798787D01*
X7234270Y-15808311D01*
X7243793Y-15817835D01*
X7253317Y-15836883D01*
X7262841Y-15874978D01*
X7262841Y-15922597D01*
X7253317Y-15960692D01*
X7243793Y-15979740D01*
X7234270Y-15989264D01*
X7215222Y-15998787D01*
X7196174Y-15998787D01*
X7177127Y-15989264D01*
X7167603Y-15979740D01*
X7158079Y-15960692D01*
X7148555Y-15922597D01*
X7148555Y-15874978D01*
X7158079Y-15836883D01*
X7167603Y-15817835D01*
X7177127Y-15808311D01*
X7196174Y-15798787D01*
X7348555Y-15979740D02*
X7358079Y-15989264D01*
X7348555Y-15998787D01*
X7339031Y-15989264D01*
X7348555Y-15979740D01*
X7348555Y-15998787D01*
X7481889Y-15798787D02*
X7500936Y-15798787D01*
X7519984Y-15808311D01*
X7529508Y-15817835D01*
X7539031Y-15836883D01*
X7548555Y-15874978D01*
X7548555Y-15922597D01*
X7539031Y-15960692D01*
X7529508Y-15979740D01*
X7519984Y-15989264D01*
X7500936Y-15998787D01*
X7481889Y-15998787D01*
X7462841Y-15989264D01*
X7453317Y-15979740D01*
X7443793Y-15960692D01*
X7434270Y-15922597D01*
X7434270Y-15874978D01*
X7443793Y-15836883D01*
X7453317Y-15817835D01*
X7462841Y-15808311D01*
X7481889Y-15798787D01*
X7624746Y-15817835D02*
X7634270Y-15808311D01*
X7653317Y-15798787D01*
X7700936Y-15798787D01*
X7719984Y-15808311D01*
X7729508Y-15817835D01*
X7739031Y-15836883D01*
X7739031Y-15855930D01*
X7729508Y-15884502D01*
X7615222Y-15998787D01*
X7739031Y-15998787D01*
X7834270Y-15998787D02*
X7872365Y-15998787D01*
X7891412Y-15989264D01*
X7900936Y-15979740D01*
X7919984Y-15951168D01*
X7929508Y-15913073D01*
X7929508Y-15836883D01*
X7919984Y-15817835D01*
X7910460Y-15808311D01*
X7891412Y-15798787D01*
X7853317Y-15798787D01*
X7834270Y-15808311D01*
X7824746Y-15817835D01*
X7815222Y-15836883D01*
X7815222Y-15884502D01*
X7824746Y-15903549D01*
X7834270Y-15913073D01*
X7853317Y-15922597D01*
X7891412Y-15922597D01*
X7910460Y-15913073D01*
X7919984Y-15903549D01*
X7929508Y-15884502D01*
X8110460Y-15798787D02*
X8015222Y-15798787D01*
X8005698Y-15894025D01*
X8015222Y-15884502D01*
X8034270Y-15874978D01*
X8081889Y-15874978D01*
X8100936Y-15884502D01*
X8110460Y-15894025D01*
X8119984Y-15913073D01*
X8119984Y-15960692D01*
X8110460Y-15979740D01*
X8100936Y-15989264D01*
X8081889Y-15998787D01*
X8034270Y-15998787D01*
X8015222Y-15989264D01*
X8005698Y-15979740D01*
X8196174Y-15798787D02*
X8196174Y-15836883D01*
X8272365Y-15798787D02*
X8272365Y-15836883D01*
X8567603Y-16074978D02*
X8558079Y-16065454D01*
X8539032Y-16036883D01*
X8529508Y-16017835D01*
X8519984Y-15989264D01*
X8510460Y-15941645D01*
X8510460Y-15903549D01*
X8519984Y-15855930D01*
X8529508Y-15827359D01*
X8539032Y-15808311D01*
X8558079Y-15779740D01*
X8567603Y-15770216D01*
X8634270Y-15817835D02*
X8643793Y-15808311D01*
X8662841Y-15798787D01*
X8710460Y-15798787D01*
X8729508Y-15808311D01*
X8739032Y-15817835D01*
X8748555Y-15836883D01*
X8748555Y-15855930D01*
X8739032Y-15884502D01*
X8624746Y-15998787D01*
X8748555Y-15998787D01*
X8986651Y-15998787D02*
X8986651Y-15798787D01*
X9072365Y-15998787D02*
X9072365Y-15894025D01*
X9062841Y-15874978D01*
X9043793Y-15865454D01*
X9015222Y-15865454D01*
X8996174Y-15874978D01*
X8986651Y-15884502D01*
X9196174Y-15998787D02*
X9177127Y-15989264D01*
X9167603Y-15979740D01*
X9158079Y-15960692D01*
X9158079Y-15903549D01*
X9167603Y-15884502D01*
X9177127Y-15874978D01*
X9196174Y-15865454D01*
X9224746Y-15865454D01*
X9243793Y-15874978D01*
X9253317Y-15884502D01*
X9262841Y-15903549D01*
X9262841Y-15960692D01*
X9253317Y-15979740D01*
X9243793Y-15989264D01*
X9224746Y-15998787D01*
X9196174Y-15998787D01*
X9377127Y-15998787D02*
X9358079Y-15989264D01*
X9348555Y-15970216D01*
X9348555Y-15798787D01*
X9529508Y-15989264D02*
X9510460Y-15998787D01*
X9472365Y-15998787D01*
X9453317Y-15989264D01*
X9443793Y-15970216D01*
X9443793Y-15894025D01*
X9453317Y-15874978D01*
X9472365Y-15865454D01*
X9510460Y-15865454D01*
X9529508Y-15874978D01*
X9539032Y-15894025D01*
X9539032Y-15913073D01*
X9443793Y-15932121D01*
X9615222Y-15989264D02*
X9634270Y-15998787D01*
X9672365Y-15998787D01*
X9691412Y-15989264D01*
X9700936Y-15970216D01*
X9700936Y-15960692D01*
X9691412Y-15941645D01*
X9672365Y-15932121D01*
X9643793Y-15932121D01*
X9624746Y-15922597D01*
X9615222Y-15903549D01*
X9615222Y-15894025D01*
X9624746Y-15874978D01*
X9643793Y-15865454D01*
X9672365Y-15865454D01*
X9691412Y-15874978D01*
X9767603Y-16074978D02*
X9777127Y-16065454D01*
X9796174Y-16036883D01*
X9805698Y-16017835D01*
X9815222Y-15989264D01*
X9824746Y-15941645D01*
X9824746Y-15903549D01*
X9815222Y-15855930D01*
X9805698Y-15827359D01*
X9796174Y-15808311D01*
X9777127Y-15779740D01*
X9767603Y-15770216D01*
D11*
X4945698Y-16122311D02*
X4945698Y-16222311D01*
X4895698Y-16172311D02*
X4995698Y-16172311D01*
D12*
X5358079Y-16262787D02*
X5243793Y-16262787D01*
X5300936Y-16262787D02*
X5300936Y-16062787D01*
X5281889Y-16091359D01*
X5262841Y-16110406D01*
X5243793Y-16119930D01*
X5443793Y-16243740D02*
X5453317Y-16253264D01*
X5443793Y-16262787D01*
X5434270Y-16253264D01*
X5443793Y-16243740D01*
X5443793Y-16262787D01*
X5577127Y-16062787D02*
X5596174Y-16062787D01*
X5615222Y-16072311D01*
X5624746Y-16081835D01*
X5634270Y-16100883D01*
X5643793Y-16138978D01*
X5643793Y-16186597D01*
X5634270Y-16224692D01*
X5624746Y-16243740D01*
X5615222Y-16253264D01*
X5596174Y-16262787D01*
X5577127Y-16262787D01*
X5558079Y-16253264D01*
X5548555Y-16243740D01*
X5539032Y-16224692D01*
X5529508Y-16186597D01*
X5529508Y-16138978D01*
X5539032Y-16100883D01*
X5548555Y-16081835D01*
X5558079Y-16072311D01*
X5577127Y-16062787D01*
X5767603Y-16062787D02*
X5786650Y-16062787D01*
X5805698Y-16072311D01*
X5815222Y-16081835D01*
X5824746Y-16100883D01*
X5834270Y-16138978D01*
X5834270Y-16186597D01*
X5824746Y-16224692D01*
X5815222Y-16243740D01*
X5805698Y-16253264D01*
X5786650Y-16262787D01*
X5767603Y-16262787D01*
X5748555Y-16253264D01*
X5739031Y-16243740D01*
X5729508Y-16224692D01*
X5719984Y-16186597D01*
X5719984Y-16138978D01*
X5729508Y-16100883D01*
X5739031Y-16081835D01*
X5748555Y-16072311D01*
X5767603Y-16062787D01*
X5958079Y-16062787D02*
X5977127Y-16062787D01*
X5996174Y-16072311D01*
X6005698Y-16081835D01*
X6015222Y-16100883D01*
X6024746Y-16138978D01*
X6024746Y-16186597D01*
X6015222Y-16224692D01*
X6005698Y-16243740D01*
X5996174Y-16253264D01*
X5977127Y-16262787D01*
X5958079Y-16262787D01*
X5939031Y-16253264D01*
X5929508Y-16243740D01*
X5919984Y-16224692D01*
X5910460Y-16186597D01*
X5910460Y-16138978D01*
X5919984Y-16100883D01*
X5929508Y-16081835D01*
X5939031Y-16072311D01*
X5958079Y-16062787D01*
X6110460Y-16262787D02*
X6110460Y-16129454D01*
X6110460Y-16148502D02*
X6119984Y-16138978D01*
X6139031Y-16129454D01*
X6167603Y-16129454D01*
X6186650Y-16138978D01*
X6196174Y-16158025D01*
X6196174Y-16262787D01*
X6196174Y-16158025D02*
X6205698Y-16138978D01*
X6224746Y-16129454D01*
X6253317Y-16129454D01*
X6272365Y-16138978D01*
X6281889Y-16158025D01*
X6281889Y-16262787D01*
X6377127Y-16262787D02*
X6377127Y-16129454D01*
X6377127Y-16148502D02*
X6386650Y-16138978D01*
X6405698Y-16129454D01*
X6434270Y-16129454D01*
X6453317Y-16138978D01*
X6462841Y-16158025D01*
X6462841Y-16262787D01*
X6462841Y-16158025D02*
X6472365Y-16138978D01*
X6491412Y-16129454D01*
X6519984Y-16129454D01*
X6539031Y-16138978D01*
X6548555Y-16158025D01*
X6548555Y-16262787D01*
X6939031Y-16053264D02*
X6767603Y-16310406D01*
X7196174Y-16062787D02*
X7215222Y-16062787D01*
X7234270Y-16072311D01*
X7243793Y-16081835D01*
X7253317Y-16100883D01*
X7262841Y-16138978D01*
X7262841Y-16186597D01*
X7253317Y-16224692D01*
X7243793Y-16243740D01*
X7234270Y-16253264D01*
X7215222Y-16262787D01*
X7196174Y-16262787D01*
X7177127Y-16253264D01*
X7167603Y-16243740D01*
X7158079Y-16224692D01*
X7148555Y-16186597D01*
X7148555Y-16138978D01*
X7158079Y-16100883D01*
X7167603Y-16081835D01*
X7177127Y-16072311D01*
X7196174Y-16062787D01*
X7348555Y-16243740D02*
X7358079Y-16253264D01*
X7348555Y-16262787D01*
X7339031Y-16253264D01*
X7348555Y-16243740D01*
X7348555Y-16262787D01*
X7481889Y-16062787D02*
X7500936Y-16062787D01*
X7519984Y-16072311D01*
X7529508Y-16081835D01*
X7539031Y-16100883D01*
X7548555Y-16138978D01*
X7548555Y-16186597D01*
X7539031Y-16224692D01*
X7529508Y-16243740D01*
X7519984Y-16253264D01*
X7500936Y-16262787D01*
X7481889Y-16262787D01*
X7462841Y-16253264D01*
X7453317Y-16243740D01*
X7443793Y-16224692D01*
X7434270Y-16186597D01*
X7434270Y-16138978D01*
X7443793Y-16100883D01*
X7453317Y-16081835D01*
X7462841Y-16072311D01*
X7481889Y-16062787D01*
X7615222Y-16062787D02*
X7739031Y-16062787D01*
X7672365Y-16138978D01*
X7700936Y-16138978D01*
X7719984Y-16148502D01*
X7729508Y-16158025D01*
X7739031Y-16177073D01*
X7739031Y-16224692D01*
X7729508Y-16243740D01*
X7719984Y-16253264D01*
X7700936Y-16262787D01*
X7643793Y-16262787D01*
X7624746Y-16253264D01*
X7615222Y-16243740D01*
X7834270Y-16262787D02*
X7872365Y-16262787D01*
X7891412Y-16253264D01*
X7900936Y-16243740D01*
X7919984Y-16215168D01*
X7929508Y-16177073D01*
X7929508Y-16100883D01*
X7919984Y-16081835D01*
X7910460Y-16072311D01*
X7891412Y-16062787D01*
X7853317Y-16062787D01*
X7834270Y-16072311D01*
X7824746Y-16081835D01*
X7815222Y-16100883D01*
X7815222Y-16148502D01*
X7824746Y-16167549D01*
X7834270Y-16177073D01*
X7853317Y-16186597D01*
X7891412Y-16186597D01*
X7910460Y-16177073D01*
X7919984Y-16167549D01*
X7929508Y-16148502D01*
X8100936Y-16129454D02*
X8100936Y-16262787D01*
X8053317Y-16053264D02*
X8005698Y-16196121D01*
X8129508Y-16196121D01*
X8196174Y-16062787D02*
X8196174Y-16100883D01*
X8272365Y-16062787D02*
X8272365Y-16100883D01*
X8567603Y-16338978D02*
X8558079Y-16329454D01*
X8539032Y-16300883D01*
X8529508Y-16281835D01*
X8519984Y-16253264D01*
X8510460Y-16205645D01*
X8510460Y-16167549D01*
X8519984Y-16119930D01*
X8529508Y-16091359D01*
X8539032Y-16072311D01*
X8558079Y-16043740D01*
X8567603Y-16034216D01*
X8729508Y-16129454D02*
X8729508Y-16262787D01*
X8681889Y-16053264D02*
X8634270Y-16196121D01*
X8758079Y-16196121D01*
X8919984Y-16062787D02*
X8881889Y-16062787D01*
X8862841Y-16072311D01*
X8853317Y-16081835D01*
X8834270Y-16110406D01*
X8824746Y-16148502D01*
X8824746Y-16224692D01*
X8834270Y-16243740D01*
X8843793Y-16253264D01*
X8862841Y-16262787D01*
X8900936Y-16262787D01*
X8919984Y-16253264D01*
X8929508Y-16243740D01*
X8939032Y-16224692D01*
X8939032Y-16177073D01*
X8929508Y-16158025D01*
X8919984Y-16148502D01*
X8900936Y-16138978D01*
X8862841Y-16138978D01*
X8843793Y-16148502D01*
X8834270Y-16158025D01*
X8824746Y-16177073D01*
X9177127Y-16262787D02*
X9177127Y-16062787D01*
X9262841Y-16262787D02*
X9262841Y-16158025D01*
X9253317Y-16138978D01*
X9234270Y-16129454D01*
X9205698Y-16129454D01*
X9186651Y-16138978D01*
X9177127Y-16148502D01*
X9386651Y-16262787D02*
X9367603Y-16253264D01*
X9358079Y-16243740D01*
X9348555Y-16224692D01*
X9348555Y-16167549D01*
X9358079Y-16148502D01*
X9367603Y-16138978D01*
X9386651Y-16129454D01*
X9415222Y-16129454D01*
X9434270Y-16138978D01*
X9443793Y-16148502D01*
X9453317Y-16167549D01*
X9453317Y-16224692D01*
X9443793Y-16243740D01*
X9434270Y-16253264D01*
X9415222Y-16262787D01*
X9386651Y-16262787D01*
X9567603Y-16262787D02*
X9548555Y-16253264D01*
X9539032Y-16234216D01*
X9539032Y-16062787D01*
X9719984Y-16253264D02*
X9700936Y-16262787D01*
X9662841Y-16262787D01*
X9643793Y-16253264D01*
X9634270Y-16234216D01*
X9634270Y-16158025D01*
X9643793Y-16138978D01*
X9662841Y-16129454D01*
X9700936Y-16129454D01*
X9719984Y-16138978D01*
X9729508Y-16158025D01*
X9729508Y-16177073D01*
X9634270Y-16196121D01*
X9805698Y-16253264D02*
X9824746Y-16262787D01*
X9862841Y-16262787D01*
X9881889Y-16253264D01*
X9891412Y-16234216D01*
X9891412Y-16224692D01*
X9881889Y-16205645D01*
X9862841Y-16196121D01*
X9834270Y-16196121D01*
X9815222Y-16186597D01*
X9805698Y-16167549D01*
X9805698Y-16158025D01*
X9815222Y-16138978D01*
X9834270Y-16129454D01*
X9862841Y-16129454D01*
X9881889Y-16138978D01*
X9958079Y-16338978D02*
X9967603Y-16329454D01*
X9986651Y-16300883D01*
X9996174Y-16281835D01*
X10005698Y-16253264D01*
X10015222Y-16205645D01*
X10015222Y-16167549D01*
X10005698Y-16119930D01*
X9996174Y-16091359D01*
X9986651Y-16072311D01*
X9967603Y-16043740D01*
X9958079Y-16034216D01*
D15*
X4980820Y-16472233D02*
X4980820Y-16400390D01*
X4908977Y-16400390D01*
X4908977Y-16472233D01*
X4980820Y-16472233D01*
D12*
X5358079Y-16526787D02*
X5243793Y-16526787D01*
X5300936Y-16526787D02*
X5300936Y-16326787D01*
X5281889Y-16355359D01*
X5262841Y-16374406D01*
X5243793Y-16383930D01*
X5443793Y-16507740D02*
X5453317Y-16517264D01*
X5443793Y-16526787D01*
X5434270Y-16517264D01*
X5443793Y-16507740D01*
X5443793Y-16526787D01*
X5577127Y-16326787D02*
X5596174Y-16326787D01*
X5615222Y-16336311D01*
X5624746Y-16345835D01*
X5634270Y-16364883D01*
X5643793Y-16402978D01*
X5643793Y-16450597D01*
X5634270Y-16488692D01*
X5624746Y-16507740D01*
X5615222Y-16517264D01*
X5596174Y-16526787D01*
X5577127Y-16526787D01*
X5558079Y-16517264D01*
X5548555Y-16507740D01*
X5539032Y-16488692D01*
X5529508Y-16450597D01*
X5529508Y-16402978D01*
X5539032Y-16364883D01*
X5548555Y-16345835D01*
X5558079Y-16336311D01*
X5577127Y-16326787D01*
X5834270Y-16526787D02*
X5719984Y-16526787D01*
X5777127Y-16526787D02*
X5777127Y-16326787D01*
X5758079Y-16355359D01*
X5739031Y-16374406D01*
X5719984Y-16383930D01*
X6005698Y-16326787D02*
X5967603Y-16326787D01*
X5948555Y-16336311D01*
X5939031Y-16345835D01*
X5919984Y-16374406D01*
X5910460Y-16412502D01*
X5910460Y-16488692D01*
X5919984Y-16507740D01*
X5929508Y-16517264D01*
X5948555Y-16526787D01*
X5986650Y-16526787D01*
X6005698Y-16517264D01*
X6015222Y-16507740D01*
X6024746Y-16488692D01*
X6024746Y-16441073D01*
X6015222Y-16422025D01*
X6005698Y-16412502D01*
X5986650Y-16402978D01*
X5948555Y-16402978D01*
X5929508Y-16412502D01*
X5919984Y-16422025D01*
X5910460Y-16441073D01*
X6110460Y-16526787D02*
X6110460Y-16393454D01*
X6110460Y-16412502D02*
X6119984Y-16402978D01*
X6139031Y-16393454D01*
X6167603Y-16393454D01*
X6186650Y-16402978D01*
X6196174Y-16422025D01*
X6196174Y-16526787D01*
X6196174Y-16422025D02*
X6205698Y-16402978D01*
X6224746Y-16393454D01*
X6253317Y-16393454D01*
X6272365Y-16402978D01*
X6281889Y-16422025D01*
X6281889Y-16526787D01*
X6377127Y-16526787D02*
X6377127Y-16393454D01*
X6377127Y-16412502D02*
X6386650Y-16402978D01*
X6405698Y-16393454D01*
X6434270Y-16393454D01*
X6453317Y-16402978D01*
X6462841Y-16422025D01*
X6462841Y-16526787D01*
X6462841Y-16422025D02*
X6472365Y-16402978D01*
X6491412Y-16393454D01*
X6519984Y-16393454D01*
X6539031Y-16402978D01*
X6548555Y-16422025D01*
X6548555Y-16526787D01*
X6939031Y-16317264D02*
X6767603Y-16574406D01*
X7196174Y-16326787D02*
X7215222Y-16326787D01*
X7234270Y-16336311D01*
X7243793Y-16345835D01*
X7253317Y-16364883D01*
X7262841Y-16402978D01*
X7262841Y-16450597D01*
X7253317Y-16488692D01*
X7243793Y-16507740D01*
X7234270Y-16517264D01*
X7215222Y-16526787D01*
X7196174Y-16526787D01*
X7177127Y-16517264D01*
X7167603Y-16507740D01*
X7158079Y-16488692D01*
X7148555Y-16450597D01*
X7148555Y-16402978D01*
X7158079Y-16364883D01*
X7167603Y-16345835D01*
X7177127Y-16336311D01*
X7196174Y-16326787D01*
X7348555Y-16507740D02*
X7358079Y-16517264D01*
X7348555Y-16526787D01*
X7339031Y-16517264D01*
X7348555Y-16507740D01*
X7348555Y-16526787D01*
X7481889Y-16326787D02*
X7500936Y-16326787D01*
X7519984Y-16336311D01*
X7529508Y-16345835D01*
X7539031Y-16364883D01*
X7548555Y-16402978D01*
X7548555Y-16450597D01*
X7539031Y-16488692D01*
X7529508Y-16507740D01*
X7519984Y-16517264D01*
X7500936Y-16526787D01*
X7481889Y-16526787D01*
X7462841Y-16517264D01*
X7453317Y-16507740D01*
X7443793Y-16488692D01*
X7434270Y-16450597D01*
X7434270Y-16402978D01*
X7443793Y-16364883D01*
X7453317Y-16345835D01*
X7462841Y-16336311D01*
X7481889Y-16326787D01*
X7719984Y-16393454D02*
X7719984Y-16526787D01*
X7672365Y-16317264D02*
X7624746Y-16460121D01*
X7748555Y-16460121D01*
X7862841Y-16326787D02*
X7881889Y-16326787D01*
X7900936Y-16336311D01*
X7910460Y-16345835D01*
X7919984Y-16364883D01*
X7929508Y-16402978D01*
X7929508Y-16450597D01*
X7919984Y-16488692D01*
X7910460Y-16507740D01*
X7900936Y-16517264D01*
X7881889Y-16526787D01*
X7862841Y-16526787D01*
X7843793Y-16517264D01*
X7834270Y-16507740D01*
X7824746Y-16488692D01*
X7815222Y-16450597D01*
X7815222Y-16402978D01*
X7824746Y-16364883D01*
X7834270Y-16345835D01*
X7843793Y-16336311D01*
X7862841Y-16326787D01*
X8053317Y-16326787D02*
X8072365Y-16326787D01*
X8091412Y-16336311D01*
X8100936Y-16345835D01*
X8110460Y-16364883D01*
X8119984Y-16402978D01*
X8119984Y-16450597D01*
X8110460Y-16488692D01*
X8100936Y-16507740D01*
X8091412Y-16517264D01*
X8072365Y-16526787D01*
X8053317Y-16526787D01*
X8034270Y-16517264D01*
X8024746Y-16507740D01*
X8015222Y-16488692D01*
X8005698Y-16450597D01*
X8005698Y-16402978D01*
X8015222Y-16364883D01*
X8024746Y-16345835D01*
X8034270Y-16336311D01*
X8053317Y-16326787D01*
X8196174Y-16326787D02*
X8196174Y-16364883D01*
X8272365Y-16326787D02*
X8272365Y-16364883D01*
X8567603Y-16602978D02*
X8558079Y-16593454D01*
X8539032Y-16564883D01*
X8529508Y-16545835D01*
X8519984Y-16517264D01*
X8510460Y-16469645D01*
X8510460Y-16431549D01*
X8519984Y-16383930D01*
X8529508Y-16355359D01*
X8539032Y-16336311D01*
X8558079Y-16307740D01*
X8567603Y-16298216D01*
X8729508Y-16326787D02*
X8691412Y-16326787D01*
X8672365Y-16336311D01*
X8662841Y-16345835D01*
X8643793Y-16374406D01*
X8634270Y-16412502D01*
X8634270Y-16488692D01*
X8643793Y-16507740D01*
X8653317Y-16517264D01*
X8672365Y-16526787D01*
X8710460Y-16526787D01*
X8729508Y-16517264D01*
X8739032Y-16507740D01*
X8748555Y-16488692D01*
X8748555Y-16441073D01*
X8739032Y-16422025D01*
X8729508Y-16412502D01*
X8710460Y-16402978D01*
X8672365Y-16402978D01*
X8653317Y-16412502D01*
X8643793Y-16422025D01*
X8634270Y-16441073D01*
X8986651Y-16526787D02*
X8986651Y-16326787D01*
X9072365Y-16526787D02*
X9072365Y-16422025D01*
X9062841Y-16402978D01*
X9043793Y-16393454D01*
X9015222Y-16393454D01*
X8996174Y-16402978D01*
X8986651Y-16412502D01*
X9196174Y-16526787D02*
X9177127Y-16517264D01*
X9167603Y-16507740D01*
X9158079Y-16488692D01*
X9158079Y-16431549D01*
X9167603Y-16412502D01*
X9177127Y-16402978D01*
X9196174Y-16393454D01*
X9224746Y-16393454D01*
X9243793Y-16402978D01*
X9253317Y-16412502D01*
X9262841Y-16431549D01*
X9262841Y-16488692D01*
X9253317Y-16507740D01*
X9243793Y-16517264D01*
X9224746Y-16526787D01*
X9196174Y-16526787D01*
X9377127Y-16526787D02*
X9358079Y-16517264D01*
X9348555Y-16498216D01*
X9348555Y-16326787D01*
X9529508Y-16517264D02*
X9510460Y-16526787D01*
X9472365Y-16526787D01*
X9453317Y-16517264D01*
X9443793Y-16498216D01*
X9443793Y-16422025D01*
X9453317Y-16402978D01*
X9472365Y-16393454D01*
X9510460Y-16393454D01*
X9529508Y-16402978D01*
X9539032Y-16422025D01*
X9539032Y-16441073D01*
X9443793Y-16460121D01*
X9615222Y-16517264D02*
X9634270Y-16526787D01*
X9672365Y-16526787D01*
X9691412Y-16517264D01*
X9700936Y-16498216D01*
X9700936Y-16488692D01*
X9691412Y-16469645D01*
X9672365Y-16460121D01*
X9643793Y-16460121D01*
X9624746Y-16450597D01*
X9615222Y-16431549D01*
X9615222Y-16422025D01*
X9624746Y-16402978D01*
X9643793Y-16393454D01*
X9672365Y-16393454D01*
X9691412Y-16402978D01*
X9767603Y-16602978D02*
X9777127Y-16593454D01*
X9796174Y-16564883D01*
X9805698Y-16545835D01*
X9815222Y-16517264D01*
X9824746Y-16469645D01*
X9824746Y-16431549D01*
X9815222Y-16383930D01*
X9805698Y-16355359D01*
X9796174Y-16336311D01*
X9777127Y-16307740D01*
X9767603Y-16298216D01*
D16*
X4940698Y-16755311D02*
X4995698Y-16700311D01*
X4940698Y-16645311D01*
X4885698Y-16700311D01*
X4940698Y-16755311D01*
D12*
X5358079Y-16790787D02*
X5243793Y-16790787D01*
X5300936Y-16790787D02*
X5300936Y-16590787D01*
X5281889Y-16619359D01*
X5262841Y-16638406D01*
X5243793Y-16647930D01*
X5443793Y-16771740D02*
X5453317Y-16781264D01*
X5443793Y-16790787D01*
X5434270Y-16781264D01*
X5443793Y-16771740D01*
X5443793Y-16790787D01*
X5643793Y-16790787D02*
X5529508Y-16790787D01*
X5586651Y-16790787D02*
X5586651Y-16590787D01*
X5567603Y-16619359D01*
X5548555Y-16638406D01*
X5529508Y-16647930D01*
X5767603Y-16590787D02*
X5786650Y-16590787D01*
X5805698Y-16600311D01*
X5815222Y-16609835D01*
X5824746Y-16628883D01*
X5834270Y-16666978D01*
X5834270Y-16714597D01*
X5824746Y-16752692D01*
X5815222Y-16771740D01*
X5805698Y-16781264D01*
X5786650Y-16790787D01*
X5767603Y-16790787D01*
X5748555Y-16781264D01*
X5739031Y-16771740D01*
X5729508Y-16752692D01*
X5719984Y-16714597D01*
X5719984Y-16666978D01*
X5729508Y-16628883D01*
X5739031Y-16609835D01*
X5748555Y-16600311D01*
X5767603Y-16590787D01*
X5958079Y-16590787D02*
X5977127Y-16590787D01*
X5996174Y-16600311D01*
X6005698Y-16609835D01*
X6015222Y-16628883D01*
X6024746Y-16666978D01*
X6024746Y-16714597D01*
X6015222Y-16752692D01*
X6005698Y-16771740D01*
X5996174Y-16781264D01*
X5977127Y-16790787D01*
X5958079Y-16790787D01*
X5939031Y-16781264D01*
X5929508Y-16771740D01*
X5919984Y-16752692D01*
X5910460Y-16714597D01*
X5910460Y-16666978D01*
X5919984Y-16628883D01*
X5929508Y-16609835D01*
X5939031Y-16600311D01*
X5958079Y-16590787D01*
X6110460Y-16790787D02*
X6110460Y-16657454D01*
X6110460Y-16676502D02*
X6119984Y-16666978D01*
X6139031Y-16657454D01*
X6167603Y-16657454D01*
X6186650Y-16666978D01*
X6196174Y-16686025D01*
X6196174Y-16790787D01*
X6196174Y-16686025D02*
X6205698Y-16666978D01*
X6224746Y-16657454D01*
X6253317Y-16657454D01*
X6272365Y-16666978D01*
X6281889Y-16686025D01*
X6281889Y-16790787D01*
X6377127Y-16790787D02*
X6377127Y-16657454D01*
X6377127Y-16676502D02*
X6386650Y-16666978D01*
X6405698Y-16657454D01*
X6434270Y-16657454D01*
X6453317Y-16666978D01*
X6462841Y-16686025D01*
X6462841Y-16790787D01*
X6462841Y-16686025D02*
X6472365Y-16666978D01*
X6491412Y-16657454D01*
X6519984Y-16657454D01*
X6539031Y-16666978D01*
X6548555Y-16686025D01*
X6548555Y-16790787D01*
X6939031Y-16581264D02*
X6767603Y-16838407D01*
X7196174Y-16590787D02*
X7215222Y-16590787D01*
X7234270Y-16600311D01*
X7243793Y-16609835D01*
X7253317Y-16628883D01*
X7262841Y-16666978D01*
X7262841Y-16714597D01*
X7253317Y-16752692D01*
X7243793Y-16771740D01*
X7234270Y-16781264D01*
X7215222Y-16790787D01*
X7196174Y-16790787D01*
X7177127Y-16781264D01*
X7167603Y-16771740D01*
X7158079Y-16752692D01*
X7148555Y-16714597D01*
X7148555Y-16666978D01*
X7158079Y-16628883D01*
X7167603Y-16609835D01*
X7177127Y-16600311D01*
X7196174Y-16590787D01*
X7348555Y-16771740D02*
X7358079Y-16781264D01*
X7348555Y-16790787D01*
X7339031Y-16781264D01*
X7348555Y-16771740D01*
X7348555Y-16790787D01*
X7481889Y-16590787D02*
X7500936Y-16590787D01*
X7519984Y-16600311D01*
X7529508Y-16609835D01*
X7539031Y-16628883D01*
X7548555Y-16666978D01*
X7548555Y-16714597D01*
X7539031Y-16752692D01*
X7529508Y-16771740D01*
X7519984Y-16781264D01*
X7500936Y-16790787D01*
X7481889Y-16790787D01*
X7462841Y-16781264D01*
X7453317Y-16771740D01*
X7443793Y-16752692D01*
X7434270Y-16714597D01*
X7434270Y-16666978D01*
X7443793Y-16628883D01*
X7453317Y-16609835D01*
X7462841Y-16600311D01*
X7481889Y-16590787D01*
X7719984Y-16657454D02*
X7719984Y-16790787D01*
X7672365Y-16581264D02*
X7624746Y-16724121D01*
X7748555Y-16724121D01*
X7805698Y-16590787D02*
X7929508Y-16590787D01*
X7862841Y-16666978D01*
X7891412Y-16666978D01*
X7910460Y-16676502D01*
X7919984Y-16686025D01*
X7929508Y-16705073D01*
X7929508Y-16752692D01*
X7919984Y-16771740D01*
X7910460Y-16781264D01*
X7891412Y-16790787D01*
X7834270Y-16790787D01*
X7815222Y-16781264D01*
X7805698Y-16771740D01*
X7996174Y-16590787D02*
X8119984Y-16590787D01*
X8053317Y-16666978D01*
X8081889Y-16666978D01*
X8100936Y-16676502D01*
X8110460Y-16686025D01*
X8119984Y-16705073D01*
X8119984Y-16752692D01*
X8110460Y-16771740D01*
X8100936Y-16781264D01*
X8081889Y-16790787D01*
X8024746Y-16790787D01*
X8005698Y-16781264D01*
X7996174Y-16771740D01*
X8196174Y-16590787D02*
X8196174Y-16628883D01*
X8272365Y-16590787D02*
X8272365Y-16628883D01*
X8567603Y-16866978D02*
X8558079Y-16857454D01*
X8539032Y-16828883D01*
X8529508Y-16809835D01*
X8519984Y-16781264D01*
X8510460Y-16733645D01*
X8510460Y-16695549D01*
X8519984Y-16647930D01*
X8529508Y-16619359D01*
X8539032Y-16600311D01*
X8558079Y-16571740D01*
X8567603Y-16562216D01*
X8672365Y-16676502D02*
X8653317Y-16666978D01*
X8643793Y-16657454D01*
X8634270Y-16638406D01*
X8634270Y-16628883D01*
X8643793Y-16609835D01*
X8653317Y-16600311D01*
X8672365Y-16590787D01*
X8710460Y-16590787D01*
X8729508Y-16600311D01*
X8739032Y-16609835D01*
X8748555Y-16628883D01*
X8748555Y-16638406D01*
X8739032Y-16657454D01*
X8729508Y-16666978D01*
X8710460Y-16676502D01*
X8672365Y-16676502D01*
X8653317Y-16686025D01*
X8643793Y-16695549D01*
X8634270Y-16714597D01*
X8634270Y-16752692D01*
X8643793Y-16771740D01*
X8653317Y-16781264D01*
X8672365Y-16790787D01*
X8710460Y-16790787D01*
X8729508Y-16781264D01*
X8739032Y-16771740D01*
X8748555Y-16752692D01*
X8748555Y-16714597D01*
X8739032Y-16695549D01*
X8729508Y-16686025D01*
X8710460Y-16676502D01*
X8986651Y-16790787D02*
X8986651Y-16590787D01*
X9072365Y-16790787D02*
X9072365Y-16686025D01*
X9062841Y-16666978D01*
X9043793Y-16657454D01*
X9015222Y-16657454D01*
X8996174Y-16666978D01*
X8986651Y-16676502D01*
X9196174Y-16790787D02*
X9177127Y-16781264D01*
X9167603Y-16771740D01*
X9158079Y-16752692D01*
X9158079Y-16695549D01*
X9167603Y-16676502D01*
X9177127Y-16666978D01*
X9196174Y-16657454D01*
X9224746Y-16657454D01*
X9243793Y-16666978D01*
X9253317Y-16676502D01*
X9262841Y-16695549D01*
X9262841Y-16752692D01*
X9253317Y-16771740D01*
X9243793Y-16781264D01*
X9224746Y-16790787D01*
X9196174Y-16790787D01*
X9377127Y-16790787D02*
X9358079Y-16781264D01*
X9348555Y-16762216D01*
X9348555Y-16590787D01*
X9529508Y-16781264D02*
X9510460Y-16790787D01*
X9472365Y-16790787D01*
X9453317Y-16781264D01*
X9443793Y-16762216D01*
X9443793Y-16686025D01*
X9453317Y-16666978D01*
X9472365Y-16657454D01*
X9510460Y-16657454D01*
X9529508Y-16666978D01*
X9539032Y-16686025D01*
X9539032Y-16705073D01*
X9443793Y-16724121D01*
X9615222Y-16781264D02*
X9634270Y-16790787D01*
X9672365Y-16790787D01*
X9691412Y-16781264D01*
X9700936Y-16762216D01*
X9700936Y-16752692D01*
X9691412Y-16733645D01*
X9672365Y-16724121D01*
X9643793Y-16724121D01*
X9624746Y-16714597D01*
X9615222Y-16695549D01*
X9615222Y-16686025D01*
X9624746Y-16666978D01*
X9643793Y-16657454D01*
X9672365Y-16657454D01*
X9691412Y-16666978D01*
X9767603Y-16866978D02*
X9777127Y-16857454D01*
X9796174Y-16828883D01*
X9805698Y-16809835D01*
X9815222Y-16781264D01*
X9824746Y-16733645D01*
X9824746Y-16695549D01*
X9815222Y-16647930D01*
X9805698Y-16619359D01*
X9796174Y-16600311D01*
X9777127Y-16571740D01*
X9767603Y-16562216D01*
M02*
