%TF.GenerationSoftware,KiCad,Pcbnew,(6.0.7)*%
%TF.CreationDate,2022-08-23T13:49:22-07:00*%
%TF.ProjectId,DC31_Cnet_Badge_Rear,44433331-5f43-46e6-9574-5f4261646765,rev?*%
%TF.SameCoordinates,Original*%
%TF.FileFunction,Profile,NP*%
%FSLAX46Y46*%
G04 Gerber Fmt 4.6, Leading zero omitted, Abs format (unit mm)*
G04 Created by KiCad (PCBNEW (6.0.7)) date 2022-08-23 13:49:22*
%MOMM*%
%LPD*%
G01*
G04 APERTURE LIST*
%TA.AperFunction,Profile*%
%ADD10C,0.464309*%
%TD*%
%TA.AperFunction,Profile*%
%ADD11C,0.100000*%
%TD*%
G04 APERTURE END LIST*
D10*
X50732155Y-66029492D02*
X50791676Y-66108369D01*
X50431011Y-65411546D02*
X50461188Y-65505709D01*
X149083156Y-149354247D02*
X149155720Y-149291391D01*
X149770308Y-148214116D02*
X149787899Y-148115635D01*
X64886765Y-50362754D02*
X64792808Y-50340878D01*
X50212176Y-148115605D02*
X50229762Y-148214078D01*
X50405293Y-65315867D02*
X50431011Y-65411546D01*
X143905038Y-76564588D02*
X142707878Y-74447796D01*
X121264952Y-55003747D02*
X119045309Y-54020284D01*
X92835825Y-50762263D02*
X91069696Y-51054729D01*
X57879847Y-73419272D02*
X57911782Y-73444397D01*
X51884339Y-149787881D02*
X51984422Y-149800609D01*
X50922425Y-63383679D02*
X50922425Y-63383679D01*
X50191738Y-147913981D02*
X50199460Y-148015531D01*
X51785979Y-135229769D02*
X51689226Y-135252103D01*
X148115635Y-149787899D02*
X148214116Y-149770308D01*
X50279074Y-136594308D02*
X50252121Y-136689207D01*
X149800635Y-136984545D02*
X149787918Y-136884471D01*
X58627816Y-127613237D02*
X60035011Y-129609985D01*
X50645848Y-135916920D02*
X50586478Y-135992467D01*
X135191277Y-64808575D02*
X133402982Y-63106793D01*
X52085981Y-149808344D02*
X52188892Y-149810959D01*
X63654116Y-50456140D02*
X63566356Y-50496291D01*
X50530720Y-136070874D02*
X50478701Y-136152013D01*
X109754488Y-51197084D02*
X107349117Y-50777396D01*
X50461188Y-65505709D02*
X50495758Y-65598187D01*
X50189136Y-147811081D02*
X50189136Y-147811081D01*
X63743667Y-50420454D02*
X63654116Y-50456140D01*
X129608896Y-59997562D02*
X127611263Y-58593493D01*
X148678198Y-135386412D02*
X148589616Y-135346356D01*
X63396856Y-50589714D02*
X63315438Y-50642848D01*
X50676626Y-63693155D02*
X50625154Y-63777232D01*
X149225260Y-135774975D02*
X149155810Y-135708756D01*
X148310869Y-149747973D02*
X148405768Y-149721021D01*
X64116558Y-50323743D02*
X64021454Y-50340878D01*
X50478701Y-136152013D02*
X50430546Y-136235760D01*
X135144157Y-135189117D02*
X136849096Y-133402288D01*
X51410480Y-149653720D02*
X51501293Y-149689535D01*
X147811203Y-135189117D02*
X147811203Y-135189117D01*
X139964653Y-129610560D02*
X141371878Y-127613826D01*
X149613768Y-136322053D02*
X149569608Y-136235828D01*
X149810959Y-137188995D02*
X149810959Y-137188995D01*
X96401340Y-50368222D02*
X94613597Y-50533261D01*
X50189136Y-137188995D02*
X50189136Y-147811081D01*
X149521393Y-148848063D02*
X149569549Y-148764317D01*
X50232025Y-100000042D02*
X50232025Y-100000042D01*
X149704415Y-102468959D02*
X149768082Y-100000050D01*
X77560515Y-55619315D02*
X75974434Y-56460513D01*
X143876738Y-123439032D02*
X144970979Y-121269138D01*
X50480581Y-104920734D02*
X50785105Y-107351683D01*
X63236456Y-50700171D02*
X63160073Y-50761614D01*
X65798519Y-50896586D02*
X65798519Y-50896586D01*
X51785860Y-149770283D02*
X51884339Y-149787881D01*
X57944217Y-73468851D02*
X57944217Y-73468851D01*
X94613597Y-50533261D02*
X92835825Y-50762263D01*
X50676626Y-65947931D02*
X50732155Y-66029492D01*
X135144157Y-135189117D02*
X135144157Y-135189117D01*
X50518906Y-94743404D02*
X50361722Y-96488423D01*
X149354247Y-149083156D02*
X149413617Y-149007609D01*
X72663802Y-57991850D02*
X72620382Y-57942239D01*
X57029961Y-74971839D02*
X56171224Y-76502791D01*
X52726179Y-84522501D02*
X52210068Y-86188528D01*
X72575367Y-57894091D02*
X72575367Y-57894091D01*
X51501293Y-149689535D02*
X51594211Y-149720985D01*
X149706914Y-97532163D02*
X149524544Y-95081030D01*
X52188892Y-149810959D02*
X52188892Y-149810959D01*
X50625154Y-63777232D02*
X50577808Y-63863660D01*
X50386327Y-148678023D02*
X50430487Y-148764249D01*
X72889048Y-58317841D02*
X72855865Y-58260352D01*
X51410592Y-135346310D02*
X51322008Y-135386361D01*
X148214116Y-149770308D02*
X148310869Y-149747973D01*
X50844376Y-135708686D02*
X50774922Y-135774903D01*
X149787899Y-148115635D02*
X149800622Y-148015552D01*
X51235672Y-149569494D02*
X51321897Y-149613664D01*
X63927497Y-50362754D02*
X63834848Y-50389302D01*
X136849096Y-133402288D02*
X138456493Y-131541408D01*
X50774922Y-135774903D02*
X50708704Y-135844357D01*
X100000050Y-50232027D02*
X98197382Y-50267644D01*
X50495758Y-64042899D02*
X50461188Y-64135378D01*
X148015552Y-149800622D02*
X148115635Y-149787899D01*
X149810959Y-147811081D02*
X149810959Y-147811081D01*
X89316883Y-51410161D02*
X87579058Y-51828059D01*
X54622120Y-79642359D02*
X53932658Y-81247859D01*
X149810959Y-137188995D02*
X149808357Y-137086095D01*
X50430487Y-148764249D02*
X50478638Y-148847993D01*
X50992487Y-135586459D02*
X50916939Y-135645829D01*
X50346281Y-148589442D02*
X50386327Y-148678023D01*
X51984543Y-135199454D02*
X51884460Y-135212177D01*
X50199472Y-136984524D02*
X50191744Y-137086084D01*
X51235779Y-135430527D02*
X51152032Y-135478683D01*
X50625154Y-65863854D02*
X50676626Y-65947931D01*
X149748004Y-136689252D02*
X149721057Y-136594359D01*
X99999874Y-50232033D02*
X99999874Y-50232033D01*
X149521457Y-136152083D02*
X149469443Y-136070946D01*
X50348349Y-64719777D02*
X50345930Y-64820543D01*
X75974434Y-56460513D02*
X74416721Y-57360188D01*
X51689108Y-149747942D02*
X51785860Y-149770283D01*
X116780361Y-53146196D02*
X114474189Y-52383174D01*
X50855122Y-63456690D02*
X50791676Y-63532717D01*
X50361722Y-96488423D02*
X50265944Y-98241155D01*
X74416721Y-57360188D02*
X72889048Y-58317841D01*
X57699272Y-73254911D02*
X57728006Y-73283884D01*
X65498824Y-50642848D02*
X65417406Y-50589714D01*
X125552008Y-57292041D02*
X123435211Y-56094896D01*
X127611263Y-58593493D02*
X125552008Y-57292041D01*
X63160073Y-50761614D02*
X63086448Y-50827109D01*
X57817515Y-73367045D02*
X57848421Y-73393485D01*
X50495758Y-65598187D02*
X50534654Y-65688815D01*
X57728006Y-73283884D02*
X57757297Y-73312236D01*
X53165256Y-116784213D02*
X54042323Y-119049110D01*
X52189014Y-135189117D02*
X52086103Y-135191726D01*
X141406411Y-72388548D02*
X140002328Y-70390923D01*
X147811081Y-149810959D02*
X147913992Y-149808351D01*
X57911782Y-73444397D02*
X57944217Y-73468851D01*
X82472236Y-53451565D02*
X80811088Y-54114342D01*
X149524544Y-95081030D02*
X149222660Y-92650730D01*
X50189136Y-147811081D02*
X50191738Y-147913981D01*
X72705595Y-58042881D02*
X72663802Y-57991850D01*
X50844285Y-149291321D02*
X50916845Y-149354179D01*
X72745730Y-58095290D02*
X72705595Y-58042881D01*
X149613715Y-148678088D02*
X149653766Y-148589503D01*
X148214236Y-135229793D02*
X148115756Y-135212196D01*
X50384100Y-64422250D02*
X50367501Y-64520464D01*
X136893071Y-66596857D02*
X135191277Y-64808575D01*
X57699272Y-73254911D02*
X57699272Y-73254911D01*
X50992389Y-149413552D02*
X51070792Y-149469312D01*
X51594211Y-149720985D02*
X51689108Y-149747942D01*
X50229787Y-136785960D02*
X50212195Y-136884441D01*
X147913992Y-149808351D02*
X148015552Y-149800622D01*
X149155720Y-149291391D02*
X149225173Y-149225173D01*
X52086103Y-135191726D02*
X51984543Y-135199454D01*
X50732155Y-63611594D02*
X50676626Y-63693155D01*
X50577808Y-63863660D02*
X50534654Y-63952271D01*
X148498803Y-135310541D02*
X148405885Y-135279092D01*
X55028810Y-121268544D02*
X56123019Y-123438433D01*
X50310518Y-136501388D02*
X50279074Y-136594308D01*
X148678088Y-149613715D02*
X148764317Y-149569549D01*
X72620382Y-57942239D02*
X72575367Y-57894091D01*
X149768082Y-100000050D02*
X149706914Y-97532163D01*
X50355562Y-65021392D02*
X50367501Y-65120623D01*
X149653766Y-148589503D02*
X149689576Y-148498688D01*
X51321897Y-149613664D02*
X51410480Y-149653720D01*
X148764424Y-135430582D02*
X148678198Y-135386412D01*
X60035011Y-129609985D02*
X61543142Y-131540852D01*
X65727815Y-50827109D02*
X65654190Y-50761614D01*
X85857894Y-52307925D02*
X84155062Y-52849260D01*
X147811203Y-135189117D02*
X135144157Y-135189117D01*
X148929304Y-135530764D02*
X148848168Y-135478742D01*
X145957500Y-119049688D02*
X146834601Y-116784767D01*
X140002328Y-70390923D02*
X138497318Y-68458999D01*
X51151928Y-149521335D02*
X51235672Y-149569494D01*
X149007609Y-149413617D02*
X149083156Y-149354247D01*
X53932658Y-81247859D02*
X53300527Y-82875092D01*
X50645770Y-149083084D02*
X50708622Y-149155647D01*
X51884460Y-135212177D02*
X51785979Y-135229769D01*
X50367501Y-65120623D02*
X50384100Y-65218837D01*
X51501407Y-135310500D02*
X51410592Y-135346310D01*
X147616827Y-85525617D02*
X146853787Y-83219439D01*
X54042323Y-119049110D02*
X55028810Y-121268544D01*
X72820897Y-58204069D02*
X72784175Y-58149034D01*
X149747973Y-148310869D02*
X149770308Y-148214116D01*
X146834601Y-116784767D02*
X147600588Y-114478457D01*
X50855122Y-66184396D02*
X50922425Y-66257406D01*
X149569549Y-148764317D02*
X149613715Y-148678088D01*
X50785105Y-107351683D02*
X51207531Y-109757590D01*
X149787918Y-136884471D02*
X149770333Y-136785998D01*
X51354366Y-89570203D02*
X51015680Y-91282736D01*
X142676472Y-125555289D02*
X143876738Y-123439032D01*
X114474189Y-52383174D02*
X112130872Y-51732907D01*
X50737043Y-93007656D02*
X50518906Y-94743404D01*
X50791676Y-66108369D02*
X50855122Y-66184396D01*
X72855865Y-58260352D02*
X72820897Y-58204069D01*
X64601617Y-50311418D02*
X64504705Y-50303973D01*
X50191744Y-137086084D02*
X50189136Y-137188995D01*
X148015673Y-135199467D02*
X147914114Y-135191732D01*
X51070792Y-149469312D02*
X51151928Y-149521335D01*
X50461188Y-64135378D02*
X50431011Y-64229540D01*
X148405768Y-149721021D02*
X148498688Y-149689576D01*
X123435211Y-56094896D02*
X121264952Y-55003747D01*
X149569608Y-136235828D02*
X149521457Y-136152083D01*
X149721021Y-148405768D02*
X149747973Y-148310869D01*
X63015743Y-50896586D02*
X63015743Y-50896586D01*
X147600588Y-114478457D02*
X148253764Y-112134839D01*
X149155810Y-135708756D02*
X149083251Y-135645897D01*
X63015743Y-50896586D02*
X50922425Y-63383679D01*
X50212195Y-136884441D02*
X50199472Y-136984524D01*
X56171224Y-76502791D02*
X55368459Y-78060150D01*
X135191277Y-64808575D02*
X135191277Y-64808575D01*
X149800622Y-148015552D02*
X149808351Y-147913992D01*
X50916939Y-135645829D02*
X50844376Y-135708686D01*
X149354325Y-135916993D02*
X149291473Y-135844429D01*
X51152032Y-135478683D02*
X51070893Y-135530702D01*
X64855423Y-135188606D02*
X52189014Y-135189117D01*
X72889048Y-58317841D02*
X72889048Y-58317841D01*
X61543142Y-131540852D02*
X63150511Y-133401754D01*
X65417406Y-50589714D02*
X65333713Y-50540839D01*
X80811088Y-54114342D02*
X79173290Y-54837091D01*
X64792808Y-50340878D02*
X64697705Y-50323743D01*
X57787137Y-73339959D02*
X57817515Y-73367045D01*
X149653814Y-136410634D02*
X149613768Y-136322053D01*
X149225173Y-149225173D02*
X149291391Y-149155720D01*
X51015680Y-91282736D02*
X50737043Y-93007656D01*
X50534654Y-63952271D02*
X50495758Y-64042899D01*
X50774836Y-149225101D02*
X50844285Y-149291321D01*
X148589503Y-149653766D02*
X148678088Y-149613715D01*
X149689576Y-148498688D02*
X149721021Y-148405768D01*
X148267112Y-87868944D02*
X147616827Y-85525617D01*
X50530652Y-148929131D02*
X50586405Y-149007536D01*
X148310987Y-135252134D02*
X148214236Y-135229793D01*
X64979415Y-50389302D02*
X64886765Y-50362754D01*
X52189014Y-135189117D02*
X52189014Y-135189117D01*
X148589616Y-135346356D02*
X148498803Y-135310541D01*
X64407131Y-50301476D02*
X64407131Y-50301476D01*
X53300527Y-82875092D02*
X52726179Y-84522501D01*
X148405885Y-135279092D02*
X148310987Y-135252134D01*
X51746163Y-112134369D02*
X52399303Y-114477939D01*
X51689226Y-135252103D02*
X51594327Y-135279056D01*
X50922425Y-66257406D02*
X57699272Y-73254911D01*
X65654190Y-50761614D02*
X65577806Y-50700171D01*
X50265944Y-98241155D02*
X50232025Y-100000042D01*
X50916845Y-149354179D02*
X50992389Y-149413552D01*
X50252091Y-148310824D02*
X50279037Y-148405717D01*
X149291473Y-135844429D02*
X149225260Y-135774975D01*
X64697705Y-50323743D02*
X64601617Y-50311418D01*
X148848063Y-149521393D02*
X148929203Y-149469374D01*
X50586478Y-135992467D02*
X50530720Y-136070874D01*
X147811081Y-149810959D02*
X147811081Y-149810959D01*
X52188892Y-149810959D02*
X147811081Y-149810959D01*
X57757297Y-73312236D02*
X57787137Y-73339959D01*
X91069696Y-51054729D02*
X89316883Y-51410161D01*
X65160146Y-50456140D02*
X65070596Y-50420454D01*
X72575367Y-57894091D02*
X65798519Y-50896586D01*
X50384100Y-65218837D02*
X50405293Y-65315867D01*
X98197382Y-50267644D02*
X96401340Y-50368222D01*
X64309557Y-50303973D02*
X64212646Y-50311418D01*
X63315438Y-50642848D02*
X63236456Y-50700171D01*
X50232025Y-100000042D02*
X50295655Y-102468826D01*
X55368459Y-78060150D02*
X54622120Y-79642359D01*
X149469374Y-148929203D02*
X149521393Y-148848063D01*
X145979683Y-80954489D02*
X144996203Y-78734846D01*
X50922425Y-63383679D02*
X50855122Y-63456690D01*
X64212646Y-50311418D02*
X64116558Y-50323743D01*
X50345930Y-64820543D02*
X50348350Y-64921310D01*
X50431011Y-64229540D02*
X50405292Y-64325220D01*
X149689619Y-136501445D02*
X149653814Y-136410634D01*
X149413691Y-135992540D02*
X149354325Y-135916993D01*
X56123019Y-123438433D02*
X57323253Y-125554692D01*
X50367501Y-64520464D02*
X50355562Y-64619695D01*
X142707878Y-74447796D02*
X141406411Y-72388548D01*
X149808357Y-137086095D02*
X149800635Y-136984545D01*
X84155062Y-52849260D02*
X82472236Y-53451565D01*
X51207531Y-109757590D02*
X51746163Y-112134369D01*
X149768082Y-100000050D02*
X149768082Y-100000050D01*
X102467731Y-50293180D02*
X99999874Y-50232033D01*
X148792431Y-109757998D02*
X149214893Y-107352016D01*
X50295655Y-102468826D02*
X50480581Y-104920734D01*
X57848421Y-73393485D02*
X57879847Y-73419272D01*
X50577808Y-65777426D02*
X50625154Y-65863854D01*
X64504705Y-50303973D02*
X64407131Y-50301476D01*
X50534654Y-65688815D02*
X50577808Y-65777426D01*
X104918838Y-50475531D02*
X102467731Y-50293180D01*
X99999874Y-50232033D02*
X100000050Y-50232027D01*
X65070596Y-50420454D02*
X64979415Y-50389302D01*
D11*
X91900000Y-56200000D02*
G75*
G03*
X91900000Y-56200000I-2000000J0D01*
G01*
D10*
X50405292Y-64325220D02*
X50384100Y-64422250D01*
X57323253Y-125554692D02*
X58627816Y-127613237D01*
X148115756Y-135212196D02*
X148015673Y-135199467D01*
X50430546Y-136235760D02*
X50386380Y-136321988D01*
X50199460Y-148015531D02*
X50212176Y-148115605D01*
X148498688Y-149689576D02*
X148589503Y-149653766D01*
X149222660Y-92650730D02*
X148802953Y-90245341D01*
X50586405Y-149007536D02*
X50645770Y-149083084D01*
X50708622Y-149155647D02*
X50774836Y-149225101D01*
X50189136Y-137188995D02*
X50189136Y-137188995D01*
X64407131Y-50301476D02*
X64309557Y-50303973D01*
X64021454Y-50340878D02*
X63927497Y-50362754D01*
X51752646Y-87871614D02*
X51354366Y-89570203D01*
X57944217Y-73468851D02*
X57029961Y-74971839D01*
X52210068Y-86188528D02*
X51752646Y-87871614D01*
X149519453Y-104920975D02*
X149704415Y-102468959D01*
X65333713Y-50540839D02*
X65247906Y-50496291D01*
X51322008Y-135386361D02*
X51235779Y-135430527D01*
X87579058Y-51828059D02*
X85857894Y-52307925D01*
X52399303Y-114477939D02*
X53165256Y-116784213D01*
X50252121Y-136689207D02*
X50229787Y-136785960D01*
X50229762Y-148214078D02*
X50252091Y-148310824D01*
X149291391Y-149155720D02*
X149354247Y-149083156D01*
X149413617Y-149007609D02*
X149469374Y-148929203D01*
X51070893Y-135530702D02*
X50992487Y-135586459D01*
X146853787Y-83219439D02*
X145979683Y-80954489D01*
X138456493Y-131541408D02*
X139964653Y-129610560D01*
X72784175Y-58149034D02*
X72745730Y-58095290D01*
X144970979Y-121269138D02*
X145957500Y-119049688D01*
X50708704Y-135844357D02*
X50645848Y-135916920D01*
X144996203Y-78734846D02*
X143905038Y-76564588D01*
X149721057Y-136594359D02*
X149689619Y-136501445D01*
X50348350Y-64921310D02*
X50355562Y-65021392D01*
X63834848Y-50389302D02*
X63743667Y-50420454D01*
X50922425Y-66257406D02*
X50922425Y-66257406D01*
X63566356Y-50496291D02*
X63480549Y-50540839D01*
X149770333Y-136785998D02*
X149748004Y-136689252D01*
X119045309Y-54020284D02*
X116780361Y-53146196D01*
X147914114Y-135191732D02*
X147811203Y-135189117D01*
X141371878Y-127613826D02*
X142676472Y-125555289D01*
X112130872Y-51732907D02*
X109754488Y-51197084D01*
X148253764Y-112134839D02*
X148792431Y-109757998D01*
X51984422Y-149800609D02*
X52085981Y-149808344D01*
X50346328Y-136410573D02*
X50310518Y-136501388D01*
X65798519Y-50896586D02*
X65727815Y-50827109D01*
X50279037Y-148405717D02*
X50310476Y-148498632D01*
X50791676Y-63532717D02*
X50732155Y-63611594D01*
X149214893Y-107352016D02*
X149519453Y-104920975D01*
X133402982Y-63106793D02*
X131540829Y-61502559D01*
X149808351Y-147913992D02*
X149810959Y-147811081D01*
X63480549Y-50540839D02*
X63396856Y-50589714D01*
X50345930Y-64820543D02*
X50345930Y-64820543D01*
X131540829Y-61502559D02*
X129608896Y-59997562D01*
X63150511Y-133401754D02*
X64855423Y-135188606D01*
X149007707Y-135586525D02*
X148929304Y-135530764D01*
X51594327Y-135279056D02*
X51501407Y-135310500D01*
X138497318Y-68458999D02*
X136893071Y-66596857D01*
X107349117Y-50777396D02*
X104918838Y-50475531D01*
X148848168Y-135478742D02*
X148764424Y-135430582D01*
X149469443Y-136070946D02*
X149413691Y-135992540D01*
X149083251Y-135645897D02*
X149007707Y-135586525D01*
X148802953Y-90245341D02*
X148267112Y-87868944D01*
X65247906Y-50496291D02*
X65160146Y-50456140D01*
X50310476Y-148498632D02*
X50346281Y-148589442D01*
X148929203Y-149469374D02*
X149007609Y-149413617D01*
X50478638Y-148847993D02*
X50530652Y-148929131D01*
X148764317Y-149569549D02*
X148848063Y-149521393D01*
X50355562Y-64619695D02*
X50348349Y-64719777D01*
X63086448Y-50827109D02*
X63015743Y-50896586D01*
X65577806Y-50700171D02*
X65498824Y-50642848D01*
X50386380Y-136321988D02*
X50346328Y-136410573D01*
X79173290Y-54837091D02*
X77560515Y-55619315D01*
X64855423Y-135188606D02*
X64855423Y-135188606D01*
X149810959Y-147811081D02*
X149810959Y-137188995D01*
M02*
