M48
; DRILL file {KiCad (6.0.7)} date Tue Aug 23 13:49:26 2022
; FORMAT={-:-/ absolute / inch / decimal}
; #@! TF.CreationDate,2022-08-23T13:49:26-07:00
; #@! TF.GenerationSoftware,Kicad,Pcbnew,(6.0.7)
; #@! TF.FileFunction,Plated,1,2,PTH
FMAT,2
INCH
; #@! TA.AperFunction,Plated,PTH,ViaDrill
T1C0.0157
; #@! TA.AperFunction,Plated,PTH,ComponentDrill
T2C0.0295
; #@! TA.AperFunction,Plated,PTH,ComponentDrill
T3C0.0394
; #@! TA.AperFunction,Plated,PTH,ComponentDrill
T4C0.0400
; #@! TA.AperFunction,Plated,PTH,ComponentDrill
T5C0.0433
%
G90
G05
T1
X2.2677Y-4.4528
X2.378Y-2.189
X2.563Y-3.0984
X2.6417Y-3.0039
X2.6417Y-4.6693
X3.3543Y-3.6339
X3.4528Y-3.5315
X3.4724Y-3.4134
X3.7441Y-4.6142
X4.1299Y-2.8228
X4.3425Y-4.2402
X4.5591Y-2.8622
X4.7677Y-4.0709
T2
X5.563Y-4.5157
X5.563Y-4.5945
T3
X2.2954Y-2.436
X2.3368Y-4.9161
X2.3661Y-2.3652
X2.3661Y-2.5067
X2.3933Y-4.9968
X2.4368Y-2.2945
X2.4368Y-2.436
X2.44Y-4.8439
X2.4497Y-5.0774
X2.4965Y-4.9245
X2.5075Y-2.3652
X2.5529Y-5.0051
X2.5886Y-5.561
X2.5886Y-5.661
X2.6886Y-5.561
X2.6886Y-5.661
X3.8862Y-2.0876
X3.9862Y-2.0876
X5.187Y-5.561
X5.187Y-5.661
X5.2126Y-2.7559
X5.2126Y-2.8559
X5.2126Y-2.9559
X5.2126Y-3.0559
X5.2126Y-3.1559
X5.2126Y-3.2559
X5.287Y-5.561
X5.287Y-5.661
T4
X2.3799Y-3.7121
X2.5019Y-4.0131
X2.7349Y-2.8641
X3.3549Y-2.7421
X3.6529Y-4.2451
X3.8829Y-4.0141
X4.5719Y-3.637
X4.5719Y-4.237
X4.6719Y-3.637
X4.6719Y-4.237
X4.7719Y-3.637
X4.7719Y-4.237
X4.8719Y-3.637
X4.8719Y-4.237
X4.9719Y-3.637
X4.9719Y-4.237
X5.0719Y-3.637
X5.0719Y-4.237
X5.1719Y-3.637
X5.1719Y-4.237
X5.2719Y-3.637
X5.2719Y-4.237
X5.3719Y-3.637
X5.3719Y-4.237
X5.4719Y-3.637
X5.4719Y-4.237
X5.5719Y-3.637
X5.5719Y-4.237
X5.6719Y-3.637
X5.6719Y-4.237
T5
X2.1358Y-5.5217
X2.1358Y-5.6988
X2.3917Y-5.5217
X2.3917Y-5.6988
X5.4823Y-5.5217
X5.4823Y-5.6988
X5.7382Y-5.5217
X5.7382Y-5.6988
T0
M30
